<?xml version="1.0" encoding="utf-8"?>
<!-- Generator: Adobe Illustrator 28.1.0, SVG Export Plug-In . SVG Version: 6.00 Build 0)  -->
<svg version="1.1" id="Capa_1" xmlns="http://www.w3.org/2000/svg" xmlns:xlink="http://www.w3.org/1999/xlink" x="0px" y="0px"
	 viewBox="0 0 48 48" style="enable-background:new 0 0 48 48;" xml:space="preserve">
<style type="text/css">
	.st0{clip-path:url(#SVGID_00000160158828380483112960000010344100932761214092_);}
	.st1{fill:#FFFFFF;}
</style>
<g id="Grupo_5450" transform="translate(14.612 11.157)">
	<g>
		<g>
			<defs>
				<rect id="SVGID_1_" x="-5" y="-3.1" width="28.7" height="31.9"/>
			</defs>
			<clipPath id="SVGID_00000090294408732116905440000002966403571616520358_">
				<use xlink:href="#SVGID_1_"  style="overflow:visible;"/>
			</clipPath>
			<g id="Grupo_5449" style="clip-path:url(#SVGID_00000090294408732116905440000002966403571616520358_);">
				<path id="Trazado_2598" class="st1" d="M20.6,0.1h-6.7c-0.9-2.5-3.6-3.8-6.1-3c-1.4,0.5-2.4,1.6-2.9,3h-6.7
					C-3.6,0.1-5,1.5-5,3.3v22.4c0,1.8,1.4,3.2,3.2,3.2h22.4c1.8,0,3.2-1.4,3.2-3.2V3.3C23.8,1.5,22.3,0.1,20.6,0.1 M9.4,0.1
					c0.9,0,1.6,0.7,1.6,1.6s-0.7,1.6-1.6,1.6S7.8,2.6,7.8,1.7S8.5,0.1,9.4,0.1L9.4,0.1 M12.4,8.9v6.4h4.8l-8,8l-8-8H6V8.9H12.4z"/>
			</g>
		</g>
	</g>
</g>
</svg>
