<svg id="Grupo_636" data-name="Grupo 636" xmlns="http://www.w3.org/2000/svg" xmlns:xlink="http://www.w3.org/1999/xlink" width="41.353" height="41.334" viewBox="0 0 41.353 41.334">
  <defs>
    <clipPath id="clip-path">
      <rect id="Rectángulo_555" data-name="Rectángulo 555" width="41.353" height="41.334" fill="none"/>
    </clipPath>
  </defs>
  <g id="Grupo_634" data-name="Grupo 634" clip-path="url(#clip-path)">
    <path id="Trazado_890" data-name="Trazado 890" d="M164.845,9.521a2.726,2.726,0,0,1,.38-.579c.194-.237.336-.511.536-.741.133-.153.226-.333.362-.482a4.811,4.811,0,0,0,.42-.48c.135-.194.328-.332.453-.534a3.359,3.359,0,0,1,.417-.414c.224-.248.48-.465.7-.716a1.077,1.077,0,0,1,.283-.24.452.452,0,0,0,.143-.133.357.357,0,0,1,.121-.126,1.858,1.858,0,0,0,.407-.325c.312-.257.616-.524.946-.758.312-.221.647-.412.953-.641a9.065,9.065,0,0,1,.974-.6,14.913,14.913,0,0,1,1.705-.88c.4-.163.787-.353,1.192-.5a21.762,21.762,0,0,1,2.7-.827A21,21,0,0,1,180.148.11,21.439,21.439,0,0,1,182.664,0a20.547,20.547,0,0,1,2.06.144,21.989,21.989,0,0,1,2.745.513c.337.085.664.2,1,.289s.657.213.98.332a24.987,24.987,0,0,1,2.4,1.069,20.852,20.852,0,0,1,3.142,2.025,20.325,20.325,0,0,1,2.654,2.48c.338.375.65.77.97,1.159a17.9,17.9,0,0,1,1.068,1.512,18.857,18.857,0,0,1,.984,1.7.188.188,0,0,1,.01.037c-.105,0-.21,0-.315,0l-17.318,0c-.065,0-.131.006-.2.009a9.521,9.521,0,0,0-2.542.2,9.349,9.349,0,0,0-6.036,4.257,12.88,12.88,0,0,0-.733,1.408,5.789,5.789,0,0,0-.3.932,9.913,9.913,0,0,0-.346,3.211v.006c.007.039.017.077.019.116a8.994,8.994,0,0,0,.63,2.741.577.577,0,0,1,.089.274c-.072-.009-.083-.076-.11-.123q-1.248-2.127-2.492-4.256c-.545-.934-1.082-1.871-1.626-2.805q-1.153-1.981-2.311-3.96Q166.045,11.494,165,9.71c-.041-.07-.06-.164-.158-.189" transform="translate(-161.595 0)" fill="#fe4e40"/>
    <path id="Trazado_891" data-name="Trazado 891" d="M3.251,482.88c.1.025.117.119.158.189q1.043,1.783,2.083,3.569,1.155,1.98,2.311,3.96c.544.934,1.081,1.872,1.626,2.805q1.243,2.13,2.492,4.256c.028.047.038.114.11.124l0,0a.055.055,0,0,0,.042.082l0,0a.079.079,0,0,0,.035.089.322.322,0,0,1,.034.047,9.835,9.835,0,0,0,1.556,2.329,9.652,9.652,0,0,0,1.391,1.27,8.879,8.879,0,0,0,1.591.945,9.422,9.422,0,0,0,11.8-3.262,4.256,4.256,0,0,1-.37.692q-2.831,4.954-5.666,9.905c-.229.4-.476.788-.706,1.187-.149.258-.277.528-.423.788-.28.5-.569.989-.849,1.487-.25.445-.522.879-.75,1.337a9.351,9.351,0,0,1-1.1-.074.5.5,0,0,0-.206-.023l-.187-.019a.338.338,0,0,0-.161-.022c-.528-.053-1.048-.154-1.569-.251-.388-.072-.769-.173-1.158-.241-.231-.04-.443-.169-.674-.228a3.883,3.883,0,0,0-.49-.122.633.633,0,0,1-.195-.072.956.956,0,0,0-.379-.138.3.3,0,0,1-.193-.078,1.11,1.11,0,0,0-.373-.155c-.245-.1-.484-.217-.731-.312-.37-.143-.71-.346-1.069-.511-.3-.135-.57-.308-.851-.467-.118-.067-.251-.1-.364-.18-.363-.249-.723-.5-1.095-.737s-.7-.509-1.046-.761a4.5,4.5,0,0,1-.638-.522,4.97,4.97,0,0,1-.5-.45,3.106,3.106,0,0,0-.368-.321,11.917,11.917,0,0,1-.843-.88c-.181-.219-.391-.417-.575-.633-.325-.38-.623-.784-.922-1.185-.219-.294-.418-.6-.635-.9-.142-.194-.251-.408-.384-.608-.158-.238-.291-.491-.431-.739s-.28-.509-.411-.769c-.144-.287-.279-.579-.417-.868a2.2,2.2,0,0,1-.171-.421,2.063,2.063,0,0,0-.1-.206c-.075-.2-.142-.408-.217-.61-.04-.107-.1-.205-.138-.313-.056-.163-.093-.333-.147-.5A12.717,12.717,0,0,1,.5,498.7c-.062-.326-.129-.653-.182-.982a3.332,3.332,0,0,1-.1-.427c-.009-.418-.1-.827-.134-1.241a25.164,25.164,0,0,1-.074-3.01,1.59,1.59,0,0,0,0-.581c.135-.734.178-1.48.317-2.214.044-.233.069-.477.129-.7.076-.282.155-.566.221-.85.118-.5.319-.981.455-1.478a8.1,8.1,0,0,0,.31-.893,5.724,5.724,0,0,0,.285-.609.352.352,0,0,0,.041-.089c.076-.29.269-.527.364-.812.058-.174.207-.319.264-.494s.231-.315.265-.513c.223-.292.388-.619.581-.93" transform="translate(0 -473.359)" fill="#00a25a"/>
    <path id="Trazado_892" data-name="Trazado 892" d="M999.693,601.37c.228-.458.5-.891.75-1.337.28-.5.569-.989.849-1.487.146-.26.274-.53.423-.788.23-.4.477-.788.706-1.187q2.836-4.951,5.667-9.905a4.257,4.257,0,0,0,.369-.692,10.056,10.056,0,0,0,.774-1.388,9.06,9.06,0,0,0,.786-2.989,9.454,9.454,0,0,0-.147-2.741,9.359,9.359,0,0,0-3.059-5.233,9.087,9.087,0,0,0-2.047-1.351,8.968,8.968,0,0,0-2.772-.843c-.253-.032-.506-.063-.759-.094.065,0,.131-.009.2-.009h17.318c.105,0,.21,0,.315-.005.18.283.294.6.444.9.116.23.2.474.3.711a19.522,19.522,0,0,1,.995,3.12,18.57,18.57,0,0,1,.42,2.533c.025.268.063.534.07.8.011.382.051.763.042,1.146s0,.762-.015,1.142a19.385,19.385,0,0,1-.343,2.93c-.076.387-.184.767-.269,1.152a17.268,17.268,0,0,1-.953,2.918,20.682,20.682,0,0,1-15.009,12.322,21.069,21.069,0,0,1-5.052.378" transform="translate(-979.982 -560.055)" fill="#ffce2c"/>
    <path id="Trazado_893" data-name="Trazado 893" d="M572.7,1079.64s0,.007,0,.006v-.006" transform="translate(-561.408 -1058.353)" fill="#ffce2c"/>
    <path id="Trazado_894" data-name="Trazado 894" d="M609.71,1238.625c.045.011.041.048.042.082a.055.055,0,0,1-.042-.082" transform="translate(-597.682 -1214.203)" fill="#fe4e40"/>
    <path id="Trazado_895" data-name="Trazado 895" d="M611.859,1242.621c.045.016.042.052.035.089a.079.079,0,0,1-.035-.089" transform="translate(-599.793 -1218.12)" fill="#fe4e40"/>
    <path id="Trazado_896" data-name="Trazado 896" d="M674.485,682.416a7.519,7.519,0,1,1,7.51-7.523,7.5,7.5,0,0,1-7.51,7.523" transform="translate(-653.805 -654.219)" fill="#008cf9"/>
  </g>
</svg>
