<svg xmlns="http://www.w3.org/2000/svg" xmlns:xlink="http://www.w3.org/1999/xlink" width="145.704" height="86.705" viewBox="0 0 145.704 86.705">
  <defs>
    <clipPath id="clip-path">
      <rect id="Rectángulo_5521" data-name="Rectángulo 5521" width="145.704" height="86.705" transform="translate(0 0)" fill="none"/>
    </clipPath>
  </defs>
  <g id="Grupo_13774" data-name="Grupo 13774" transform="translate(0 0)">
    <g id="Grupo_13773" data-name="Grupo 13773" clip-path="url(#clip-path)">
      <path id="Trazado_5728" data-name="Trazado 5728" d="M115.015,68.17c-.48.232-5.508-7.084-8.027-8.612-.769-.465-2.562-1.669-3.468-.954-.538.424-.45,1.365-.1,2.407h0c-.126.839,2.037,4.23,2.037,4.23s.023-.079.053-.212a130.322,130.322,0,0,0,9.677,12.563c3.673,3.868,12.14,6.828,12.14,6.828l1.259,2.284s16.078-7.758,16.067-7.772c-.3-.671-.776-1.773-1.193-2.833a16.325,16.325,0,0,1-.785-2.359c-.917-4.686,1.365-3.076-7.017-22-1.124-2.526-2.848-9.075-4.212-11.481-1.077-1.9-3.9-7.358-5.913-6.5-2.912,1.245,4.579,13.234,3.378,13.648-.66.22-3.379-6.984-4.793-9.152-2.694-4.135-7.8-11.821-10.493-9.9-2.257,1.606,5.114,9.766,6.353,12.6,1.354,3.074,2.213,7.1,1.928,7.151-.443.068-2.571-4.832-4.077-6.67-2.111-2.582-7.84-8.931-9.7-7.736-2.758,1.78,1.771,7.04,2.806,8.391,1.754,2.278,6.073,7.755,4.631,8.841-1.3.97-11.294-17.065-14.605-14.241-2.651,2.258,7.153,14.495,9.856,19.1,1.649,2.82,4.546,12.211,4.2,12.378" fill="#2971b9"/>
      <path id="Trazado_5729" data-name="Trazado 5729" d="M23.129,84.883l.879-1.87s8.276-3.467,11.7-7.549A131.834,131.834,0,0,0,44.6,62.33c.039.131.066.207.066.207s1.953-3.515,1.778-4.346l0,0c.279-1.061.308-2-.255-2.394-.947-.66-2.66.654-3.4,1.166-2.42,1.675-6.995,9.285-7.485,9.085-.356-.146,1.956-9.695,3.437-12.614,2.417-4.764,12.305-16.418,9.524-18.512-3.475-2.611-13.2,14.837-14.559,13.945-1.514-.995,1.465-7.692,3.071-10.08.951-1.41,7.1-10.593,4.188-12.119-3.372-1.764-7.969,8.37-9.918,11.076-1.4,1.931-3.4,8.74-3.833,8.694-.3-.032.317-4.109,1.475-7.257,1.068-2.9,7.925-11.5,5.575-12.961-2.8-1.752-7.43,6.232-9.872,10.525-1.274,2.248-3.548,9.61-4.22,9.422C18.94,45.834,25.693,33.4,22.7,32.345c-2.057-.736-4.544,4.879-5.5,6.842-1.216,2.486-2.539,9.132-3.5,11.719C6.486,70.312,8.665,68.562,8.033,73.293a31.116,31.116,0,0,1-1.37,4.533c-.025.047,16.466,7.057,16.466,7.057" fill="#2971b9"/>
      <path id="Trazado_5730" data-name="Trazado 5730" d="M9.953,49.512l.009-.025-4.8-.008.017-8.807,7.229.013a25.516,25.516,0,0,1,1.019-2.853l-8.241-.018.016-8.8,9.574.012-.009,6.045a17.254,17.254,0,0,1,3.794-5.337v-.7l.986,0a5.429,5.429,0,0,1,2.771-.754,5.152,5.152,0,0,1,2.245.517c.66-.969,1.305-1.837,1.945-2.61l-7.941-.013.014-8.806,9.578.018-.011,7.036a8.733,8.733,0,0,1,3.786-2.262l.007-4.769,9.578.014-.01,5.221a5.868,5.868,0,0,1,1.3.5,5.312,5.312,0,0,1,2.476,2.806l.015-8.516,9.576.015-.015,8.808L45.4,26.215c.047.137.111.263.148.406a6.369,6.369,0,0,1,.159,2.451l9.161.015-.014,8.8-2.326,0a15.975,15.975,0,0,1-1.074,2.856l3.4.007-.014,8.8-8.84-.016-.153.224c-.448.654-.9,1.314-1.331,1.95a5.71,5.71,0,0,1,1.055-.1,5.065,5.065,0,0,1,2.91.9,5.275,5.275,0,0,1,2.1,5.189l48.858.084a4.943,4.943,0,0,1,1.614-2.323,5.083,5.083,0,0,1,3.182-1.08,5.894,5.894,0,0,1,.937.077l-.687-1c-5.819-8.469-10.844-15.783-6.11-19.816a5.2,5.2,0,0,1,3.417-1.255,5.867,5.867,0,0,1,1.819.309l.008-3.441,5.559.009a4.54,4.54,0,0,1,.807-2.852l-6.369-.011.014-8.808,9.577.018-.013,6.629a5.625,5.625,0,0,1,1.385-.187,6.367,6.367,0,0,1,2.4.5l.013-6.935,9.578.015-.016,8.807-6.656-.011a24.315,24.315,0,0,1,2.722,2.862l3.931.006v.413a6.449,6.449,0,0,1,3.78,1.886l0-2.295,9.579.016-.017,8.808-5.065-.01.1.179a20.564,20.564,0,0,1,1.21,2.68l3.75.007-.01,8.806h-.7c.049.12.1.233.14.332,1.354,3.057,2.442,5.6,3.32,7.747h.68c1.269,0,2.3-.617,2.3-1.382l.1-54.847c0-.766-1.028-1.389-2.3-1.391L2.4,0C1.126,0,.1.617.095,1.382L0,56.229c0,.765,1.027,1.388,2.3,1.389l4.749.009c.757-2.233,1.706-4.9,2.9-8.115m121.3-40.9a2.729,2.729,0,0,1,2.734-2.722l3.636.005a2.728,2.728,0,0,1,2.726,2.733l0,.682a2.729,2.729,0,0,1-2.733,2.722l-3.638-.005a2.732,2.732,0,0,1-2.724-2.734Zm-.911,9.024,9.576.017-.017,8.805-9.574-.017Zm-8.9-11.766,3.64.006A2.73,2.73,0,0,1,127.8,8.606l0,.685a2.726,2.726,0,0,1-2.731,2.724l-3.639-.006a2.727,2.727,0,0,1-2.721-2.735v-.68a2.73,2.73,0,0,1,2.732-2.725m-15.28,2.706a2.729,2.729,0,0,1,2.732-2.723l3.64,0a2.729,2.729,0,0,1,2.723,2.733l0,.682A2.728,2.728,0,0,1,112.523,12l-3.639-.008a2.728,2.728,0,0,1-2.725-2.73Zm-37.969,41-9.576-.015.014-8.806,9.578.017Zm.018-11.66L58.635,37.9l.013-8.805,9.581.017ZM81.557,49.6l-9.58-.015.015-8.806,9.579.016Zm.018-11.661L72,37.919l.011-8.806,9.581.018Zm.02-11.663-9.578-.016.015-8.806,9.58.017ZM94.917,49.619,85.341,49.6l.012-8.8,9.579.015Zm.021-11.664-9.577-.019.015-8.8,9.577.016Zm.021-11.664-9.578-.014L85.4,17.47l9.577.015ZM93.613,8.557a2.728,2.728,0,0,1,2.733-2.723l3.639.006a2.726,2.726,0,0,1,2.722,2.732v.684a2.73,2.73,0,0,1-2.732,2.723l-3.638-.008A2.729,2.729,0,0,1,93.612,9.24ZM81.062,8.538A2.731,2.731,0,0,1,83.8,5.816l3.64.007a2.728,2.728,0,0,1,2.723,2.731l0,.682a2.729,2.729,0,0,1-2.731,2.724l-3.639-.006a2.73,2.73,0,0,1-2.724-2.733ZM71.247,5.78l3.636,0a2.731,2.731,0,0,1,2.725,2.734V9.2a2.729,2.729,0,0,1-2.732,2.724l-3.64-.007a2.726,2.726,0,0,1-2.721-2.732l0-.682A2.73,2.73,0,0,1,71.247,5.78M68.232,26.251l-9.579-.016.014-8.806,9.58.018ZM55.965,8.466A2.73,2.73,0,0,1,58.7,5.743l3.638.006a2.732,2.732,0,0,1,2.725,2.733l0,.682a2.727,2.727,0,0,1-2.733,2.722l-3.638,0a2.726,2.726,0,0,1-2.723-2.733ZM43.417,8.449A2.728,2.728,0,0,1,46.15,5.726l3.637.005a2.731,2.731,0,0,1,2.725,2.733l0,.685a2.726,2.726,0,0,1-2.731,2.721l-3.639-.007A2.726,2.726,0,0,1,43.417,9.13ZM30.869,8.433A2.725,2.725,0,0,1,33.6,5.709l3.637.006a2.725,2.725,0,0,1,2.723,2.732v.682a2.73,2.73,0,0,1-2.734,2.723l-3.637-.005a2.731,2.731,0,0,1-2.724-2.733Zm-12.548-.02A2.731,2.731,0,0,1,21.053,5.69l3.639.006a2.729,2.729,0,0,1,2.724,2.733l0,.681a2.732,2.732,0,0,1-2.732,2.725l-3.64-.007A2.728,2.728,0,0,1,18.32,9.094ZM8.5,5.671l3.64.006A2.73,2.73,0,0,1,14.867,8.41l-.006.683a2.723,2.723,0,0,1-2.729,2.722l-3.639,0A2.729,2.729,0,0,1,5.772,9.077V8.4A2.728,2.728,0,0,1,8.5,5.671M5.225,17.348l9.575.014-.014,8.807-9.579-.017Z" fill="#2971b9"/>
    </g>
  </g>
</svg>
