<svg xmlns="http://www.w3.org/2000/svg" xmlns:xlink="http://www.w3.org/1999/xlink" width="1923.62" height="1080" viewBox="0 0 1923.62 1080">
  <defs>
    <clipPath id="clip-path">
      <rect id="Rectángulo_375" data-name="Rectángulo 375" width="1923.62" height="1080" transform="translate(-28.62)" fill="none"/>
    </clipPath>
    <clipPath id="clip-path-2">
      <rect id="Rectángulo_1177" data-name="Rectángulo 1177" width="985.128" height="1025.528" fill="none"/>
    </clipPath>
    <clipPath id="clip-path-3">
      <rect id="Rectángulo_1178" data-name="Rectángulo 1178" width="6.706" height="11.186" fill="none"/>
    </clipPath>
    <clipPath id="clip-path-5">
      <path id="Trazado_1897" data-name="Trazado 1897" d="M757.322,74.5a.626.626,0,0,0-.5.274c-1.473,1.972-10.521,13.46-11.878,17.173-1.308,3.583,4.2,8.049,9.391,8.35,2.171-.645-4.953-3.007-5.842-6.672-.063-2.911,9.233-16.569,9.527-18.268a.707.707,0,0,0-.658-.856Z" transform="translate(-744.749 -74.502)" fill="none"/>
    </clipPath>
    <clipPath id="clip-path-7">
      <rect id="Rectángulo_1182" data-name="Rectángulo 1182" width="4.63" height="10.596" fill="none"/>
    </clipPath>
    <clipPath id="clip-path-9">
      <rect id="Rectángulo_1184" data-name="Rectángulo 1184" width="22.823" height="34.188" fill="none"/>
    </clipPath>
    <clipPath id="clip-path-11">
      <rect id="Rectángulo_1186" data-name="Rectángulo 1186" width="6.521" height="12.734" fill="none"/>
    </clipPath>
    <clipPath id="clip-path-13">
      <rect id="Rectángulo_1188" data-name="Rectángulo 1188" width="7.336" height="21.604" fill="none"/>
    </clipPath>
    <clipPath id="clip-path-15">
      <rect id="Rectángulo_1190" data-name="Rectángulo 1190" width="6.398" height="12.324" fill="none"/>
    </clipPath>
    <clipPath id="clip-path-17">
      <rect id="Rectángulo_1192" data-name="Rectángulo 1192" width="17.228" height="35.926" fill="none"/>
    </clipPath>
    <clipPath id="clip-path-18">
      <rect id="Rectángulo_1193" data-name="Rectángulo 1193" width="19.57" height="8.83" fill="none"/>
    </clipPath>
    <clipPath id="clip-path-20">
      <rect id="Rectángulo_1196" data-name="Rectángulo 1196" width="22.885" height="65.354" fill="none"/>
    </clipPath>
  </defs>
  <g id="Grupo_672" data-name="Grupo 672" transform="translate(28.62)" opacity="0.9">
    <g id="Grupo_279" data-name="Grupo 279" clip-path="url(#clip-path)">
      <g id="Grupo_1697" data-name="Grupo 1697" transform="translate(-53.746 132.123)">
        <g id="Grupo_1658" data-name="Grupo 1658">
          <g id="Grupo_1657" data-name="Grupo 1657" clip-path="url(#clip-path-2)">
            <path id="Trazado_1845" data-name="Trazado 1845" d="M492.56,985.027C220.528,985.027,0,969.7,0,950.805s220.528-34.228,492.56-34.228c55.291,0,108.473.637,158.092,1.8.083,1.1.138,1.658.138,1.658,4.082,3.41,12.528,4.541,21.912,4.541,18.4,0,40.448-4.343,40.448-4.343l.006-.042c161.285,5.624,271.971,17.221,271.971,30.612,0,18.9-220.529,34.221-492.568,34.221" transform="translate(0 40.502)" fill="#dfdfdf"/>
            <path id="Trazado_1846" data-name="Trazado 1846" d="M843.553,689.539,883.836,753.6s-31.242,28.585-120.926,30.338c0,0,.021-37.132,60.559-65.115s20.084-29.282,20.084-29.282" transform="translate(33.712 30.469)" fill="#203566"/>
            <path id="Trazado_1847" data-name="Trazado 1847" d="M811.713,421.318S805.2,569.841,879.745,718.1c0,0-14.227,35.77-58.538,26.982,0,0-134.769-139.119-121.858-326.741s112.364,2.973,112.364,2.973" transform="translate(30.864 14.835)" fill="#6bb1e1"/>
            <path id="Trazado_1848" data-name="Trazado 1848" d="M379.692,376.71s21.1,161-23,267.853l-93.205-56.942L276.2,420.665" transform="translate(11.643 16.646)" fill="#6bb1e1"/>
            <path id="Trazado_1849" data-name="Trazado 1849" d="M182.872,909.908l13.9-15.631L156,840.417,112.34,909.209l-.1.143-.973,1.542c-2.733,4.63-9.9,18.857-10.6,42.222h27a56.909,56.909,0,0,1,5.678-16.522l.548.336c12.911,7.987,23.577,18.337,38.762,18.083l63.69.007c-4.837-34.921-53.483-45.113-53.483-45.113" transform="translate(4.449 37.136)" fill="#18204f"/>
            <path id="Trazado_1850" data-name="Trazado 1850" d="M331.736,909.908l13.9-15.631-40.777-53.859L261.21,909.209l-.1.143-.972,1.542c-2.747,4.63-9.9,18.857-10.611,42.222H276.54a56.909,56.909,0,0,1,5.678-16.522l.548.336c12.919,7.987,23.584,18.337,38.762,18.083l63.69.007c-4.829-34.921-53.483-45.113-53.483-45.113" transform="translate(11.026 37.136)" fill="#18204f"/>
            <path id="Trazado_1851" data-name="Trazado 1851" d="M625.106,942.246c1.466-.377,2.946-.76,4.452-1.172.006-4.52-7.768-48.9-7.768-48.9s-42.483-52.1-54.531-30.05c-3.028,5.452,2.411,29.043,2.411,29.043,3.294,11.734-1.316,14.439-9.59,17.8-45.517,11.9-37.325,40.708-37.325,40.708s67.97,18.727,106.8-8.6a7.376,7.376,0,0,1-4.452,1.172" transform="translate(23.074 37.855)" fill="#20234c"/>
            <path id="Trazado_1852" data-name="Trazado 1852" d="M645.568,937.765l-2.315-16.625c-8.46,6.644-23.468,12.145-37.257,16.165-5.445-7.678-15.282-17.8-32.112-24.72-48-16.3-56.1,35.557-56.1,35.557,36.126,8.432,60.552,7.823,75.464,5.445,32.235-3.774,52.319-15.823,52.319-15.823" transform="translate(22.88 40.185)" fill="#c6c3c3"/>
            <path id="Trazado_1853" data-name="Trazado 1853" d="M507.675,941.528c1.466-.377,2.946-.76,4.445-1.172.014-4.52-7.76-48.9-7.76-48.9s-33.632-32.988-45.675-10.953c-3.02,5.465-6.438,12.842-9.74,20.467-2.24,5.171-7.521,7.754-13.159,7.747-46.852-.041-51.441,42.01-51.441,42.01s88.944,16.96,127.775-10.371a7.353,7.353,0,0,1-4.445,1.172" transform="translate(16.983 38.573)" fill="#20234c"/>
            <path id="Trazado_1854" data-name="Trazado 1854" d="M606.349,501.7c27.4,57.888,18.9,73.9,21.125,112.1,2.452,41.578,14.295,104.219,13.59,141.592-.856,40.736,9.76,151.421,9.76,151.421s-50.14,22.3-85.053.9L542.687,769.592,518.6,629.815c-2.226-10.856-9.582-9.213-11.433,2.007l.884,285.841s-56.443,10.494-70.019-.212c0,0-75.834-269.121-9.452-460.421,37.618-108.3,177.772,44.667,177.772,44.667" transform="translate(17.734 18.482)" fill="#7bb6e4"/>
            <path id="Trazado_1855" data-name="Trazado 1855" d="M506.747,618.438a22.291,22.291,0,0,1-1.254-2.809,6.608,6.608,0,0,1,.979-.972c.172,2.418.275,3.781.275,3.781" transform="translate(22.337 27.16)" fill="#689acb"/>
            <path id="Trazado_1856" data-name="Trazado 1856" d="M505.809,616.864c-2.268-5.959-4.9-17.159-7.466-29.763,2.171-.082,4.329-.206,6.452-.363.849,12.809,1.61,23.687,1.993,29.153a6.565,6.565,0,0,0-.979.973" transform="translate(22.021 25.927)" fill="#2e6bb0"/>
            <path id="Trazado_1857" data-name="Trazado 1857" d="M339.994,572.99l-82.487-5.638s-88.943-6.644-98.21,71.779c-8.557,72.355,18.926,82.588,13.7,116.18-10.659,68.532-40.565,123.981-40.565,123.981s23.1,21.508,62.606,37.784c8.083-14.721,53.2-65.635,71.827-116.974,12.369-34.084,15.118-69.71,18.288-104.972,12.6,60.572,16.076,122.536-4.316,200.3,0,0,28.31,26.207,75.41,11.556,0,0,52.23-192.547-16.254-334" transform="translate(5.852 25.064)" fill="#e01d2e"/>
            <path id="Trazado_1858" data-name="Trazado 1858" d="M648.053,153.6c8.288-1.2,3.891,20.5,10.637,25.468,9.3,6.835,42.01-3.473,52.325,1.732a3.463,3.463,0,0,0,5.172-1c7-7.583,32.366-17.694,36.674-27.078,3.192-6.979-23.721-6.726-26.064-6.808-23.275-.808-46.838,3.144-78.744,7.685" transform="translate(28.636 6.443)" fill="#f9b621"/>
            <path id="Trazado_1859" data-name="Trazado 1859" d="M790.45,209.725c-10.3-13.028-137.42-61.675-137.42-61.675-40.051-15.947-81.368-23.07-81.368-23.07,2.6,19.371-21.227,21.35-21.227,21.35s-20.68,7.021-23.125-12.426c-.528-4.185-25.5,9.447-26.447,9.871-20.1,8.96-37.448,50.086-46.853,61.922-9.719,12.247-39.324,29.721-57.2,16.384-10.72,16.926-18.543,24.227-37.948,29.2,3.213,15.678,49.785,59.778,65.786,59.7,12.679-.048,41.92-20.111,51.908-27.913-2.378,1.857-5.6,45.373-5.6,49.826q0,14.436-.021,28.879l95.355-9.926,119.441,9.391-5.741-76.875Z" transform="translate(15.857 5.523)" fill="#6bb1e1"/>
            <path id="Trazado_1860" data-name="Trazado 1860" d="M373.608,366.339c1.205-.179,2.411-.342,3.623-.507,3.275-.466,6.973-1.191,8.74-4a10.65,10.65,0,0,0,1.185-5.609c.246-16.3,6.658-39.428,5.98-47.483-.835-10.021,7.733-7.425,11.069-11.61,10.075-12.644,7.431-30.844,4.281-46.7-.871-4.337-3.748-9.953-7.925-8.522,8.116.877,28.1,10.549,34.817,8.672,6.987-1.945,12.022-17.508,15.555-23.981.912-1.678,16.769-31.071,16.9-31.009L445.88,184.354a207.569,207.569,0,0,0-52.531-18.481c-14.1-2.917-20.946-7.439-30.248,5.206a218.582,218.582,0,0,0-26.016,46.668c1.445-3.549-17.72-22.043-20.481-24.879-8.466-8.686-18.234-15.364-27.248-23.324-23.858-21.089-53.586,16.625-65.669,35.085C207.5,229.343,184.211,278.977,184.3,308.486c.138,49.859,22.783,97.9,55.655,135.412,12.111-9.946,38.982-39.79,51.085-49.722a130.152,130.152,0,0,1-34.769-44.859c-4.98-10.508-18.911-42.126-9.329-50.886,8.7,18.4,14.062,37.612,25.57,55.079,5.973,9.062,13.473,18.145,23.967,20.954,6.569,1.767,13.521.828,20.255-.124q28.43-4,56.874-8M240.531,268.106l-1.191,1.014,1.328-2.1Z" transform="translate(8.144 7.187)" fill="#dd0b21"/>
            <path id="Trazado_1861" data-name="Trazado 1861" d="M888.2,266.842c11.391,21.96,20.536,47.647,12.528,71.059-5.686,16.625-19.193,29.406-26.694,45.3a69.276,69.276,0,0,0-.3,57.6c-23.309,3-47.688,5.9-69.731-2.232-32.673-12.049-53.051-47.038-55.427-81.787a31.3,31.3,0,0,1,.658-10.672c2.7-9.521,12.363-14.932,20.576-20.467a117.279,117.279,0,0,0,39.839-45.866c3.63-7.487,6.542-15.494,11.918-21.858,9.405-11.13,24.515-15.261,38.66-18.8q.832-5.415,1.685-10.816Z" transform="translate(33.071 10.088)" fill="#7bb6e4"/>
            <path id="Trazado_1862" data-name="Trazado 1862" d="M825.219,373.292c3.315-10.452,7.953-20.138,10.308-31.1,2.172-10.117,2.289-20.844,2.322-31.406.027-9.611-.479-20.686-5.986-26.461a141.193,141.193,0,0,1-4.35,45.243c-5.213,19.474-14.624,36.585-18.528,56.662-2.363,12.157-2.561,24.851-2.055,37.358.267,6.44-.473,13.063,3.275,15.872,2.492,1.876,9.952,2.719,11.761-.487,0,0-2.911-24.563-2.6-31.885a129.288,129.288,0,0,1,5.849-33.8" transform="translate(35.647 12.564)" fill="#fff"/>
            <path id="Trazado_1863" data-name="Trazado 1863" d="M849.316,360.205c5.63-12.693,13.494-24.46,17.487-37.763,3.685-12.3,3.871-25.316,3.939-38.146.048-11.678-.814-25.118-10.144-32.139a125.187,125.187,0,0,1-7.391,54.949c-8.851,23.665-24.8,44.434-31.427,68.806-4.014,14.775-4.364,30.194-3.494,45.379.446,7.816-.8,15.864,5.555,19.289,4.234,2.274,16.886,3.294,19.94-.6,0,0-4.924-29.838-4.383-38.735a117.427,117.427,0,0,1,9.919-41.044" transform="translate(36.141 11.142)" fill="#ed80ad"/>
            <path id="Trazado_1864" data-name="Trazado 1864" d="M722.432,296.616c6.171-.973,11.816,4.959,15.672,7.864a134.486,134.486,0,0,1,13.152,11.329,7.4,7.4,0,0,1,1.452,2.055c.2.479-.123,3.219-4.179,1.233-3.822-1.473-7.712-4.823-8.083-4.61q3.411,2.517,6.74,4.986c1.583,1.192,4.323,3.309,4.823,5.062,1.026,3.637-3.713,3.994-5.789,2.657-3.883-2.444-11.589-9.494-12.411-9.419,2.473,2.3,5.035,4.514,7.658,6.645q1.952,1.571,3.952,3.1a14.258,14.258,0,0,1,2.959,2.575,1.649,1.649,0,0,1-.35,2.418c-2.569,2.1-8.014.5-19.885-10.864,2.637,5.11,15.056,12.892,15.768,13.789a2.387,2.387,0,0,1-.055,3.246,6.29,6.29,0,0,1-5.938,1.062c-7.569-2.692-16.07-12.582-19.638-15.83-.3,1.726.061,7.309-1.295,9.549-.521.876-3.172,2.213-4.24,1.732l-.835-.876c-3.013-5.3-1.843-11.454-4.268-16.933-1.1-2.453-2.9-4.589-2.952-7.206a24.586,24.586,0,0,1,1.438-8.542c1.412-3.766,3.815-7.733,1.849-11.445a8.669,8.669,0,0,0,2.672-.431c1.295-.391,8.185,10.945,15.055,22.282,6.932,11.418,13.851,22.837,15.043,22.276.508-.24-30.7-44.448-30.1-44.558.534-.1,2.068,1.678,4.1,3.458,2.192,1.918,4.959,3.836,7.685,3.4" transform="translate(31.139 12.803)" fill="#c17971"/>
            <path id="Trazado_1865" data-name="Trazado 1865" d="M712.529,333.6s3.308-.787,1.472-7.075a5.806,5.806,0,0,0-4.4-.309s.014,4.8,2.925,7.384" transform="translate(31.356 14.4)" fill="#f4d8d5"/>
            <path id="Trazado_1866" data-name="Trazado 1866" d="M743.115,327.373l-.384,1.541a4.6,4.6,0,0,0,1.61,1.568c.473.356,1.3.883,1.959.5l1.069-1.6c.006-.631-2.316-3.192-4.254-2.007" transform="translate(32.82 14.452)" fill="#f4d8d5"/>
            <path id="Trazado_1867" data-name="Trazado 1867" d="M746.006,321.582l-.466,1.747a4.955,4.955,0,0,0,1.726,1.788c.514.4,1.4.993,2.144.568a2.739,2.739,0,0,0,1.226-1.822c.028-.712-2.452-3.63-4.63-2.281" transform="translate(32.944 14.195)" fill="#f4d8d5"/>
            <path id="Trazado_1868" data-name="Trazado 1868" d="M747.861,315.032l-.61,1.116,1.055,1.4c.329.329.925.829,1.549.638l1.185-1.083c.116-.487-1.343-2.719-3.179-2.069" transform="translate(33.02 13.915)" fill="#f4d8d5"/>
            <path id="Trazado_1869" data-name="Trazado 1869" d="M737.124,331.136a1.7,1.7,0,0,0-1.22,1.9,6.706,6.706,0,0,0,1.911,2.788c.6.678,1.665,1.732,2.843,1.507a3.388,3.388,0,0,0,2.274-1.72c.26-.849-2.3-5.261-5.809-4.48" transform="translate(32.517 14.628)" fill="#f4d8d5"/>
            <path id="Trazado_1870" data-name="Trazado 1870" d="M484.58,73.258a8.419,8.419,0,0,1,3.15-6.788c1.836-1.315,4.186-1.568,6.4-1.78l.9.047.808.775a14.177,14.177,0,0,1,1.836,9.432c-.418,3.37-1.891,11.528-6.686,10.46-4.363-.979-6.425-8.364-6.4-12.145" transform="translate(21.413 2.858)" fill="#c17971"/>
            <path id="Trazado_1871" data-name="Trazado 1871" d="M488.378,39.529s4.616,25.406,2.931,39.187c-2.568,20.673,2.206,38.906,27.831,40.3l2.439,18.035-12.9,5.966s15.392,18.37,46.537,13.446c19.1-3.021,32.961-22.283,32.961-22.283l-19.7-5.315c-4.089-.877-11.4-16.213-11.973-20.351l.226-.3A25.331,25.331,0,0,0,561.4,89.141l-1.48-9.186,9.6,6.09s13.159-18-9.488-34.05c-22.165-16.2-29.309-30.4-29.309-30.4Z" transform="translate(21.58 0.954)" fill="#c17971"/>
            <path id="Trazado_1872" data-name="Trazado 1872" d="M520.11,132.989,517.9,115.331l2.377,17.583Z" transform="translate(22.885 5.096)" fill="#c17971"/>
            <path id="Trazado_1873" data-name="Trazado 1873" d="M520.277,134.563l-.165-1.343.165-.075L517.9,115.562l-.054-.446s.774.069,2.076.069c3.692,0,11.617-.583,17.981-5.076Z" transform="translate(22.883 4.865)" fill="#903a32"/>
            <path id="Trazado_1874" data-name="Trazado 1874" d="M526.032,53.545h-.021a1.353,1.353,0,0,1-.185-2.59,5.848,5.848,0,0,1,2.205-.219c1.206.076,8.57,1.377,8.268,3.282-.391,2.431-4-.623-10.267-.473" transform="translate(23.196 2.241)" fill="#20234c"/>
            <path id="Trazado_1875" data-name="Trazado 1875" d="M505.352,55.736l.021-.007a1.359,1.359,0,0,0-.063-2.6,5.806,5.806,0,0,0-2.205.027c-1.191.212-8.37,2.329-7.891,4.212.6,2.377,3.9-1.076,10.138-1.63" transform="translate(21.881 2.343)" fill="#20234c"/>
            <path id="Trazado_1876" data-name="Trazado 1876" d="M528.2,61.713c.068,1.63,1.014,2.9,2.124,2.842s1.938-1.4,1.869-3.021-1.028-2.89-2.123-2.842-1.932,1.4-1.87,3.021" transform="translate(23.34 2.593)" fill="#20234c"/>
            <path id="Trazado_1877" data-name="Trazado 1877" d="M499.294,63.393c.041,1.63.966,2.911,2.061,2.863s1.953-1.411,1.911-3.034-.972-2.9-2.069-2.863-1.945,1.4-1.9,3.034" transform="translate(22.063 2.667)" fill="#20234c"/>
          </g>
        </g>
        <g id="Grupo_1660" data-name="Grupo 1660" transform="translate(581.759 63.539)">
          <g id="Grupo_1659" data-name="Grupo 1659" clip-path="url(#clip-path-3)">
            <path id="Trazado_1878" data-name="Trazado 1878" d="M561.385,72.029c.7-.726,1.836-2.6-.007-7.213l-.6-.911c-1.781-1.582-3.378.027-3.638-1.829l.1-.623.322-.26a2.786,2.786,0,0,1,1.268-.342h.225A4.087,4.087,0,0,1,562,62.37c3.239,4.015,1.644,9.343-.61,9.659" transform="translate(-557.14 -60.85)" fill="#903a32"/>
          </g>
        </g>
        <g id="Grupo_1662" data-name="Grupo 1662">
          <g id="Grupo_1661" data-name="Grupo 1661" clip-path="url(#clip-path-2)">
            <path id="Trazado_1879" data-name="Trazado 1879" d="M511.164,88.975h-.329a20.107,20.107,0,0,1-2.4-.171c-6.13-.816-8.2-3.781-8.349-7.144v-.822a18.676,18.676,0,0,1,2.89-8.289c2.706-4.452,6.7-19.96,7.953-20.056h.027c.123.006.227.192.287.575A50.519,50.519,0,0,1,506.8,70.782c-3.665,7.6-3.754,11.98,1.993,14.049a7.924,7.924,0,0,0,2.644.425c5.309,0,11.439-4.26,11.672-4.425v.014c-.144.473-2.6,8.049-11.946,8.131" transform="translate(22.098 2.32)" fill="#903a32"/>
            <path id="Trazado_1880" data-name="Trazado 1880" d="M506.659,92.9c3.363.089,14.85.027,22.186-4.466a.7.7,0,0,1,1.083.719c-.96,4.239-4.452,15.11-15.1,14.658-5.767-.179-8.206-7.391-8.9-10.015Z" transform="translate(22.356 3.903)" fill="#20234c"/>
            <path id="Trazado_1881" data-name="Trazado 1881" d="M491.25,52.142c.411-4.9,2.384-13.453,8.24-16.234,5.46-2.59,11.666-2.877,17.632-3.781s16.508,1.568,20.364-3.075c-1.63,2.082-.829,5.24.816,7.308s3.993,3.479,5.842,5.37C552,49.771,546.959,62.5,555.48,70.321c-.089-6.323,3.042-13.063,10.508-10.816,11.021,3.294,7.754,23.694-5.541,21.412.24,2.747-1.432,12.542.781,14.337,2.479,2,10.452-3.219,12.549-4.7,6.733-4.768,9.823-18.645,9.288-27.448a28.917,28.917,0,0,1-.864,8.974c1.692-2.774,3.432-5.706,3.583-8.959a20.393,20.393,0,0,0-1.035-6.186c-3.123-11.556-1.157-19.282-6.966-29.749s-16.1-19.426-28.077-19.727c-5.651-.138-9.542,3.144-14.3-.24C530.615,3.837,527.745.563,521.375.07c-6.233-.473-12.432,1.507-18.028,4.3-10.179,5.07-14.7,10.069-20.886,19.6-5.863,9.042-8.863,25.3-1.78,34.632.795,1.035,1.753,1.953,2.465,3.049,2.049,3.185,1.645,7.308,1.152,11.062,3.637-4.26,7.329-2.473,7.712-8.672.246-3.96-1.089-7.953-.76-11.9" transform="translate(21.058 0)" fill="#20234c"/>
            <path id="Trazado_1882" data-name="Trazado 1882" d="M509.783,101.2s5.973-7.945,15.4-2.466c0,0-6.22,9.686-15.4,2.466" transform="translate(22.526 4.278)" fill="#e11f27"/>
            <path id="Trazado_1883" data-name="Trazado 1883" d="M842.5,369.681a110.243,110.243,0,0,0,11.753-12.556c19.283-24.337,31.373-77,4.3-140.626-8.57-20.131-21.481-39.488-39.4-52-18.406-12.844-38.5-10.912-60.161-13.816-5.083-.685,1.89-4.693-2.816-4.774,0,0-50.366,27.837-59.654,37.536-4.254,4.432-8.617,9.042-10.727,14.816s-1.349,13.055,3.432,16.926c4.411,3.554.137,14.926,2.569,20.048.39-2.034,12.234-15.09,12.617-17.124-8.233,19.542-25.974,50.927-30.167,71.717,19.625,6.952,30.255,33.344,39.524,50.017,6.219,11.2,17.425,50.955,32.68,49.614,11.816-1.035,14.069-17.022,20.33-27.105,2.561-4.131,5.411,2.2,8.7,8.522,3.007,5.788,6.384,11.576,10.233,9.356,14.146-8.172,44.832.439,56.792-10.555m-22.632-124.94.027-.829.733,1.733-.76-.9" transform="translate(29.794 6.448)" fill="#f9b621"/>
            <path id="Trazado_1884" data-name="Trazado 1884" d="M740.968,260.915c-.823-5.1-1.645-10.206-2.473-15.262a3.839,3.839,0,0,1,.2-1.54C762.606,140.564,828.823,138,875.038,236.461c.431.911.534,1.144.616,1.329,1.281,3.054,2.59,6.15,3.891,9.233-.377-.774-.753-1.548-1.13-2.308-47.12-95.459-111.789-91.089-135.762,8.686-.59,2.438-1.152,4.953-1.685,7.514" transform="translate(32.632 7.268)" fill="#6bb1e1"/>
            <path id="Trazado_1885" data-name="Trazado 1885" d="M890.113,271.288c1.253,2.98,2.507,5.946,3.781,8.959.068.179.034.11-.508-.87-55.312-99.609-124.467-79.958-143.228,36.64-.185,1.151-.219,1.206-.267.9-.788-4.953-1.582-9.863-2.384-14.789.322-2.246.712-4.151,1.089-6.144,20.844-109.1,87.766-123.652,140.352-26.871.383.7.766,1.411,1.164,2.171" transform="translate(33.031 9.04)" fill="#6bb1e1"/>
            <path id="Trazado_1886" data-name="Trazado 1886" d="M890.211,271.717c-.4-.76-.781-1.472-1.164-2.171-52.586-96.781-119.508-82.226-140.352,26.871-.377,1.993-.768,3.9-1.089,6.144q-1.151-7.192-2.322-14.391l.26-1.384c20.8-110.857,88.37-123.878,139.948-25.789.35.657.7,1.328,1.048,2q1.839,4.357,3.671,8.72" transform="translate(32.933 8.611)" fill="#ed80ad"/>
            <path id="Trazado_1887" data-name="Trazado 1887" d="M886.638,263.429c-.35-.671-.7-1.343-1.048-2-51.579-98.088-119.151-85.067-139.947,25.79l-.26,1.384q-1.162-7.2-2.33-14.406c.274-1.143.527-2.486.8-3.76,22.33-106.049,88.738-114.823,138.2-17.521.3.609.617,1.232.931,1.856Z" transform="translate(32.834 8.179)" fill="#fff"/>
            <path id="Trazado_1888" data-name="Trazado 1888" d="M883.085,255.2c-.308-.631-.623-1.247-.931-1.857-49.456-97.3-115.87-88.534-138.2,17.515-.267,1.281-.52,2.617-.8,3.76q-1.142-7.089-2.288-14.185c.534-2.562,1.1-5.076,1.692-7.515,23.967-99.773,88.636-104.143,135.756-8.686.376.761.753,1.535,1.13,2.309,1.22,2.89,2.432,5.768,3.644,8.658" transform="translate(32.737 7.746)" fill="#ed80ad"/>
            <path id="Trazado_1889" data-name="Trazado 1889" d="M811.589,311.984c4.247-8.1,6.034-16.8,9.829-24.782-18.124-28.475-35.755-67.949-35.755-67.949-9.535,7.048-17.584,7.083-22.693,5.486,5.041,13.981,6.26,76.052,24.221,111.152,1.917-.747,19.692-14.939,24.4-23.907" transform="translate(33.714 9.688)" fill="#d18674"/>
            <path id="Trazado_1890" data-name="Trazado 1890" d="M764.227,235.3l-1.116-.787c-4.871-3.871-3.905-12.358-4.487-17.981-.6-5.645-2.678-12.611-2.384-17.919a10.3,10.3,0,0,1,.569-3.055c.239-.6,2.746-2.938,4.26,2.055,1.767,4.337,4.719,14.1,5.184,14.173-.4-3.323-2.02-13.132-2.39-16.4-.246-2.342-.644-6.445.418-8.48,2.2-4.22,6.165-.911,6.679,1.953,1.007,5.28,1.227,17.871,1.932,18.439q-.072-6.124-.527-12.172-.205-2.99-.514-5.959a17.621,17.621,0,0,1-.179-4.712,2.212,2.212,0,0,1,2.254-2.014c3.719.007,6.616,5.7,6.541,25.564,2.124-6.863-1.137-23.763-.945-25.152a3.279,3.279,0,0,1,2.7-3.021c2.075-.24,4.547,1.472,5.459,3.554,3.65,8.358,2.192,24.249,2.329,30.071,1.637-1.4,5.9-6.958,8.768-8.034,1.124-.432,4.268.349,4.706,1.623l-.062,1.473c-1.651,6.192-6.748,11.1-9.48,16.816-2.541,5.3-5.4,11.248-11.467,13.172-3.685,1.178-7.678.439-11.418-.541a24.224,24.224,0,0,1-6.829-2.665" transform="translate(33.416 7.946)" fill="#d18674"/>
            <path id="Trazado_1891" data-name="Trazado 1891" d="M801.781,205.911s-3.206-1.809-6.891,5.562c0,0,.828,2.9,3.164,3.678,0,0,3.891-4.562,3.727-9.24" transform="translate(35.125 9.09)" fill="#f4d8d5"/>
            <path id="Trazado_1892" data-name="Trazado 1892" d="M772.927,188.119a1.728,1.728,0,0,0,1.561-1.158,5.706,5.706,0,0,0,.028-2.719c-.069-.7-.275-1.828-1.1-1.98a2.8,2.8,0,0,0-2.151.7c-.514.59-.822,4.789,1.658,5.158" transform="translate(34.065 8.053)" fill="#f4d8d5"/>
            <path id="Trazado_1893" data-name="Trazado 1893" d="M765.928,191.393a2.032,2.032,0,0,0,1.8-1.287,6.459,6.459,0,0,0,.123-3.021c-.068-.767-.26-2.007-1.191-2.185a3.309,3.309,0,0,0-2.453.781c-.6.651-1.076,5.3,1.72,5.713" transform="translate(33.749 8.169)" fill="#f4d8d5"/>
            <path id="Trazado_1894" data-name="Trazado 1894" d="M757.691,198.831l1.39-.575a4.265,4.265,0,0,0,.329-2.137c.021-.562-.02-1.493-.671-1.78l-1.815.11c-.487.356-1.2,3.589.767,4.384" transform="translate(33.423 8.587)" fill="#f4d8d5"/>
            <path id="Trazado_1895" data-name="Trazado 1895" d="M780.695,189.328a2.009,2.009,0,0,0,2.5-.864c.706-1.137.685-2.733.795-4.1.1-1.089.137-2.911-.959-3.6a3.512,3.512,0,0,0-3.171-.131c-.891.61-2.528,6.74.835,8.7" transform="translate(34.408 7.967)" fill="#f4d8d5"/>
            <path id="Trazado_1896" data-name="Trazado 1896" d="M740.487,70.24s-25.776,55.977,10.829,61.319l-2.938,17.646-8.076,9.261s1.809,10.021,29.18,14.473c16.782,2.74,25.968-12.624,25.968-12.624l-5.714-3.836c-3.219-1.911-4.616-7.583-4-11.35l10.686-36.242,6.562,8S819.2,104.859,804.115,84.5c-14.837-20.344-21.2-24.55-21.2-24.55Z" transform="translate(32.331 2.649)" fill="#d18674"/>
          </g>
        </g>
        <g id="Grupo_1664" data-name="Grupo 1664" transform="translate(777.658 77.794)">
          <g id="Grupo_1663" data-name="Grupo 1663" clip-path="url(#clip-path-5)">
            <rect id="Rectángulo_1180" data-name="Rectángulo 1180" width="13.212" height="25.797" transform="translate(0.072 -0.001)" fill="#b84a35"/>
          </g>
        </g>
        <g id="Grupo_1666" data-name="Grupo 1666">
          <g id="Grupo_1665" data-name="Grupo 1665" clip-path="url(#clip-path-2)">
            <path id="Trazado_1898" data-name="Trazado 1898" d="M747.672,146.181l2.938-17.652a64.062,64.062,0,0,0,14.747,1.9c1.144,0,2.3-.048,3.453-.144Z" transform="translate(33.038 5.679)" fill="#b84a35"/>
            <path id="Trazado_1899" data-name="Trazado 1899" d="M766.487,76.443l-.021-.007a1.241,1.241,0,0,1,.521-2.315,5.454,5.454,0,0,1,1.972.425c1.027.4,7.056,3.6,6.281,5.185-.986,2.007-3.294-1.664-8.753-3.288" transform="translate(33.841 3.275)" fill="#20234c"/>
            <path id="Trazado_1900" data-name="Trazado 1900" d="M750.758,72.706h.021a1.24,1.24,0,0,0,.623-2.288,5.5,5.5,0,0,0-1.926-.6c-1.089-.15-7.864-.308-7.925,1.473-.081,2.246,3.658.157,9.206,1.411" transform="translate(32.768 3.082)" fill="#20234c"/>
            <path id="Trazado_1901" data-name="Trazado 1901" d="M766.221,84.177c-.377,1.432.11,2.815,1.076,3.075s2.04-.685,2.417-2.109c.356-1.439-.116-2.815-1.082-3.076s-2.048.685-2.411,2.11" transform="translate(33.852 3.624)" fill="#20234c"/>
            <path id="Trazado_1902" data-name="Trazado 1902" d="M743.532,77.774c-.384,1.432.089,2.809,1.047,3.075s2.049-.685,2.432-2.123-.089-2.8-1.055-3.069-2.048.685-2.425,2.117" transform="translate(32.849 3.341)" fill="#20234c"/>
          </g>
        </g>
        <g id="Grupo_1668" data-name="Grupo 1668" transform="translate(833.336 96.816)">
          <g id="Grupo_1667" data-name="Grupo 1667" clip-path="url(#clip-path-7)">
            <path id="Trazado_1903" data-name="Trazado 1903" d="M799.331,103.315h-.11a.857.857,0,0,1-.185-.021c.8-.439,2.288-1.76,1.952-6.3l-.26-.959c-1.089-1.884-2.911-.918-2.617-2.617l.24-.514.349-.144a2.848,2.848,0,0,1,.35-.041h.26a3.531,3.531,0,0,1,2.884,2.308,7.767,7.767,0,0,1,.506,2.439v.643c-.123,2.891-1.884,5.151-3.37,5.206" transform="translate(-798.071 -92.719)" fill="#b84a35"/>
          </g>
        </g>
        <g id="Grupo_1670" data-name="Grupo 1670">
          <g id="Grupo_1669" data-name="Grupo 1669" clip-path="url(#clip-path-2)">
            <path id="Trazado_1904" data-name="Trazado 1904" d="M728.054,130.616l-.179-.9c-.129-1.178,1.027-4.555.508-5.315-.487-.7-3.5-.939-4.412-1.46a11.576,11.576,0,0,1-5.37-8.8c-.349-4.117,1.226-7.46,2.624-11.179,1.63-4.322-1.152-3.137-3.268-6.617A17.179,17.179,0,0,1,716,89.4c-.281-2.274-.431-4.72.671-6.74s3.932-3.227,5.788-1.87c-2.63.35-4.938-2.432-4.74-5.076s2.288-4.843,4.7-5.952a22.352,22.352,0,0,1,7.761-1.514c-3.788.506-7.323-3.042-7.59-6.85s2.109-7.452,5.274-9.59c3.185-2.144,6.925-2.884,10.644-3.507-8.706-1.026,1.8-13.945,5.3-15.959,9.226-5.33,21.46-4.555,31.571-3.089,1.63.191,3.766,1.4,2.993,2.829-.883-2.911,1.953-5.884,4.966-6.336s5.987.829,8.768,2.089c2.172.979,4.431,2.027,5.877,3.918s1.726,4.911-.041,6.514c.527-1.671,1.055-3.349,1.582-5.02,7.8,1.822,15.727,5.007,20.653,11.316s5.664,16.392-.172,21.864c2.644-4.993,10.8-4.116,14.255.356s3.452,10.652,2.918,16.282c-.712,7.5-3.075,16.207-10.144,18.81,2.322-2.041,6.3-.371,7.61,2.431s.685,6.1-.137,9.07c-2.549,9.13-9.111,19.084-18.57,18.535,1.555.322,3.13.637,4.685.966a9.268,9.268,0,0,1-17.508,2.157c-2.1,2.144-4.452,4.412-7.433,4.774-11.918,1.425-3.123-16.282-1.719-20.481.972-2.9,2.417-5.87,3.712-10.11,0,0,5.131,1.828,7.309.959a9.179,9.179,0,0,0,5.1-6.192c3.027-9.829-3.98-17.8-12.391-9.082,0,0-21.6-9.111-25.194-31.256a73.926,73.926,0,0,1-12.808,6c-5.638,2.041-15.947.569-19.769,6.049-2.2,3.144-1.884,9.028-2.939,12.733a90.6,90.6,0,0,0-2.973,15.371,39.392,39.392,0,0,0,.521,13.625A18.666,18.666,0,0,0,741.9,128.6c.027.02-9.008,3.535-10.542,3.452-4.7-.246-3.138-5.357-2.192-9.063a14.207,14.207,0,0,1-8.775,1.74,6,6,0,0,1-3.521-1.472c-1.411-1.432-1.432-3.679-1.369-5.692a11.2,11.2,0,0,1,.616-3.966,3.8,3.8,0,0,1,2.979-2.432c-1.788-.165-3.575-.342-5.37-.507l-.883-.287-.37-.979a13.442,13.442,0,0,1,.822-7.288,6.4,6.4,0,0,1,5.83-3.87c1.445.1,3.027,1.26,2.746,2.678" transform="translate(31.476 1.134)" fill="#20234c"/>
            <path id="Trazado_1905" data-name="Trazado 1905" d="M745.339,103.975c4.089,1.151,10.391,1.2,18.4.8a1.088,1.088,0,0,1,1.206,1.425c-1.37,3.527-5.3,10.432-14.481,8.233-5.932-1.664-7.479-5.863-7.8-8.822-.165-1.541,1.178-2.055,2.671-1.637" transform="translate(32.816 4.588)" fill="#20234c"/>
            <path id="Trazado_1906" data-name="Trazado 1906" d="M760.335,112.376s-6.754-7.932-14.494-.439c0,0,6.665,6.528,14.494.439" transform="translate(32.957 4.804)" fill="#dd0f18"/>
            <path id="Trazado_1907" data-name="Trazado 1907" d="M816.767,88.924s-23.906-43.455-73.5-35.907l3.856-9.09s20.166-8.631,42.777-.26l4.274,2.117a52,52,0,0,1,24.57,25.707l3.405,7.754" transform="translate(32.844 1.768)" fill="#eb6a3c"/>
            <path id="Trazado_1908" data-name="Trazado 1908" d="M715.118,351.177c-.719-3.363-4.165-10.583-7.487-11.46-25.468-6.692-51.394-7.6-76.862-14.289-22.884-6.007-40.913-13.219-67.621-13.933-7.589-.2-14.529,1.042-21.214,2.274-11.233,2.089-21.741,4.172-33.455-.589-6.213-2.527-17.816-10.446-23.508-13.056-3.035-1.391-205.693,21.591-217.913,106.89-11.644,81.2,8.9,182.869,8.891,182.9.7-1.7,48.585-6.254,58.709-5.048l-6.226,7.624c5.391.4-6.4-13.33-18.206-27.057s-23.6-27.447-18.206-27.05C305.577,497.043,290.535,423,424.564,389.467c0,0-13.638,103.479-17.789,124.248-1.76,8.774-1.87,6.144-1.795,3.521.082-2.809.384-5.617-.863,5.466-1.645,14.6-3.282,47.269,9.746,54.065,75.636,39.4,135.29,20.487,175.478,1.576,36.345-17.111,56.757-34.215,58.634-8.152-3.467-48.154-6.85-87.622-14.919-135.68-.418-2.439-1.705-5.445-3.678-6.159a158,158,0,0,1,56.482,11.337,228.7,228.7,0,0,1,27.4-82.013c1.137-2.013,2.336-4.239,1.857-6.5" transform="translate(11.643 13.259)" fill="#eb6a3c"/>
            <path id="Trazado_1909" data-name="Trazado 1909" d="M263.3,371.054c-36.934,10.473-46.661,41.831-59.833,77.012-5.02,13.405-6.384,42.277-11.589,72.594-6.035,35.125-46.12,67.628-45.86,121.289.1,18.077,10.165,30.2,28.585,35.776,13.021,3.946,25.371,6.645,39.009,7.473,43.372,2.617,152.284,8.309,155.669-14.343.383-2.548-11.056-133.379-9.6-135.5,1.85-2.685,36.7-15.247,38.633-36.605,1.7-18.782-10.4-35.762-22.275-50.414-14.46-17.857-48.764-66.182-70.073-74.95a63.624,63.624,0,0,0-42.66-2.336" transform="translate(6.452 16.281)" fill="#18204f"/>
            <path id="Trazado_1910" data-name="Trazado 1910" d="M550.159,301.458c-2.774-1.966-3.932-17.021-4.028-27.775-14.3-.761-28.344-3.877-42.462-6.426l-4.412,26.53-23.652,7.789s9.507,29.933,43.482,34.406c20.83,2.733,49.387-19.638,49.387-19.638" transform="translate(21.016 11.81)" fill="#d18674"/>
            <path id="Trazado_1911" data-name="Trazado 1911" d="M543.9,278.4l-41.421-11.137,12.46,16.411a41.174,41.174,0,0,0,22.988,15.083l9.712,1.151" transform="translate(22.203 11.81)" fill="#d18674"/>
            <path id="Trazado_1912" data-name="Trazado 1912" d="M520.758,283.852a44.352,44.352,0,0,1-33.1-53.264L494.113,203a44.34,44.34,0,1,1,86.355,20.173l-6.447,27.591c-2.088,8.946-4.527,19.22-10.788,25.022-10.446,9.672-27.571,11.549-42.475,8.069" transform="translate(21.497 7.456)" fill="#d18674"/>
            <path id="Trazado_1913" data-name="Trazado 1913" d="M501.45,216.342c2.027,8.706-1.712,17.021-8.357,18.57s-13.673-4.268-15.7-12.974,1.72-17.021,8.364-18.57,13.673,4.268,15.693,12.974" transform="translate(21.071 8.975)" fill="#d18674"/>
            <path id="Trazado_1914" data-name="Trazado 1914" d="M493.884,225.4c1.459.048,2.917.1,4.377.131,3.966-6.692,2.965-15.687,4.39-23.345.987-5.322-.712-15.9,3.076-19.761,4.151-4.226,10.74-4.576,16.658-4.658,10.734-.15,28.092,1.549,38.209,5.137,8.521,3.021,16.912,13.07,20.987,20.981.864,1.685,5.884-8.986,3.652-12.459-4.569-7.1-15.364-19.248-22.516-23.721-8.028-5.021-17.727-8.4-27.2-8.665-12.528-.356-30.611.938-41.845,6.507-7.72,3.822-9.638,12.35-12.467,20.59-.9,2.616.684,22.33-.692,22.857,18.98-7.356,6.87,16.213,13.371,16.405" transform="translate(21.233 7.025)" fill="#18204f"/>
            <path id="Trazado_1915" data-name="Trazado 1915" d="M562.688,224.771c-.418,1.7-1.624,2.87-2.692,2.6s-1.6-1.85-1.178-3.548,1.623-2.87,2.691-2.6,1.6,1.849,1.179,3.548" transform="translate(24.687 9.774)" fill="#18204f"/>
            <path id="Trazado_1916" data-name="Trazado 1916" d="M531.052,216.861c-.439,1.795-1.712,3.021-2.829,2.746s-1.685-1.952-1.247-3.747,1.712-3.021,2.829-2.746,1.685,1.952,1.247,3.747" transform="translate(23.279 9.415)" fill="#18204f"/>
            <path id="Trazado_1917" data-name="Trazado 1917" d="M488.14,249.988c-1.624-5.767-.808-11.816-.37-17.789-1.733.11-3.644.171-5.014-.9l-1.308-1.52a65.011,65.011,0,0,1-4.179-7.747c-1.239,4.61-5.165,25.268,10.871,27.954" transform="translate(21.031 9.811)" fill="#18204f"/>
            <path id="Trazado_1918" data-name="Trazado 1918" d="M538.614,201.3a2.39,2.39,0,0,0,1.493-1.9c-2.3-1.911-5.6-1.842-8.6-1.671-3.815.219-10.8.006-13.507,2.973,2.26,1.788,5.987,1.068,8.691,1.253,3.967.281,8.2,1.356,11.92-.651" transform="translate(22.89 8.733)" fill="#18204f"/>
            <path id="Trazado_1919" data-name="Trazado 1919" d="M566.849,210.485c.487.637.856,1.356,1.4,1.945a2.392,2.392,0,0,0,2.109.891,3.226,3.226,0,0,0,1.494-.912l.794-1.172c.09-.876-.9-1.4-1.63-1.89-1.384-.918-2.232-2.432-3.445-3.575a16.059,16.059,0,0,0-3.261-2.165c-1.959-1.083-6.829-2.37-4.692,1.547,1.267,2.33,5.521,3.082,7.233,5.33" transform="translate(24.705 8.948)" fill="#18204f"/>
          </g>
        </g>
        <g id="Grupo_1672" data-name="Grupo 1672" transform="translate(561.283 222.632)">
          <g id="Grupo_1671" data-name="Grupo 1671" clip-path="url(#clip-path-9)">
            <path id="Trazado_1920" data-name="Trazado 1920" d="M540.038,247.391c-1,0-2.213-.212-2.466-1.158a1.628,1.628,0,0,1,1.048-1.761,3.692,3.692,0,0,1,1.5-.246c.234,0,.467.007.7.014.644.028,1.295.034,1.946.034a53.052,53.052,0,0,0,10.144-.972,3.853,3.853,0,0,0,2.213-.987,2.812,2.812,0,0,0-.048-3.267,15.833,15.833,0,0,0-2.411-2.528A15.2,15.2,0,0,1,548.7,226.5a45.284,45.284,0,0,1,1.2-10.918c.138-.7.631-2.357,1.021-2.37h.014c.35.014.61,1.343.473,5.815-.3,3.1-.37,6.247.911,9.165a30.437,30.437,0,0,0,3.494,5.391,48.746,48.746,0,0,1,3.6,5.891c.637,1.232,1.226,2.657.768,3.972-.637,1.789-2.842,2.378-4.72,2.659a120.512,120.512,0,0,1-15.282,1.287Z" transform="translate(-537.531 -213.211)" fill="#ac4932"/>
          </g>
        </g>
        <g id="Grupo_1674" data-name="Grupo 1674">
          <g id="Grupo_1673" data-name="Grupo 1673" clip-path="url(#clip-path-2)">
            <path id="Trazado_1921" data-name="Trazado 1921" d="M543.288,253.128c.439,1-.569,2.014-1.459,2.657-2.884,2.069-5.891,4.11-9.324,5.014s-7.424.445-9.987-2.007c-2.706-2.576-3.246-6.638-3.63-10.343-.179-1.822-1.967-8.481.5-8.329,1.693.1,5.007,5.157,6.453,6.329a30.666,30.666,0,0,0,8.2,4.726c1,.391,9.138,1.7,9.247,1.953" transform="translate(22.894 10.61)" fill="#fff"/>
            <path id="Trazado_1922" data-name="Trazado 1922" d="M778.346,339.293c5.925,3.617,11.857,7.425,16.425,12.644s7.665,12.118,6.9,19.008q-14.477.453-28.94.9a6.527,6.527,0,0,1-6.679-2.973c-2.549-2.953-5.137-5.98-6.59-9.6-1.4-3.494-1.651-7.316-1.863-11.069q-.268-4.644-.459-9.3a8.4,8.4,0,0,1,.59-4.322c3.006-5.705,17.206,2.644,20.617,4.72" transform="translate(33.455 14.697)" fill="#eb6a3c"/>
            <path id="Trazado_1923" data-name="Trazado 1923" d="M507.991,397.879s72.621,50.511,86.594,40.865c23.954-16.61,59.387-91.245,116.788-88.369,0,0-20.1,39.195-26.357,227.906,0,0-55.34-22.015-54.024-35.516,2.726-28.331,10.973-54.544,20.138-104.11-8.076,8.48-46.284,35.714-57.709,43.653-37.756,25.92-92.411-71.8-101.4-72.059-2.76-.089-3.8.35-3.67.781.431,1.4,13.055,2.8,19.638-13.152" transform="translate(21.579 15.479)" fill="#dc9b96"/>
            <path id="Trazado_1924" data-name="Trazado 1924" d="M802.574,364.574l.452,1.281c1.78,5.959-3.87,12.371-6.6,17.316s-5.028,11.864-8.308,16.056A10.065,10.065,0,0,1,785.9,401.4c-.535.363-3.932.843-2.315-4.124,1.034-4.562,4.2-14.248,3.863-14.583-1.583,2.959-5.857,11.926-7.432,14.816-1.137,2.062-3.158,5.651-5.185,6.713-4.226,2.205-5.582-2.782-4.37-5.418,2.205-4.918,9.226-15.358,8.973-16.228q-3.452,5.056-6.527,10.282c-1.035,1.712-2.028,3.445-2.994,5.185A18.028,18.028,0,0,1,767.358,402a2.216,2.216,0,0,1-3,.363c-3.048-2.13-2.165-8.46,9.268-24.708-5.672,4.412-12.672,20.132-13.618,21.173a3.306,3.306,0,0,1-3.951.925c-1.836-.994-2.878-3.809-2.426-6.035,1.781-8.945,12.077-21.145,15.3-25.988-2.144.206-8.821,2.322-11.8,1.562-1.164-.281-3.294-2.726-2.931-4.027l.9-1.172c4.9-4.131,11.891-5.241,17.4-8.357,5.116-2.891,10.871-6.138,16.946-4.24,3.686,1.144,6.542,4.035,9.049,6.98a24.174,24.174,0,0,1,4.083,6.1" transform="translate(33.297 15.507)" fill="#bc7168"/>
            <path id="Trazado_1925" data-name="Trazado 1925" d="M754.172,364.889s1.6,3.322,8.843-.61c0,0,.979-2.863-.5-4.829,0,0-5.8,1.514-8.343,5.439" transform="translate(33.325 15.883)" fill="#f4d8d5"/>
            <path id="Trazado_1926" data-name="Trazado 1926" d="M767.515,395.839l-1.939.054a5.906,5.906,0,0,0-1.588,2.213c-.336.61-.816,1.651-.227,2.253a2.764,2.764,0,0,0,2.157.652c.767-.185,3.419-3.453,1.6-5.172" transform="translate(33.737 17.491)" fill="#f4d8d5"/>
            <path id="Trazado_1927" data-name="Trazado 1927" d="M775.143,397.2a2.014,2.014,0,0,0-2.22.027,6.432,6.432,0,0,0-1.821,2.391c-.384.67-.939,1.807-.267,2.479a3.241,3.241,0,0,0,2.446.767c.876-.192,3.924-3.733,1.863-5.665" transform="translate(34.048 17.537)" fill="#f4d8d5"/>
            <path id="Trazado_1928" data-name="Trazado 1928" d="M786.125,395.721l-1.473-.322a4.442,4.442,0,0,0-1.493,1.568c-.335.445-.828,1.233-.458,1.849l1.534.945c.61-.014,3.042-2.253,1.891-4.041" transform="translate(34.58 17.472)" fill="#f4d8d5"/>
            <path id="Trazado_1929" data-name="Trazado 1929" d="M761.892,390.55a1.992,1.992,0,0,0-2.542-.719c-1.233.527-2.137,1.849-3.014,2.9-.692.843-1.774,2.322-1.26,3.514a3.466,3.466,0,0,0,2.521,1.911c1.082.021,5.932-4.075,4.295-7.6" transform="translate(33.359 17.218)" fill="#f4d8d5"/>
            <path id="Trazado_1930" data-name="Trazado 1930" d="M371.192,96.162c2.252,2.205,5.774,2.98,7.554,5.582,3.7,5.4-2.108,15.193,3.631,18.351,1.165.644,2.638.795,3.569,1.747,1.35,1.391.891,3.652,1.247,5.549.692,3.7,4.4,5.863,7.445,8.062s6,6,4.392,9.4c-23.112,6.535-46.79,13.138-70.744,11.481-6.419-.446,13.773-72.361,16.335-78.478,4.37-10.419,9.666-23.782,19.686-9.713,5.9,8.281.043,21.337,6.885,28.016" transform="translate(14.451 2.743)" fill="#20234c"/>
            <path id="Trazado_1931" data-name="Trazado 1931" d="M323.66,40.961c-11.323-.089-25.235,2.555-33.605,9.919-8.72,7.672-9.274,18.343-18.672,25.412-5.8,4.364-12.309,9.336-12.967,16.24-.452,4.693,1.684,10.323-2.007,13.563a19.388,19.388,0,0,1-3.795,2.192,13.977,13.977,0,0,0-7.35,13.871c.294,2.117,1.116,4.247.643,6.336-.808,3.583-5.048,5.678-6.329,9.138-2.534,6.781,7.233,14.878,2.459,20.535a246.56,246.56,0,0,0,48.941-.842c7.7-.9,15.516-2.22,22.248-5.782,14-7.412,13.015-20.858,15.988-33.742,3.4-14.782,9.213-29.276,18.762-41.633,6.383-8.343,15.138-14.042,6.4-23.59-7.062-7.761-20.576-11.535-30.714-11.618" transform="translate(10.568 1.81)" fill="#20234c"/>
            <path id="Trazado_1932" data-name="Trazado 1932" d="M362.112,65.221s18.433,65.306-15.282,71.546l-.055,21.708,21.783,8.219s-21.727,56.627-35.51,56.264c-15.864,4-57.388-55-57.388-55l20.166-9.117c4.233-1.644,7.055-8.145,7.075-12.775l-5.474-45.523-9.466,8.247s-16.974-17.658,5.185-38.968c21.857-21.352,30.31-25.1,30.31-25.1Z" transform="translate(12.181 1.976)" fill="#f8b5ab"/>
            <path id="Trazado_1933" data-name="Trazado 1933" d="M339.45,98.686h-.294a3.185,3.185,0,0,1-.671-.11,57.492,57.492,0,0,1,5.288-3.637,7.7,7.7,0,0,0,2.034-1.535c1.027-1.295.795-3,.411-4.514-1.268-5.1-2.973-10.268-4.624-15.282a41.084,41.084,0,0,1-1.8-5.157.774.774,0,0,1,.835-.864.836.836,0,0,1,.637.288c1.733,2.04,2.911,5.63,3.945,7.459q2.909,5.148,5.939,10.254a13.732,13.732,0,0,1,1.624,6.507v.294c-.007.329-.014.671-.027,1.035l-.254,1.007-1.26.692q-4.921,1.562-9.836,3.13a7.62,7.62,0,0,1-1.945.431" transform="translate(14.957 2.987)" fill="#ee8073"/>
            <path id="Trazado_1934" data-name="Trazado 1934" d="M344.793,154.87l-24.3-28.6c10.056,5.253,24.358,6.9,24.358,6.9Z" transform="translate(14.162 5.579)" fill="#ee8073"/>
            <path id="Trazado_1935" data-name="Trazado 1935" d="M319.157,51.641s27.495,15.851,42.784,13.96c2.438-.308-6.172-15.878-6.877-16.665C344.015,36.654,320.3,33.8,305.272,38.25c-6.034,1.781-11.254,5.741-15.351,10.508-1.924,2.234-5.035,5.583-5.774,8.5-.61,2.4-1,1.534.288,3.562l4.014,2.713s-25.235,44.209,8.4,60.5l.41-23.111s-11.254,2.692-12.844-9.247c-1.561-11.939,8.07-19.775,16.076-8.083,0,0,19.1-6.117,18.66-31.947" transform="translate(12.345 1.603)" fill="#20234c"/>
            <path id="Trazado_1936" data-name="Trazado 1936" d="M330.075,67.653l.027-.007a1.5,1.5,0,0,0-.158-2.863,6.419,6.419,0,0,0-2.445.1c-1.315.281-9.171,2.89-8.562,4.938.768,2.6,4.275-1.328,11.138-2.171" transform="translate(14.092 2.859)" fill="#20234c"/>
            <path id="Trazado_1937" data-name="Trazado 1937" d="M347.727,65.814H347.7a1.5,1.5,0,0,1-.281-2.857,6.313,6.313,0,0,1,2.425-.328c1.329.033,9.467,1.219,9.186,3.356-.363,2.705-4.412-.554-11.3-.171" transform="translate(15.311 2.767)" fill="#20234c"/>
            <path id="Trazado_1938" data-name="Trazado 1938" d="M328.516,76.972c.15,1.788-.706,3.336-1.912,3.459S324.3,79.2,324.146,77.41s.7-3.329,1.9-3.452,2.309,1.219,2.466,3.014" transform="translate(14.323 3.268)" fill="#20234c"/>
            <path id="Trazado_1939" data-name="Trazado 1939" d="M355.017,73.291c.171,1.795-.671,3.342-1.877,3.459s-2.315-1.22-2.479-3.015.671-3.342,1.876-3.466,2.315,1.233,2.48,3.021" transform="translate(15.494 3.105)" fill="#20234c"/>
          </g>
        </g>
        <g id="Grupo_1676" data-name="Grupo 1676" transform="translate(300.396 83.705)">
          <g id="Grupo_1675" data-name="Grupo 1675" clip-path="url(#clip-path-11)">
            <path id="Trazado_1940" data-name="Trazado 1940" d="M291.1,92.9H291.1c-2.493,0-5.02-5.59-2.109-10.529a4.382,4.382,0,0,1,3.569-2.205,2.9,2.9,0,0,1,1.068.2l.391.233.191.671c0,2.089-1.98.575-3.671,2.6l-.506,1.1c-1.316,5.384.206,7.254,1.076,7.939" transform="translate(-287.684 -80.163)" fill="#ee8073"/>
          </g>
        </g>
        <g id="Grupo_1678" data-name="Grupo 1678">
          <g id="Grupo_1677" data-name="Grupo 1677" clip-path="url(#clip-path-2)">
            <path id="Trazado_1941" data-name="Trazado 1941" d="M327.032,101.483a.763.763,0,0,0-.952.919c.144.631.2,1.314.281,1.953a10.908,10.908,0,0,0,13.6,9.013,6.765,6.765,0,0,0,2.411-1.122,8.024,8.024,0,0,0,2.008-2.63c2.7-5.1,2.862-7.249-2.974-7.379-3.233-.068-10.295.529-14.37-.753" transform="translate(14.408 4.483)" fill="#20234c"/>
            <path id="Trazado_1942" data-name="Trazado 1942" d="M334.917,108.38a3.8,3.8,0,0,0-1.747-.363c-1.843-.062-4,.754-4.172,1.87a10.848,10.848,0,0,0,2.007,1.747,11.035,11.035,0,0,0,6.829,1.767c.09-1.465-.883-2.794-1.815-3.952Z" transform="translate(14.538 4.773)" fill="#dd0f18"/>
            <path id="Trazado_1943" data-name="Trazado 1943" d="M323.5,332.692l-11.254,42.167L323.68,414.5a4.4,4.4,0,0,1-7.062,3.767c-12.282-9.364-41.962-15.686-60.709-37.167l21.282-62.019" transform="translate(11.308 14.1)" fill="#f8b5ab"/>
            <path id="Trazado_1944" data-name="Trazado 1944" d="M278.678,343.569l6.719,10.487a43.884,43.884,0,0,0,17.783,15.809l8.068,3.911,8.309-21.768" transform="translate(12.314 15.182)" fill="#f8b5ab"/>
            <path id="Trazado_1945" data-name="Trazado 1945" d="M356.867,289.811c.328,1.747,3.876,20.378,3.876,20.378,1.061,26.577,2.836,52.674-36.407,57.586l-1.911.356c-25.235,4.795-56.826-24.125-61.957-51.12l-7.624-1.411c-5.137-27.009,21.858-60.97,47.092-65.771l1.912-.356c14.961-2.843,30.748,2.492,41.722,14.062,11.96,12.618,11.535,34.269,28.474,41.537,1.877.816,3.893,1.37,5.556,2.6s2.966,3.419,2.493,5.487c-.611,2.609-3.473,3.623-5.864,4.452-4.836,1.678-13.673,3.795-13.789,3.233" transform="translate(11.145 10.991)" fill="#f8b5ab"/>
            <path id="Trazado_1946" data-name="Trazado 1946" d="M360.841,255.366q-1.253,1.356-2.507,2.726a11.911,11.911,0,0,0,.185-10.028c-4.768-10.35-17.392-7.26-17.392-7.26,3.487-5.618-.822-13.577-7.055-15.782-4.693-1.664-9.8-.877-14.508.986-.747-2.733-3.637-12.316-20.646-9.069-6.767-.664-9.226,5.946-8.74,7.85-1.932-3.98-7.953-4.754-12.3-3.117-5.884,2.219-10.822,8.822-8.459,14.658a11.4,11.4,0,0,0-13.769-2.6c-5.124,2.815-5.288,7.959-5.973,12.857a15.774,15.774,0,0,0-20.207,9.808c-3.062,8.727.775,15.947,1.9,24.386-3.7-.309-7.178.623-9.678,3.589-2.466,2.918-3.473,6.781-4.077,10.562-.562,3.569-.808,7.323.473,10.7,1.788,4.76,5.425,5.1,9.261,7.083-3.727,4.945-6.809,10.261-4.679,16.74a15.875,15.875,0,0,0,17.927,10.172c-6.028,2.794-5.35,12.534-.09,16.59s12.632,3.76,19.125,2.377c4.685-1,9.9-3.062,11.364-7.616a19.791,19.791,0,0,0,13.343-14.939c-7.8-1.323-15.549-5.576-18.385-13.317a14.389,14.389,0,0,1,.405-10.829c2.315-5.124,7.1-7.364,12.507-6.138,7.027,1.6,9.733,9.234,13.179,14.782a21.811,21.811,0,0,0-4.137-22.563c1.6,1.02,3.863,0,4.836-1.644s1.014-3.644,1.014-5.541c.021-3.521-.048-7.275-2.007-10.192,6.234,9.254,22.961,7.1,25.447-4.481.637,3.658,4.37,6.878,8.3,7.364,5.028.623,9.884-1.788,14.31-4.26,2.821-1.562,6.075-4.473,4.672-7.383,2.226,7.1,13.083,8.809,18.186,3.4s3.815-15.022-1.815-19.878" transform="translate(9.596 9.557)" fill="#c6c3c3"/>
            <path id="Trazado_1947" data-name="Trazado 1947" d="M336.682,295.289c-.165,2.4-1.514,4.26-3.028,4.158s-2.589-2.13-2.425-4.521,1.514-4.26,3.015-4.158,2.6,2.124,2.438,4.521" transform="translate(14.636 12.848)" fill="#18204f"/>
            <path id="Trazado_1948" data-name="Trazado 1948" d="M341.425,280.313c.987-.219,2.109-.61,2.349-1.507-2.453-2.994-7.3-3.658-11.262-3.158-5.165.1-14.206,3.7-14.685,8.507,3.233-.006,6.494-2.473,9.651-3.034,4.589-.891,9.13.24,13.946-.808" transform="translate(14.044 12.174)" fill="#18204f"/>
            <path id="Trazado_1949" data-name="Trazado 1949" d="M344.259,327.892a12.68,12.68,0,0,1-2.145,1.664,30.042,30.042,0,0,1-8.3,4.35c-3.013.849-6.493.657-8.973-1.254-2.061-1.6-3.158-4.13-3.96-6.617-.452-1.39-2.425-6.075-1.547-7.391,1.287-1.932,4.287.747,5.6,1.4,6.274,3.111,13.46,3.692,20.454,4.227a3.511,3.511,0,0,1-.719,3.144Z" transform="translate(14.101 14.05)" fill="#fff"/>
            <path id="Trazado_1950" data-name="Trazado 1950" d="M273.881,309.487c-1.582,1.13-1.9,3.391-1.507,5.288a6.193,6.193,0,0,0,1.651,3.329c1.055,1,2.506,1.432,3.664,2.3s1.945,2.617,1.035,3.727-2.665.747-3.912.062a12.348,12.348,0,0,1-5.692-14,5.053,5.053,0,0,1,1.226-2.22c1.308-1.247,3.356-1.143,5.13-.814a7.413,7.413,0,0,1,3.1,1.157c.89.671-3.44.275-4.693,1.172" transform="translate(11.871 13.563)" fill="#f8b5ab"/>
            <path id="Trazado_1951" data-name="Trazado 1951" d="M496.778,415.849c-7.8.911-14.577-7.706-19.262-12.008-4.582-4.274-12.261-12.034-15.823-16.672a10.633,10.633,0,0,1-1.685-2.967c-.226-.671.329-4.445,5.274-1.39,4.686,2.315,9.371,7.253,9.844,6.979-2.761-2.486-5.466-4.953-8.151-7.412-1.9-1.76-5.2-4.9-5.726-7.37-1.069-5.131,4.842-5.254,7.363-3.247,4.7,3.672,13.946,14,14.981,13.974q-4.459-5.065-9.22-9.775c-1.561-1.555-3.144-3.09-4.747-4.583a18.892,18.892,0,0,1-3.554-3.808,2.448,2.448,0,0,1,.562-3.323c3.322-2.705,10-.075,24.227,16.542-3.042-7.274-18.111-18.98-18.94-20.275a3.561,3.561,0,0,1,.233-4.493c1.678-1.712,5.117-2.089,7.418-1.014,9.275,4.3,20.433,22.638,24.742,27.385.452-2.356-.781-14.124,1.014-17.117.684-1.178,4.048-2.815,5.363-2.075l.993,1.274c3.542,7.535,1.809,15.953,4.617,23.707,1.267,3.472,3.438,6.562,3.383,10.171a35.9,35.9,0,0,1-2.178,11.7c-1.938,5.124-5.137,10.432-2.842,15.7a9.737,9.737,0,0,0-3.377.41c-3.323.9,12.186,11.618,9.186,13-.33.15-2.459-3.171-4.6-6.5-2.11-3.281-4.213-6.554-4.589-6.5-.7.1-2.582-2.542-5.1-5.178-2.651-2.774-6-5.542-9.4-5.137" transform="translate(20.325 15.66)" fill="#dc9b96"/>
            <path id="Trazado_1952" data-name="Trazado 1952" d="M508.651,362.829s-4.165.835-2.151,9.672c0,0,2.836,1.815,5.473.747,0,0,.185-6.638-3.322-10.419" transform="translate(22.357 16.033)" fill="#f4d8d5"/>
          </g>
        </g>
        <g id="Grupo_1680" data-name="Grupo 1680" transform="translate(515.273 396.733)">
          <g id="Grupo_1679" data-name="Grupo 1679" clip-path="url(#clip-path-13)">
            <path id="Trazado_1953" data-name="Trazado 1953" d="M497.229,401.548c-.692,0-1.466-1.555-1.726-2.048-2.542-4.891-2.884-11.254.034-16.049,1.034-1.7,2.623-3.261,4.6-3.5l.623.206-.233.637a17.547,17.547,0,0,0-4.185,8.624,18.428,18.428,0,0,0,.4,8.466l.918,3.411a.543.543,0,0,1-.431.254" transform="translate(-493.468 -379.944)" fill="#d66e65"/>
          </g>
        </g>
        <g id="Grupo_1682" data-name="Grupo 1682">
          <g id="Grupo_1681" data-name="Grupo 1681" clip-path="url(#clip-path-2)">
            <path id="Trazado_1954" data-name="Trazado 1954" d="M472.4,417.512s-65.347,74.607-86.691,65.456c-11.029-4.76-48.942-20.748-64.991-34.015-8.213,17.138-21.885,47.866-26.632,66.121,22.516,11.651,72.732,25.659,90.417,28.289C442.487,552,482.914,440.082,498.2,421.56c-6.042-.246-18.352,7.062-25.8-4.048" transform="translate(12.995 18.449)" fill="#f8b5ab"/>
            <path id="Trazado_1955" data-name="Trazado 1955" d="M492.73,425.964c6.616-5.4,9.651-11.768,13.96-19.549,3.151-5.692,8.48-12.124,10.556-17.858a11.666,11.666,0,0,0,.76-3.487c.027-.733-1.568-4.329-5.418.261-3.808,3.787-11.3,12.767-11.83,12.644,1.911-3.336,8.028-12.967,9.877-16.255,1.316-2.363,3.569-6.514,3.371-9.137-.431-5.453-6.11-3.734-7.939-.946-3.431,5.137-9.309,18.337-10.3,18.625,1.87-4.289,3.883-8.508,6-12.624q1.573-3.073,3.227-6.069a20.374,20.374,0,0,0,2.309-4.9,2.556,2.556,0,0,0-1.487-3.137c-3.931-1.664-9.548,3.048-18.378,24.07.835-8.205,11.864-24.591,12.282-26.145a3.774,3.774,0,0,0-1.493-4.411c-2.089-1.185-5.466-.479-7.357,1.315-7.61,7.192-13.206,24.632-15.952,30.721-1.1-2.219-3.111-10-5.672-12.432-.979-.952-4.658-1.534-5.692-.383l-.6,1.582c-1.1,7.693,2.917,14.8,2.6,22.2-.391,8.582-4.356,18.3-6.37,26.673-1.138,4.76-2.726,10.1-7.111,12.282,1.254.391,20.358,5.439,16.549,9.692,6.815-7.6,13.692-15.274,22.036-21.166.727-.514,1.418-1.034,2.076-1.568" transform="translate(19.976 15.751)" fill="#f8b5ab"/>
            <path id="Trazado_1956" data-name="Trazado 1956" d="M463.109,375.431s4.192-.466,4.788,8.966c0,0-2.178,2.7-4.993,2.465,0,0-2.062-6.562.206-11.432" transform="translate(20.417 16.589)" fill="#f4d8d5"/>
            <path id="Trazado_1957" data-name="Trazado 1957" d="M501.461,369.5a1.983,1.983,0,0,1-1.131-1.924,6.835,6.835,0,0,1,1.185-2.884c.391-.706,1.11-1.8,2.049-1.6a3.164,3.164,0,0,1,1.952,1.7c.288.864-1.274,5.432-4.055,4.706" transform="translate(22.109 16.044)" fill="#f4d8d5"/>
            <path id="Trazado_1958" data-name="Trazado 1958" d="M507.419,376.11a2.318,2.318,0,0,1-1.322-2.165,7.191,7.191,0,0,1,1.22-3.24c.41-.781,1.184-2.02,2.232-1.774a3.7,3.7,0,0,1,2.24,1.918c.35.966-1.233,6.09-4.37,5.261" transform="translate(22.363 16.301)" fill="#f4d8d5"/>
            <path id="Trazado_1959" data-name="Trazado 1959" d="M512.7,387.656a1.436,1.436,0,0,1-1.212-1.239,5.035,5.035,0,0,1,.61-2.4c.233-.6.7-1.576,1.513-1.589a2.549,2.549,0,0,1,1.87.924c.356.6-.342,4.336-2.781,4.3" transform="translate(22.601 16.899)" fill="#f4d8d5"/>
            <path id="Trazado_1960" data-name="Trazado 1960" d="M492.825,367.325a2.291,2.291,0,0,1-2.247-2.034c-.241-1.521.492-3.2.987-4.693.391-1.2,1.171-3.144,2.637-3.37a3.946,3.946,0,0,1,3.4,1.28c.686,1.035-.343,8.254-4.773,8.816" transform="translate(21.676 15.784)" fill="#f4d8d5"/>
            <path id="Trazado_1961" data-name="Trazado 1961" d="M683.5,920.508s8.411,48,8.4,52.887c0,0-66.4,13.213-84-3.4,0,0,15.453-41.894,26.193-61.326,13.036-23.838,49.408,11.843,49.408,11.843" transform="translate(26.862 39.789)" fill="#1b1d22"/>
            <path id="Trazado_1962" data-name="Trazado 1962" d="M668.315,975.186s-21.92-53.141-63.778-30.365c-19.564,9.85-19.9,31.845-19.9,31.845s43.045,8.891,83.677-1.48" transform="translate(25.834 41.499)" fill="#b7baba"/>
            <path id="Trazado_1963" data-name="Trazado 1963" d="M691.553,960.095s-43.853,17.344-105.6,7.487a15.714,15.714,0,0,0-1.185,3.945,16.5,16.5,0,0,0-.129,4.219s54.14,11.529,108.288-4.98" transform="translate(25.831 42.425)" fill="#b7baba"/>
            <path id="Trazado_1964" data-name="Trazado 1964" d="M791.42,917.635s-8.412,48.01-8.4,52.893c0,0,66.4,13.207,84-3.41,0,0-15.454-41.887-26.194-61.326-13.035-23.838-49.407,11.843-49.407,11.843" transform="translate(34.6 39.662)" fill="#1b1d22"/>
            <path id="Trazado_1965" data-name="Trazado 1965" d="M806.586,972.319s21.926-53.147,63.778-30.365c19.563,9.844,19.9,22.467,19.9,22.467s-43.044,18.262-83.676,7.9" transform="translate(35.642 41.372)" fill="#b7baba"/>
            <path id="Trazado_1966" data-name="Trazado 1966" d="M900.829,526.358c6.719-.117,11.843,7.062,15.522,10.733a145.743,145.743,0,0,1,12.309,14.063,7.737,7.737,0,0,1,1.226,2.411c.143.535-.61,3.411-4.631.685-3.849-2.151-7.493-6.3-7.924-6.13q3.267,3.184,6.439,6.329c1.5,1.507,4.11,4.172,4.377,6.117.541,4.035-4.569,3.7-6.583,1.966-3.761-3.192-10.912-11.864-11.8-11.918q3.432,4.243,7.171,8.233,1.829,1.983,3.733,3.9a15.156,15.156,0,0,1,2.774,3.2,1.786,1.786,0,0,1-.733,2.527c-3.069,1.843-8.624-.685-19.563-14.576,2.041,5.842,14.1,16.007,14.72,17.077a2.544,2.544,0,0,1-.547,3.445c-1.576,1.2-4.569,1.24-6.48.233-7.658-4.007-15.234-15.823-18.549-19.823-.576,1.795-1.035,7.8-2.815,9.987-.686.856-3.72,1.863-4.789,1.2l-.754-1.062c-2.411-6.1-.239-12.48-1.993-18.686-.8-2.774-2.4-5.336-2.061-8.124a26.4,26.4,0,0,1,2.815-8.884c2.069-3.809,5.227-7.672,3.7-11.926a14.287,14.287,0,0,0,2.91-.054c1.227-.055,5.8,9.185,11.529,9.082" transform="translate(38.878 22.857)" fill="#e19f96"/>
            <path id="Trazado_1967" data-name="Trazado 1967" d="M884.566,564.307s3.65-.342,2.644-7.323a6.229,6.229,0,0,0-4.637-.986s-.706,5.117,1.993,8.309" transform="translate(38.996 24.562)" fill="#f8dcd8"/>
            <path id="Trazado_1968" data-name="Trazado 1968" d="M918.114,562.284a1.41,1.41,0,0,0-.644,1.582,4.765,4.765,0,0,0,1.487,1.9c.452.452,1.239,1.137,2.007.835l1.383-1.555c.1-.671-1.993-3.74-4.233-2.767" transform="translate(40.539 24.838)" fill="#f8dcd8"/>
            <path id="Trazado_1969" data-name="Trazado 1969" d="M922.074,556.545a1.655,1.655,0,0,0-.767,1.788,5.282,5.282,0,0,0,1.582,2.157c.48.514,1.337,1.289,2.193.939a2.99,2.99,0,0,0,1.575-1.753c.138-.76-2.069-4.24-4.582-3.13" transform="translate(40.709 24.583)" fill="#f8dcd8"/>
            <path id="Trazado_1970" data-name="Trazado 1970" d="M925.027,549.841l-.815,1.1a3.471,3.471,0,0,0,.912,1.651c.3.4.856,1.028,1.555.9l1.424-.972c.2-.487-1.02-3.1-3.075-2.678" transform="translate(40.839 24.294)" fill="#f8dcd8"/>
            <path id="Trazado_1971" data-name="Trazado 1971" d="M911.159,565.387a1.818,1.818,0,0,0-1.582,1.843c.047,1.143.945,2.253,1.609,3.26.535.808,1.514,2.1,2.815,2.028a3.62,3.62,0,0,0,2.678-1.48c.4-.863-1.664-5.953-5.521-5.651" transform="translate(40.192 24.983)" fill="#f8dcd8"/>
            <path id="Trazado_1972" data-name="Trazado 1972" d="M816.473,479.757c24.406,54.607,16.829,69.71,18.8,105.761,2.2,39.222,12.74,98.308,12.109,133.57-.766,38.42,12.391,211.973,12.391,211.973s-31.091,21.035-62.189.856L759.77,732.479,738.31,625.267c-1.98-10.254-10.994-8.7-12.638,1.891L685.814,941.295s-50.27,9.905-62.361-.2c0,0-23.987-273.367,35.146-453.845,33.5-102.165,157.874-7.494,157.874-7.494" transform="translate(27.337 19.435)" fill="#2770b1"/>
            <path id="Trazado_1973" data-name="Trazado 1973" d="M697.122,328.029l-8.631,2.192-5.651,200.76,85.807-2.637,17.515-197.808Z" transform="translate(30.173 14.495)" fill="#de1d2e"/>
            <path id="Trazado_1974" data-name="Trazado 1974" d="M675.368,335.157c2.692-3.158,7.37-3.507,11.521-3.5a235.3,235.3,0,0,1,30.345,1.986c1.828.24,3.788.479,5.418-.37,3.171-1.616,3.294-6.015,3.027-9.563a384.372,384.372,0,0,1-.951-41.1c.116-3.795.28-7.685-.9-11.295a31.786,31.786,0,0,0-4.912-8.508c-6.775-9.323-13.652-18.761-22.528-26.111-3.48-2.884-7.275-5.453-10.193-8.9a16.013,16.013,0,0,1-4.055-12.385c-8.418-1.363-5.014,82.773-5.049,91.774a212.058,212.058,0,0,1-1.719,27.968" transform="translate(29.843 9.518)" fill="#152737"/>
            <path id="Trazado_1975" data-name="Trazado 1975" d="M680.9,252.452a9.041,9.041,0,0,1,4.383-6.761c2.151-1.13,4.693-1.041,7.09-.931l.945.185.739.946a15.162,15.162,0,0,1,.542,10.322c-.966,3.548-3.754,12.014-8.7,10.152-4.5-1.7-5.591-9.884-5-13.912" transform="translate(30.081 10.813)" fill="#e19f96"/>
            <path id="Trazado_1976" data-name="Trazado 1976" d="M690.237,216.333s.158,27.55-2.774,42.208c-1.822,9.082-3.514,41.791,23.584,47.154l-.329,21.1-21.987,8.185s13.85,20.392,47.784,19.83c20.823-.342,45.407-19.522,45.407-19.522l-20.2-8.63c-4.233-1.555-9.274-22.029-9.268-26.53l.281-.287a27.317,27.317,0,0,0,7.857-19.632l-.2-10.007,9.309,7.925s16.734-17.194-4.972-37.715c-21.194-20.6-29.372-24.214-29.372-24.214Z" transform="translate(30.338 9.553)" fill="#e19f96"/>
            <path id="Trazado_1977" data-name="Trazado 1977" d="M709.7,323l.329-21.091h0Z" transform="translate(31.36 13.341)" fill="#060809"/>
            <path id="Trazado_1978" data-name="Trazado 1978" d="M709.7,323.1l.329-21.09h0V302a38.094,38.094,0,0,0,7.953.788,31.278,31.278,0,0,0,14.185-3.1Z" transform="translate(31.36 13.242)" fill="#b03e31"/>
            <path id="Trazado_1979" data-name="Trazado 1979" d="M727.275,237.905h-.027c-1.885-.411-1.679-2.534.26-2.788a12.006,12.006,0,0,1,3.288.1c1.76.267,12.3,2.767,11.453,4.76-1.076,2.513-5.74-1.281-14.974-2.069" transform="translate(32.078 10.386)" fill="#1b3b6c"/>
            <path id="Trazado_1980" data-name="Trazado 1980" d="M707.233,234.735l.033-.007c1.87-.472,1.59-2.582-.349-2.773a12.034,12.034,0,0,0-3.288.2c-1.74.322-12.2,3.144-11.295,5.11,1.158,2.486,5.7-1.452,14.9-2.528" transform="translate(30.59 10.248)" fill="#1b3b6c"/>
            <path id="Trazado_1981" data-name="Trazado 1981" d="M729.082,246.765c-.171,1.74.644,3.24,1.836,3.35s2.274-1.2,2.445-2.938-.658-3.234-1.836-3.35-2.274,1.2-2.445,2.938" transform="translate(32.216 10.774)" fill="#1b1d22"/>
            <path id="Trazado_1982" data-name="Trazado 1982" d="M698.027,244.2c-.206,1.74.582,3.246,1.767,3.356s2.288-1.205,2.486-2.945-.589-3.24-1.759-3.357-2.3,1.206-2.493,2.946" transform="translate(30.843 10.66)" fill="#1b1d22"/>
            <path id="Trazado_1983" data-name="Trazado 1983" d="M828.633,546.592c9.234-.589-1.233-11.453-3.144-19.268L812.1,450.312c-.034-.335,37.742,71.738,76.354,95.315l16.68-9.952c6.4-3.843-45.408-77.924-58.121-120.138-28.3-97.521-88.191-93.561-88.191-93.561-11.446,26.276-2,89.883-1.678,115.953s-5.076,113.507-5.076,113.507ZM819.5,431.907l-.165-1.041,1.4,2-1.233-.959" transform="translate(33.233 14.226)" fill="#e19f96"/>
            <path id="Trazado_1984" data-name="Trazado 1984" d="M727.476,609.166c-2.719-5.206-6.3-22.268-9.515-40.126l6.973.637c1.295,21.255,2.542,39.489,2.542,39.489" transform="translate(31.725 25.145)" fill="#18478c"/>
          </g>
        </g>
        <g id="Grupo_1684" data-name="Grupo 1684" transform="translate(793.45 261.504)">
          <g id="Grupo_1683" data-name="Grupo 1683" clip-path="url(#clip-path-15)">
            <path id="Trazado_1985" data-name="Trazado 1985" d="M763.038,262.761h-.144c.862-.671,2.349-2.507,1.067-7.685l-.493-1.062c-1.651-1.953-3.6-.473-3.59-2.5l.186-.652.383-.226a3.063,3.063,0,0,1,1.068-.2,4.272,4.272,0,0,1,3.473,2.117c2.8,4.671.446,9.987-1.951,10.206" transform="translate(-759.873 -250.438)" fill="#b03e31"/>
          </g>
        </g>
        <g id="Grupo_1686" data-name="Grupo 1686">
          <g id="Grupo_1685" data-name="Grupo 1685" clip-path="url(#clip-path-2)">
            <path id="Trazado_1986" data-name="Trazado 1986" d="M647.6,410.415l-.521.911-1.493.459" transform="translate(28.527 18.135)" fill="#e19f96"/>
            <path id="Trazado_1987" data-name="Trazado 1987" d="M649.062,366.25l-20.6,80.991c13.892-10.206,27.871-20.906,32.543-25.809-9.9,53.605-18.83,81.964-21.776,112.6-1.418,14.6,58.436,38.414,58.436,38.414,6.76-204.1,28.5-246.5,28.5-246.5-31.236-1.568-56.456,18.1-77.108,40.3" transform="translate(27.771 14.399)" fill="#e19f96"/>
            <path id="Trazado_1988" data-name="Trazado 1988" d="M714.011,323.739s-25.776-11.385-79.752,45c0,0-12.193,20.59-22.207,26.57l18.07,81.328,45.53-42.456,50.2,25.242,7.712-110.357s-19.878-4.22-19.556-25.324" transform="translate(27.045 14.264)" fill="#b7baba"/>
            <path id="Trazado_1989" data-name="Trazado 1989" d="M757.814,319.4s53.243,3.034,68.662,34.838c0,0,37.3,72.929,46.312,88.369L831.2,494.182l-37.6-64.134L721.038,459.57l7.712-110.357s24.694-2.938,29.064-29.817" transform="translate(31.861 14.113)" fill="#b7baba"/>
            <path id="Trazado_1990" data-name="Trazado 1990" d="M750.228,240.172c-1.185-.445.288,11.522,2.124,13.275l4.692,6.144s1.6-15.138,12.823-9.952c11.247,5.185,4.692,26.419-9.13,21.987.267.082-.288,9.111-.391,10.3a28.42,28.42,0,0,1-5.4,14.412c-1.151,1.555-2.494,3.054-2.946,4.932a10.672,10.672,0,0,0-.021,3.733,60.793,60.793,0,0,0,9.967,26.543c2.034,3.006,4.4,5.952,5.151,9.507a270.213,270.213,0,0,1,35.509-4.22,330.205,330.205,0,0,1-9.2-45.517c-1.226-9.494-2.04-19.036-2.856-28.57-1.083-12.672-3.308-25.831-2.521-38.489.336-5.4.87-18.139-5.9-20.186,0,0-3.76-11.577-12.124-10.405-8.384,1.172-9.555,3.884-9.555,3.884s-2.637-10.44-10.508-11.59-11.357,3.111-11.357,3.111-11.774-10.83-26.913-1.131c0,0-12.542-6.192-17.185,3.514-4.652,9.68-1.241,10.864-1.227,10.871-1.439-.493-4.289,4.041-5.178,4.849-14.754,13.344-10.186,30.982,1.746,43.441.59-4.226,1.172-8.439,1.775-12.658.15-1.083,2.1-1.446,2.917-1.672,1.74-.466,3.171-.075,3.843-1.651s.075-4.781.11-6.507q.061-3.236.158-6.486a66.907,66.907,0,0,0,1,13.179l.479.843,2.089-.479a40,40,0,0,1,4.068-.37c2.535-.192,5.089-.294,7.638-.323.458-.006.862.007,1.226.028,1.815.075,2.548.15,3.021-2.226.452-2.288.883-4.583,1.329-6.871a18.712,18.712,0,0,0,.507-5.541,55.451,55.451,0,0,0-.932,11.11,9.958,9.958,0,0,0,.1,2.678c.357,1.151.261.925,1.6.87,4.37-.158,8.836.74,13.145,1.452a93.837,93.837,0,0,1,16.336,4.185" transform="translate(29.995 8.126)" fill="#1b1d22"/>
          </g>
        </g>
        <g id="Grupo_1688" data-name="Grupo 1688" transform="translate(736.028 245.244)">
          <g id="Grupo_1687" data-name="Grupo 1687" clip-path="url(#clip-path-17)">
            <path id="Trazado_1991" data-name="Trazado 1991" d="M712.081,270.792h-.432c-4.568-.075-6.329-2.555-6.692-5.938-.547-5.062,2.042-12.145,3.028-16.166,1-4.089.425-10.4,2.144-13.823h.048c3.267.185-1.918,19.926-2.178,27.29-.1,2.754.123,4.308,2.617,5.514a11.086,11.086,0,0,0,4.808,1.041,14.508,14.508,0,0,0,4.26-.664l1.4-.254,1.014.849c.089.781-.883,1.185-1.658,1.316a66.817,66.817,0,0,1-7.924.822c-.144.006-.294.014-.439.014" transform="translate(-704.881 -234.866)" fill="#c76459"/>
          </g>
        </g>
        <g id="Grupo_1690" data-name="Grupo 1690" transform="translate(743.165 283.855)">
          <g id="Grupo_1689" data-name="Grupo 1689" clip-path="url(#clip-path-18)">
            <path id="Trazado_1992" data-name="Trazado 1992" d="M718.319,280.673H717.8a10.683,10.683,0,0,1-5.9-1.685c-.191-.137-.212-.185-.089-.185.192,0,.719.117,1.514.227a21.04,21.04,0,0,0,3.076.233,18.555,18.555,0,0,0,5.336-.767,18.1,18.1,0,0,0,8.973-6.6.52.52,0,0,1,.165-.048h.068c.856.082.466,3.309-5.63,7.076a15.067,15.067,0,0,1-6.987,1.753" transform="translate(-711.716 -271.843)" fill="#c76459"/>
          </g>
        </g>
        <g id="Grupo_1692" data-name="Grupo 1692">
          <g id="Grupo_1691" data-name="Grupo 1691" clip-path="url(#clip-path-2)">
            <path id="Trazado_1993" data-name="Trazado 1993" d="M687.284,205.519s13.2-44.284,62.991-33.592c46.051,9.775,37.248,59,37.248,59s-15.069-9.747-64.956-16.782c-49.689-7.062-35.283-8.624-35.283-8.624" transform="translate(30.284 7.524)" fill="#1b3b6c"/>
            <path id="Trazado_1994" data-name="Trazado 1994" d="M713.121,322.105s-8.214,27.611,19.145,71.724L720.34,579.814S652.891,600.651,632.2,560.9c0,0,29.1-195.287,24.057-223.419,0,0,5.877-15.241,56.866-15.378" transform="translate(27.936 14.233)" fill="#1b3b6c"/>
            <path id="Trazado_1995" data-name="Trazado 1995" d="M757.989,319.922s-.979,29.283-29.468,74.012L716.63,578.091s104.583,25.145,126.145-15.206c0,0-35.879-200.754-30.18-228.762,0,0-3.631-15.022-54.606-14.2" transform="translate(31.666 14.135)" fill="#1b3b6c"/>
            <path id="Trazado_1996" data-name="Trazado 1996" d="M710.349,322.105s-19.926,20.844-14.481,48.092l34.036-21.1s-19.878-5.891-19.556-26.988" transform="translate(30.707 14.233)" fill="#fff"/>
            <path id="Trazado_1997" data-name="Trazado 1997" d="M718.022,569.122l-1.418-.13v-.006h.007l.116-1.8c.15.035.487.117.993.227.1.575.2,1.137.3,1.712m8.158.747-1.185-.11c-.014-.274-.027-.555-.048-.829.4.083.829.165,1.26.246l-.027.692" transform="translate(31.665 25.063)" fill="#0f4e8b"/>
            <path id="Trazado_1998" data-name="Trazado 1998" d="M724.948,569.75l-6.973-.637c-.1-.575-.2-1.137-.3-1.712,1.329.3,3.823.849,7.227,1.52.021.275.034.556.048.829" transform="translate(31.713 25.072)" fill="#23356e"/>
            <path id="Trazado_1999" data-name="Trazado 1999" d="M728.077,391.124l5.877-9.672c-1.815,3.131-3.774,6.364-5.877,9.672" transform="translate(32.172 16.856)" fill="#6d8091"/>
            <rect id="Rectángulo_1194" data-name="Rectángulo 1194" width="1.805" height="0.007" transform="matrix(0.064, -0.998, 0.998, 0.064, 748.269, 594.047)" fill="#182a55"/>
            <path id="Trazado_2000" data-name="Trazado 2000" d="M726.2,577.409c-.432-.082-.856-.164-1.26-.246-3.4-.671-5.9-1.22-7.227-1.521-.506-.109-.843-.191-.993-.226h-.007l11.816-184.183.048-.083c2.1-3.308,4.062-6.542,5.877-9.672l.363-.6Z" transform="translate(31.67 16.83)" fill="#182a55"/>
            <path id="Trazado_2001" data-name="Trazado 2001" d="M728.425,349.213l35.666,15.782s2.4-28.379-6.6-45.6c0,0-10.234,26.954-29.064,29.817" transform="translate(32.188 14.113)" fill="#fff"/>
            <path id="Trazado_2002" data-name="Trazado 2002" d="M705.707,467.29a14.543,14.543,0,0,0,6.186-3.356,9.575,9.575,0,0,1-6.186,3.356m-45.647.377H659.9c-1.281-.048-9.734-1.239-9.987-24.536v-2.184c.095-9.569,1.507-22.564,5.117-40.209,0,0,14.514-1.055,30.248-1.055,11.823,0,24.324.6,31.879,2.678l-1.8,30.837c-2.048,16.638-6.419,33.872-15.734,34.2l-39.564.274" transform="translate(28.718 17.661)" fill="#182a55"/>
          </g>
        </g>
        <g id="Grupo_1694" data-name="Grupo 1694" transform="translate(728.137 420.022)">
          <g id="Grupo_1693" data-name="Grupo 1693" clip-path="url(#clip-path-20)">
            <path id="Trazado_2003" data-name="Trazado 2003" d="M709.8,463.821a8.414,8.414,0,0,0,1.959-4.87l1.507-25.865a268.072,268.072,0,0,0,1.8-30.838,8.811,8.811,0,0,1,5.1,8.068,287.873,287.873,0,0,1-1.355,30.345c-1.308,12.775-5.028,19.584-9.008,23.159m-9.425,3.781h-.438a10.924,10.924,0,0,1-2.609-.315c.068,0,.137,0,.2-.006l4.939-.034a10.406,10.406,0,0,0,1.144-.069,14.119,14.119,0,0,1-3.24.425" transform="translate(-697.324 -402.247)" fill="#17244e"/>
          </g>
        </g>
        <g id="Grupo_1696" data-name="Grupo 1696">
          <g id="Grupo_1695" data-name="Grupo 1695" clip-path="url(#clip-path-2)">
            <path id="Trazado_2004" data-name="Trazado 2004" d="M697.521,465.974c9.315-.322,13.686-17.556,15.734-34.194l-1.507,25.865a8.425,8.425,0,0,1-1.959,4.87,14.544,14.544,0,0,1-6.186,3.356,10.419,10.419,0,0,1-1.144.069Z" transform="translate(30.822 19.079)" fill="#0b1e3c"/>
            <path id="Trazado_2005" data-name="Trazado 2005" d="M655.944,413.522s40.921,30.68,60.949-11.275c0,0,1.2,25.324-34.345,25.071-15.919-1.26-26.6-13.8-26.6-13.8" transform="translate(28.985 17.774)" fill="#1b3b6c"/>
            <path id="Trazado_2006" data-name="Trazado 2006" d="M700.611,549.23a.006.006,0,0,0,.007-.006l4.315-59.675-4.315,59.682ZM676.041,560.1h-1.48a76.423,76.423,0,0,1-11.371-1.055C636.2,554.6,634.168,544,634.1,541.285v-.294c.007-.227.021-.343.021-.343l8.6-60.593s23.686,10.727,48.5,10.727a74.128,74.128,0,0,0,12.555-1.021l-4.466.808c-2.6,55-9.357,65.827-11.48,67.9a43.133,43.133,0,0,1-11.782,1.637" transform="translate(28.02 21.213)" fill="#182a55"/>
            <path id="Trazado_2007" data-name="Trazado 2007" d="M701.522,489.358l1.165-.212c-.384.075-.775.144-1.165.212m-16.6,69.176a1.974,1.974,0,0,0,.65-.473c10.035-2.993,12.713-9.042,12.788-9.233-.068.349-2.007,9.583-13.439,9.706" transform="translate(30.266 21.614)" fill="#17244e"/>
            <path id="Trazado_2008" data-name="Trazado 2008" d="M685.549,558.062c2.124-2.069,8.884-12.9,11.48-67.9l4.466-.808c.391-.069.781-.137,1.165-.212l-4.316,59.675a.006.006,0,0,1-.007.006c-.075.192-2.754,6.24-12.788,9.234" transform="translate(30.293 21.614)" fill="#0b1e3c"/>
            <path id="Trazado_2009" data-name="Trazado 2009" d="M801.416,465.363a14.055,14.055,0,0,0,6.021-3.5,9.272,9.272,0,0,1-6.021,3.5m-45.77,1.555c-1.289,0-11.454-.952-11.589-30.967v-1.268a238.358,238.358,0,0,1,3.048-34.071s19.8-1.959,38.262-1.959c9.178,0,18.029.479,23.961,1.924v3.487l-.1,27.242c-1.151,16.631-4.609,33.9-13.981,34.317l-39.461,1.288a1.013,1.013,0,0,1-.137.007" transform="translate(32.878 17.616)" fill="#182a55"/>
            <path id="Trazado_2010" data-name="Trazado 2010" d="M805.276,461.781a8.1,8.1,0,0,0,1.685-4.891l.1-25.666a264.629,264.629,0,0,0,.116-30.721,9.1,9.1,0,0,1,5.535,7.877c.363,4.507.52,9.884.548,15.028v4.213c-.028,4.3-.13,8.192-.254,10.932-.61,12.713-3.952,19.57-7.733,23.228m-9.494,4.014h-.61a11.024,11.024,0,0,1-2.185-.246.458.458,0,0,0,.1-.007l5.049-.164a10.035,10.035,0,0,0,1.123-.1,14.539,14.539,0,0,1-3.473.514" transform="translate(35.041 17.697)" fill="#17244e"/>
            <path id="Trazado_2011" data-name="Trazado 2011" d="M793.079,464.241c9.37-.418,12.83-17.686,13.98-34.317l-.1,25.666a8.085,8.085,0,0,1-1.685,4.89,14.047,14.047,0,0,1-6.021,3.5,10.233,10.233,0,0,1-1.122.1Z" transform="translate(35.045 18.997)" fill="#0b1e3c"/>
            <path id="Trazado_2012" data-name="Trazado 2012" d="M748.767,413.291s42.62,29.4,60.367-12.788c0,0,2.576,25.111-32.982,25.789-16-.829-27.385-13-27.385-13" transform="translate(33.087 17.697)" fill="#1b3b6c"/>
            <path id="Trazado_2013" data-name="Trazado 2013" d="M818.349,484.544c.082-.027.165-.054.247-.075ZM792.773,557.1q-2.487,0-5.254-.164c-31.8-1.884-31.817-15.112-31.817-15.112l-.5-60.312a146.893,146.893,0,0,0,39.928,6.063,83.209,83.209,0,0,0,22.563-2.842l-4.535,1.315c5.713,54.243.631,65.586-1.178,67.847-4.473,1.849-10.665,3.206-19.207,3.206" transform="translate(33.371 21.277)" fill="#182a55"/>
            <path id="Trazado_2014" data-name="Trazado 2014" d="M815.314,484.605l.658-.185-.658.185m-6.288,69.7a1.805,1.805,0,0,0,.575-.535c9.679-4.014,11.316-10.35,11.316-10.35l-4.7-59.072h.006l4.7,59.079s-.315,9.59-11.9,10.877" transform="translate(35.749 21.402)" fill="#17244e"/>
            <path id="Trazado_2015" data-name="Trazado 2015" d="M809.578,553.767c1.809-2.261,6.891-13.6,1.178-67.847l4.535-1.315.658-.186.245-.075,4.7,59.073s-1.637,6.336-11.316,10.35" transform="translate(35.774 21.402)" fill="#0b1e3c"/>
            <path id="Trazado_2016" data-name="Trazado 2016" d="M784.4,957.254s49.12,19.124,104.672-.583a7.279,7.279,0,0,1,1.609,3.219,19.054,19.054,0,0,1,.631,3.631A143.783,143.783,0,0,1,846.157,974.6c-15.385,1.24-36.023.918-63.135-6.679" transform="translate(34.6 42.273)" fill="#b7baba"/>
            <path id="Trazado_2017" data-name="Trazado 2017" d="M740.311,181.782l-.439.637-.233-.1-.007-.294.192,10.5-7.247.007.014.658,7.925-.014" transform="translate(32.371 8.033)" fill="#b7baba"/>
            <path id="Trazado_2018" data-name="Trazado 2018" d="M714.462,196.193a6.045,6.045,0,0,1,1.068-7.487,5.283,5.283,0,0,1,4.042-.775,5.229,5.229,0,0,1,3.664,1.87,6.056,6.056,0,0,1-1.069,7.494,6.351,6.351,0,0,1-7.705-1.1m5.445-1a3.846,3.846,0,0,0,.7-1.945,3.949,3.949,0,0,0-.129-2.069,1.494,1.494,0,0,0-1.254-.85,1.509,1.509,0,0,0-1.432.466,5.178,5.178,0,0,0-.575,4.021,1.71,1.71,0,0,0,2.686.377" transform="translate(31.533 8.301)" fill="#1b3b6c"/>
            <path id="Trazado_2019" data-name="Trazado 2019" d="M719.763,195.089a3.846,3.846,0,0,0,.7-1.945,3.949,3.949,0,0,0-.129-2.069,1.494,1.494,0,0,0-1.254-.85,1.509,1.509,0,0,0-1.432.466,5.178,5.178,0,0,0-.575,4.021,1.71,1.71,0,0,0,2.686.377Z" transform="translate(31.678 8.405)" fill="none" stroke="#fff" stroke-miterlimit="10" stroke-width="0.056"/>
            <path id="Trazado_2020" data-name="Trazado 2020" d="M714.462,196.193a6.046,6.046,0,0,1,1.068-7.487,5.277,5.277,0,0,1,4.041-.774,5.222,5.222,0,0,1,3.665,1.87,6.056,6.056,0,0,1-1.068,7.493,6.352,6.352,0,0,1-7.706-1.1Z" transform="translate(31.533 8.301)" fill="none" stroke="#fff" stroke-miterlimit="10" stroke-width="0.056"/>
            <path id="Trazado_2021" data-name="Trazado 2021" d="M724.271,198.741l-.11-.664,1.2-8.418.287-.6.726-.1,1.4.206.458.143.294.371,2.083,4.37.506-3.555.288-.6.712-.11,1.74.246.671.3.11.671-1.206,8.418-.281.61-.726.1-1.39-.2-.473-.15-.281-.37-2.089-4.364-.506,3.562-.288.6-.726.1-1.747-.246Z" transform="translate(31.999 8.349)" fill="#1b3b6c"/>
            <path id="Trazado_2022" data-name="Trazado 2022" d="M724.271,198.741l-.11-.664,1.2-8.418.287-.6.726-.11,1.4.213.458.143.294.371,2.083,4.37.506-3.555.288-.6.712-.11,1.74.246.671.3.11.671-1.206,8.418-.281.61-.726.1-1.39-.2-.473-.15-.281-.37-2.089-4.364-.506,3.562-.288.6-.726.1-1.747-.246Z" transform="translate(31.999 8.349)" fill="none" stroke="#fff" stroke-miterlimit="10" stroke-width="0.056"/>
            <path id="Trazado_2023" data-name="Trazado 2023" d="M734.425,200.19l-.116-.665,1.2-8.411.294-.61.733-.1,3.6.506a5.125,5.125,0,0,1,3.158,1.349,3.4,3.4,0,0,1,.651,2.822,3.336,3.336,0,0,1-1.4,2.507,5.076,5.076,0,0,1-3.4.41l-.9-.129-.308,2.165-.288.61-.747.11L735.1,200.5Zm4.741-4.768.795-.144.383-.719-.171-.808-.719-.362-1.028-.144-.287,2.034Z" transform="translate(32.448 8.413)" fill="#1b3b6c"/>
            <path id="Trazado_2024" data-name="Trazado 2024" d="M739,195.3l.795-.144.383-.719-.171-.808-.719-.362-1.028-.144-.287,2.034Z" transform="translate(32.61 8.534)" fill="none" stroke="#fff" stroke-miterlimit="10" stroke-width="0.056"/>
            <path id="Trazado_2025" data-name="Trazado 2025" d="M734.425,200.19l-.117-.664,1.2-8.412.294-.61.733-.1,3.6.506a5.12,5.12,0,0,1,3.158,1.35,3.387,3.387,0,0,1,.651,2.821,3.318,3.318,0,0,1-1.4,2.5,5.042,5.042,0,0,1-3.405.418l-.9-.131-.309,2.165-.287.61-.747.11L735.1,200.5Z" transform="translate(32.448 8.413)" fill="none" stroke="#fff" stroke-miterlimit="10" stroke-width="0.056"/>
            <path id="Trazado_2026" data-name="Trazado 2026" d="M744.108,201.568,744,200.9l1.2-8.4.287-.617.727-.11,5.466.781.616.295.082.671-.124.835-.26.617-.678.11-2.788-.4-.185,1.274,2,.288.617.295.081.664-.116.8-.26.623-.679.11-2.007-.281-.179,1.274,2.789.4.609.295.083.671-.123.829-.254.616-.678.11-5.46-.774Z" transform="translate(32.876 8.474)" fill="#1b3b6c"/>
            <path id="Trazado_2027" data-name="Trazado 2027" d="M744.108,201.568,744,200.9l1.2-8.4.287-.617.727-.11,5.466.781.616.295.082.671-.124.835-.26.617-.678.11-2.788-.4-.185,1.274,2,.288.617.295.081.664-.116.8-.26.623-.679.11-2.007-.281-.179,1.274,2.789.391.609.3.083.671-.123.829-.254.616-.678.11-5.46-.774Z" transform="translate(32.876 8.474)" fill="none" stroke="#fff" stroke-miterlimit="10" stroke-width="0.056"/>
            <path id="Trazado_2028" data-name="Trazado 2028" d="M739.777,182.268l-.014-.4c-.007-.274.781-1.068.938-2.164a2.577,2.577,0,0,0-.458-1.768l.116-.206-10.644-1.513-.006.02.02.034c.063.164-.37,1.8-.41,4.226-.021,1.693.177,5.021.177,5.021l.795.671.61-.781-.1-2.507,1.056-.15.15,3.883.8.679.6-.781-.158-3.987,1.055-.15.233,5.513.795.671.6-.781-.233-5.609,1.062-.158.212,5.144.795.671.617-.781-.281-6.589.014-.014.6-.028v.015l.294,6.966-.972,1.055v-.014l-.083.014-.445.021-1.027-.767h-.028l.021.411-.979,1.068-.418.021-1.068-.987-.049-1.151h-.027l-.952.85-.431.02-.623-.185.09,5.007,7.938-.014" transform="translate(32.227 7.787)" fill="#fff"/>
            <path id="Trazado_2029" data-name="Trazado 2029" d="M732.591,187.961l.431-.021.959-.843H734l.048,1.144,1.068.987.419-.021.986-1.062-.02-.411h.02l1.028.761.445-.021.083-.007v.007l.973-1.055-.288-6.96-.006-.014-.6.027-.014.006.274,6.59-.616.781-.787-.671-.22-5.137-1.055.151.233,5.609-.609.781-.8-.671-.233-5.514-1.055.151.165,3.986-.61.781-.8-.671-.15-3.891-1.055.151.1,2.507-.616.78-.795-.67s-.2-3.329-.171-5.022a41.753,41.753,0,0,1,.4-4.22l-.021-.041-.568-.055a19.224,19.224,0,0,0-.46,4.248c-.006,1.684.213,5.438.213,5.438l1.055.973.089-.007.35-.014.089-.007.966-.842h.014l.042,1.007.445.795Z" transform="translate(32.2 7.785)" fill="#de1d2e"/>
            <line id="Línea_60" data-name="Línea 60" x2="0.219" y2="0.027" transform="translate(772.593 185.527)" fill="#de1d2e"/>
            <path id="Trazado_2030" data-name="Trazado 2030" d="M740.916,178.977l-.473-1.206-.082-.041-.219-.027-.218-.034-.123.206a2.541,2.541,0,0,1,.458,1.767c-.158,1.1-.939,1.891-.931,2.165l.007.4.014.3.226.09.439-.637a4.827,4.827,0,0,0,.9-2.98" transform="translate(32.669 7.851)" fill="#de1d2e"/>
            <path id="Trazado_2031" data-name="Trazado 2031" d="M785.683,371.613l-.439.891-.308-.082-.062-.377,2.151,13.24-9.172,1.329.137.829,10.028-1.452" transform="translate(34.372 16.421)" fill="#b7baba"/>
            <path id="Trazado_2032" data-name="Trazado 2032" d="M755.674,394.509a7.734,7.734,0,0,1-.006-9.665,8.119,8.119,0,0,1,9.939-.014,7.736,7.736,0,0,1,.007,9.665,8.093,8.093,0,0,1-9.94.014m6.7-2.253a4.982,4.982,0,0,0,.527-2.582,4.928,4.928,0,0,0-.535-2.6,2.18,2.18,0,0,0-3.459.006,6.573,6.573,0,0,0,.007,5.172,2.175,2.175,0,0,0,3.459,0" transform="translate(33.317 16.93)" fill="#1b3b6c"/>
            <path id="Trazado_2033" data-name="Trazado 2033" d="M762.187,392.125a4.983,4.983,0,0,0,.527-2.582,4.928,4.928,0,0,0-.535-2.6,2.18,2.18,0,0,0-3.459.006,6.574,6.574,0,0,0,.007,5.172,2.175,2.175,0,0,0,3.459,0Z" transform="translate(33.503 17.061)" fill="none" stroke="#fff" stroke-miterlimit="10" stroke-width="0.071"/>
            <path id="Trazado_2034" data-name="Trazado 2034" d="M755.674,394.509a7.735,7.735,0,0,1-.007-9.665,8.121,8.121,0,0,1,9.94-.014,7.734,7.734,0,0,1,.006,9.665,8.092,8.092,0,0,1-9.939.014Z" transform="translate(33.317 16.93)" fill="none" stroke="#fff" stroke-miterlimit="10" stroke-width="0.071"/>
            <path id="Trazado_2035" data-name="Trazado 2035" d="M768.491,395.913l-.26-.822-.007-10.857.254-.822.9-.254h1.795l.617.1.431.41,3.425,5.152v-4.577l.254-.828.883-.267h2.246l.9.254.254.835L780.2,395.1l-.254.808-.9.267h-1.795l-.623-.11-.425-.4-3.425-5.158v4.6l-.253.809-.9.266h-2.253Z" transform="translate(33.946 16.931)" fill="#1b3b6c"/>
            <path id="Trazado_2036" data-name="Trazado 2036" d="M768.491,395.913l-.26-.822-.007-10.857.254-.822.9-.254h1.795l.617.1.431.41,3.425,5.145v-4.569l.254-.828.883-.267h2.246l.9.254.254.835L780.2,395.1l-.254.808-.9.267h-1.795l-.623-.11-.425-.4-3.425-5.158v4.6l-.253.809-.9.266h-2.253Z" transform="translate(33.946 16.931)" fill="none" stroke="#fff" stroke-miterlimit="10" stroke-width="0.071"/>
            <path id="Trazado_2037" data-name="Trazado 2037" d="M781.584,395.906l-.253-.822-.014-10.843.26-.829.9-.267h4.63a6.454,6.454,0,0,1,4.24,1.13,5.106,5.106,0,0,1,.014,6.871,6.452,6.452,0,0,1-4.227,1.137l-1.157.006v2.788l-.26.823-.919.274H782.49Zm5.131-6.877.972-.329.371-.972-.371-1-.972-.329-1.322.006v2.624Z" transform="translate(34.525 16.93)" fill="#1b3b6c"/>
            <path id="Trazado_2038" data-name="Trazado 2038" d="M786.543,388.891l.972-.329.371-.972-.371-1-.972-.329-1.322.006v2.624Z" transform="translate(34.697 17.068)" fill="none" stroke="#fff" stroke-miterlimit="10" stroke-width="0.071"/>
            <path id="Trazado_2039" data-name="Trazado 2039" d="M781.584,395.906l-.254-.822-.014-10.844.26-.828.9-.267h4.63a6.452,6.452,0,0,1,4.24,1.13,5.106,5.106,0,0,1,.014,6.871,6.457,6.457,0,0,1-4.226,1.137l-1.158.006v2.788l-.26.822-.918.275h-2.315Z" transform="translate(34.525 16.93)" fill="none" stroke="#fff" stroke-miterlimit="10" stroke-width="0.071"/>
            <path id="Trazado_2040" data-name="Trazado 2040" d="M794.081,395.893l-.254-.822-.014-10.837.26-.829.891-.267,7.056-.006.835.254.219.835V385.3l-.219.829-.835.266h-3.6v1.645h2.59l.829.254.218.835.007,1.034-.226.836-.829.26h-2.59v1.651l3.59-.007.835.261.219.835.006,1.068-.219.829-.842.267-7.036.006Z" transform="translate(35.077 16.93)" fill="#1b3b6c"/>
            <path id="Trazado_2041" data-name="Trazado 2041" d="M794.081,395.893l-.254-.822-.014-10.837.26-.829.891-.267,7.056-.006.835.254.219.835V385.3l-.219.829-.835.266h-3.6v1.645h2.59l.829.254.218.835.007,1.034-.226.836-.829.26h-2.59v1.651l3.59-.007.835.261.219.835.006,1.068-.219.829-.842.267-7.036.006Z" transform="translate(35.077 16.93)" fill="none" stroke="#fff" stroke-miterlimit="10" stroke-width="0.071"/>
            <path id="Trazado_2042" data-name="Trazado 2042" d="M785.163,372.273l-.083-.5c-.054-.342.788-1.493.795-2.9a3.146,3.146,0,0,0-.912-2.145l.117-.287-13.74.014v.027l.034.042a49.468,49.468,0,0,0,.254,5.417c.275,2.137,1.131,6.316,1.131,6.316l1.122.7.63-1.1-.574-3.15,1.3-.377.9,4.884,1.131.7.629-1.089-.924-5.014,1.3-.383,1.287,6.932,1.131.7.631-1.089-1.308-7.055,1.308-.391,1.2,6.466,1.124.7.636-1.1-1.541-8.281.014-.014.748-.144.02.014,1.625,8.747a1.292,1.292,0,0,1-1.043,1.507H784.1l-.1.027-.555.1a1.3,1.3,0,0,1-1.438-.781h-.02l.095.521a1.313,1.313,0,0,1-1.048,1.527l-.534.1a1.322,1.322,0,0,1-1.528-1.055l-.267-1.446-.027.007a1.286,1.286,0,0,1-1.056,1.239l-.546.1-.817-.117,1.021,6.309,10.036-1.452" transform="translate(34.084 16.192)" fill="#fff"/>
            <path id="Trazado_2043" data-name="Trazado 2043" d="M777.108,380.765l.54-.1a1.291,1.291,0,0,0,1.062-1.239l.027-.006.261,1.445a1.315,1.315,0,0,0,1.527,1.055l.535-.1a1.315,1.315,0,0,0,1.048-1.528l-.1-.52.028-.007a1.29,1.29,0,0,0,1.432.781l.556-.1.1-.028.005.007a1.292,1.292,0,0,0,1.041-1.507l-1.623-8.755-.014-.014-.748.144-.014.014,1.535,8.281-.63,1.1-1.131-.7-1.2-6.466-1.308.391,1.316,7.055-.631,1.089-1.137-.7-1.281-6.932L777,373.8l.925,5.014-.631,1.1-1.13-.706-.9-4.884-1.308.377.582,3.15-.63,1.1-1.124-.7s-.864-4.179-1.137-6.315a50.53,50.53,0,0,1-.246-5.418l-.041-.042-.727.034a24.472,24.472,0,0,0,.192,5.445c.3,2.13,1.253,6.844,1.253,6.844a1.3,1.3,0,0,0,1.508,1.041l.11-.027.445-.083.111-.021a1.3,1.3,0,0,0,1.061-1.239l.027-.007.233,1.26.7.931Z" transform="translate(34.05 16.194)" fill="#de1d2e"/>
            <line id="Línea_61" data-name="Línea 61" x2="0.294" transform="translate(819.165 382.629)" fill="#de1d2e"/>
            <path id="Trazado_2044" data-name="Trazado 2044" d="M786,367.909a2.822,2.822,0,0,0-.823-1.432l-.109-.041H784.5l-.117.287a3.152,3.152,0,0,1,.912,2.137c-.007,1.418-.85,2.569-.795,2.911l.089.5.062.383.308.075.431-.891a6.187,6.187,0,0,0,.617-3.931" transform="translate(34.66 16.192)" fill="#de1d2e"/>
            <path id="Trazado_2045" data-name="Trazado 2045" d="M783,227.131s-53.332-21.72-100.192-13.234c0,0-36.036-5.089-18.282-16.508C682.187,186,769.468,206.343,783,227.131" transform="translate(29.147 8.577)" fill="#2770b1"/>
            <path id="Trazado_2046" data-name="Trazado 2046" d="M731.437,444.788l-22.2-86.8.87-.233L731.6,441.869l19.878-84.8.85.329" transform="translate(31.34 15.778)" fill="#fff"/>
            <path id="Trazado_2047" data-name="Trazado 2047" d="M742.079,459.062l-21.995.377a4.048,4.048,0,0,1-4.288-4l.192-11.4a4.394,4.394,0,0,1,4.412-4.151l21.878-.356a4.093,4.093,0,0,1,4.308,4l-.11,11.384a4.361,4.361,0,0,1-4.4,4.144" transform="translate(31.63 19.422)" fill="#b7baba"/>
            <path id="Trazado_2048" data-name="Trazado 2048" d="M512.121,938.7,509.8,922.078c-8.445,6.644-23.461,12.145-37.249,16.165-5.445-7.678-15.288-17.8-32.1-24.714-48.017-16.309-56.106,35.55-56.106,35.55,36.126,8.432,60.552,7.823,75.463,5.453,32.229-3.781,52.319-15.83,52.319-15.83" transform="translate(16.983 40.227)" fill="#c6c3c3"/>
          </g>
        </g>
      </g>
    </g>
  </g>
</svg>
