
<svg xmlns="http://www.w3.org/2000/svg" xmlns:xlink="http://www.w3.org/1999/xlink" width="1923.62" height="1080" viewBox="0 0 1923.62 1080">
  <defs>
    <clipPath id="clip-path">
      <rect id="Rectángulo_375" data-name="Rectángulo 375" width="1923.62" height="1080" transform="translate(-28.62)" fill="none"/>
    </clipPath>
    <clipPath id="clip-path-2">
      <rect id="Rectángulo_1171" data-name="Rectángulo 1171" width="754.65" height="1209.778" fill="none"/>
    </clipPath>
    <clipPath id="clip-path-3">
      <rect id="Rectángulo_1172" data-name="Rectángulo 1172" width="22.05" height="15.202" fill="none"/>
    </clipPath>
    <clipPath id="clip-path-5">
      <rect id="Rectángulo_1174" data-name="Rectángulo 1174" width="88.886" height="24.539" fill="none"/>
    </clipPath>
  </defs>
  <g id="Grupo_1865" data-name="Grupo 1865" transform="translate(28.62)" opacity="0.9">
    <g id="Grupo_279" data-name="Grupo 279" clip-path="url(#clip-path)">
      <g id="Grupo_1866" data-name="Grupo 1866" transform="translate(17.919 20.284)" opacity="0.9">
        <g id="Grupo_1645" data-name="Grupo 1645">
          <g id="Grupo_1656" data-name="Grupo 1656" transform="translate(22.271 164.883)">
            <g id="Grupo_1647" data-name="Grupo 1647">
              <g id="Grupo_1646" data-name="Grupo 1646" clip-path="url(#clip-path-2)">
                <path id="Trazado_1795" data-name="Trazado 1795" d="M256.261,581.009C114.732,581.009,0,576.632,0,571.211s114.732-9.79,256.261-9.79c141.509,0,256.242,4.376,256.242,9.79s-114.732,9.8-256.242,9.8" transform="translate(0 628.769)" fill="#dfdfdf"/>
                <path id="Trazado_1796" data-name="Trazado 1796" d="M339.184,258.781c2.868,8.828,15.463,11.844,22.4,14.751,6.839,2.811,18.969,7.216,25.7,8.762a12.361,12.361,0,0,0,4.007.343c.833-.093,4.617-2.555-1.1-6.349-4.8-3.894-12.408-6.476-12.353-7.125q6.039,2.611,11.982,5.1c2.824,1.177,7.821,3.165,10.725,2.508,6.033-1.378,3.258-7.791-.129-9.5-6.273-3.231-21.92-8.06-22.4-9.179,5.088,1.516,10.1,3.22,15.037,5.071,2.451.905,4.867,1.849,7.271,2.83a22.618,22.618,0,0,0,5.83,1.944,2.89,2.89,0,0,0,3.286-2.249c1.276-4.9-4.848-10.772-29.7-17.839,9.309-.324,29.313,10.068,31.119,10.318a4.208,4.208,0,0,0,4.7-2.463c1.018-2.646-.278-6.523-2.571-8.465-9.2-7.829-34.386-10.763-41.613-13.048,2.313-1.647,15.554-6.135,17.886-9.531.926-1.312,1.018-5.745-.415-6.782l-1.861-.445c-9.826-.072-18.024,5.932-27.723,6.756-4.359.341-8.743-.454-12.6,1.389a42.75,42.75,0,0,0-11.473,8.1c-4.543,4.607-8.662,10.668-15.444,10.8a11.852,11.852,0,0,1,1.221,3.831c.333,2.016-4.321.157-9.04-1.694-4.691-1.851-9.449-3.693-9.449-1.741,0,.842,18.23,2.563,18.488,3.434.481,1.637,15.8,2.951,18.229,10.483" transform="translate(338.75 243.509)" fill="#f8b5ab"/>
              </g>
            </g>
            <g id="Grupo_1649" data-name="Grupo 1649" transform="translate(691.081 479.38)">
              <g id="Grupo_1648" data-name="Grupo 1648" clip-path="url(#clip-path-3)">
                <path id="Trazado_1797" data-name="Trazado 1797" d="M330.116,241.329c-.352,0-.685-.008-1.028-.019-.814-.036-3.672-.129-3-1.444l4.108-.685a21.9,21.9,0,0,0,9.29-3.737,20.9,20.9,0,0,0,7.2-8.753l.555-.564.528.564c.731,2.247-.157,4.708-1.471,6.661-3.517,5.219-9.985,7.977-16.184,7.977" transform="translate(-325.988 -226.127)" fill="#ee8073"/>
              </g>
            </g>
            <g id="Grupo_1651" data-name="Grupo 1651">
              <g id="Grupo_1650" data-name="Grupo 1650" clip-path="url(#clip-path-2)">
                <path id="Trazado_1798" data-name="Trazado 1798" d="M265.739,101.721c14.982,13.538,28.935,30.924,30.434,51.384,1.433,19.542-8.883,37.485-18.9,53.955-1.092,1.8-2.3,3.7-4.21,4.543s-4.147.473-6.218.066c-12.826-2.489-25.624-4.961-38.412-7.551-14.185-2.887-29.59-6.688-38.308-18.441-5.079-6.867-7.125-15.527-8.679-23.985-2.555-14.028-4.119-28.518-1.528-42.545,2.241-12.215,7.5-23.587,12.688-34.8C198.3,71.98,209.933,48.116,223.6,57c4.2,2.728,10.763,17.1,15.675,21.772,8.459,8.052,17.795,15.084,26.466,22.949" transform="translate(200.016 61.669)" fill="#203566"/>
                <path id="Trazado_1799" data-name="Trazado 1799" d="M230.653,605.1c7.2,7.708,14.787,17.776,7.948,23.364-83.974-13.464-98.334-10.945-126.64-42.389-2.48,5.107-8.569,21.986-11.058,27.1-8.891.723-29.73-4.543-31.248-10.937-1.5-6.394,30.4-66.346,32.876-91.949,13.964,4.155,45.768-8.957,56.094.138,9.493,8.357-4.774,11.66,13.722,45.952,15.342,28.157,33.256,21.736,58.305,48.719" transform="translate(77.953 567.979)" fill="#1c3a6c"/>
                <path id="Trazado_1800" data-name="Trazado 1800" d="M363.339,607.166c9.271,6.171,19.624,14.592,14.766,21.412-85.072,3.044-103.2-9.678-140.085-34.958-.85,5.478-1.6,23.169-2.459,28.647-8.374,2.417-30.167,1.306-33.591-4.653s9.408-70.713,4.191-96.216c14.77,1.314,41.668-17.765,54.337-10.9,11.632,6.311-1.168,12.336,26.9,42.289,23.237,24.585,43.637,32.783,75.943,54.381" transform="translate(225.541 570.06)" fill="#1c3a6c"/>
                <path id="Trazado_1801" data-name="Trazado 1801" d="M59.859,315.134c-9.29.047-15.991,11.123-20.867,16.841-4.766,5.662-12.658,15.87-16.165,21.819a12.793,12.793,0,0,0-1.554,3.712c-.159.823,1.026,5.171,6.383.869,5.173-3.388,9.947-9.845,10.54-9.586q-4.3,4.954-8.486,9.864c-1.98,2.34-5.4,6.487-5.662,9.457-.528,6.163,6.44,5.467,9.105,2.748,4.978-4.978,14.333-18.414,15.565-18.524q-4.525,6.563-9.411,12.777c-1.611,2.054-3.248,4.081-4.925,6.061a22.389,22.389,0,0,0-3.617,4.969,2.9,2.9,0,0,0,1.138,3.822c4.274,2.692,11.732-1.35,26.029-22.874-2.516,8.967-18.507,24.846-19.3,26.493a4.2,4.2,0,0,0,.926,5.228c2.211,1.777,6.292,1.73,8.844.121,10.254-6.366,20.089-24.6,24.447-30.8.869,2.711,1.749,11.827,4.265,15.075.99,1.285,5.164,2.72,6.589,1.664l1-1.637c3.061-9.336-.167-18.978,2.008-28.463.99-4.248,3.091-8.181,2.508-12.41A42.528,42.528,0,0,0,85,318.956c-3.017-5.728-7.532-11.492-5.588-18.007a11.564,11.564,0,0,1-4.026,0c-4.034-.583,12.631-15.37,8.9-16.555-.795-.259-7.986,16.582-8.9,16.555-1.694-.028-7.615,14.157-15.527,14.185" transform="translate(23.81 318.507)" fill="#f8b5ab"/>
                <path id="Trazado_1802" data-name="Trazado 1802" d="M52.86,333.872s-5-.379-3.9-11.03c0,0,3.063-2.535,6.311-1.656,0,0,1.166,7.755-2.406,12.686" transform="translate(54.653 359.508)" fill="#f4d8d5"/>
                <path id="Trazado_1803" data-name="Trazado 1803" d="M31.039,326.541a2.244,2.244,0,0,1,.954,2.387,7.246,7.246,0,0,1-1.925,2.962c-.583.7-1.639,1.768-2.7,1.331a3.783,3.783,0,0,1-1.952-2.313c-.176-1.018,2.516-5.773,5.626-4.367" transform="translate(28.452 365.424)" fill="#f4d8d5"/>
                <path id="Trazado_1804" data-name="Trazado 1804" d="M28.485,322.322a2.678,2.678,0,0,1,1.138,2.711c-.231,1.331-1.259,2.351-2.046,3.341-.63.776-1.757,1.989-2.951,1.488a4.45,4.45,0,0,1-2.249-2.618c-.231-1.158,2.6-6.523,6.108-4.923" transform="translate(25.047 360.657)" fill="#f4d8d5"/>
                <path id="Trazado_1805" data-name="Trazado 1805" d="M25.246,317.224l1.185,1.647a5.353,5.353,0,0,1-1.177,2.525c-.379.621-1.1,1.6-2.071,1.444l-2-1.433c-.3-.74,1.221-4.747,4.062-4.183" transform="translate(23.685 355.217)" fill="#f4d8d5"/>
                <path id="Trazado_1806" data-name="Trazado 1806" d="M36.713,328.615a2.732,2.732,0,0,1,2.249,2.747c0,1.749-1.185,3.47-2.037,5.024-.685,1.251-1.969,3.25-3.729,3.184a4.871,4.871,0,0,1-3.729-2.164c-.591-1.3,1.963-9.124,7.246-8.791" transform="translate(32.908 368.023)" fill="#f4d8d5"/>
                <path id="Trazado_1807" data-name="Trazado 1807" d="M170.877,249.37c-32.989,83.437-43.991,146.83-46.035,201.5-2.239,59.507,6.551,108.735,8.124,162.154,1.8,58.184-56.223,264.255-56.223,264.255s63.942,40.716,102.926,8.357l68.75-256.418,29.7-162.645c2.841-15.527,15.009-13.53,17.036,2.359L340.6,894.906s63.1,11.946,78.82-3.922c0,0,43.822-366.162-27.824-634.72-43.529-152.688-220.72-6.894-220.72-6.894" transform="translate(85.948 208.948)" fill="#7bb6e4"/>
                <path id="Trazado_1808" data-name="Trazado 1808" d="M255.176,18.061c-23.042-.2-41.426,6.949-54.585,27.492-12.289,18.978-21.043,49.319-36.533,65.681-10.112,10.6-23.9,19.875-35.013,29.406-20.96,17.869-30.489,47.85-27.131,75.091,3.388,27.25,18.637,51.651,38.846,69.677a176.507,176.507,0,0,1,60.071-46.489c18.923-8.921,41.151-15.8,50.957-34.515,5.082-9.752,5.813-24.549,6.941-35.533,3.443-33.7,12.353-67.807,32-95.254,9.345-13.176,22.132-22.171,9.355-37.235-10.318-12.241-30.093-18.191-44.907-18.321" transform="translate(113.4 20.223)" fill="#203566"/>
                <path id="Trazado_1809" data-name="Trazado 1809" d="M268.9,103.51l12.5,3.174,1.24,301.677-118.767-1.306L139.064,108.617Z" transform="translate(155.746 115.927)" fill="#dd0f18"/>
              </g>
            </g>
            <g id="Grupo_1653" data-name="Grupo 1653" transform="translate(354.355 360.245)">
              <g id="Grupo_1652" data-name="Grupo 1652" clip-path="url(#clip-path-5)">
                <path id="Trazado_1810" data-name="Trazado 1810" d="M206.544,186.276l-.066-14.121c5.3,3.536,9.124,8.671.066,14.121" transform="translate(-123.108 -167.438)" fill="#bb696c"/>
              </g>
            </g>
            <g id="Grupo_1655" data-name="Grupo 1655">
              <g id="Grupo_1654" data-name="Grupo 1654" clip-path="url(#clip-path-2)">
                <path id="Trazado_1811" data-name="Trazado 1811" d="M222.315,194.47c-25.242,0-55.159-7.235-55.159-7.235,52.679-5.126,73.637-17.305,73.637-17.305a47.9,47.9,0,0,1,9.726,4.719l.066,14.121a35.78,35.78,0,0,1-3.277,1.713c-6.356,2.923-15.332,3.988-24.992,3.988" transform="translate(187.208 190.314)" fill="#a61e22"/>
                <path id="Trazado_1812" data-name="Trazado 1812" d="M268.251,50.737s26.945,95.485-22.338,104.6l-.083,31.749,31.84,12s-26.546,23.559-75.738,23.281c-30.184-.167-60.063-21.439-60.063-21.439l29.472-13.335c6.19-2.4,10.318-11.9,10.354-18.683l-8.013-66.539-13.833,12.067s-24.818-25.827,7.579-56.993c31.95-31.21,44.314-36.68,44.314-36.68Z" transform="translate(158.889 23.256)" fill="#f8b5ab"/>
                <path id="Trazado_1813" data-name="Trazado 1813" d="M203.413,115.082,179.744,87.211c8.586-.371,16.572-1.166,23.744-2.156Z" transform="translate(201.306 95.258)" fill="#ee8073"/>
                <path id="Trazado_1814" data-name="Trazado 1814" d="M207.4,53.6S247.6,76.779,269.959,74c0,0,.952-44.025-66.013-41.825,0,0-3.063-43.637-42.537-29.277-35.458,12.8-19.885,57.343,1.1,68.076,0,0-36.894,64.625,12.279,88.443l.6-33.792s-16.453,3.941-18.766-13.51c-2.285-17.452,11.8-28.908,23.5-11.806,0,0,27.916-8.959,27.269-46.711" transform="translate(157.183 0)" fill="#203566"/>
                <path id="Trazado_1815" data-name="Trazado 1815" d="M189.338,39.469l.036-.008a2.2,2.2,0,0,0-.231-4.2,9.7,9.7,0,0,0-3.572.157c-1.914.418-13.407,4.229-12.518,7.227,1.128,3.795,6.254-1.942,16.286-3.174" transform="translate(193.757 39.372)" fill="#203566"/>
                <path id="Trazado_1816" data-name="Trazado 1816" d="M194.686,38.326h-.038c-2.126-.25-2.434-3.451-.416-4.191a9.571,9.571,0,0,1,3.545-.473c1.942.055,13.833,1.787,13.426,4.9-.324,2.453-2.728,1.545-6.922.649a35.031,35.031,0,0,0-9.595-.888" transform="translate(216.011 37.693)" fill="#203566"/>
                <path id="Trazado_1817" data-name="Trazado 1817" d="M464.787,342.672s-67.345-29.3-91.09-49.811c-27.962-24.3-45.526-43.5-62.662-75.941-32.34-67.262-74.618-109.42-99.8-112.205,0,0-13.731,159.211-10.67,413.558l71.964.1c19,.028,33.773-14.852,32.736-32.961-2.145-38.021-13.157-103.886-22.762-170.371,9.957,11.251,28.925,22.41,42.908,32.794,45.812,33.828,105.773,49.255,117.59,48.782,15.334-.6,31.647-26.056,21.783-53.947" transform="translate(224.13 117.277)" fill="#203566"/>
                <path id="Trazado_1818" data-name="Trazado 1818" d="M216.3,165.258c.028,4.136-2.1,7.466-4.747,7.45s-4.812-3.4-4.831-7.524,2.112-7.466,4.757-7.45,4.793,3.388,4.821,7.524" transform="translate(231.516 176.656)" fill="#6bb1e1"/>
                <path id="Trazado_1819" data-name="Trazado 1819" d="M216.39,196.164c.028,4.859-2.508,8.762-5.645,8.734-3.155-.028-5.718-3.988-5.737-8.836s2.516-8.764,5.654-8.734,5.7,3.988,5.728,8.836" transform="translate(229.601 209.8)" fill="#6bb1e1"/>
                <path id="Trazado_1820" data-name="Trazado 1820" d="M214.268,231.492c-.231,4.848-3.017,8.616-6.209,8.412s-5.569-4.284-5.31-9.124c.24-4.84,3.017-8.6,6.19-8.412s5.561,4.276,5.33,9.124" transform="translate(227.048 249.035)" fill="#6bb1e1"/>
                <path id="Trazado_1821" data-name="Trazado 1821" d="M215.265,268.384c-.231,4.848-3.053,8.6-6.292,8.412-3.239-.214-5.662-4.3-5.4-9.143s3.063-8.6,6.292-8.4,5.635,4.284,5.4,9.133" transform="translate(227.968 290.342)" fill="#6bb1e1"/>
                <path id="Trazado_1822" data-name="Trazado 1822" d="M183.187,46.237c.223,2.61-1.028,4.876-2.786,5.052s-3.377-1.8-3.608-4.405c-.214-2.618,1.037-4.876,2.794-5.06s3.369,1.8,3.6,4.414" transform="translate(197.975 46.828)" fill="#203566"/>
                <path id="Trazado_1823" data-name="Trazado 1823" d="M202.26,43.583c.24,2.618-.982,4.887-2.739,5.062s-3.388-1.8-3.627-4.414.982-4.878,2.739-5.062,3.388,1.8,3.627,4.414" transform="translate(219.357 43.855)" fill="#203566"/>
                <path id="Trazado_1824" data-name="Trazado 1824" d="M288.239,521.123s-.286-213.011.352-252.366-11.325-124.743-27.769-164.208c0,0-62.376.352-100.1,132.4-18.266,63.968-101.555,229.2-112.019,248.4-5.156,9.411-15.491,26.565-6.468,32.2l23.411,14.6a23.145,23.145,0,0,0,31.683-7.893C150.857,454.222,200.759,348.474,200.7,348.982L163.532,492.8c-2.5,11.891,6.542,22.919,19.258,23.5m15.656-253.687,1.944-3.063-.2,1.592-1.74,1.471" transform="translate(43.306 117.091)" fill="#203566"/>
                <path id="Trazado_1825" data-name="Trazado 1825" d="M175.925,382.975s6.773-92.468,8.652-135.959l17.091.187S184.78,364.3,175.925,382.975" transform="translate(197.029 276.648)" fill="#2970b2"/>
                <path id="Trazado_1826" data-name="Trazado 1826" d="M190.944,108.618l.008-1.721c21.923-.74,29.12-22.236,30.731-42.88a30.375,30.375,0,0,0,3.757,4.73c.426.407.861.814,1.3,1.221v30.877s-14.13,4.766-35.791,7.774" transform="translate(213.85 71.695)" fill="#203566"/>
                <path id="Trazado_1827" data-name="Trazado 1827" d="M167.635,59.278h-.008v-.019Zm6.589,54.761a183.782,183.782,0,0,1-26.945-6.052l1.045-30.831c4,6.19,10,11.677,18.7,15.9l.528-29.279.693.611,5.978,49.654" transform="translate(164.946 66.368)" fill="#203566"/>
                <path id="Trazado_1828" data-name="Trazado 1828" d="M191.848,52.076c-.379-1.452-.787-2.906-1.185-4.359-.685-2.47-2.184-5.959-2.646-8.995a1.328,1.328,0,0,1-.019-.184v-.083a1.251,1.251,0,0,1,1.232-1.221,1.112,1.112,0,0,1,.935.509c2.533,3.545,4.265,9.779,5.773,12.972.148.305.3.611.435.916a22.378,22.378,0,0,1-2.711-1.656s-.619.806-1.813,2.1" transform="translate(210.55 41.701)" fill="#ee8073"/>
                <path id="Trazado_1829" data-name="Trazado 1829" d="M186.011,93.449,174.148,79.485a.01.01,0,0,1,.011.011c6.5,5.393,16.767,10.123,32.8,10.123.916,0,1.842-.019,2.794-.047h.008l-.008,1.721c-7.172.99-15.158,1.785-23.744,2.156" transform="translate(195.039 89.02)" fill="#ee8073"/>
                <path id="Trazado_1830" data-name="Trazado 1830" d="M148.793,43.486l.379-11.14a29.536,29.536,0,0,0,3.877,2.406s-1.9,3.322-4.257,8.734" transform="translate(166.642 36.226)" fill="#203566"/>
                <path id="Trazado_1831" data-name="Trazado 1831" d="M167.074,59.276l-.011-.008.011-.008Zm-.6,33.775c-8.7-4.219-14.7-9.707-18.7-15.9l.452-13.26a34.069,34.069,0,0,0,5.016,7.43l13.824-12.056-.074,4.5.011.011-.528,29.277" transform="translate(165.499 66.368)" fill="#203566"/>
                <path id="Trazado_1832" data-name="Trazado 1832" d="M153,77.168a33.979,33.979,0,0,1-5.016-7.43l.528-15.694c2.332,9.837,9.818,11.448,14.462,11.448a17.848,17.848,0,0,0,3.858-.39l-.009.011Z" transform="translate(165.737 60.526)" fill="#203566"/>
                <rect id="Rectángulo_1175" data-name="Rectángulo 1175" width="4.498" height="0.013" transform="translate(330.939 129.478) rotate(-45.109)" fill="#15489c"/>
                <path id="Trazado_1833" data-name="Trazado 1833" d="M149.063,36.99l.047-1.166s.4-.184,1.2-.519c-.426.547-.833,1.111-1.251,1.685M260.2,48.2,251.9,43.8c.212-3.922-1.251-8.143-5.359-12.983a41.159,41.159,0,0,0-8.957-7.791q6.039.223,12.455.723A38.529,38.529,0,0,1,260.2,48.2" transform="translate(166.945 25.788)" fill="#203566"/>
                <path id="Trazado_1834" data-name="Trazado 1834" d="M252.472,43.907,213.553,23.263c4.359-.212,8.921-.333,13.686-.333q5.3,0,10.918.2a41.152,41.152,0,0,1,8.957,7.791c4.108,4.84,5.571,9.059,5.357,12.983M148.549,69.317l.517-15.287c2.36-5.412,4.257-8.734,4.257-8.734a29.535,29.535,0,0,1-3.877-2.406l.2-5.792c.416-.575.823-1.138,1.249-1.685,4.164-1.738,19.071-7.375,43.213-10.447-7.079,5.266-18.164,14.435-34.155,30.055a63.478,63.478,0,0,0-11.4,14.3" transform="translate(166.369 25.681)" fill="#203566"/>
                <path id="Trazado_1835" data-name="Trazado 1835" d="M148.453,75.082l.2-5.94a63.477,63.477,0,0,1,11.4-14.3c15.991-15.62,27.076-24.789,34.155-30.055,5.932-.759,12.419-1.35,19.451-1.7l38.92,20.644,8.3,4.405v.008c-.536.064-1.083.11-1.639.148-3.294-1.777-10.271-2.75-11.715-2.794-.138-.011-.278-.011-.416-.011a9.148,9.148,0,0,0-3.127.481,2.036,2.036,0,0,0-.8.528c-21.134-5.079-44.869-18.757-44.869-18.757.481,28.094-14.85,40.243-22.734,44.621l-4.535,2.082c-4.062-5.932-8.412-8.42-12.262-8.42-4.59,0-8.484,3.553-10.335,9.059" transform="translate(166.261 25.858)" fill="#203566"/>
                <path id="Trazado_1836" data-name="Trazado 1836" d="M159.111,48.422v-.008l4.535-2.084a28.824,28.824,0,0,1-4.535,2.092" transform="translate(178.198 51.888)" fill="#15489c"/>
                <path id="Trazado_1837" data-name="Trazado 1837" d="M174.589,43.92a1.5,1.5,0,0,1-1.537-1.276c-.888-3,10.6-6.811,12.521-7.227a11.175,11.175,0,0,1,2.313-.261,7.263,7.263,0,0,1,1.259.1,2.2,2.2,0,0,1,.231,4.2l-.036.008c-7.6.935-12.391,4.452-14.751,4.452" transform="translate(193.756 39.373)" fill="#203566"/>
                <path id="Trazado_1838" data-name="Trazado 1838" d="M209.324,39.617a30.346,30.346,0,0,1-5.043-.935,36.353,36.353,0,0,0-7.893-.935c-.555,0-1.119.011-1.7.047h-.038a2.21,2.21,0,0,1-1.211-3.663,59.59,59.59,0,0,0,13.739,1.878c.786,0,1.556-.028,2.313-.085,1.121.611,1.815,1.314,1.713,2.111a1.62,1.62,0,0,1-1.878,1.581" transform="translate(216.012 38.225)" fill="#203566"/>
                <path id="Trazado_1839" data-name="Trazado 1839" d="M206.882,36.542a59.622,59.622,0,0,1-13.742-1.878,2.036,2.036,0,0,1,.8-.528,9.148,9.148,0,0,1,3.127-.481c.138,0,.278,0,.416.011,1.444.045,8.421,1.018,11.715,2.794-.759.055-1.526.083-2.313.083" transform="translate(216.309 37.692)" fill="#203566"/>
                <path id="Trazado_1840" data-name="Trazado 1840" d="M180.171,51.493c-1.675,0-3.154-1.9-3.377-4.369-.214-2.588,1.037-4.819,2.794-5a1.862,1.862,0,0,1,.212-.008c1.685,0,3.165,1.883,3.388,4.369.223,2.578-1.028,4.817-2.786,4.99a1.815,1.815,0,0,1-.231.019" transform="translate(197.975 47.166)" fill="#203566"/>
                <path id="Trazado_1841" data-name="Trazado 1841" d="M199.291,48.652c-1.668,0-3.167-1.916-3.4-4.422-.25-2.61.982-4.878,2.739-5.062a1.955,1.955,0,0,1,.223-.008c1.675,0,3.174,1.914,3.4,4.422.242,2.618-.982,4.887-2.739,5.062-.074,0-.157.008-.229.008" transform="translate(219.356 43.856)" fill="#203566"/>
                <path id="Trazado_1842" data-name="Trazado 1842" d="M155.5,64.9c-3.636,0-7.32-8.189-3.072-15.4a6.457,6.457,0,0,1,5.135-3.22h.167a4.325,4.325,0,0,1,1.48.286l.564.343.278.979c.011,3.063-2.885.844-5.357,3.814l-.74,1.59c-1.925,7.857.3,10.606,1.565,11.6Z" transform="translate(168.584 51.84)" fill="#ee8073"/>
                <path id="Trazado_1843" data-name="Trazado 1843" d="M190.12,68.258a32.113,32.113,0,0,1-8.092-4.094l.273-.555c.555.2,1.2.424,1.916.657,5.6,1.815,15.6,4.089,22.807.333l.314.452c-2.5,2.287-8.31,6.093-17.218,3.208" transform="translate(203.864 71.239)" fill="#ac4932"/>
                <path id="Trazado_1844" data-name="Trazado 1844" d="M187.443,81.314l-.42-.021a4.513,4.513,0,0,1-.943-.2,81.917,81.917,0,0,1,7.755-4.776,10.887,10.887,0,0,0,2.991-2.029c1.55-1.762,1.34-4.2.905-6.368-1.431-7.32-3.477-14.761-5.459-21.986-.549-2.042-1.863-4.95-2.186-7.437a1.1,1.1,0,0,1,1.249-1.164,1.189,1.189,0,0,1,.882.454c2.307,3.017,3.721,8.187,5.056,10.852q3.752,7.5,7.683,14.956a19.431,19.431,0,0,1,1.836,9.336l-.021.418c-.034.466-.066.95-.112,1.465l-.432,1.408-1.836.89q-7.082,1.863-14.161,3.733a10.755,10.755,0,0,1-2.786.473" transform="translate(208.402 41.805)" fill="#ee8073"/>
              </g>
            </g>
          </g>
        </g>
      </g>
    </g>
  </g>
</svg>
