<svg xmlns="http://www.w3.org/2000/svg" xmlns:xlink="http://www.w3.org/1999/xlink" width="1923.62" height="1080" viewBox="0 0 1923.62 1080">
  <defs>
    <clipPath id="clip-path">
      <rect id="Rectángulo_375" data-name="Rectángulo 375" width="1923.62" height="1080" transform="translate(-28.62)" fill="none"/>
    </clipPath>
    <clipPath id="clip-path-2">
      <rect id="Rectángulo_1198" data-name="Rectángulo 1198" width="673.542" height="1370.045" fill="none"/>
    </clipPath>
    <clipPath id="clip-path-3">
      <rect id="Rectángulo_1199" data-name="Rectángulo 1199" width="114.352" height="115.584" fill="none"/>
    </clipPath>
    <clipPath id="clip-path-4">
      <rect id="Rectángulo_1200" data-name="Rectángulo 1200" width="38.896" height="111.125" fill="none"/>
    </clipPath>
    <clipPath id="clip-path-6">
      <rect id="Rectángulo_1202" data-name="Rectángulo 1202" width="120.44" height="136.101" fill="none"/>
    </clipPath>
    <clipPath id="clip-path-8">
      <rect id="Rectángulo_1204" data-name="Rectángulo 1204" width="111.006" height="116.077" fill="none"/>
    </clipPath>
  </defs>
  <g id="Grupo_1867" data-name="Grupo 1867" transform="translate(28.62)" opacity="0.996">
    <g id="Grupo_279" data-name="Grupo 279" clip-path="url(#clip-path)">
      <g id="Grupo_1866" data-name="Grupo 1866" transform="translate(17.919 20.284)" opacity="0.9">
        <g id="Grupo_1868" data-name="Grupo 1868" transform="translate(-17.92 -20.283)" opacity="0.9">
          <g id="Grupo_1698" data-name="Grupo 1698">
            <g id="Grupo_1715" data-name="Grupo 1715" transform="translate(1159.381 244.038)">
              <g id="Grupo_1700" data-name="Grupo 1700">
                <g id="Grupo_1699" data-name="Grupo 1699" clip-path="url(#clip-path-2)">
                  <path id="Trazado_2049" data-name="Trazado 2049" d="M196.573,481.806,157.12,494.856,71.94,540.748S11.574,542.706,0,582.855c0,0,162.492,12.516,223.5-20.316l-3.777-89.525" transform="translate(0 782.329)" fill="#1b1d22"/>
                  <path id="Trazado_2050" data-name="Trazado 2050" d="M171.107,497.627s-14.281,81.632-14.27,89.934c0,0,112.9,22.463,142.81-5.8,0,0-26.274-71.223-44.533-104.267-22.166-40.533-84.007,20.133-84.007,20.133" transform="translate(259.396 766.66)" fill="#1b1d22"/>
                  <path id="Trazado_2051" data-name="Trazado 2051" d="M156.837,543.751s117.691-115.714,184.1-7.479c0,0-96.1,33.912-184.1,7.479" transform="translate(259.396 810.477)" fill="#1b1d22"/>
                  <path id="Trazado_2052" data-name="Trazado 2052" d="M172.6,550.7s37.28-90.361,108.439-51.627c33.267,16.744,33.835,38.2,33.835,38.2S241.7,568.333,172.6,550.7" transform="translate(285.469 809.472)" fill="#1b3b6c"/>
                  <path id="Trazado_2053" data-name="Trazado 2053" d="M22.57,165.515C10.107,162.606,6.835,142.1,2.631,132.93c-4.066-9.071,21.852-14.334,23.447-13.808C23.812,112.327,29.64,94.09,36.8,108.681c.191-12.805-14.74-39.047-15.127-41.507a6.149,6.149,0,0,1,3.307-6.717c3.636-1.68,9.018-.342,11.778,2.588,11.072,11.714,15.9,45.892,19.307,55.541,2.227-3.36,8.044-21.993,12.678-25.576,1.807-1.415,7.941-2.033,9.435-.183l.685,2.5c.459,13.437-7.606,25.342-8.418,38.7-.332,6,.95,11.919-1.5,17.4a63.007,63.007,0,0,1-10.963,16.656c-6.332,6.752-23.14,22.861-23.118,32.179-1.048-.47-.127-.31.311-.141.279.1.374.194-.311.141-5.7-.427,3.113,49.368-2.46,49.838-1.2.1,6.494-57.338,5.252-57.582-2.32-.462-4.437-24.541-15.082-27.012" transform="translate(3.637 98.774)" fill="#c17971"/>
                  <path id="Trazado_2054" data-name="Trazado 2054" d="M36.753,72.2s-6.815-1.027-9.509,13.554c0,0,3.1,4.342,7.776,4.183,0,0,4.578-10.013,1.733-17.736" transform="translate(45.059 119.395)" fill="#f8dcd8"/>
                  <path id="Trazado_2055" data-name="Trazado 2055" d="M383.229,248.236c41.5,92.842,28.625,118.53,32,179.825,3.713,66.688,21.64,167.157,20.581,227.1C434.5,720.491,456.87,964.668,456.87,964.668S404,1000.422,351.138,966.112L286.814,677.938l-36.468-182.3c-3.37-17.418-18.7-14.785-21.491,3.23L161.077,982.054S75.6,998.89,55.045,981.722c0,0-40.767-413.89,59.756-720.731,56.964-173.728,268.428-12.755,268.428-12.755" transform="translate(77.516 298.247)" fill="#2770b1"/>
                  <path id="Trazado_2056" data-name="Trazado 2056" d="M114.1,105.542l-14.676,3.723L89.809,450.6l145.913-4.483,29.769-336.313Z" transform="translate(148.538 174.557)" fill="#de1d2e"/>
                  <path id="Trazado_2057" data-name="Trazado 2057" d="M89.885,51.363l-.085.194A15.2,15.2,0,0,0,93.553,68.65c-6.9-.642-10.7,5.422-10.4,12.312.31,6.868,4.835,12.6,11.542,10.515-4.313,11.234-2.749,24.047,6.717,31.826a27.475,27.475,0,0,0,27.128,3.893A412,412,0,0,0,116.907,55.16C115.57,49.908,111.281,42.313,104.957,42a16.24,16.24,0,0,0-15.072,9.36" transform="translate(137.508 69.444)" fill="#152737"/>
                  <path id="Trazado_2058" data-name="Trazado 2058" d="M88.668,62.981c.685-4.642,3.24-9.286,7.444-11.489,3.67-1.916,7.98-1.775,12.067-1.6l1.606.321,1.261,1.606c2.505,5.38,2.492,11.725.91,17.542-1.627,6.024-6.375,20.433-14.785,17.266-7.67-2.9-9.509-16.8-8.5-23.652" transform="translate(146.233 82.364)" fill="#c17971"/>
                  <path id="Trazado_2059" data-name="Trazado 2059" d="M100.383,30.956s1.858,47.229-4.721,71.767c-9.947,36.81-5.979,71.064,40.109,80.167l-.56,35.878L97.814,232.7s23.554,34.66,81.255,33.708c35.4-.568,77.195-33.193,77.195-33.193l-34.339-14.689c-7.189-2.63-15.77-37.449-15.759-45.088l.486-.494a46.449,46.449,0,0,0,13.357-33.376l-.342-17.02L235.5,136.024s28.455-29.236-8.471-64.119C191.009,36.871,177.092,30.73,177.092,30.73Z" transform="translate(150.835 50.825)" fill="#c17971"/>
                  <path id="Trazado_2060" data-name="Trazado 2060" d="M107.779,123.943v-.011l.568-35.868-.557,35.868Z" transform="translate(178.258 145.652)" fill="#c17971"/>
                  <path id="Trazado_2061" data-name="Trazado 2061" d="M107.783,126.386l.555-35.868a64.425,64.425,0,0,0,13.522,1.348c7.094,0,15.982-1.1,24.114-5.287Z" transform="translate(178.265 143.197)" fill="#903a32"/>
                  <path id="Trazado_2062" data-name="Trazado 2062" d="M121.019,48.086l-.032-.011c-2.333-.7-2.065-4.3.321-4.74a11.324,11.324,0,0,1,4.063.162c2.163.459,15.17,4.716,14.132,8.1-1.327,4.278-7.091-2.171-18.485-3.508" transform="translate(197.431 71.479)" fill="#1b3b6c"/>
                  <path id="Trazado_2063" data-name="Trazado 2063" d="M116.468,47.781h.042a2.5,2.5,0,0,0,.568-4.74,11.115,11.115,0,0,0-4.023-.523c-2.213.085-15.767,2.1-15.372,5.616.311,2.781,3.071,1.744,7.874.7a39.985,39.985,0,0,1,10.91-1.048" transform="translate(161.547 70.308)" fill="#1b3b6c"/>
                  <path id="Trazado_2064" data-name="Trazado 2064" d="M61.441,94.292S81.4,275.324,107.1,257.564c44.042-30.539,85.483-142.391,191.045-137.1,0,0-36.961,72.067-48.461,419.1,0,0-101.773-40.478-99.355-65.305,5.005-52.107,20.186-100.31,37.022-191.462-14.849,15.6-85.119,65.682-106.128,80.284C11.794,410.741,27.232,96.742,10.735,96.251c-7.144-.215-5.658,3.763.085,7.744,11.5,7.97,40.042,15.929,50.621-9.7" transform="translate(9.803 155.952)" fill="#c17971"/>
                  <path id="Trazado_2065" data-name="Trazado 2065" d="M120.774,54.224c-.289,2.951,1.1,5.5,3.113,5.69s3.872-2.054,4.172-4.995c.279-2.954-1.112-5.5-3.124-5.7-2-.183-3.861,2.054-4.161,5.005" transform="translate(199.687 81.386)" fill="#1b1d22"/>
                  <path id="Trazado_2066" data-name="Trazado 2066" d="M100,52.518c-.342,2.951,1,5.51,3.018,5.711,2,.194,3.893-2.054,4.225-5.016s-1.006-5.52-3.007-5.711-3.893,2.051-4.236,5.016" transform="translate(165.311 78.546)" fill="#1b1d22"/>
                  <path id="Trazado_2067" data-name="Trazado 2067" d="M448.072,509.954a13.911,13.911,0,0,0-2.086-4.108c-4.61-6.526-14.825-17.7-20.934-23.888C418.794,475.7,410.1,463.5,398.661,463.7l-1.476-.257c3.06-15.212-78.872-133.941-99.626-202.842C249.455,94.79,147.616,101.518,147.616,101.518c-19.459,44.673-3.4,152.824-2.845,197.141s-8.644,193.012-8.644,193.012l130.188-8.246c15.693-1-2.1-19.459-5.34-32.744L238.213,319.723c-.074-.557,61.595,117,125.822,159.477-.353,1.507-.794,2.994-1,4.522-.589,4.75,2.128,9.095,3.5,13.811,2.994,10.56-.7,21.428,3.389,31.773l1.285,1.818c1.818,1.133,6.975-.6,8.142-2.054,3.025-3.713,3.8-13.917,4.79-16.977,5.629,6.8,18.519,26.892,31.537,33.707,3.251,1.712,8.333,1.648,11.019-.4a4.334,4.334,0,0,0,.929-5.863c-1.048-1.807-21.566-19.095-25.032-29.034,18.593,23.631,28.049,27.922,33.259,24.788A3.023,3.023,0,0,0,437.108,531c-1.136-2.086-2.986-3.668-4.719-5.433-2.16-2.171-4.268-4.387-6.354-6.632-4.214-4.514-8.28-9.2-12.184-13.991,1.518.085,13.67,14.814,20.069,20.239,3.421,2.951,12.107,3.54,11.189-3.339-.462-3.294-4.888-7.829-7.458-10.387q-5.374-5.358-10.932-10.762c.727-.311,6.911,6.773,13.469,10.409,6.834,4.644,8.129-.244,7.882-1.154m-197.29-221.51-.279-1.775,2.386,3.4-2.107-1.627" transform="translate(225.144 167.84)" fill="#c17971"/>
                  <path id="Trazado_2068" data-name="Trazado 2068" d="M226.908,272.32s6.194-.568,4.482-12.442c0,0-3.872-2.749-7.874-1.68,0,0-1.2,8.7,3.392,14.121" transform="translate(369.447 426.633)" fill="#f8dcd8"/>
                  <path id="Trazado_2069" data-name="Trazado 2069" d="M247.917,262.449a2.375,2.375,0,0,0-1.091,2.686c.364,1.327,1.582,2.32,2.524,3.262.77.759,2.118,1.927,3.413,1.412a4.314,4.314,0,0,0,2.343-2.641c.17-1.136-3.381-6.377-7.189-4.719" transform="translate(408.096 433.539)" fill="#f8dcd8"/>
                  <path id="Trazado_2070" data-name="Trazado 2070" d="M250.683,258.636a2.816,2.816,0,0,0-1.3,3.049c.353,1.486,1.669,2.609,2.686,3.668.812.857,2.277,2.184,3.731,1.584a5.038,5.038,0,0,0,2.686-2.975c.226-1.292-3.519-7.208-7.808-5.326" transform="translate(412.35 427.159)" fill="#f8dcd8"/>
                  <path id="Trazado_2071" data-name="Trazado 2071" d="M252.674,253.979a1.887,1.887,0,0,0-1.391,1.86,5.979,5.979,0,0,0,1.561,2.8c.515.685,1.457,1.744,2.633,1.542l2.428-1.648c.342-.833-1.722-5.273-5.231-4.557" transform="translate(415.6 419.932)" fill="#f8dcd8"/>
                  <path id="Trazado_2072" data-name="Trazado 2072" d="M244.193,264.343a3.1,3.1,0,0,0-2.7,3.134c.085,1.948,1.616,3.83,2.75,5.541.91,1.37,2.577,3.562,4.761,3.455,1.659-.085,4-1.3,4.567-2.534.685-1.457-2.824-10.109-9.382-9.6" transform="translate(399.413 437.166)" fill="#f8dcd8"/>
                  <path id="Trazado_2073" data-name="Trazado 2073" d="M129.465,335c-4.61-8.856-10.7-37.858-16.152-68.227l11.852,1.091c2.182,36.136,4.3,67.136,4.3,67.136" transform="translate(187.411 441.22)" fill="#18478c"/>
                  <path id="Trazado_2074" data-name="Trazado 2074" d="M146.471,74.587c1.465-1.133,4.013-4.236,1.839-13.073l-.844-1.807c-2.8-3.294-6.1-.823-6.12-4.193V55.46l.332-1.1.653-.385a5.043,5.043,0,0,1,1.818-.332,7.275,7.275,0,0,1,5.9,3.593,15.065,15.065,0,0,1,2.16,7.327v.77c-.138,5.146-2.962,9.254-5.743,9.254" transform="translate(233.775 88.72)" fill="#903a32"/>
                  <path id="Trazado_2075" data-name="Trazado 2075" d="M120.845,109.257a32.133,32.133,0,0,1-8.7-1.274c-9.973-2.781-13.32-7.948-13.363-13.511v-.255c.056-6.184,4.119-12.795,7.635-17.083,6-7.327,17.1-34.092,19.5-34.307h.056c.242.021.4.374.406,1.123,0,0-2.967,16.507-12.6,30.958-8.57,12.837-9.854,20.764.032,25.963a16.322,16.322,0,0,0,7.614,1.648c9.191,0,19.35-5.231,19.35-5.231a21.969,21.969,0,0,1-19.936,11.969" transform="translate(163.384 70.833)" fill="#903a32"/>
                  <path id="Trazado_2076" data-name="Trazado 2076" d="M103.21,72.689c6.075,1.027,26.9,3.851,41.345-2.418a1.29,1.29,0,0,1,1.775,1.6c-2.824,7.444-11.937,26.25-31.109,22.7-10.43-1.8-12.986-15.5-13.575-20.422Z" transform="translate(168.116 116.035)" fill="#1b3b6c"/>
                  <path id="Trazado_2077" data-name="Trazado 2077" d="M215.822,102.26S172,85.732,80.223,181.591c0,0-20.743,35.024-37.763,45.186L73.184,365.041l77.426-72.187,85.345,42.927,13.105-187.63s-33.806-10.013-33.238-45.892" transform="translate(70.226 167.333)" fill="#b7baba"/>
                  <path id="Trazado_2078" data-name="Trazado 2078" d="M177.912,99.77s90.531,5.167,116.741,59.23c0,0,63.423,124,78.742,150.255l-70.719,87.71-63.917-109.05L115.364,338.106l13.116-187.64s49.175-14.912,49.432-50.7" transform="translate(190.803 165.012)" fill="#b7baba"/>
                  <path id="Trazado_2079" data-name="Trazado 2079" d="M112.415,88.963c16.73,8.58,34.22-3.639,38.97-13.028,0,0,3.262,15.735,25.812,7.818,0,0,14.122,17.747,37.057,7.776,0,0-11.136,25.427-.247,35.847l7.98,10.451s2.739-25.748,21.813-16.921c19.127,8.814,7.97,44.918-15.533,37.375l-1.744,32.511s20.271,18.933,31.4.555c0,0,30.329-1.261,28.145-29.031,0,0,25.268-17.083-2.887-46.94,0,0,11.03-16.3-8.88-31.974,0,0,3.851-35.91-9.647-39.987,0,0-6.4-19.674-20.626-17.694-14.249,2-16.226,6.6-16.226,6.6s-4.5-17.726-17.887-19.695c-13.36-1.956-19.3,5.287-19.3,5.287S170.576-.508,144.848,15.986c0,0-21.319-10.536-29.214,5.969-7.938,16.518-2.1,18.474-2.1,18.474s-57.871,27.792-5.831,82.126" transform="translate(142.234 15.089)" fill="#1b1d22"/>
                  <path id="Trazado_2080" data-name="Trazado 2080" d="M103.647,81.018s12.848-12.879,28.53-.536c0,0-13.747,15.971-28.53.536" transform="translate(171.424 124.263)" fill="#de1d2e"/>
                  <path id="Trazado_2081" data-name="Trazado 2081" d="M94.781,59.937s22.455-75.289,107.112-57.1c78.293,16.624,63.339,100.308,63.339,100.308S239.6,86.564,154.781,74.613c-84.474-12.012-60-14.676-60-14.676" transform="translate(151.312 0.002)" fill="#1b3b6c"/>
                  <path id="Trazado_2082" data-name="Trazado 2082" d="M193.536,101.583s-13.97,46.94,32.542,121.95L205.8,539.767S91.118,575.2,55.935,507.6c0,0,49.477-332.032,40.908-379.872,0,0,9.992-25.918,96.693-26.144" transform="translate(92.512 168.01)" fill="#1b3b6c"/>
                  <path id="Trazado_2083" data-name="Trazado 2083" d="M182.735,100.154s-1.68,49.8-50.085,125.833L112.422,539.1s177.8,42.768,214.469-25.833c0,0-61-341.353-51.324-388.967,0,0-6.162-25.533-92.832-24.143" transform="translate(185.937 165.557)" fill="#1b3b6c"/>
                  <path id="Trazado_2084" data-name="Trazado 2084" d="M124.128,101.583S90.248,137.034,99.5,183.342l57.864-35.868s-33.806-10.013-33.238-45.892" transform="translate(161.92 168.01)" fill="#fff"/>
                  <path id="Trazado_2085" data-name="Trazado 2085" d="M114.813,268.831l-2.407-.212.194-3.092c.255.064.833.2,1.691.4.17.974.34,1.937.523,2.909m13.875,1.274-2.022-.183c-.032-.48-.064-.95-.085-1.423.7.141,1.412.279,2.16.419l-.053,1.186" transform="translate(185.911 439.161)" fill="#0f4e8b"/>
                  <path id="Trazado_2086" data-name="Trazado 2086" d="M125.493,269.677l-11.852-1.091c-.183-.974-.353-1.937-.525-2.911,2.248.515,6.494,1.446,12.293,2.58.021.47.053.942.085,1.423" transform="translate(187.083 439.406)" fill="#23356e"/>
                  <path id="Trazado_2087" data-name="Trazado 2087" d="M120.133,157.182l9.562-15.714q-4.443,7.651-9.562,15.714" transform="translate(198.691 233.977)" fill="#6d8091"/>
                  <path id="Trazado_2088" data-name="Trazado 2088" d="M128.62,475.035c-.748-.138-1.465-.279-2.16-.417-5.8-1.133-10.045-2.065-12.293-2.58-.855-.191-1.433-.332-1.688-.4L132.556,158.5l.236-.385q5.135-8.073,9.562-15.717l.9-1.5Z" transform="translate(186.032 233.043)" fill="#182a55"/>
                  <path id="Trazado_2089" data-name="Trazado 2089" d="M120.306,150.464l60.642,26.828s4.087-48.235-11.21-77.524c0,0-17.415,45.828-49.432,50.7" transform="translate(198.977 165.01)" fill="#fff"/>
                </g>
              </g>
              <g id="Grupo_1702" data-name="Grupo 1702" transform="translate(179.888 412.114)">
                <g id="Grupo_1701" data-name="Grupo 1701" clip-path="url(#clip-path-3)">
                  <path id="Trazado_2090" data-name="Trazado 2090" d="M162.673,270.227a24.675,24.675,0,0,0,10.475-5.658,16.331,16.331,0,0,1-10.475,5.658m-77.747.629c-2.16,0-31.3-2.03-8.429-113.787,0,0,24.668-1.783,51.4-1.783,20.109,0,41.388,1.006,54.233,4.557L179.063,212.4c-3.5,28.368-10.977,57.691-26.905,58.012l-67.1.446h-.127" transform="translate(-67.779 -155.283)" fill="#182a55"/>
                </g>
              </g>
              <g id="Grupo_1704" data-name="Grupo 1704" transform="translate(264.087 416.671)">
                <g id="Grupo_1703" data-name="Grupo 1703" clip-path="url(#clip-path-4)">
                  <path id="Trazado_2091" data-name="Trazado 2091" d="M120.677,261.731a14.287,14.287,0,0,0,3.36-8.333l2.556-43.838A454.169,454.169,0,0,0,129.674,157a15,15,0,0,1,8.665,13.715c.417,16.592-1.144,40.072-2.312,51.592-2.224,21.77-8.567,33.344-15.35,39.421m-16.356,6.385a19.284,19.284,0,0,1-4.814-.536c.053,0,.117-.011.183-.011l8.556-.053a17.008,17.008,0,0,0,1.959-.127,24,24,0,0,1-5.884.727" transform="translate(-99.51 -157.002)" fill="#17244e"/>
                </g>
              </g>
              <g id="Grupo_1706" data-name="Grupo 1706">
                <g id="Grupo_1705" data-name="Grupo 1705" clip-path="url(#clip-path-2)">
                  <path id="Trazado_2092" data-name="Trazado 2092" d="M99.576,234.817c15.929-.321,23.4-29.642,26.9-58.012l-2.556,43.838a14.287,14.287,0,0,1-3.36,8.333,24.652,24.652,0,0,1-10.472,5.658,16.4,16.4,0,0,1-1.956.13Z" transform="translate(164.691 292.422)" fill="#0b1e3c"/>
                  <path id="Trazado_2093" data-name="Trazado 2093" d="M71.82,176.161S141.4,228.342,175.456,157c0,0,2.044,43.047-58.386,42.617C90,197.469,71.82,176.161,71.82,176.161" transform="translate(118.785 259.669)" fill="#1b3b6c"/>
                </g>
              </g>
              <g id="Grupo_1708" data-name="Grupo 1708" transform="translate(151.818 558.624)">
                <g id="Grupo_1707" data-name="Grupo 1707" clip-path="url(#clip-path-6)">
                  <path id="Trazado_2094" data-name="Trazado 2094" d="M170.3,328.15v-.042l7.349-101.475v.117l-7.338,101.359a.105.105,0,0,1-.011.042m-43.015,18.442a128.638,128.638,0,0,1-20.6-1.807c-52.845-8.7-49.432-31.279-49.432-31.279L71.872,210.491s40.273,18.238,82.465,18.238a125.507,125.507,0,0,0,21.181-1.712l-7.436,1.359C163.663,321.9,152.153,340.3,148.549,343.8a74.187,74.187,0,0,1-21.266,2.792" transform="translate(-57.206 -210.488)" fill="#182a55"/>
                </g>
              </g>
              <g id="Grupo_1710" data-name="Grupo 1710">
                <g id="Grupo_1709" data-name="Grupo 1709" clip-path="url(#clip-path-2)">
                  <path id="Trazado_2095" data-name="Trazado 2095" d="M119.279,216.958l2.128-.385c-.706.138-1.412.268-2.128.385M91.208,334.542a3.118,3.118,0,0,0,1.1-.8c16.688-4.965,21.417-14.9,21.749-15.65-.194.929-3.639,16.258-22.85,16.452" transform="translate(150.851 358.195)" fill="#17244e"/>
                  <path id="Trazado_2096" data-name="Trazado 2096" d="M91.623,333.741c3.6-3.5,15.114-21.9,19.533-115.424l7.436-1.359c.717-.117,1.422-.247,2.128-.385l-7.349,101.475v.042c-.332.748-5.061,10.687-21.749,15.65" transform="translate(151.537 358.195)" fill="#0b1e3c"/>
                </g>
              </g>
              <g id="Grupo_1712" data-name="Grupo 1712" transform="translate(355.655 410.275)">
                <g id="Grupo_1711" data-name="Grupo 1711" clip-path="url(#clip-path-8)">
                  <path id="Trazado_2097" data-name="Trazado 2097" d="M231.527,268.019a23.85,23.85,0,0,0,10.247-5.937,15.764,15.764,0,0,1-10.247,5.937m-77.8,2.643c-2.845,0-31.12-2.728-14.528-112.739,0,0,33.644-3.328,65.05-3.328,15.618,0,30.679.825,40.767,3.286l-.2,52.224c-1.959,28.378-7.864,57.84-23.92,58.365h.011l-66.943,2.182a2.181,2.181,0,0,1-.236.011" transform="translate(-134.011 -154.585)" fill="#182a55"/>
                </g>
              </g>
              <g id="Grupo_1714" data-name="Grupo 1714">
                <g id="Grupo_1713" data-name="Grupo 1713" clip-path="url(#clip-path-2)">
                  <path id="Trazado_2098" data-name="Trazado 2098" d="M170.978,198.2a18.721,18.721,0,0,1-4.225-.417l8.739-.289a14.945,14.945,0,0,0,1.882-.162,23.765,23.765,0,0,1-6.4.868" transform="translate(275.797 326.375)" fill="#17244e"/>
                  <path id="Trazado_2099" data-name="Trazado 2099" d="M183.424,199.179c-2.086-14.355-4.076-28.54-5.9-42.266a15.626,15.626,0,0,1,4.952,10.528c.77,9.488,1,21.266.953,31.738" transform="translate(293.603 259.522)" fill="#5b7185"/>
                  <path id="Trazado_2100" data-name="Trazado 2100" d="M174.617,260.037a13.858,13.858,0,0,0,2.877-8.333l.162-43.646a447.64,447.64,0,0,0,.2-52.224,14.618,14.618,0,0,1,4.461,2.869c1.829,13.723,3.819,27.909,5.9,42.264-.032,7.7-.215,14.7-.449,19.565-1.038,21.632-6.72,33.291-13.158,39.506" transform="translate(288.803 257.736)" fill="#17244e"/>
                  <path id="Trazado_2101" data-name="Trazado 2101" d="M166.76,233.876h-.011c16.056-.526,21.961-29.984,23.92-58.365l-.162,43.646a13.858,13.858,0,0,1-2.877,8.333,23.9,23.9,0,0,1-10.249,5.937,15.455,15.455,0,0,1-1.882.159Z" transform="translate(275.79 290.282)" fill="#0b1e3c"/>
                  <path id="Trazado_2102" data-name="Trazado 2102" d="M137.167,177.589s72.452,49.979,102.64-21.76c0,0,4.387,42.715-56.085,43.861-27.2-1.415-46.555-22.1-46.555-22.1" transform="translate(226.864 257.729)" fill="#1b3b6c"/>
                  <path id="Trazado_2103" data-name="Trazado 2103" d="M254,316.978a.185.185,0,0,0,.011-.053l-7.98-100.438,7.98,100.448a.105.105,0,0,1-.011.042m-51.165,23H201.37c-2.611-.021-5.329-.106-8.2-.268C139.1,336.5,139.08,314.025,139.08,314.025l-.857-102.556s32.049,10.292,67.885,10.292a142.382,142.382,0,0,0,37.848-4.674l-7.187,2.086c9.711,92.211,1.07,111.518-2,115.358-7.489,3.092-17.789,5.372-31.932,5.446" transform="translate(228.61 349.754)" fill="#182a55"/>
                  <path id="Trazado_2104" data-name="Trazado 2104" d="M184.4,213.96l2.075-.6c-.685.2-1.38.406-2.075.6M174.23,332.314a3.264,3.264,0,0,0,.985-.91c15.884-6.579,19.042-16.836,19.233-17.553-.042.985-1.165,16.346-20.218,18.463" transform="translate(288.163 352.881)" fill="#17244e"/>
                  <path id="Trazado_2105" data-name="Trazado 2105" d="M174.6,331.4c3.071-3.84,11.714-23.15,2-115.361l7.187-2.086c.7-.191,1.391-.4,2.075-.6l7.98,100.435a.186.186,0,0,1-.011.053c-.191.719-3.347,10.977-19.233,17.556" transform="translate(288.775 352.883)" fill="#0b1e3c"/>
                  <path id="Trazado_2106" data-name="Trazado 2106" d="M116.483,541.351s-7.458-51.882-68.28-41.077C.523,508.723,0,540.217,0,540.217s73.309,10.141,116.483,1.133" transform="translate(0 824.966)" fill="#1b3b6c"/>
                  <path id="Trazado_2107" data-name="Trazado 2107" d="M223.842,501.274S166.889,538.747,1.691,528.23a11.35,11.35,0,0,0-1.306,4.023A27.9,27.9,0,0,0,0,536.1s11.929,1.627,22.359,2.643c6.279.61,27,2.044,27,2.044s124.389,3.487,174.142-25" transform="translate(0 829.069)" fill="#b7baba"/>
                  <path id="Trazado_2108" data-name="Trazado 2108" d="M159.942,503.442s73.426,30.99,179.479,2.16c0,0,1.669.462,2.29,4.225.608,3.649,0,4.27,0,4.27s-24.273,14.578-79.772,18.848c-26.465,2.022-59.488,1.433-105.57-11.489" transform="translate(258.624 832.654)" fill="#b7baba"/>
                  <path id="Trazado_2109" data-name="Trazado 2109" d="M25.585,87.972a15.021,15.021,0,0,1-.618-5.157A7.136,7.136,0,0,1,28.432,77.1a8.219,8.219,0,0,1,3.357-1.059h.759a5.7,5.7,0,0,1,3.992,2.139,22.95,22.95,0,0,1,.257,3.5c-1.948-3.968-3.8-5.51-5.414-5.51-3.325,0-5.658,6.537-5.8,11.8M2.48,102.489a8.622,8.622,0,0,1-.279-1.882v-.342c.011-.162.011-.311.032-.472a5.546,5.546,0,0,1,3.36-4.5,9.205,9.205,0,0,1,3.678-.855,6.137,6.137,0,0,1,2.7.6,11.714,11.714,0,0,1-.738-3.585,6.663,6.663,0,0,1,2.834-5.743,7.864,7.864,0,0,1,4.291-1.468c3.6,0,6.011,3.434,7.155,6.452.183.47.364.942.557,1.4a.039.039,0,0,0,.011.032,1.516,1.516,0,0,0-.364-.032c-3.028,0-20.764,3.83-23.235,10.4" transform="translate(3.64 125.773)" fill="#c17971"/>
                  <path id="Trazado_2110" data-name="Trazado 2110" d="M17.507,126.626a1.493,1.493,0,0,0-.78-.279c-.194,0-.374-.011-.547-.011a14.05,14.05,0,0,0-1.606.1,6.9,6.9,0,0,1-2.235-1.059,9.825,9.825,0,0,1-2.9-3.721,49.874,49.874,0,0,1-2.312-5.64Q5.108,110.432,3.1,104.867c-.287-.812-.587-1.624-.791-2.46,2.471-6.568,20.207-10.4,23.235-10.4a1.353,1.353,0,0,1,.364.035.048.048,0,0,1-.011-.035c.6,1.5,1.253,2.964,1.916,4.429-.674-2.4-1.348-4.772-2.022-7.166-.13-.462-.257-.921-.374-1.38.138-5.265,2.471-11.8,5.8-11.8,1.616,0,3.466,1.539,5.414,5.507a22.615,22.615,0,0,0-.257-3.5,13.468,13.468,0,0,1,2.611,5.488c1.186,5.019,2.877,9.8,4.236,14.732l1.154-1.006a13.176,13.176,0,0,1,7.574-2.986,7.137,7.137,0,0,1,1.659.194l.812.663-.77.823a31.1,31.1,0,0,0-9.222,7.232l.451,2.288a14.915,14.915,0,0,1,.064,6.526,6.647,6.647,0,0,1-4.546,4.793,4.874,4.874,0,0,1-1.168.138,5.73,5.73,0,0,1-1.9-.332,28.293,28.293,0,0,0-.642,3.381c-.127.963.151,5.114-.855,5.711a1.122,1.122,0,0,1-.579.183c-1.284,0-1.444-3.156-1.518-4.129s-.066-2-.035-3.007a6.078,6.078,0,0,1-3.283,2.922,5.66,5.66,0,0,1-1.818.289,6.818,6.818,0,0,1-3.766-1.168,10.191,10.191,0,0,1-2.813-3.047,9.387,9.387,0,0,1,.106,5.016,5.9,5.9,0,0,1-4.44,3.787l-.17.032" transform="translate(3.812 125.852)" fill="#903a32"/>
                  <path id="Trazado_2111" data-name="Trazado 2111" d="M8.836,95.389a7.021,7.021,0,0,1-1.908-.268,14.05,14.05,0,0,1,1.606-.1c.173,0,.356.011.549.011a1.493,1.493,0,0,1,.778.279,6.652,6.652,0,0,1-1.024.074" transform="translate(11.458 157.164)" fill="#903a32"/>
                  <path id="Trazado_2112" data-name="Trazado 2112" d="M13.8,76.357a7.148,7.148,0,0,0-3.466,5.711,18.491,18.491,0,0,0,1,6.526c1.327,4.719,3.347,9.671,4.674,14.39.685,2.4.663,4.589,1.584,6.908a12.268,12.268,0,0,0,2.919,4.719,6.158,6.158,0,0,0,5.425,1.571,6.693,6.693,0,0,0,4.546-4.8,15.2,15.2,0,0,0-.074-6.515c-1.274-7.585-4.119-14.538-5.894-21.94-1.07-4.461-4.3-10-10.709-6.568" transform="translate(17.03 124.518)" fill="#c17971"/>
                  <path id="Trazado_2113" data-name="Trazado 2113" d="M8.121,79.842A6.679,6.679,0,0,0,5.286,85.6,16.28,16.28,0,0,0,7,91.63c1.839,4.278,4.14,7.144,5.99,11.436.953,2.182,1.423,5.786,2.6,7.872a11.574,11.574,0,0,0,3.455,4.119,6.443,6.443,0,0,0,5.584.868,6.367,6.367,0,0,0,4.013-5c.353-2.1-2.16-4.172-2.749-6.149-2.118-6.985-3.745-13.19-6.332-19.952C18,80.752,14.164,75.9,8.121,79.842" transform="translate(8.74 129.635)" fill="#c17971"/>
                  <path id="Trazado_2114" data-name="Trazado 2114" d="M5.063,83.433a5.6,5.6,0,0,0-3.36,4.5,12.077,12.077,0,0,0,1.038,5.157q2.006,5.581,4.023,11.146a52.267,52.267,0,0,0,2.312,5.637,9.86,9.86,0,0,0,2.909,3.723,7.059,7.059,0,0,0,5.326,1.229,5.914,5.914,0,0,0,4.44-3.8,9.5,9.5,0,0,0-.117-5.133c-1.316-5.982-4.172-11.468-5.982-17.309-1.08-3.508-4.31-7.885-10.589-5.157" transform="translate(2.769 136.58)" fill="#c17971"/>
                  <path id="Trazado_2115" data-name="Trazado 2115" d="M14.1,94.287a24.584,24.584,0,0,1-.48-4.857c-.024-8.076,9.007-3.883,9.573,3.272.579,7.062-7.68,8.623-9.092,1.584" transform="translate(22.52 140.628)" fill="#f8dcd8"/>
                  <path id="Trazado_2116" data-name="Trazado 2116" d="M10.677,96.111c-.5-1.539-1.361-3.134-1.008-4.751,1.327-6.2,8.612-4.79,9.96,2.227,1.335,6.921-6.783,9.329-8.952,2.524" transform="translate(15.854 144.589)" fill="#f8dcd8"/>
                  <path id="Trazado_2117" data-name="Trazado 2117" d="M6.175,97.708c-.4-1.231-1.08-2.492-.812-3.8,1.08-4.952,6.908-3.83,7.967,1.775,1.051,5.531-5.433,7.458-7.155,2.022" transform="translate(8.769 150.118)" fill="#f8dcd8"/>
                  <path id="Trazado_2118" data-name="Trazado 2118" d="M134.094,8.13l-.685,1-.353-.151-.011-.459.311,16.4-11.33.011.011,1.027,12.389-.021" transform="translate(201.823 13.447)" fill="#b7baba"/>
                  <path id="Trazado_2119" data-name="Trazado 2119" d="M111.711,24.9a8,8,0,0,1-1.208-6.139,7.977,7.977,0,0,1,2.877-5.552,8.232,8.232,0,0,1,6.311-1.21c2.643.385,4.559,1.359,5.724,2.922a8.049,8.049,0,0,1,1.218,6.149,8.055,8.055,0,0,1-2.887,5.552c-1.561,1.178-3.668,1.584-6.311,1.2a8.207,8.207,0,0,1-5.725-2.922m8.506-1.561a6.045,6.045,0,0,0,1.091-3.039,6.156,6.156,0,0,0-.2-3.23,2.329,2.329,0,0,0-1.945-1.327,2.354,2.354,0,0,0-2.237.727,5.956,5.956,0,0,0-1.091,3.06,6.071,6.071,0,0,0,.194,3.219,2.288,2.288,0,0,0,1.945,1.327,2.315,2.315,0,0,0,2.248-.738" transform="translate(182.551 19.616)" fill="#1b3b6c"/>
                  <path id="Trazado_2120" data-name="Trazado 2120" d="M116.889,20.938a6.045,6.045,0,0,0,1.091-3.039,6.156,6.156,0,0,0-.2-3.23,2.329,2.329,0,0,0-1.945-1.327,2.354,2.354,0,0,0-2.237.727,5.956,5.956,0,0,0-1.091,3.06,6.071,6.071,0,0,0,.194,3.219,2.288,2.288,0,0,0,1.945,1.327A2.315,2.315,0,0,0,116.889,20.938Z" transform="translate(185.879 22.013)" fill="none" stroke="#fff" stroke-miterlimit="10" stroke-width="0.056"/>
                  <path id="Trazado_2121" data-name="Trazado 2121" d="M111.712,24.9a8,8,0,0,1-1.208-6.141,7.962,7.962,0,0,1,2.877-5.552q2.341-1.764,6.311-1.208c2.641.385,4.557,1.359,5.722,2.919a8.047,8.047,0,0,1,1.221,6.152,8.071,8.071,0,0,1-2.887,5.552A9.926,9.926,0,0,1,111.712,24.9Z" transform="translate(182.55 19.616)" fill="none" stroke="#fff" stroke-miterlimit="10" stroke-width="0.056"/>
                  <path id="Trazado_2122" data-name="Trazado 2122" d="M117.024,27.829l-.173-1.027,1.874-13.158.459-.939,1.133-.173,2.174.321.738.226.438.576,3.251,6.836.794-5.552L128.17,14l1.1-.17,2.728.385,1.048.459.159,1.059-1.871,13.148-.438.942-1.146.159-2.171-.311-.727-.234-.449-.579-3.262-6.826-.783,5.563-.449.942-1.133.159-2.739-.385Z" transform="translate(193.263 20.727)" fill="#1b3b6c"/>
                  <path id="Trazado_2123" data-name="Trazado 2123" d="M117.024,27.829l-.173-1.027,1.874-13.158.459-.939,1.133-.173,2.174.321.738.226.438.576,3.251,6.836.794-5.552L128.17,14l1.1-.17,2.728.385,1.048.459.159,1.059-1.871,13.148-.438.942-1.146.159-2.171-.311-.727-.234-.449-.579-3.262-6.826-.783,5.563-.449.942-1.133.159-2.739-.385Z" transform="translate(193.263 20.727)" fill="none" stroke="#fff" stroke-miterlimit="10" stroke-width="0.056"/>
                  <path id="Trazado_2124" data-name="Trazado 2124" d="M123.274,28.713l-.183-1.038,1.874-13.134.459-.942,1.133-.173,5.616.794c2.354.342,4,1.048,4.931,2.107a5.219,5.219,0,0,1,1.016,4.406,5.154,5.154,0,0,1-2.2,3.917q-1.8,1.139-5.295.642l-1.412-.2-.483,3.392-.459.939-1.165.173-2.781-.4Zm7.391-7.444,1.25-.215.6-1.133-.268-1.263-1.123-.565-1.6-.226-.451,3.177Z" transform="translate(203.583 22.206)" fill="#1b3b6c"/>
                  <path id="Trazado_2125" data-name="Trazado 2125" d="M126.939,18.5l1.25-.215.6-1.133-.268-1.263-1.123-.565-1.6-.226-.451,3.177Z" transform="translate(207.31 24.973)" fill="none" stroke="#fff" stroke-miterlimit="10" stroke-width="0.056"/>
                  <path id="Trazado_2126" data-name="Trazado 2126" d="M123.274,28.714l-.183-1.038,1.874-13.137.459-.939,1.133-.173,5.616.791q3.531.514,4.934,2.107a5.242,5.242,0,0,1,1.016,4.408,5.155,5.155,0,0,1-2.205,3.915q-1.8,1.139-5.295.642l-1.412-.2-.48,3.389-.462.942-1.165.17-2.781-.4Z" transform="translate(203.583 22.207)" fill="none" stroke="#fff" stroke-miterlimit="10" stroke-width="0.056"/>
                  <path id="Trazado_2127" data-name="Trazado 2127" d="M129.217,29.566l-.173-1.048L130.918,15.4l.449-.961,1.133-.173,8.538,1.218.963.462L142.128,17l-.191,1.306-.419.961-1.048.173-4.363-.621-.279,1.99,3.113.449.974.459.117,1.038-.18,1.263-.4.963-1.059.17-3.134-.438-.279,1.99,4.334.621.974.459.127,1.048-.191,1.3-.419.961-1.038.173-8.514-1.21Z" transform="translate(213.43 23.6)" fill="#1b3b6c"/>
                  <path id="Trazado_2128" data-name="Trazado 2128" d="M129.217,29.566l-.173-1.048L130.918,15.4l.449-.961,1.133-.173,8.538,1.218.963.462L142.128,17l-.191,1.306-.419.961-1.048.173-4.363-.621-.279,1.99,3.113.449.974.459.117,1.038-.18,1.263-.4.963-1.059.17-3.134-.438-.279,1.99,4.334.621.974.459.127,1.048-.191,1.3-.419.961-1.038.173-8.514-1.221Z" transform="translate(213.43 23.6)" fill="none" stroke="#fff" stroke-miterlimit="10" stroke-width="0.056"/>
                  <path id="Trazado_2129" data-name="Trazado 2129" d="M136.355,14.161l-.011-.621c-.021-.427,1.208-1.669,1.454-3.381a3.853,3.853,0,0,0-.727-2.747l.183-.321L120.63,4.716l-.011.032.042.053a58.892,58.892,0,0,0-.632,6.6c-.042,2.643.257,7.842.257,7.842l1.25,1.048.953-1.221-.159-3.915,1.645-.236L124.224,21l1.253,1.048.95-1.221-.255-6.226,1.645-.234.364,8.609,1.231,1.048.963-1.218-.364-8.761,1.645-.247.332,8.033,1.242,1.048.953-1.218-.43-10.292.034-.021.918-.042.021.021.451,10.878-1.521,1.648v-.011l-.138.011-.7.032-1.6-1.2-.042.011.032.642L129.691,25l-.653.032-1.669-1.539-.074-1.786-.042-.011-1.489,1.324-.671.035-.974-.289.138,7.818,12.4-.021" transform="translate(198.515 7.8)" fill="#fff"/>
                  <path id="Trazado_2130" data-name="Trazado 2130" d="M125.716,23.085l.674-.032,1.5-1.327.032.011.074,1.786,1.669,1.542.653-.032,1.542-1.659-.035-.642.035-.011,1.592,1.2.7-.032.13-.011.011.011,1.518-1.645-.449-10.881-.021-.021-.921.042-.021.021.417,10.292-.953,1.218-1.239-1.048-.332-8.033-1.648.247L131,22.838l-.963,1.221-1.229-1.048-.364-8.612-1.648.236.257,6.226-.953,1.218-1.253-1.048-.244-6.075-1.648.234.159,3.917-.95,1.218-1.253-1.048s-.3-5.2-.257-7.84a58.8,58.8,0,0,1,.632-6.6l-.042-.056-.886-.085a31,31,0,0,0-.709,6.632c-.011,2.633.332,8.5.332,8.5l1.648,1.518.13-.011.555-.021.141-.011,1.5-1.327.032.011.064,1.574.7,1.239Z" transform="translate(197.89 7.767)" fill="#de1d2e"/>
                  <line id="Línea_62" data-name="Línea 62" x2="0.353" y2="0.043" transform="translate(335.779 14.88)" fill="#de1d2e"/>
                  <path id="Trazado_2131" data-name="Trazado 2131" d="M128.657,7.644l-.748-1.871-.119-.077-.34-.042-.356-.042-.191.321a3.874,3.874,0,0,1,.727,2.749c-.247,1.712-1.476,2.951-1.454,3.381l.011.618.011.472.353.138.685-1c.8-1.282,1.68-3.156,1.423-4.652" transform="translate(208.684 9.28)" fill="#de1d2e"/>
                  <path id="Trazado_2132" data-name="Trazado 2132" d="M167.849,135.422l-.706,1.348-.459-.127-.1-.589,2.834,20.409L155.3,158.2l.17,1.274,15.459-1.882" transform="translate(256.856 223.977)" fill="#b7baba"/>
                  <path id="Trazado_2133" data-name="Trazado 2133" d="M143.265,159.359q-2.552-2.679-2.439-7.487c.064-3.2.985-5.661,2.76-7.37s4.331-2.516,7.691-2.452,5.884,1.006,7.585,2.781,2.5,4.281,2.428,7.479c-.053,3.209-.985,5.669-2.76,7.37s-4.331,2.524-7.68,2.45-5.894-1-7.585-2.771m10.366-3.23a7.72,7.72,0,0,0,.91-3.957,7.558,7.558,0,0,0-.74-4,3.348,3.348,0,0,0-5.305-.127,7.587,7.587,0,0,0-.908,3.978,7.447,7.447,0,0,0,.738,3.981,3.332,3.332,0,0,0,5.305.127" transform="translate(232.908 234.934)" fill="#1b3b6c"/>
                  <path id="Trazado_2134" data-name="Trazado 2134" d="M149.417,153.167a7.72,7.72,0,0,0,.91-3.957,7.624,7.624,0,0,0-.74-4.013,3.356,3.356,0,0,0-5.305-.117,7.587,7.587,0,0,0-.908,3.978,7.447,7.447,0,0,0,.738,3.981,3.332,3.332,0,0,0,5.305.127Z" transform="translate(237.121 237.896)" fill="none" stroke="#fff" stroke-miterlimit="10" stroke-width="0.071"/>
                  <path id="Trazado_2135" data-name="Trazado 2135" d="M143.265,159.359q-2.552-2.679-2.439-7.489c.064-3.209.985-5.658,2.76-7.37s4.331-2.513,7.691-2.45,5.884,1.006,7.585,2.781,2.5,4.281,2.428,7.479c-.053,3.209-.985,5.669-2.76,7.37s-4.334,2.524-7.68,2.45S144.955,161.135,143.265,159.359Z" transform="translate(232.908 234.934)" fill="none" stroke="#fff" stroke-miterlimit="10" stroke-width="0.071"/>
                  <path id="Trazado_2136" data-name="Trazado 2136" d="M149.736,161.757l-.364-1.274.364-16.688.427-1.239,1.369-.374,2.771.064.953.18.632.642,5.09,8.033.151-7.028.417-1.25,1.369-.388,3.455.066,1.38.427.364,1.3-.364,16.688-.427,1.239-1.38.374-2.76-.064-.953-.18-.632-.653-5.1-8.033-.138,7.07-.427,1.239-1.391.364-3.466-.064Z" transform="translate(247.05 235.157)" fill="#1b3b6c"/>
                  <path id="Trazado_2137" data-name="Trazado 2137" d="M149.736,161.757l-.364-1.274.364-16.688.427-1.239,1.369-.374,2.771.064.953.18.632.642,5.09,8.033.151-7.028.417-1.25,1.369-.388,3.455.066,1.38.427.364,1.3-.364,16.688-.427,1.239-1.38.374-2.76-.064-.953-.18-.632-.653-5.1-8.033-.138,7.07-.427,1.239-1.391.364-3.466-.064Z" transform="translate(247.05 235.157)" fill="none" stroke="#fff" stroke-miterlimit="10" stroke-width="0.071"/>
                  <path id="Trazado_2138" data-name="Trazado 2138" d="M157.659,161.92l-.374-1.263.353-16.667.438-1.261,1.4-.374,7.113.149c2.986.064,5.135.7,6.483,1.906a7.824,7.824,0,0,1-.236,10.547c-1.38,1.123-3.551,1.659-6.526,1.592l-1.775-.042-.106,4.3-.417,1.25-1.433.385-3.54-.074Zm8.118-10.387,1.518-.48.578-1.489-.525-1.539-1.486-.536-2.033-.032-.085,4.034Z" transform="translate(260.137 235.444)" fill="#1b3b6c"/>
                  <path id="Trazado_2139" data-name="Trazado 2139" d="M161.752,148.353l1.518-.48.579-1.489-.525-1.539-1.486-.536-2.033-.032-.085,4.034Z" transform="translate(264.163 238.623)" fill="none" stroke="#fff" stroke-miterlimit="10" stroke-width="0.071"/>
                  <path id="Trazado_2140" data-name="Trazado 2140" d="M157.659,161.92l-.374-1.263.35-16.667.441-1.261,1.4-.374,7.115.149c2.98.064,5.13.7,6.481,1.906a7.824,7.824,0,0,1-.236,10.547q-2.066,1.684-6.526,1.595l-1.773-.045-.109,4.3-.417,1.25-1.436.385-3.54-.074Z" transform="translate(260.137 235.444)" fill="none" stroke="#fff" stroke-miterlimit="10" stroke-width="0.071"/>
                  <path id="Trazado_2141" data-name="Trazado 2141" d="M165.212,162.091l-.374-1.284.364-16.645.427-1.261,1.38-.385,10.836.234,1.263.419.321,1.3-.032,1.637-.374,1.274-1.3.364-5.531-.109-.064,2.527,3.978.1,1.274.417.311,1.3-.032,1.582-.374,1.274-1.285.364-3.968-.074-.066,2.524,5.52.117,1.263.43.321,1.282-.032,1.659-.374,1.263-1.285.374-10.815-.236Z" transform="translate(272.629 235.711)" fill="#1b3b6c"/>
                  <path id="Trazado_2142" data-name="Trazado 2142" d="M165.212,162.091l-.374-1.284.364-16.645.427-1.261,1.38-.385,10.836.234,1.263.419.321,1.3-.032,1.637-.374,1.274-1.3.364-5.531-.109-.064,2.527,3.978.1,1.274.417.311,1.3-.032,1.582-.374,1.274-1.285.364-3.968-.074-.066,2.524,5.52.117,1.263.43.321,1.282-.032,1.659-.374,1.263-1.285.374-10.815-.236Z" transform="translate(272.629 235.711)" fill="none" stroke="#fff" stroke-miterlimit="10" stroke-width="0.071"/>
                  <path id="Trazado_2143" data-name="Trazado 2143" d="M172.668,141.525l-.106-.77c-.088-.525,1.239-2.269,1.314-4.44A4.891,4.891,0,0,0,172.551,133l.191-.438-21.117-.449v.032l.066.074a71.317,71.317,0,0,0,.191,8.323c.353,3.307,1.518,9.745,1.518,9.745l1.7,1.112,1.016-1.656-.8-4.857,2.022-.557,1.229,7.542,1.712,1.123,1.006-1.659-1.261-7.734,2.03-.547,1.722,10.7,1.712,1.123,1.006-1.656-1.754-10.881,2.022-.555,1.606,9.968,1.712,1.125,1-1.669-2.062-12.773.008-.032,1.168-.183.021.024,2.192,13.5a1.98,1.98,0,0,1-1.648,2.28l-.011-.011-.159.042-.855.138a1.992,1.992,0,0,1-2.184-1.261l-.042.011.138.8a2,2,0,0,1-1.667,2.312l-.815.138a2.03,2.03,0,0,1-2.309-1.669l-.364-2.235h-.042a2,2,0,0,1-1.669,1.882l-.836.141-1.261-.215,1.359,9.735,15.456-1.892" transform="translate(250.776 218.503)" fill="#fff"/>
                  <path id="Trazado_2144" data-name="Trazado 2144" d="M160.757,154.283l.833-.138a2,2,0,0,0,1.669-1.874l.042-.011.364,2.237a2.019,2.019,0,0,0,2.3,1.667l.812-.127a2.037,2.037,0,0,0,1.68-2.322l-.138-.8h.042a1.982,1.982,0,0,0,2.171,1.253l.857-.141.17-.042.011.021a2.009,2.009,0,0,0,1.648-2.288l-2.205-13.5-.021-.021-1.154.191-.011.021,2.065,12.773-1.006,1.669-1.7-1.123-1.624-9.96-2.012.547,1.754,10.878-1.006,1.659-1.7-1.125-1.733-10.7-2.033.555,1.263,7.723-1.006,1.659-1.712-1.123-1.231-7.532-2.02.547.791,4.857-1.006,1.659-1.7-1.115s-1.176-6.438-1.529-9.745a72.994,72.994,0,0,1-.183-8.323l-.064-.064-1.123.011a37.689,37.689,0,0,0,.106,8.386c.385,3.286,1.691,10.549,1.691,10.549a1.993,1.993,0,0,0,2.29,1.645l.159-.032.685-.106.17-.032a1.992,1.992,0,0,0,1.68-1.871l.032-.011.321,1.945,1.048,1.454Z" transform="translate(249.967 218.53)" fill="#de1d2e"/>
                  <line id="Línea_63" data-name="Línea 63" x2="0.438" y2="0.011" transform="translate(423.518 351.065)" fill="#de1d2e"/>
                  <path id="Trazado_2145" data-name="Trazado 2145" d="M161.948,134.593a4.218,4.218,0,0,0-1.208-2.224l-.162-.066-.427-.011-.451-.011-.191.441a4.866,4.866,0,0,1,1.327,3.315c-.074,2.171-1.4,3.915-1.316,4.44l.106.77.088.589.47.127.706-1.348c.791-1.722,1.606-4.193,1.059-6.022" transform="translate(263.816 218.783)" fill="#de1d2e"/>
                  <path id="Trazado_2146" data-name="Trazado 2146" d="M284.071,72.1S193.4,35.159,113.715,49.588c0,0-61.274-8.654-31.075-28.057C112.667,2.157,261.072,36.762,284.071,72.1" transform="translate(122.845 26.393)" fill="#2770b1"/>
                  <path id="Trazado_2147" data-name="Trazado 2147" d="M141.964,273.643l-33.439-146.82,1.486-.4L142.232,268.68,179.105,125.26l1.423.568" transform="translate(179.491 207.17)" fill="#fff"/>
                  <path id="Trazado_2148" data-name="Trazado 2148" d="M155.976,213.345l-37.41.642a6.9,6.9,0,0,1-7.285-6.8l.332-19.395a7.456,7.456,0,0,1,7.489-7.038l37.227-.61a6.951,6.951,0,0,1,7.306,6.8l-.183,19.352a7.413,7.413,0,0,1-7.476,7.049" transform="translate(184.05 297.934)" fill="#b7baba"/>
                </g>
              </g>
            </g>
          </g>
        </g>
      </g>
    </g>
  </g>
</svg>
