<svg id="Grupo_4" data-name="Grupo 4" xmlns="http://www.w3.org/2000/svg" width="29.079" height="20.574" viewBox="0 0 29.079 20.574">
  <path id="Trazado_88" data-name="Trazado 88" d="M176.007,1254.46c-1.786,0-3.574.064-5.356-.018a52.369,52.369,0,0,1-5.764-.513,3.4,3.4,0,0,1-2.833-2.73,21.735,21.735,0,0,1-.55-5.586c.033-2.158.085-4.319.238-6.47a4.987,4.987,0,0,1,1.365-3.591,3.807,3.807,0,0,1,2.3-1.08c2.112-.164,4.228-.275,6.343-.384,1.217-.062,2.436-.119,3.654-.106,2.647.029,5.295.061,7.938.177a22.332,22.332,0,0,1,3.893.49,3.64,3.64,0,0,1,2.832,3.213,35.1,35.1,0,0,1,.471,7.739,36.717,36.717,0,0,1-.682,5.79,3.26,3.26,0,0,1-3.006,2.58c-1.486.184-2.984.3-4.481.374-2.118.1-4.24.143-6.36.21Zm-2.788-14.285v8.222l7.207-4.138Z" transform="translate(-161.5 -1233.981)" fill="#fff"/>
</svg>
