<svg xmlns="http://www.w3.org/2000/svg" xmlns:xlink="http://www.w3.org/1999/xlink" width="35" height="26" viewBox="0 0 35 26"><defs><clipPath id="a"><rect width="35" height="26" transform="translate(0 0.41)" fill="#003874"/></clipPath></defs><g transform="translate(0 -0.41)" clip-path="url(#a)"><path d="M9.6,5.3A3.3,3.3,0,1,1,6.3,2,3.3,3.3,0,0,1,9.6,5.3" transform="translate(3.605 2.402)" fill="#003874"/><path d="M3.3,0A3.3,3.3,0,0,0,0,3.3V23.108a3.3,3.3,0,0,0,3.3,3.3h28.61a3.3,3.3,0,0,0,3.3-3.3V3.3a3.3,3.3,0,0,0-3.3-3.3Zm28.61,2.2a1.1,1.1,0,0,1,1.1,1.1v13.2L24.7,12.221a1.1,1.1,0,0,0-1.27.2l-8.165,8.165-5.854-3.9a1.1,1.1,0,0,0-1.387.136L2.205,22.008V23.2c0-.029,0-.059,0-.088V3.3A1.1,1.1,0,0,1,3.3,2.2Z" fill="#003874"/></g></svg>