<svg xmlns="http://www.w3.org/2000/svg" xmlns:xlink="http://www.w3.org/1999/xlink" width="18" height="21.436" viewBox="0 0 18 21.436"><defs><clipPath id="a"><rect width="18" height="21.436" fill="#fff"/></clipPath></defs><g clip-path="url(#a)"><path d="M51.126,6.075a6.374,6.374,0,0,0,.568-3.961A3.049,3.049,0,0,0,50.807.566L50.788.55a.483.483,0,0,0-.322-.113h-.539a.5.5,0,0,0-.367.867,2.775,2.775,0,0,1,.777,1.84A5.127,5.127,0,0,1,49.8,5.176a1.617,1.617,0,0,0-.233.85c.024.143.054.321.079.477h0l2.022,12.523-8.911,1.292L43,21.8l10.426-1.5Z" transform="translate(-35.422 -0.361)" fill="#fff"/><path d="M8.2,14.505a1.614,1.614,0,0,0,1.85,1.3l.549-.1a1.62,1.62,0,0,0,1.3-1.388,1.6,1.6,0,0,0,1.029.161l.571-.1a1.05,1.05,0,0,0,.117-.033,1.6,1.6,0,0,0,1.259-1.828V12.4l-.025-.025L13.3,3.975l-.068-.281h-.286l-.787.139-.281.068v.317l1.5,8.095a.574.574,0,0,1-.376.664.532.532,0,0,1-.662-.359.5.5,0,0,1-.014-.058L11.1,5.892l-1.934.57,1.327,7.168a.573.573,0,0,1-.372.663.533.533,0,0,1-.657-.364c0-.014-.008-.028-.009-.038L8.135,6.767,6.2,7.321l.958,5.185a.57.57,0,0,1-.375.663.535.535,0,0,1-.664-.361c-.005-.018-.01-.036-.013-.054L5.178,7.634,3.246,8.2l.614,3.373a.566.566,0,0,1-.362.662.533.533,0,0,1-.655-.37c0-.015-.008-.03-.012-.051C2.822,11.772,2,7.744,1.743,5.7a29.5,29.5,0,0,1-.215-4.452c.011-.637.01-.792-.063-.926L1.449.294a.642.642,0,0,0-.082-.1L1.351.18A.968.968,0,0,0,.619.01.667.667,0,0,0,.127.287,21.344,21.344,0,0,0,.26,5.818c.284,2.059,1.214,6.626,1.222,6.665a1.6,1.6,0,0,0,1.864,1.283L4,13.647a1.59,1.59,0,0,0,.845-.451l.036.193a1.632,1.632,0,0,0,.862,1.15,1.608,1.608,0,0,0,1.014.142l.527-.1a1.6,1.6,0,0,0,.849-.45Z" transform="translate(0 0)" fill="#fff"/></g></svg>