<svg xmlns="http://www.w3.org/2000/svg" xmlns:xlink="http://www.w3.org/1999/xlink" width="150.042" height="136.5" viewBox="0 0 150.042 136.5">
  <defs>
    <clipPath id="clip-path">
      <rect id="Rectángulo_2261" data-name="Rectángulo 2261" width="150.042" height="136.5" fill="#c4c4c4"/>
    </clipPath>
  </defs>
  <g id="Grupo_3106" data-name="Grupo 3106" transform="translate(0 0)">
    <g id="Grupo_2758" data-name="Grupo 2758" transform="translate(0 0)" clip-path="url(#clip-path)">
      <path id="Trazado_2308" data-name="Trazado 2308" d="M95.434,15.825,73.888,57.463c.179.05.36.1.54.16a23.024,23.024,0,0,1,3.735,1.564,19.464,19.464,0,0,1,3.826,2.608L103.6,20.035a4.592,4.592,0,1,0-8.163-4.21" transform="translate(44.258 7.989)" fill="#c4c4c4"/>
      <path id="Trazado_2309" data-name="Trazado 2309" d="M33.63,91.58A71.106,71.106,0,0,0,51.9,103.269a94.823,94.823,0,0,0,23.032,7.16.3.3,0,0,0,.035.008,3.122,3.122,0,0,0,.422.029c.037,0,.067,0,.109,0,12.638-.411,22.485-4.623,29.281-12.512,8.926-10.379,12.152-25.98,11.524-39.4A16.4,16.4,0,0,0,112.071,48c-.2-.208-.409-.411-.625-.6a14.94,14.94,0,0,0-3.116-2.168,18.7,18.7,0,0,0-3.038-1.276,10.37,10.37,0,0,0-1.306-.321,9.817,9.817,0,0,0-1.805-.162c-4.428,0-8.674,2.785-11.92,5.63a102.455,102.455,0,0,1-10.545,8.65c-4.145,2.749-8.7,4.133-13.446,5.483A115.393,115.393,0,0,1,47.509,66.8a153.22,153.22,0,0,1-17.008,1c-2.255,0-4.512-.058-6.751-.179-.138-.01-.265-.014-.4-.024-.07,0-.146-.006-.221-.006a3.127,3.127,0,0,0-2.952,4.133A47.548,47.548,0,0,0,33.63,91.58M29.248,74.017h.013c.312,0,.643,0,.977,0A162.435,162.435,0,0,0,48.42,73c15.2-1.73,27.586-5.429,36.97-11.019a1.642,1.642,0,0,1,.862-.24,1.7,1.7,0,0,1,.825.214c5.456,3,13.922,7.437,19.962,9.592a1.715,1.715,0,0,1,1.127,1.8c-.728,6.3-2.779,14.327-8.15,20.561-5.5,6.382-13.636,9.845-24.181,10.3h-.1a2.259,2.259,0,0,1-.409-.035c-1.059-.185-3.681-.692-7.2-1.66,1-.443,2.04-.972,3.089-1.567.94-.528,1.88-1.1,2.824-1.711A95.911,95.911,0,0,0,81.92,93.5a.552.552,0,0,0-.555-.943,75.579,75.579,0,0,1-16.33,4.223c-1.714.277-3.364.507-4.891.7-1.786.23-3.4.4-4.746.529-.353-.155-.71-.313-1.063-.473a74.421,74.421,0,0,1-8.484-4.557,32.641,32.641,0,0,0,3.563-.545c1.106-.225,2.221-.5,3.326-.8a87.009,87.009,0,0,0,8.446-2.814.371.371,0,0,0-.176-.713c-3.838.368-9.165.4-13.719.339-1.492-.024-2.9-.056-4.141-.093-1.639-.046-2.985-.1-3.878-.134q-.78-.655-1.529-1.327-.964-.871-1.861-1.775c.923-.093,1.89-.241,2.859-.427.915-.176,1.826-.382,2.75-.612a84.571,84.571,0,0,0,9.495-3.092.37.37,0,0,0-.169-.713c-3.607.344-8.519.4-12.873.349-1.073-.014-2.12-.032-3.1-.054-1.084-.024-2.093-.051-2.982-.082a39.7,39.7,0,0,1-3.351-5.23.838.838,0,0,1,.737-1.233" transform="translate(11.988 26.035)" fill="#c4c4c4"/>
      <path id="Trazado_2310" data-name="Trazado 2310" d="M98.95,75.176a7.374,7.374,0,1,1-7.37-7.373,7.372,7.372,0,0,1,7.37,7.373" transform="translate(50.436 40.613)" fill="#c4c4c4"/>
      <path id="Trazado_2311" data-name="Trazado 2311" d="M83.992,84.372a3.726,3.726,0,1,1-3.729-3.727,3.729,3.729,0,0,1,3.729,3.727" transform="translate(45.847 48.305)" fill="#c4c4c4"/>
      <path id="Trazado_2312" data-name="Trazado 2312" d="M23.1,100.888a12.876,12.876,0,0,1-.619-5.248c-10.39-3.115-16.5-7.777-16.5-11.335a3.968,3.968,0,0,1,.539-1.892,7.933,7.933,0,0,1,1.4-1.872c4.578,3.014,10.918,5.465,18.367,7.093a12.776,12.776,0,0,1,8.841-3.6c.286,0,.572.01.847.027l.422.026c1.888.1,3.985.157,6.1.157a143.719,143.719,0,0,0,15.94-.939,105.187,105.187,0,0,0,17.2-3.264c4.328-1.231,7.87-2.328,10.768-4.252a72.234,72.234,0,0,0,7.715-6.268l.828-.732V52.5a11.3,11.3,0,0,0-3.305-7.587,11.344,11.344,0,0,0,3.305-7.587V20.694C94.94,9.261,73.691,0,47.482,0,21.25,0,0,9.261,0,20.694V37.325a11.334,11.334,0,0,0,3.308,7.587A11.293,11.293,0,0,0,0,52.5V69.13a11.3,11.3,0,0,0,3.308,7.587A11.3,11.3,0,0,0,0,84.3v16.631c0,9.588,15,17.667,35.355,20.006A55.864,55.864,0,0,1,23.1,100.888M6.514,18.8C9.482,13.107,25.1,5.975,47.482,5.975c21.807,0,37.219,6.789,40.726,12.408a4.415,4.415,0,0,1,.76,2.311c0,4.181-8.463,9.915-22.426,12.845a93.839,93.839,0,0,1-19.06,1.874A93.875,93.875,0,0,1,28.4,33.539C14.439,30.609,5.975,24.875,5.975,20.694A3.954,3.954,0,0,1,6.514,18.8m0,31.805a7.826,7.826,0,0,1,1.4-1.869c8.5,5.6,23.04,9.276,39.572,9.276s31.087-3.679,39.57-9.276a8.683,8.683,0,0,1,1.156,1.447,4.43,4.43,0,0,1,.76,2.314,4.938,4.938,0,0,1-1.177,2.926c-.158.2-.339.4-.515.6a11.642,11.642,0,0,1-1.2,1.175,21.681,21.681,0,0,1-3.665,2.53,9.308,9.308,0,0,1-.974.536c-.04.022-.08.04-.12.059-.379.224-.756.4-1.175.6-.4.2-.819.4-1.254.579a57.289,57.289,0,0,1-8.6,2.945c-.4.118-.817.221-1.236.32-.819.2-1.657.4-2.528.576H66.5c-1.5.317-3.027.6-4.639.82-.64.117-1.3.2-1.954.275-.657.1-1.334.158-2.031.241-.477.059-.955.1-1.453.141-.58.058-1.158.1-1.756.136-.657.062-1.334.1-2.008.12-.838.059-1.7.078-2.549.1-.878.014-1.756.037-2.63.037-.9,0-1.754-.022-2.629-.037-.859-.026-1.714-.045-2.549-.1-.68-.018-1.337-.058-1.972-.1-.617-.059-1.215-.1-1.792-.158-.521-.042-1.036-.1-1.538-.141-.673-.083-1.33-.16-1.968-.241-.617-.08-1.2-.158-1.792-.257-1.674-.238-3.268-.521-4.8-.838h-.018c-.878-.179-1.716-.377-2.53-.576-.419-.1-.838-.2-1.238-.32a58.43,58.43,0,0,1-7.808-2.611c-.574-.235-1.132-.5-1.652-.734-.358-.158-.7-.317-1.015-.5-.238-.122-.457-.24-.678-.36a15.735,15.735,0,0,1-1.532-.859,14.211,14.211,0,0,1-1.374-.875,15.231,15.231,0,0,1-3.089-2.667,8.808,8.808,0,0,1-.638-.819,4.582,4.582,0,0,1-.9-2.53,3.968,3.968,0,0,1,.539-1.892" transform="translate(0 0)" fill="#c4c4c4"/>
      <path id="Trazado_2313" data-name="Trazado 2313" d="M96.63,83.834A3.729,3.729,0,1,1,92.9,80.108a3.73,3.73,0,0,1,3.729,3.726" transform="translate(53.412 47.984)" fill="#c4c4c4"/>
    </g>
  </g>
</svg>
