<?xml version="1.0" encoding="UTF-8"?>
<svg id="Capa_1" xmlns="http://www.w3.org/2000/svg" width="52" height="52" version="1.1" viewBox="0 0 52 52">
  <!-- Generator: Adobe Illustrator 30.0.0, SVG Export Plug-In . SVG Version: 2.1.1 Build 123)  -->
  <defs>
    <style>
      .st0 {
        fill: #fff;
      }

      .st1 {
        fill: #e92228;
      }
    </style>
  </defs>
  <g id="Grupo_2122">
    <rect id="Rectángulo_1025" class="st1" width="52" height="52" rx="8" ry="8"/>
    <path class="st0" d="M26,42.2c-2.2,0-4.4-.4-6.3-1.3s-3.7-2-5.1-3.5-2.6-3.2-3.5-5.1-1.3-4.1-1.3-6.3.4-4.4,1.3-6.3,2-3.7,3.5-5.1,3.2-2.6,5.1-3.5,4.1-1.3,6.3-1.3,4.4.4,6.3,1.3,3.7,2,5.1,3.5,2.6,3.2,3.5,5.1,1.3,4.1,1.3,6.3-.4,4.4-1.3,6.3c-.9,2-2,3.7-3.5,5.1s-3.2,2.6-5.1,3.5-4.1,1.3-6.3,1.3ZM26,39c1.5,0,2.9-.2,4.2-.7s2.6-1.2,3.7-2L15.8,18.1c-.9,1.1-1.6,2.4-2,3.7s-.7,2.8-.7,4.2c0,3.6,1.3,6.7,3.8,9.2s5.6,3.8,9.2,3.8ZM36.2,33.9c.9-1.1,1.6-2.4,2-3.7s.7-2.8.7-4.2c0-3.6-1.3-6.7-3.8-9.2-2.5-2.5-5.6-3.8-9.2-3.8s-2.9.2-4.2.7-2.6,1.2-3.7,2l18.2,18.2Z"/>
  </g>
</svg>