<svg xmlns="http://www.w3.org/2000/svg" width="23.885" height="23.868" viewBox="0 0 23.885 23.868">
  <path id="Trazado_89" data-name="Trazado 89" d="M1047.905,1247.344c-3.065,0-6.13-.051-9.194.021a2.739,2.739,0,0,1-2.71-2.693c.036-6.148.013-12.3.018-18.444a2.617,2.617,0,0,1,2.692-2.722q9.194-.015,18.388,0a2.7,2.7,0,0,1,2.782,2.781q.012,9.166.005,18.332a2.706,2.706,0,0,1-2.731,2.743C1054.073,1247.3,1050.989,1247.344,1047.905,1247.344Zm-7.419-11.9a3.257,3.257,0,0,0,3.312,3.262,3.275,3.275,0,0,0-.084-6.55A3.236,3.236,0,0,0,1040.487,1235.442Zm14.913.029a3.313,3.313,0,0,0-3.209-3.321,3.278,3.278,0,1,0-.023,6.555A3.3,3.3,0,0,0,1055.4,1235.471Z" transform="translate(-1036.002 -1223.498)" fill="#fff"/>
</svg>
