<svg xmlns="http://www.w3.org/2000/svg" xmlns:xlink="http://www.w3.org/1999/xlink" width="21.288" height="21.288" viewBox="0 0 21.288 21.288"><defs><clipPath id="a"><rect width="21.288" height="21.288" fill="#fff"/></clipPath></defs><g transform="translate(0 -7)"><g transform="translate(0 7)" clip-path="url(#a)"><path d="M10.644,0A10.644,10.644,0,1,0,21.288,10.644,10.644,10.644,0,0,0,10.644,0m0,19.436a8.792,8.792,0,1,1,8.792-8.792,8.8,8.8,0,0,1-8.792,8.792" transform="translate(0 0)" fill="#fff"/><path d="M22.5,10.846h0a1.182,1.182,0,0,0-1.852,0v7.063H15.9a.926.926,0,0,0,0,1.852h6.159v-.121a.911.911,0,0,0,.447-.806,1.093,1.093,0,0,0-.01-.119Z" transform="translate(-10.364 -7.189)" fill="#fff"/></g></g></svg>