<?xml version="1.0" encoding="utf-8"?>
<!-- Generator: Adobe Illustrator 27.5.0, SVG Export Plug-In . SVG Version: 6.00 Build 0)  -->
<svg version="1.1" id="Capa_1" xmlns="http://www.w3.org/2000/svg" xmlns:xlink="http://www.w3.org/1999/xlink" x="0px" y="0px"
	 width="25.8px" height="21px" viewBox="0 0 25.8 21" style="enable-background:new 0 0 25.8 21;" xml:space="preserve">
<style type="text/css">
	.st0{clip-path:url(#SVGID_00000178195029531835466270000007060913019290773430_);}
	.st1{fill:#123770;}
</style>
<g>
	<defs>
		<rect id="SVGID_1_" y="2.2" width="25.8" height="16.6"/>
	</defs>
	<clipPath id="SVGID_00000092432882802497806580000007406808353280687003_">
		<use xlink:href="#SVGID_1_"  style="overflow:visible;"/>
	</clipPath>
	<g style="clip-path:url(#SVGID_00000092432882802497806580000007406808353280687003_);">
		<path class="st1" d="M11.7,18.8c-5-0.2-9.4-3.2-11.6-7.7c-0.2-0.4-0.2-0.9,0-1.3c2.6-5,8-8,13.6-7.6c4.5,0.2,8.6,2.6,11,6.4
			c1.4,2.1,1.3,1.6,0,3.7C22.3,16.4,17.8,18.8,11.7,18.8 M12.8,16.1c0.5-0.1,0.9-0.1,1.4-0.2c3-0.6,5-3.5,4.4-6.5
			c-0.1-0.5-0.3-1-0.5-1.5c-1.4-2.4-4.2-3.6-6.8-2.8c-2.4,0.6-4.1,2.6-4.3,5c-0.2,3.2,2.3,5.9,5.5,6C12.6,16.1,12.7,16.1,12.8,16.1"
			/>
		<path class="st1" d="M12.9,7.2c1.9-0.1,3.4,1.4,3.5,3.3c0,0,0,0,0,0.1c0.1,1.9-1.4,3.6-3.3,3.7s-3.6-1.4-3.7-3.3
			C9.2,9,10.7,7.3,12.7,7.2C12.7,7.2,12.8,7.2,12.9,7.2"/>
	</g>
</g>
</svg>
