<svg xmlns="http://www.w3.org/2000/svg" width="14.699" height="27.296" viewBox="0 0 14.699 27.296">
  <path id="Trazado_94" data-name="Trazado 94" d="M-2.9,1222.961c0-1.371-.019-2.665,0-3.959a6.624,6.624,0,0,1,1.543-4.42,5.759,5.759,0,0,1,3.231-1.8,13.477,13.477,0,0,1,5.193.15.587.587,0,0,1,.375.417c.031,1.165.012,2.33.022,3.5,0,.344-.15.453-.48.457a23.638,23.638,0,0,0-2.473.092,2.114,2.114,0,0,0-1.918,2.143c-.031,1.122-.007,2.246-.007,3.421H6.515c.732,0,.732,0,.625.743-.185,1.279-.376,2.557-.548,3.838-.044.332-.2.444-.523.44-.9-.01-1.8,0-2.707,0-.777,0-.777,0-.777.75q0,5.16,0,10.32c0,.816,0,.818-.81.818-1.316,0-2.632-.027-3.947.013-.57.017-.744-.155-.74-.726.022-3.5,0-6.993.023-10.489,0-.534-.131-.721-.684-.7-1.032.042-2.068,0-3.1.019-.42.009-.562-.142-.556-.555.017-1.3.019-2.594,0-3.891-.007-.438.139-.6.585-.589C-5.427,1222.976-4.208,1222.961-2.9,1222.961Z" transform="translate(7.231 -1212.586)" fill="#fff"/>
</svg>
