<svg xmlns="http://www.w3.org/2000/svg" width="52" height="52" viewBox="0 0 52 52">
  <g id="Grupo_7958" data-name="Grupo 7958" transform="translate(-19.999 -22.313)">
    <path id="Trazado_2156" data-name="Trazado 2156" d="M8,0H44a8,8,0,0,1,8,8V44a8,8,0,0,1-8,8H8a8,8,0,0,1-8-8V8A8,8,0,0,1,8,0Z" transform="translate(19.999 22.313)" fill="#fffebf"/>
    <path id="gear-fill" d="M19.1,2.133a2.976,2.976,0,0,0-5.708,0l-.2.691A2.974,2.974,0,0,1,8.917,4.595l-.63-.345A2.975,2.975,0,0,0,4.251,8.285l.343.632a2.974,2.974,0,0,1-1.771,4.276l-.691.2a2.976,2.976,0,0,0,0,5.708l.691.2a2.974,2.974,0,0,1,1.771,4.276l-.345.63a2.975,2.975,0,0,0,4.036,4.036l.632-.343a2.974,2.974,0,0,1,4.276,1.771l.2.691a2.976,2.976,0,0,0,5.708,0l.2-.691a2.974,2.974,0,0,1,4.276-1.771l.63.345a2.975,2.975,0,0,0,4.036-4.036l-.343-.632a2.974,2.974,0,0,1,1.771-4.276l.691-.2a2.976,2.976,0,0,0,0-5.708l-.691-.2a2.974,2.974,0,0,1-1.771-4.276l.345-.63a2.975,2.975,0,0,0-4.036-4.036l-.632.343a2.974,2.974,0,0,1-4.276-1.771ZM16.25,22.2a5.952,5.952,0,1,1,5.95-5.954A5.952,5.952,0,0,1,16.25,22.2Z" transform="translate(29.749 32.063)" fill="#ffd93f"/>
  </g>
</svg>
