<?xml version="1.0" encoding="UTF-8"?>
<svg id="Capa_1" xmlns="http://www.w3.org/2000/svg" version="1.1" viewBox="0 0 135 156.7">
  <!-- Generator: Adobe Illustrator 29.1.0, SVG Export Plug-In . SVG Version: 2.1.0 Build 142)  -->
  <defs>
    <style>
      .st0 {
        fill: #2b71b7;
      }
    </style>
  </defs>
  <g id="file-earmark-arrow-up">
    <path id="Trazado_2216" class="st0" d="M126,136.7V44.8L82.5,1.3H29.3c-10.7,0-19.3,8.7-19.3,19.3h0v116.1c0,10.7,8.7,19.3,19.3,19.3h77.4c10.7,0,19.3-8.7,19.3-19.3ZM82.5,30.3c0,8,6.5,14.5,14.5,14.5h19.3v91.9c0,5.3-4.3,9.7-9.7,9.7H29.3c-5.3,0-9.7-4.3-9.7-9.7V20.6c0-5.3,4.3-9.7,9.7-9.7h53.2v19.3Z"/>
  </g>
  <g id="QTxMDy.tif">
    <path class="st0" d="M90.7,137.1h-53c-1.2-.5-2.1-1.1-2.2-2.5v-27.7s.4-1.1.4-1.1l9.7-15.2c0-.2-1.6-1.7-1.9-2-1.1-1.4-.9-2.9.3-4.2,8.1-7.9,15.8-16.2,24.1-23.8,1.1-.5,2.1-.3,3,.4l13.7,13.7c1,1.4.6,2.7-.4,4-1.8,2.2-4.5,4.2-6.4,6.4.8.4,1.7.5,2.2,1.4,4.2,6.8,8.8,13.4,12.7,20.4v27.5c-.1,1.4-1,2.1-2.2,2.6ZM62.1,101.1h15.3c.6,0,1.2,1.8-.3,1.9h-26.4c-.9-.5-.5-1.9.2-1.9h5.2l-6.4-6.3-6,9.7h41l-8.5-13.5h-4.2c0,0-9.9,10-9.9,10ZM87.2,110.4h-46.1v20.8h46.1v-20.8Z"/>
  </g>
</svg>