<?xml version="1.0" encoding="utf-8"?>
<!-- Generator: Adobe Illustrator 27.5.0, SVG Export Plug-In . SVG Version: 6.00 Build 0)  -->
<svg version="1.1" id="Capa_1" xmlns="http://www.w3.org/2000/svg" xmlns:xlink="http://www.w3.org/1999/xlink" x="0px" y="0px"
	 width="52px" height="52px" viewBox="0 0 52 52" style="enable-background:new 0 0 52 52;" xml:space="preserve">
<style type="text/css">
	.st0{fill:#2A71B9;}
	.st1{clip-path:url(#SVGID_00000130616686303575350030000009836395463842873988_);}
	.st2{fill:#FFFFFF;}
</style>
<path id="Rectángulo_1025" class="st0" d="M8,0h36c4.4,0,8,3.6,8,8v36c0,4.4-3.6,8-8,8H8c-4.4,0-8-3.6-8-8V8C0,3.6,3.6,0,8,0z"/>
<g id="Grupo_1938" transform="translate(0 0)">
	<g>
		<defs>
			<rect id="SVGID_1_" x="12.1" y="8.6" width="27.8" height="34.8"/>
		</defs>
		<clipPath id="SVGID_00000134236150907102557660000003696808039706388651_">
			<use xlink:href="#SVGID_1_"  style="overflow:visible;"/>
		</clipPath>
		
			<g id="Grupo_1937" transform="translate(0 0)" style="clip-path:url(#SVGID_00000134236150907102557660000003696808039706388651_);">
			<path id="Trazado_2170" class="st2" d="M29.5,8.6H15.6c-1.9,0-3.5,1.6-3.5,3.5l0,27.8c0,1.9,1.5,3.5,3.5,3.5h20.9
				c1.9,0,3.5-1.6,3.5-3.5V19L29.5,8.6z M27.7,20.8v-9.6l9.6,9.6H27.7z"/>
		</g>
	</g>
</g>
</svg>
