<?xml version="1.0" encoding="UTF-8"?>
<svg id="Capa_1" xmlns="http://www.w3.org/2000/svg" version="1.1" viewBox="0 0 135 156.7">
  <!-- Generator: Adobe Illustrator 29.1.0, SVG Export Plug-In . SVG Version: 2.1.0 Build 142)  -->
  <defs>
    <style>
      .st0 {
        fill: #2b71b7;
      }
    </style>
  </defs>
  <g id="ZZ8sxn.tif">
    <g>
      <path class="st0" d="M114.5,153.5H22.5c-.1,0-.3-.2-.4-.2-6.1-1.1-10.2-6.6-10.2-12.9,0-36.3,0-72.6,0-109,0-1.3,0-2.7.4-3.9,1.6-5.7,6.3-9.3,12.5-9.3,4.1,0,8.1,0,12.2,0,1.1,0,1.7-.2,2.3-1.3,1.7-3.1,4.3-5.3,7.9-5.7,2.9-.4,5.9-.3,8.9-.3.8,0,1.3-.2,1.7-1,2.4-4.1,6-6.4,10.8-6.4,4.8,0,8.4,2.2,10.8,6.4.4.8.9,1,1.7,1,2.2,0,4.4,0,6.6,0,4.6.2,8.1,2.2,10.3,6.3.4.8,1,1,1.8,1,4.1,0,8.2,0,12.3,0,3,0,5.8.7,8.2,2.6,3.5,2.7,4.9,6.4,4.9,10.7,0,36.2,0,72.5,0,108.7,0,.6,0,1.3,0,1.9-.2,2.4-1,4.5-2.5,6.5-2,2.7-4.9,4.1-8,4.9ZM99.3,28.2c0,.8,0,1.5,0,2.2,0,7.4-4.8,12.5-12.2,12.6-12.3,0-24.7,0-37,0-7.4,0-12.2-5.1-12.2-12.6,0-.7,0-1.4,0-2.2-4.3,0-8.3,0-12.4,0-2.7,0-3.5.8-3.5,3.5,0,36.1,0,72.3,0,108.4,0,2.7.7,3.5,3.5,3.5,28.7,0,57.5,0,86.2,0,2.7,0,3.5-.8,3.5-3.5,0-13.9,0-27.8,0-41.7,0-22.3,0-44.6,0-66.9,0-2.2-.8-3.2-2.7-3.2-4.3,0-8.6,0-13.1,0ZM68.5,32.9c6.1,0,12.2,0,18.3,0,2,0,2.5-.6,2.5-2.5,0-2.3,0-4.6,0-6.9,0-2.1-.6-2.7-2.8-2.7-3.4,0-6.8,0-10.2,0-3.1,0-5-1.7-5.4-4.8-.2-1.6-1.1-2.5-2.3-2.5-1.3,0-2.2.9-2.4,2.5-.4,3.2-2.2,4.8-5.5,4.9-3.4,0-6.8,0-10.2,0-2.1,0-2.7.6-2.7,2.7,0,2.2,0,4.4,0,6.6,0,2.4.4,2.9,2.9,2.9,6,0,11.9,0,17.9,0Z"/>
      <rect class="st0" x="27.9" y="54" width="80.6" height="7.9" rx="3.7" ry="3.7"/>
      <rect class="st0" x="27.9" y="74.3" width="80.6" height="7.9" rx="3.7" ry="3.7"/>
      <rect class="st0" x="27.9" y="94.6" width="80.6" height="7.9" rx="3.7" ry="3.7"/>
      <rect class="st0" x="27.9" y="114.9" width="80.6" height="7.9" rx="3.7" ry="3.7"/>
    </g>
  </g>
</svg>