<svg id="Grupo_13762" data-name="Grupo 13762" xmlns="http://www.w3.org/2000/svg" xmlns:xlink="http://www.w3.org/1999/xlink" width="158" height="126.699" viewBox="0 0 158 126.699">
  <defs>
    <clipPath id="clip-path">
      <rect id="Rectángulo_5509" data-name="Rectángulo 5509" width="158" height="126.699" fill="#2971b9"/>
    </clipPath>
  </defs>
  <g id="Grupo_13761" data-name="Grupo 13761" clip-path="url(#clip-path)">
    <path id="Trazado_5516" data-name="Trazado 5516" d="M5.561,239.772a2.781,2.781,0,1,1-2.781-2.781,2.781,2.781,0,0,1,2.781,2.781" transform="translate(0 -160.772)" fill="#2971b9"/>
    <path id="Trazado_5517" data-name="Trazado 5517" d="M25.883,239.772a2.781,2.781,0,1,1-2.781-2.781,2.781,2.781,0,0,1,2.781,2.781" transform="translate(-13.786 -160.772)" fill="#2971b9"/>
    <path id="Trazado_5518" data-name="Trazado 5518" d="M46.205,239.772a2.781,2.781,0,1,1-2.781-2.781,2.781,2.781,0,0,1,2.781,2.781" transform="translate(-27.572 -160.772)" fill="#2971b9"/>
    <path id="Trazado_5519" data-name="Trazado 5519" d="M66.527,239.772a2.781,2.781,0,1,1-2.781-2.781,2.781,2.781,0,0,1,2.781,2.781" transform="translate(-41.359 -160.772)" fill="#2971b9"/>
    <path id="Trazado_5520" data-name="Trazado 5520" d="M86.849,239.772a2.781,2.781,0,1,1-2.781-2.781,2.781,2.781,0,0,1,2.781,2.781" transform="translate(-55.145 -160.772)" fill="#2971b9"/>
    <path id="Trazado_5521" data-name="Trazado 5521" d="M107.171,239.772a2.781,2.781,0,1,1-2.781-2.781,2.781,2.781,0,0,1,2.781,2.781" transform="translate(-68.931 -160.772)" fill="#2971b9"/>
    <path id="Trazado_5522" data-name="Trazado 5522" d="M127.493,239.772a2.781,2.781,0,1,1-2.781-2.781,2.781,2.781,0,0,1,2.781,2.781" transform="translate(-82.717 -160.772)" fill="#2971b9"/>
    <path id="Trazado_5523" data-name="Trazado 5523" d="M357.611,239.772a2.781,2.781,0,1,1-2.781-2.781,2.781,2.781,0,0,1,2.781,2.781" transform="translate(-238.826 -160.772)" fill="#2971b9"/>
    <path id="Trazado_5524" data-name="Trazado 5524" d="M377.933,239.772a2.781,2.781,0,1,1-2.781-2.781,2.781,2.781,0,0,1,2.781,2.781" transform="translate(-252.612 -160.772)" fill="#2971b9"/>
    <path id="Trazado_5525" data-name="Trazado 5525" d="M398.255,239.772a2.781,2.781,0,1,1-2.781-2.781,2.781,2.781,0,0,1,2.781,2.781" transform="translate(-266.399 -160.772)" fill="#2971b9"/>
    <path id="Trazado_5526" data-name="Trazado 5526" d="M418.577,239.772a2.781,2.781,0,1,1-2.781-2.781,2.781,2.781,0,0,1,2.781,2.781" transform="translate(-280.185 -160.772)" fill="#2971b9"/>
    <path id="Trazado_5527" data-name="Trazado 5527" d="M438.9,239.772a2.781,2.781,0,1,1-2.781-2.781,2.781,2.781,0,0,1,2.781,2.781" transform="translate(-293.971 -160.772)" fill="#2971b9"/>
    <path id="Trazado_5528" data-name="Trazado 5528" d="M459.221,239.772a2.781,2.781,0,1,1-2.781-2.781,2.781,2.781,0,0,1,2.781,2.781" transform="translate(-307.757 -160.772)" fill="#2971b9"/>
    <path id="Trazado_5529" data-name="Trazado 5529" d="M479.543,239.772a2.781,2.781,0,1,1-2.781-2.781,2.781,2.781,0,0,1,2.781,2.781" transform="translate(-321.543 -160.772)" fill="#2971b9"/>
    <path id="Trazado_5530" data-name="Trazado 5530" d="M5.561,269.7a2.781,2.781,0,1,1-2.781-2.781A2.781,2.781,0,0,1,5.561,269.7" transform="translate(0 -181.074)" fill="#2971b9"/>
    <path id="Trazado_5531" data-name="Trazado 5531" d="M25.883,269.7a2.781,2.781,0,1,1-2.781-2.781,2.781,2.781,0,0,1,2.781,2.781" transform="translate(-13.786 -181.074)" fill="#2971b9"/>
    <path id="Trazado_5532" data-name="Trazado 5532" d="M46.205,269.7a2.781,2.781,0,1,1-2.781-2.781,2.781,2.781,0,0,1,2.781,2.781" transform="translate(-27.572 -181.074)" fill="#2971b9"/>
    <path id="Trazado_5533" data-name="Trazado 5533" d="M66.527,269.7a2.781,2.781,0,1,1-2.781-2.781,2.781,2.781,0,0,1,2.781,2.781" transform="translate(-41.359 -181.074)" fill="#2971b9"/>
    <path id="Trazado_5534" data-name="Trazado 5534" d="M86.849,269.7a2.781,2.781,0,1,1-2.781-2.781,2.781,2.781,0,0,1,2.781,2.781" transform="translate(-55.145 -181.074)" fill="#2971b9"/>
    <path id="Trazado_5535" data-name="Trazado 5535" d="M107.171,269.7a2.781,2.781,0,1,1-2.781-2.781,2.781,2.781,0,0,1,2.781,2.781" transform="translate(-68.931 -181.074)" fill="#2971b9"/>
    <path id="Trazado_5536" data-name="Trazado 5536" d="M127.493,269.7a2.781,2.781,0,1,1-2.781-2.781,2.781,2.781,0,0,1,2.781,2.781" transform="translate(-82.717 -181.074)" fill="#2971b9"/>
    <path id="Trazado_5537" data-name="Trazado 5537" d="M357.611,269.7a2.781,2.781,0,1,1-2.781-2.781,2.781,2.781,0,0,1,2.781,2.781" transform="translate(-238.826 -181.074)" fill="#2971b9"/>
    <path id="Trazado_5538" data-name="Trazado 5538" d="M377.933,269.7a2.781,2.781,0,1,1-2.781-2.781,2.781,2.781,0,0,1,2.781,2.781" transform="translate(-252.612 -181.074)" fill="#2971b9"/>
    <path id="Trazado_5539" data-name="Trazado 5539" d="M398.255,269.7a2.781,2.781,0,1,1-2.781-2.781,2.781,2.781,0,0,1,2.781,2.781" transform="translate(-266.399 -181.074)" fill="#2971b9"/>
    <path id="Trazado_5540" data-name="Trazado 5540" d="M418.577,269.7a2.781,2.781,0,1,1-2.781-2.781,2.781,2.781,0,0,1,2.781,2.781" transform="translate(-280.185 -181.074)" fill="#2971b9"/>
    <path id="Trazado_5541" data-name="Trazado 5541" d="M438.9,269.7a2.781,2.781,0,1,1-2.781-2.781A2.781,2.781,0,0,1,438.9,269.7" transform="translate(-293.971 -181.074)" fill="#2971b9"/>
    <path id="Trazado_5542" data-name="Trazado 5542" d="M459.221,269.7a2.781,2.781,0,1,1-2.781-2.781,2.781,2.781,0,0,1,2.781,2.781" transform="translate(-307.757 -181.074)" fill="#2971b9"/>
    <path id="Trazado_5543" data-name="Trazado 5543" d="M479.543,269.7a2.781,2.781,0,1,1-2.781-2.781,2.781,2.781,0,0,1,2.781,2.781" transform="translate(-321.543 -181.074)" fill="#2971b9"/>
    <path id="Trazado_5544" data-name="Trazado 5544" d="M5.561,297.634a2.781,2.781,0,1,1-2.781-2.781,2.781,2.781,0,0,1,2.781,2.781" transform="translate(0 -200.025)" fill="#2971b9"/>
    <path id="Trazado_5545" data-name="Trazado 5545" d="M25.883,297.634a2.781,2.781,0,1,1-2.781-2.781,2.781,2.781,0,0,1,2.781,2.781" transform="translate(-13.786 -200.025)" fill="#2971b9"/>
    <path id="Trazado_5546" data-name="Trazado 5546" d="M46.205,297.634a2.781,2.781,0,1,1-2.781-2.781,2.781,2.781,0,0,1,2.781,2.781" transform="translate(-27.572 -200.025)" fill="#2971b9"/>
    <path id="Trazado_5547" data-name="Trazado 5547" d="M66.527,297.634a2.781,2.781,0,1,1-2.781-2.781,2.781,2.781,0,0,1,2.781,2.781" transform="translate(-41.359 -200.025)" fill="#2971b9"/>
    <path id="Trazado_5548" data-name="Trazado 5548" d="M86.849,297.634a2.781,2.781,0,1,1-2.781-2.781,2.781,2.781,0,0,1,2.781,2.781" transform="translate(-55.145 -200.025)" fill="#2971b9"/>
    <path id="Trazado_5549" data-name="Trazado 5549" d="M107.171,297.634a2.781,2.781,0,1,1-2.781-2.781,2.781,2.781,0,0,1,2.781,2.781" transform="translate(-68.931 -200.025)" fill="#2971b9"/>
    <path id="Trazado_5550" data-name="Trazado 5550" d="M127.493,297.634a2.781,2.781,0,1,1-2.781-2.781,2.781,2.781,0,0,1,2.781,2.781" transform="translate(-82.717 -200.025)" fill="#2971b9"/>
    <path id="Trazado_5551" data-name="Trazado 5551" d="M357.611,297.634a2.781,2.781,0,1,1-2.781-2.781,2.781,2.781,0,0,1,2.781,2.781" transform="translate(-238.826 -200.025)" fill="#2971b9"/>
    <path id="Trazado_5552" data-name="Trazado 5552" d="M377.933,297.634a2.781,2.781,0,1,1-2.781-2.781,2.781,2.781,0,0,1,2.781,2.781" transform="translate(-252.612 -200.025)" fill="#2971b9"/>
    <path id="Trazado_5553" data-name="Trazado 5553" d="M398.255,297.634a2.781,2.781,0,1,1-2.781-2.781,2.781,2.781,0,0,1,2.781,2.781" transform="translate(-266.399 -200.025)" fill="#2971b9"/>
    <path id="Trazado_5554" data-name="Trazado 5554" d="M418.577,297.634a2.781,2.781,0,1,1-2.781-2.781,2.781,2.781,0,0,1,2.781,2.781" transform="translate(-280.185 -200.025)" fill="#2971b9"/>
    <path id="Trazado_5555" data-name="Trazado 5555" d="M438.9,297.634a2.781,2.781,0,1,1-2.781-2.781,2.781,2.781,0,0,1,2.781,2.781" transform="translate(-293.971 -200.025)" fill="#2971b9"/>
    <path id="Trazado_5556" data-name="Trazado 5556" d="M459.221,297.634a2.781,2.781,0,1,1-2.781-2.781,2.781,2.781,0,0,1,2.781,2.781" transform="translate(-307.757 -200.025)" fill="#2971b9"/>
    <path id="Trazado_5557" data-name="Trazado 5557" d="M479.543,297.634a2.781,2.781,0,1,1-2.781-2.781,2.781,2.781,0,0,1,2.781,2.781" transform="translate(-321.543 -200.025)" fill="#2971b9"/>
    <path id="Trazado_5558" data-name="Trazado 5558" d="M5.561,325.567a2.781,2.781,0,1,1-2.781-2.781,2.781,2.781,0,0,1,2.781,2.781" transform="translate(0 -218.974)" fill="#2971b9"/>
    <path id="Trazado_5559" data-name="Trazado 5559" d="M25.883,325.567a2.781,2.781,0,1,1-2.781-2.781,2.781,2.781,0,0,1,2.781,2.781" transform="translate(-13.786 -218.974)" fill="#2971b9"/>
    <path id="Trazado_5560" data-name="Trazado 5560" d="M46.205,325.567a2.781,2.781,0,1,1-2.781-2.781,2.781,2.781,0,0,1,2.781,2.781" transform="translate(-27.572 -218.974)" fill="#2971b9"/>
    <path id="Trazado_5561" data-name="Trazado 5561" d="M66.527,325.567a2.781,2.781,0,1,1-2.781-2.781,2.781,2.781,0,0,1,2.781,2.781" transform="translate(-41.359 -218.974)" fill="#2971b9"/>
    <path id="Trazado_5562" data-name="Trazado 5562" d="M86.849,325.567a2.781,2.781,0,1,1-2.781-2.781,2.781,2.781,0,0,1,2.781,2.781" transform="translate(-55.145 -218.974)" fill="#2971b9"/>
    <path id="Trazado_5563" data-name="Trazado 5563" d="M107.171,325.567a2.781,2.781,0,1,1-2.781-2.781,2.781,2.781,0,0,1,2.781,2.781" transform="translate(-68.931 -218.974)" fill="#2971b9"/>
    <path id="Trazado_5564" data-name="Trazado 5564" d="M127.493,325.567a2.781,2.781,0,1,1-2.781-2.781,2.781,2.781,0,0,1,2.781,2.781" transform="translate(-82.717 -218.974)" fill="#2971b9"/>
    <path id="Trazado_5565" data-name="Trazado 5565" d="M357.611,325.567a2.781,2.781,0,1,1-2.781-2.781,2.781,2.781,0,0,1,2.781,2.781" transform="translate(-238.826 -218.974)" fill="#2971b9"/>
    <path id="Trazado_5566" data-name="Trazado 5566" d="M377.933,325.567a2.781,2.781,0,1,1-2.781-2.781,2.781,2.781,0,0,1,2.781,2.781" transform="translate(-252.612 -218.974)" fill="#2971b9"/>
    <path id="Trazado_5567" data-name="Trazado 5567" d="M398.255,325.567a2.781,2.781,0,1,1-2.781-2.781,2.781,2.781,0,0,1,2.781,2.781" transform="translate(-266.399 -218.974)" fill="#2971b9"/>
    <path id="Trazado_5568" data-name="Trazado 5568" d="M418.577,325.567a2.781,2.781,0,1,1-2.781-2.781,2.781,2.781,0,0,1,2.781,2.781" transform="translate(-280.185 -218.974)" fill="#2971b9"/>
    <path id="Trazado_5569" data-name="Trazado 5569" d="M438.9,325.567a2.781,2.781,0,1,1-2.781-2.781,2.781,2.781,0,0,1,2.781,2.781" transform="translate(-293.971 -218.974)" fill="#2971b9"/>
    <path id="Trazado_5570" data-name="Trazado 5570" d="M459.221,325.567a2.781,2.781,0,1,1-2.781-2.781,2.781,2.781,0,0,1,2.781,2.781" transform="translate(-307.757 -218.974)" fill="#2971b9"/>
    <path id="Trazado_5571" data-name="Trazado 5571" d="M479.543,325.567a2.781,2.781,0,1,1-2.781-2.781,2.781,2.781,0,0,1,2.781,2.781" transform="translate(-321.543 -218.974)" fill="#2971b9"/>
    <path id="Trazado_5572" data-name="Trazado 5572" d="M5.561,352.5a2.781,2.781,0,1,1-2.781-2.781A2.781,2.781,0,0,1,5.561,352.5" transform="translate(0 -237.247)" fill="#2971b9"/>
    <path id="Trazado_5573" data-name="Trazado 5573" d="M25.883,352.5a2.781,2.781,0,1,1-2.781-2.781,2.781,2.781,0,0,1,2.781,2.781" transform="translate(-13.786 -237.247)" fill="#2971b9"/>
    <path id="Trazado_5574" data-name="Trazado 5574" d="M46.205,352.5a2.781,2.781,0,1,1-2.781-2.781,2.781,2.781,0,0,1,2.781,2.781" transform="translate(-27.572 -237.247)" fill="#2971b9"/>
    <path id="Trazado_5575" data-name="Trazado 5575" d="M66.527,352.5a2.781,2.781,0,1,1-2.781-2.781,2.781,2.781,0,0,1,2.781,2.781" transform="translate(-41.359 -237.247)" fill="#2971b9"/>
    <path id="Trazado_5576" data-name="Trazado 5576" d="M86.849,352.5a2.781,2.781,0,1,1-2.781-2.781,2.781,2.781,0,0,1,2.781,2.781" transform="translate(-55.145 -237.247)" fill="#2971b9"/>
    <path id="Trazado_5577" data-name="Trazado 5577" d="M107.171,352.5a2.781,2.781,0,1,1-2.781-2.781,2.781,2.781,0,0,1,2.781,2.781" transform="translate(-68.931 -237.247)" fill="#2971b9"/>
    <path id="Trazado_5578" data-name="Trazado 5578" d="M127.493,352.5a2.781,2.781,0,1,1-2.781-2.781,2.781,2.781,0,0,1,2.781,2.781" transform="translate(-82.717 -237.247)" fill="#2971b9"/>
    <path id="Trazado_5579" data-name="Trazado 5579" d="M357.611,352.5a2.781,2.781,0,1,1-2.781-2.781,2.781,2.781,0,0,1,2.781,2.781" transform="translate(-238.826 -237.247)" fill="#2971b9"/>
    <path id="Trazado_5580" data-name="Trazado 5580" d="M377.933,352.5a2.781,2.781,0,1,1-2.781-2.781,2.781,2.781,0,0,1,2.781,2.781" transform="translate(-252.612 -237.247)" fill="#2971b9"/>
    <path id="Trazado_5581" data-name="Trazado 5581" d="M398.255,352.5a2.781,2.781,0,1,1-2.781-2.781,2.781,2.781,0,0,1,2.781,2.781" transform="translate(-266.399 -237.247)" fill="#2971b9"/>
    <path id="Trazado_5582" data-name="Trazado 5582" d="M418.577,352.5a2.781,2.781,0,1,1-2.781-2.781,2.781,2.781,0,0,1,2.781,2.781" transform="translate(-280.185 -237.247)" fill="#2971b9"/>
    <path id="Trazado_5583" data-name="Trazado 5583" d="M438.9,352.5a2.781,2.781,0,1,1-2.781-2.781A2.781,2.781,0,0,1,438.9,352.5" transform="translate(-293.971 -237.247)" fill="#2971b9"/>
    <path id="Trazado_5584" data-name="Trazado 5584" d="M459.221,352.5a2.781,2.781,0,1,1-2.781-2.781,2.781,2.781,0,0,1,2.781,2.781" transform="translate(-307.757 -237.247)" fill="#2971b9"/>
    <path id="Trazado_5585" data-name="Trazado 5585" d="M479.543,352.5a2.781,2.781,0,1,1-2.781-2.781,2.781,2.781,0,0,1,2.781,2.781" transform="translate(-321.543 -237.247)" fill="#2971b9"/>
    <path id="Trazado_5586" data-name="Trazado 5586" d="M5.561,379.439a2.781,2.781,0,1,1-2.781-2.781,2.781,2.781,0,0,1,2.781,2.781" transform="translate(0 -255.52)" fill="#2971b9"/>
    <path id="Trazado_5587" data-name="Trazado 5587" d="M25.883,379.439a2.781,2.781,0,1,1-2.781-2.781,2.781,2.781,0,0,1,2.781,2.781" transform="translate(-13.786 -255.52)" fill="#2971b9"/>
    <path id="Trazado_5588" data-name="Trazado 5588" d="M46.205,379.439a2.781,2.781,0,1,1-2.781-2.781,2.781,2.781,0,0,1,2.781,2.781" transform="translate(-27.572 -255.52)" fill="#2971b9"/>
    <path id="Trazado_5589" data-name="Trazado 5589" d="M66.527,379.439a2.781,2.781,0,1,1-2.781-2.781,2.781,2.781,0,0,1,2.781,2.781" transform="translate(-41.359 -255.52)" fill="#2971b9"/>
    <path id="Trazado_5590" data-name="Trazado 5590" d="M86.849,379.439a2.781,2.781,0,1,1-2.781-2.781,2.781,2.781,0,0,1,2.781,2.781" transform="translate(-55.145 -255.52)" fill="#2971b9"/>
    <path id="Trazado_5591" data-name="Trazado 5591" d="M107.171,379.439a2.781,2.781,0,1,1-2.781-2.781,2.781,2.781,0,0,1,2.781,2.781" transform="translate(-68.931 -255.52)" fill="#2971b9"/>
    <path id="Trazado_5592" data-name="Trazado 5592" d="M127.493,379.439a2.781,2.781,0,1,1-2.781-2.781,2.781,2.781,0,0,1,2.781,2.781" transform="translate(-82.717 -255.52)" fill="#2971b9"/>
    <path id="Trazado_5593" data-name="Trazado 5593" d="M357.611,379.439a2.781,2.781,0,1,1-2.781-2.781,2.781,2.781,0,0,1,2.781,2.781" transform="translate(-238.826 -255.52)" fill="#2971b9"/>
    <path id="Trazado_5594" data-name="Trazado 5594" d="M377.933,379.439a2.781,2.781,0,1,1-2.781-2.781,2.781,2.781,0,0,1,2.781,2.781" transform="translate(-252.612 -255.52)" fill="#2971b9"/>
    <path id="Trazado_5595" data-name="Trazado 5595" d="M398.255,379.439a2.781,2.781,0,1,1-2.781-2.781,2.781,2.781,0,0,1,2.781,2.781" transform="translate(-266.399 -255.52)" fill="#2971b9"/>
    <path id="Trazado_5596" data-name="Trazado 5596" d="M418.577,379.439a2.781,2.781,0,1,1-2.781-2.781,2.781,2.781,0,0,1,2.781,2.781" transform="translate(-280.185 -255.52)" fill="#2971b9"/>
    <path id="Trazado_5597" data-name="Trazado 5597" d="M438.9,379.439a2.781,2.781,0,1,1-2.781-2.781,2.781,2.781,0,0,1,2.781,2.781" transform="translate(-293.971 -255.52)" fill="#2971b9"/>
    <path id="Trazado_5598" data-name="Trazado 5598" d="M459.221,379.439a2.781,2.781,0,1,1-2.781-2.781,2.781,2.781,0,0,1,2.781,2.781" transform="translate(-307.757 -255.52)" fill="#2971b9"/>
    <path id="Trazado_5599" data-name="Trazado 5599" d="M479.543,379.439a2.781,2.781,0,1,1-2.781-2.781,2.781,2.781,0,0,1,2.781,2.781" transform="translate(-321.543 -255.52)" fill="#2971b9"/>
    <path id="Trazado_5600" data-name="Trazado 5600" d="M239.772,121.931a2.781,2.781,0,1,1-2.781,2.781,2.781,2.781,0,0,1,2.781-2.781" transform="translate(-160.772 -82.716)" fill="#2971b9"/>
    <path id="Trazado_5601" data-name="Trazado 5601" d="M239.772,101.609a2.781,2.781,0,1,1-2.781,2.781,2.781,2.781,0,0,1,2.781-2.781" transform="translate(-160.772 -68.93)" fill="#2971b9"/>
    <path id="Trazado_5602" data-name="Trazado 5602" d="M239.772,81.288a2.781,2.781,0,1,1-2.781,2.781,2.781,2.781,0,0,1,2.781-2.781" transform="translate(-160.772 -55.145)" fill="#2971b9"/>
    <path id="Trazado_5603" data-name="Trazado 5603" d="M239.772,60.966a2.781,2.781,0,1,1-2.781,2.781,2.781,2.781,0,0,1,2.781-2.781" transform="translate(-160.772 -41.359)" fill="#2971b9"/>
    <path id="Trazado_5604" data-name="Trazado 5604" d="M239.772,40.644a2.781,2.781,0,1,1-2.781,2.781,2.781,2.781,0,0,1,2.781-2.781" transform="translate(-160.772 -27.572)" fill="#2971b9"/>
    <path id="Trazado_5605" data-name="Trazado 5605" d="M239.772,20.322a2.781,2.781,0,1,1-2.781,2.781,2.781,2.781,0,0,1,2.781-2.781" transform="translate(-160.772 -13.786)" fill="#2971b9"/>
    <path id="Trazado_5606" data-name="Trazado 5606" d="M239.772,0a2.781,2.781,0,1,1-2.781,2.781A2.781,2.781,0,0,1,239.772,0" transform="translate(-160.772)" fill="#2971b9"/>
    <path id="Trazado_5607" data-name="Trazado 5607" d="M74.16,74.16a2.781,2.781,0,1,1,0-3.932,2.781,2.781,0,0,1,0,3.932" transform="translate(-47.089 -47.089)" fill="#2971b9"/>
    <path id="Trazado_5608" data-name="Trazado 5608" d="M88.53,88.529a2.781,2.781,0,1,1,0-3.932,2.78,2.78,0,0,1,0,3.932" transform="translate(-56.837 -56.837)" fill="#2971b9"/>
    <path id="Trazado_5609" data-name="Trazado 5609" d="M102.9,102.9a2.781,2.781,0,1,1,0-3.932,2.781,2.781,0,0,1,0,3.932" transform="translate(-66.585 -66.585)" fill="#2971b9"/>
    <path id="Trazado_5610" data-name="Trazado 5610" d="M117.269,117.269a2.781,2.781,0,1,1,0-3.932,2.781,2.781,0,0,1,0,3.932" transform="translate(-76.334 -76.334)" fill="#2971b9"/>
    <path id="Trazado_5611" data-name="Trazado 5611" d="M131.639,131.639a2.781,2.781,0,1,1,0-3.932,2.781,2.781,0,0,1,0,3.932" transform="translate(-86.082 -86.082)" fill="#2971b9"/>
    <path id="Trazado_5612" data-name="Trazado 5612" d="M146.009,146.009a2.781,2.781,0,1,1,0-3.932,2.78,2.78,0,0,1,0,3.932" transform="translate(-95.83 -95.83)" fill="#2971b9"/>
    <path id="Trazado_5613" data-name="Trazado 5613" d="M160.378,160.378a2.781,2.781,0,1,1,0-3.932,2.781,2.781,0,0,1,0,3.932" transform="translate(-105.578 -105.578)" fill="#2971b9"/>
    <path id="Trazado_5614" data-name="Trazado 5614" d="M323.1,156.446a2.781,2.781,0,1,1-3.932,0,2.781,2.781,0,0,1,3.932,0" transform="translate(-215.965 -105.579)" fill="#2971b9"/>
    <path id="Trazado_5615" data-name="Trazado 5615" d="M337.467,142.076a2.781,2.781,0,1,1-3.932,0,2.781,2.781,0,0,1,3.932,0" transform="translate(-225.713 -95.83)" fill="#2971b9"/>
    <path id="Trazado_5616" data-name="Trazado 5616" d="M351.836,127.706a2.781,2.781,0,1,1-3.932,0,2.781,2.781,0,0,1,3.932,0" transform="translate(-235.461 -86.082)" fill="#2971b9"/>
    <path id="Trazado_5617" data-name="Trazado 5617" d="M366.206,113.337a2.781,2.781,0,1,1-3.932,0,2.781,2.781,0,0,1,3.932,0" transform="translate(-245.209 -76.334)" fill="#2971b9"/>
    <path id="Trazado_5618" data-name="Trazado 5618" d="M380.576,98.967a2.781,2.781,0,1,1-3.932,0,2.78,2.78,0,0,1,3.932,0" transform="translate(-254.958 -66.586)" fill="#2971b9"/>
    <path id="Trazado_5619" data-name="Trazado 5619" d="M394.946,84.6a2.781,2.781,0,1,1-3.932,0,2.781,2.781,0,0,1,3.932,0" transform="translate(-264.706 -56.837)" fill="#2971b9"/>
    <path id="Trazado_5620" data-name="Trazado 5620" d="M409.316,70.227a2.781,2.781,0,1,1-3.932,0,2.781,2.781,0,0,1,3.932,0" transform="translate(-274.455 -47.089)" fill="#2971b9"/>
    <path id="Trazado_5621" data-name="Trazado 5621" d="M23.227,150.531a2.781,2.781,0,1,1-1.512-3.63,2.781,2.781,0,0,1,1.512,3.63" transform="translate(-12.126 -99.513)" fill="#2971b9"/>
    <path id="Trazado_5622" data-name="Trazado 5622" d="M42.016,158.274a2.781,2.781,0,1,1-1.512-3.63,2.781,2.781,0,0,1,1.512,3.63" transform="translate(-24.872 -104.765)" fill="#2971b9"/>
    <path id="Trazado_5623" data-name="Trazado 5623" d="M60.805,166.017a2.781,2.781,0,1,1-1.512-3.63,2.781,2.781,0,0,1,1.512,3.63" transform="translate(-37.618 -110.018)" fill="#2971b9"/>
    <path id="Trazado_5624" data-name="Trazado 5624" d="M79.594,173.76a2.781,2.781,0,1,1-1.512-3.63,2.781,2.781,0,0,1,1.512,3.63" transform="translate(-50.365 -115.271)" fill="#2971b9"/>
    <path id="Trazado_5625" data-name="Trazado 5625" d="M98.383,181.5a2.781,2.781,0,1,1-1.512-3.63,2.781,2.781,0,0,1,1.512,3.63" transform="translate(-63.111 -120.524)" fill="#2971b9"/>
    <path id="Trazado_5626" data-name="Trazado 5626" d="M117.172,189.246a2.781,2.781,0,1,1-1.512-3.63,2.781,2.781,0,0,1,1.512,3.63" transform="translate(-75.857 -125.777)" fill="#2971b9"/>
    <path id="Trazado_5627" data-name="Trazado 5627" d="M135.961,196.989a2.781,2.781,0,1,1-1.512-3.63,2.781,2.781,0,0,1,1.512,3.63" transform="translate(-88.603 -131.029)" fill="#2971b9"/>
    <path id="Trazado_5628" data-name="Trazado 5628" d="M284.669,130.819a2.781,2.781,0,1,1-3.63,1.512,2.781,2.781,0,0,1,3.63-1.512" transform="translate(-190.51 -88.603)" fill="#2971b9"/>
    <path id="Trazado_5629" data-name="Trazado 5629" d="M292.412,112.03a2.781,2.781,0,1,1-3.63,1.512,2.781,2.781,0,0,1,3.63-1.512" transform="translate(-195.763 -75.857)" fill="#2971b9"/>
    <path id="Trazado_5630" data-name="Trazado 5630" d="M300.155,93.241a2.781,2.781,0,1,1-3.63,1.512,2.781,2.781,0,0,1,3.63-1.512" transform="translate(-201.016 -63.111)" fill="#2971b9"/>
    <path id="Trazado_5631" data-name="Trazado 5631" d="M307.9,74.452a2.781,2.781,0,1,1-3.63,1.512,2.781,2.781,0,0,1,3.63-1.512" transform="translate(-206.269 -50.365)" fill="#2971b9"/>
    <path id="Trazado_5632" data-name="Trazado 5632" d="M315.641,55.663a2.781,2.781,0,1,1-3.63,1.512,2.781,2.781,0,0,1,3.63-1.512" transform="translate(-211.521 -37.618)" fill="#2971b9"/>
    <path id="Trazado_5633" data-name="Trazado 5633" d="M323.385,36.874a2.781,2.781,0,1,1-3.63,1.512,2.781,2.781,0,0,1,3.63-1.512" transform="translate(-216.775 -24.872)" fill="#2971b9"/>
    <path id="Trazado_5634" data-name="Trazado 5634" d="M331.128,18.085A2.781,2.781,0,1,1,327.5,19.6a2.781,2.781,0,0,1,3.63-1.512" transform="translate(-222.027 -12.126)" fill="#2971b9"/>
    <path id="Trazado_5635" data-name="Trazado 5635" d="M348.554,194.47a2.781,2.781,0,1,1-3.636-1.5,2.78,2.78,0,0,1,3.636,1.5" transform="translate(-232.827 -130.764)" fill="#2971b9"/>
    <path id="Trazado_5636" data-name="Trazado 5636" d="M367.315,186.657a2.781,2.781,0,1,1-3.636-1.5,2.78,2.78,0,0,1,3.636,1.5" transform="translate(-245.554 -125.464)" fill="#2971b9"/>
    <path id="Trazado_5637" data-name="Trazado 5637" d="M386.076,178.845a2.781,2.781,0,1,1-3.636-1.5,2.78,2.78,0,0,1,3.636,1.5" transform="translate(-258.28 -120.164)" fill="#2971b9"/>
    <path id="Trazado_5638" data-name="Trazado 5638" d="M404.835,171.033a2.781,2.781,0,1,1-3.636-1.5,2.78,2.78,0,0,1,3.636,1.5" transform="translate(-271.007 -114.865)" fill="#2971b9"/>
    <path id="Trazado_5639" data-name="Trazado 5639" d="M423.6,163.221a2.781,2.781,0,1,1-3.636-1.5,2.78,2.78,0,0,1,3.636,1.5" transform="translate(-283.734 -109.565)" fill="#2971b9"/>
    <path id="Trazado_5640" data-name="Trazado 5640" d="M442.356,155.409a2.781,2.781,0,1,1-3.636-1.5,2.78,2.78,0,0,1,3.636,1.5" transform="translate(-296.461 -104.266)" fill="#2971b9"/>
    <path id="Trazado_5641" data-name="Trazado 5641" d="M461.116,147.6a2.781,2.781,0,1,1-3.636-1.5,2.78,2.78,0,0,1,3.636,1.5" transform="translate(-309.187 -98.965)" fill="#2971b9"/>
    <path id="Trazado_5642" data-name="Trazado 5642" d="M194.47,130.985a2.781,2.781,0,1,1-1.5,3.636,2.78,2.78,0,0,1,1.5-3.636" transform="translate(-130.764 -88.713)" fill="#2971b9"/>
    <path id="Trazado_5643" data-name="Trazado 5643" d="M186.658,112.225a2.781,2.781,0,1,1-1.5,3.636,2.78,2.78,0,0,1,1.5-3.636" transform="translate(-125.464 -75.986)" fill="#2971b9"/>
    <path id="Trazado_5644" data-name="Trazado 5644" d="M178.845,93.465a2.781,2.781,0,1,1-1.5,3.636,2.78,2.78,0,0,1,1.5-3.636" transform="translate(-120.164 -63.26)" fill="#2971b9"/>
    <path id="Trazado_5645" data-name="Trazado 5645" d="M171.033,74.7a2.781,2.781,0,1,1-1.5,3.636,2.78,2.78,0,0,1,1.5-3.636" transform="translate(-114.865 -50.533)" fill="#2971b9"/>
    <path id="Trazado_5646" data-name="Trazado 5646" d="M163.221,55.944a2.781,2.781,0,1,1-1.5,3.636,2.78,2.78,0,0,1,1.5-3.636" transform="translate(-109.565 -37.806)" fill="#2971b9"/>
    <path id="Trazado_5647" data-name="Trazado 5647" d="M155.409,37.183a2.781,2.781,0,1,1-1.5,3.636,2.78,2.78,0,0,1,1.5-3.636" transform="translate(-104.266 -25.079)" fill="#2971b9"/>
    <path id="Trazado_5648" data-name="Trazado 5648" d="M147.6,18.423a2.781,2.781,0,1,1-1.5,3.636,2.78,2.78,0,0,1,1.5-3.636" transform="translate(-98.966 -12.352)" fill="#2971b9"/>
    <path id="Trazado_5649" data-name="Trazado 5649" d="M9.805,195.381a2.781,2.781,0,1,1-2.2-3.257,2.781,2.781,0,0,1,2.2,3.257" transform="translate(-2.913 -130.3)" fill="#2971b9"/>
    <path id="Trazado_5650" data-name="Trazado 5650" d="M29.758,199.233a2.781,2.781,0,1,1-2.2-3.257,2.781,2.781,0,0,1,2.2,3.257" transform="translate(-16.449 -132.913)" fill="#2971b9"/>
    <path id="Trazado_5651" data-name="Trazado 5651" d="M49.712,203.084a2.781,2.781,0,1,1-2.2-3.257,2.781,2.781,0,0,1,2.2,3.257" transform="translate(-29.985 -135.525)" fill="#2971b9"/>
    <path id="Trazado_5652" data-name="Trazado 5652" d="M69.666,206.936a2.781,2.781,0,1,1-2.2-3.257,2.781,2.781,0,0,1,2.2,3.257" transform="translate(-43.522 -138.138)" fill="#2971b9"/>
    <path id="Trazado_5653" data-name="Trazado 5653" d="M89.619,210.787a2.781,2.781,0,1,1-2.2-3.257,2.781,2.781,0,0,1,2.2,3.257" transform="translate(-57.058 -140.751)" fill="#2971b9"/>
    <path id="Trazado_5654" data-name="Trazado 5654" d="M109.573,214.639a2.781,2.781,0,1,1-2.2-3.257,2.781,2.781,0,0,1,2.2,3.257" transform="translate(-70.594 -143.364)" fill="#2971b9"/>
    <path id="Trazado_5655" data-name="Trazado 5655" d="M129.527,218.49a2.781,2.781,0,1,1-2.2-3.257,2.781,2.781,0,0,1,2.2,3.257" transform="translate(-84.131 -145.977)" fill="#2971b9"/>
    <path id="Trazado_5656" data-name="Trazado 5656" d="M262.1,124.067a2.781,2.781,0,1,1-3.257,2.2,2.781,2.781,0,0,1,3.257-2.2" transform="translate(-175.564 -84.131)" fill="#2971b9"/>
    <path id="Trazado_5657" data-name="Trazado 5657" d="M265.956,104.113a2.781,2.781,0,1,1-3.257,2.2,2.781,2.781,0,0,1,3.257-2.2" transform="translate(-178.177 -70.594)" fill="#2971b9"/>
    <path id="Trazado_5658" data-name="Trazado 5658" d="M269.808,84.159a2.781,2.781,0,1,1-3.257,2.2,2.781,2.781,0,0,1,3.257-2.2" transform="translate(-180.79 -57.058)" fill="#2971b9"/>
    <path id="Trazado_5659" data-name="Trazado 5659" d="M273.659,64.206a2.781,2.781,0,1,1-3.257,2.2,2.781,2.781,0,0,1,3.257-2.2" transform="translate(-183.402 -43.522)" fill="#2971b9"/>
    <path id="Trazado_5660" data-name="Trazado 5660" d="M277.511,44.252a2.781,2.781,0,1,1-3.257,2.2,2.781,2.781,0,0,1,3.257-2.2" transform="translate(-186.016 -29.985)" fill="#2971b9"/>
    <path id="Trazado_5661" data-name="Trazado 5661" d="M281.363,24.3a2.781,2.781,0,1,1-3.257,2.2,2.781,2.781,0,0,1,3.257-2.2" transform="translate(-188.629 -16.449)" fill="#2971b9"/>
    <path id="Trazado_5662" data-name="Trazado 5662" d="M285.214,4.345a2.781,2.781,0,1,1-3.257,2.2,2.781,2.781,0,0,1,3.257-2.2" transform="translate(-191.241 -2.913)" fill="#2971b9"/>
    <path id="Trazado_5663" data-name="Trazado 5663" d="M108.549,45.773a2.781,2.781,0,1,1,.745-3.861,2.781,2.781,0,0,1-.745,3.861" transform="translate(-70.695 -27.602)" fill="#2971b9"/>
    <path id="Trazado_5664" data-name="Trazado 5664" d="M119.935,62.606a2.781,2.781,0,1,1,.745-3.861,2.781,2.781,0,0,1-.745,3.861" transform="translate(-78.419 -39.022)" fill="#2971b9"/>
    <path id="Trazado_5665" data-name="Trazado 5665" d="M131.321,79.439a2.781,2.781,0,1,1,.745-3.861,2.781,2.781,0,0,1-.745,3.861" transform="translate(-86.143 -50.441)" fill="#2971b9"/>
    <path id="Trazado_5666" data-name="Trazado 5666" d="M142.707,96.271a2.781,2.781,0,1,1,.745-3.861,2.781,2.781,0,0,1-.745,3.861" transform="translate(-93.867 -61.86)" fill="#2971b9"/>
    <path id="Trazado_5667" data-name="Trazado 5667" d="M154.093,113.1a2.781,2.781,0,1,1,.745-3.861,2.781,2.781,0,0,1-.745,3.861" transform="translate(-101.591 -73.279)" fill="#2971b9"/>
    <path id="Trazado_5668" data-name="Trazado 5668" d="M165.479,129.937a2.781,2.781,0,1,1,.745-3.861,2.781,2.781,0,0,1-.745,3.861" transform="translate(-109.315 -84.698)" fill="#2971b9"/>
    <path id="Trazado_5669" data-name="Trazado 5669" d="M176.864,146.77a2.781,2.781,0,1,1,.745-3.861,2.781,2.781,0,0,1-.745,3.861" transform="translate(-117.039 -96.118)" fill="#2971b9"/>
    <path id="Trazado_5670" data-name="Trazado 5670" d="M337.379,173.748a2.781,2.781,0,1,1-3.861-.745,2.781,2.781,0,0,1,3.861.745" transform="translate(-225.424 -117.039)" fill="#2971b9"/>
    <path id="Trazado_5671" data-name="Trazado 5671" d="M354.212,162.362a2.781,2.781,0,1,1-3.861-.745,2.781,2.781,0,0,1,3.861.745" transform="translate(-236.843 -109.315)" fill="#2971b9"/>
    <path id="Trazado_5672" data-name="Trazado 5672" d="M371.045,150.976a2.781,2.781,0,1,1-3.861-.745,2.781,2.781,0,0,1,3.861.745" transform="translate(-248.263 -101.591)" fill="#2971b9"/>
    <path id="Trazado_5673" data-name="Trazado 5673" d="M387.877,139.59a2.781,2.781,0,1,1-3.861-.745,2.781,2.781,0,0,1,3.861.745" transform="translate(-259.681 -93.867)" fill="#2971b9"/>
    <path id="Trazado_5674" data-name="Trazado 5674" d="M404.71,128.2a2.781,2.781,0,1,1-3.861-.745,2.781,2.781,0,0,1,3.861.745" transform="translate(-271.101 -86.143)" fill="#2971b9"/>
    <path id="Trazado_5675" data-name="Trazado 5675" d="M421.543,116.819a2.781,2.781,0,1,1-3.861-.745,2.781,2.781,0,0,1,3.861.745" transform="translate(-282.52 -78.419)" fill="#2971b9"/>
    <path id="Trazado_5676" data-name="Trazado 5676" d="M438.376,105.433a2.781,2.781,0,1,1-3.861-.745,2.781,2.781,0,0,1,3.861.745" transform="translate(-293.939 -70.695)" fill="#2971b9"/>
    <path id="Trazado_5677" data-name="Trazado 5677" d="M44.066,111.108a2.781,2.781,0,1,1-.8-3.851,2.781,2.781,0,0,1,.8,3.851" transform="translate(-26.431 -72.452)" fill="#2971b9"/>
    <path id="Trazado_5678" data-name="Trazado 5678" d="M61.047,122.272a2.781,2.781,0,1,1-.8-3.851,2.781,2.781,0,0,1,.8,3.851" transform="translate(-37.951 -80.025)" fill="#2971b9"/>
    <path id="Trazado_5679" data-name="Trazado 5679" d="M78.028,133.436a2.781,2.781,0,1,1-.8-3.851,2.781,2.781,0,0,1,.8,3.851" transform="translate(-49.47 -87.599)" fill="#2971b9"/>
    <path id="Trazado_5680" data-name="Trazado 5680" d="M95.009,144.6a2.781,2.781,0,1,1-.8-3.851,2.781,2.781,0,0,1,.8,3.851" transform="translate(-60.99 -95.172)" fill="#2971b9"/>
    <path id="Trazado_5681" data-name="Trazado 5681" d="M111.99,155.764a2.781,2.781,0,1,1-.8-3.851,2.781,2.781,0,0,1,.8,3.851" transform="translate(-72.51 -102.746)" fill="#2971b9"/>
    <path id="Trazado_5682" data-name="Trazado 5682" d="M128.971,166.927a2.781,2.781,0,1,1-.8-3.851,2.781,2.781,0,0,1,.8,3.851" transform="translate(-84.03 -110.318)" fill="#2971b9"/>
    <path id="Trazado_5683" data-name="Trazado 5683" d="M145.952,178.091a2.781,2.781,0,1,1-.8-3.851,2.781,2.781,0,0,1,.8,3.851" transform="translate(-95.549 -117.892)" fill="#2971b9"/>
    <path id="Trazado_5684" data-name="Trazado 5684" d="M304.506,141.3a2.781,2.781,0,1,1-3.851.8,2.781,2.781,0,0,1,3.851-.8" transform="translate(-203.65 -95.549)" fill="#2971b9"/>
    <path id="Trazado_5685" data-name="Trazado 5685" d="M315.67,124.323a2.781,2.781,0,1,1-3.851.8,2.781,2.781,0,0,1,3.851-.8" transform="translate(-211.224 -84.029)" fill="#2971b9"/>
    <path id="Trazado_5686" data-name="Trazado 5686" d="M326.834,107.342a2.781,2.781,0,1,1-3.851.8,2.781,2.781,0,0,1,3.851-.8" transform="translate(-218.797 -72.509)" fill="#2971b9"/>
    <path id="Trazado_5687" data-name="Trazado 5687" d="M338,90.362a2.781,2.781,0,1,1-3.851.8,2.781,2.781,0,0,1,3.851-.8" transform="translate(-226.37 -60.99)" fill="#2971b9"/>
    <path id="Trazado_5688" data-name="Trazado 5688" d="M349.161,73.381a2.781,2.781,0,1,1-3.851.8,2.781,2.781,0,0,1,3.851-.8" transform="translate(-233.944 -49.47)" fill="#2971b9"/>
    <path id="Trazado_5689" data-name="Trazado 5689" d="M360.325,56.4a2.781,2.781,0,1,1-3.851.8,2.781,2.781,0,0,1,3.851-.8" transform="translate(-241.517 -37.951)" fill="#2971b9"/>
    <path id="Trazado_5690" data-name="Trazado 5690" d="M371.489,39.419a2.781,2.781,0,1,1-3.851.8,2.781,2.781,0,0,1,3.851-.8" transform="translate(-249.091 -26.431)" fill="#2971b9"/>
    <path id="Trazado_5691" data-name="Trazado 5691" d="M355.169,215.909a2.781,2.781,0,1,1-3.286-2.16,2.781,2.781,0,0,1,3.286,2.16" transform="translate(-237.208 -144.965)" fill="#2971b9"/>
    <path id="Trazado_5692" data-name="Trazado 5692" d="M375.07,211.794a2.781,2.781,0,1,1-3.286-2.16,2.781,2.781,0,0,1,3.286,2.16" transform="translate(-250.709 -142.174)" fill="#2971b9"/>
    <path id="Trazado_5693" data-name="Trazado 5693" d="M394.971,207.679a2.781,2.781,0,1,1-3.287-2.16,2.781,2.781,0,0,1,3.287,2.16" transform="translate(-264.209 -139.382)" fill="#2971b9"/>
    <path id="Trazado_5694" data-name="Trazado 5694" d="M414.872,203.564a2.781,2.781,0,1,1-3.287-2.16,2.781,2.781,0,0,1,3.287,2.16" transform="translate(-277.71 -136.591)" fill="#2971b9"/>
    <path id="Trazado_5695" data-name="Trazado 5695" d="M434.773,199.449a2.781,2.781,0,1,1-3.287-2.16,2.781,2.781,0,0,1,3.287,2.16" transform="translate(-291.21 -133.799)" fill="#2971b9"/>
    <path id="Trazado_5696" data-name="Trazado 5696" d="M454.673,195.334a2.781,2.781,0,1,1-3.286-2.16,2.781,2.781,0,0,1,3.286,2.16" transform="translate(-304.711 -131.008)" fill="#2971b9"/>
    <path id="Trazado_5697" data-name="Trazado 5697" d="M474.574,191.219a2.781,2.781,0,1,1-3.286-2.16,2.781,2.781,0,0,1,3.286,2.16" transform="translate(-318.211 -128.216)" fill="#2971b9"/>
    <path id="Trazado_5698" data-name="Trazado 5698" d="M215.909,124.371a2.781,2.781,0,1,1-2.16,3.286,2.781,2.781,0,0,1,2.16-3.286" transform="translate(-144.965 -84.332)" fill="#2971b9"/>
    <path id="Trazado_5699" data-name="Trazado 5699" d="M211.794,104.47a2.781,2.781,0,1,1-2.16,3.286,2.781,2.781,0,0,1,2.16-3.286" transform="translate(-142.174 -70.832)" fill="#2971b9"/>
    <path id="Trazado_5700" data-name="Trazado 5700" d="M207.679,84.569a2.781,2.781,0,1,1-2.16,3.286,2.781,2.781,0,0,1,2.16-3.286" transform="translate(-139.382 -57.331)" fill="#2971b9"/>
    <path id="Trazado_5701" data-name="Trazado 5701" d="M203.564,64.668a2.781,2.781,0,1,1-2.16,3.286,2.781,2.781,0,0,1,2.16-3.286" transform="translate(-136.591 -43.831)" fill="#2971b9"/>
    <path id="Trazado_5702" data-name="Trazado 5702" d="M199.449,44.767a2.781,2.781,0,1,1-2.16,3.286,2.781,2.781,0,0,1,2.16-3.286" transform="translate(-133.799 -30.33)" fill="#2971b9"/>
    <path id="Trazado_5703" data-name="Trazado 5703" d="M195.334,24.866a2.781,2.781,0,1,1-2.16,3.286,2.781,2.781,0,0,1,2.16-3.286" transform="translate(-131.008 -16.83)" fill="#2971b9"/>
    <path id="Trazado_5704" data-name="Trazado 5704" d="M191.219,4.965a2.781,2.781,0,1,1-2.16,3.286,2.781,2.781,0,0,1,2.16-3.286" transform="translate(-128.216 -3.329)" fill="#2971b9"/>
  </g>
</svg>
