<svg id="Grupo_7961" data-name="Grupo 7961" xmlns="http://www.w3.org/2000/svg" xmlns:xlink="http://www.w3.org/1999/xlink" width="17.896" height="24.25" viewBox="0 0 17.896 24.25">
  <defs>
    <clipPath id="clip-path">
      <rect id="Rectángulo_4634" data-name="Rectángulo 4634" width="17.896" height="24.25" fill="none"/>
    </clipPath>
  </defs>
  <g id="Grupo_7960" data-name="Grupo 7960" clip-path="url(#clip-path)">
    <path id="Trazado_5169" data-name="Trazado 5169" d="M8.938,0a8.525,8.525,0,0,1,4.5,1.25A9.169,9.169,0,0,1,16.7,4.605a9.022,9.022,0,0,1,1.2,4.541,12.433,12.433,0,0,1-1.458,5.375q-1.438,2.271-3.293,4.7t-2.978,3.74L9.042,24.25c-.125-.11-.3-.281-.532-.51s-.67-.7-1.322-1.406S5.9,20.91,5.292,20.188,4,18.577,3.24,17.521a35.023,35.023,0,0,1-1.99-3.083A12.58,12.58,0,0,1,0,9.25,9.091,9.091,0,0,1,.708,5.719,9.644,9.644,0,0,1,2.615,2.761,9.03,9.03,0,0,1,5.469.75,8.318,8.318,0,0,1,8.938,0m3.354,5.417A4.45,4.45,0,0,0,9.031,4.063a4.446,4.446,0,0,0-3.26,1.354A4.456,4.456,0,0,0,4.417,8.688a4.419,4.419,0,0,0,1.354,3.26,4.461,4.461,0,0,0,3.26,1.344,4.464,4.464,0,0,0,3.261-1.344,4.422,4.422,0,0,0,1.353-3.26,4.459,4.459,0,0,0-1.353-3.271" fill="#939393"/>
  </g>
</svg>
