<svg id="Componente_53_2" data-name="Componente 53 – 2" xmlns="http://www.w3.org/2000/svg" width="118.57" height="146.953" viewBox="0 0 118.57 146.953">
  <path id="Trazado_1486" data-name="Trazado 1486" d="M76.8,160.958v-.2c.2-.442.369-.9.611-1.323q3.959-6.861,7.94-13.71c.836-1.439,1.617-1.705,3.176-1.086q4.638,1.842,9.266,3.709a1.291,1.291,0,0,0,1.332-.113c1.941-1.194,3.941-2.292,5.89-3.474a1.5,1.5,0,0,0,.642-.924c.532-3.38,1-6.769,1.515-10.152a1.978,1.978,0,0,1,2.247-1.94q8.187-.021,16.375,0a1.978,1.978,0,0,1,2.241,1.948c.512,3.383.979,6.773,1.519,10.151a1.627,1.627,0,0,0,.731.967c1.922,1.161,3.9,2.239,5.812,3.411a1.294,1.294,0,0,0,1.329.136q4.62-1.884,9.26-3.722c1.527-.608,2.353-.32,3.182,1.107q3.956,6.806,7.9,13.622c.869,1.5.689,2.413-.664,3.471-2.572,2.01-5.138,4.029-7.729,6.015a1.383,1.383,0,0,0-.609,1.3c.052,2.21.049,4.423,0,6.633a1.384,1.384,0,0,0,.583,1.31c2.618,2,5.208,4.045,7.8,6.078a2.2,2.2,0,0,1,.668,3.313q-3.983,6.9-7.989,13.794c-.8,1.384-1.618,1.66-3.107,1.068-3.061-1.217-6.124-2.43-9.169-3.685a1.522,1.522,0,0,0-1.591.15c-1.88,1.168-3.831,2.221-5.729,3.362a1.512,1.512,0,0,0-.679.9c-.539,3.411-1.014,6.833-1.531,10.248a1.96,1.96,0,0,1-2.189,1.895q-8.237.024-16.473,0a1.957,1.957,0,0,1-2.185-1.9c-.513-3.383-1.015-6.767-1.476-10.157a1.276,1.276,0,0,0-.8-1.067c-1.914-1.047-3.812-2.128-5.669-3.271a1.42,1.42,0,0,0-1.493-.192c-3.074,1.272-6.169,2.493-9.262,3.718a2.15,2.15,0,0,1-3.112-1.092q-3.98-6.848-7.945-13.707c-.841-1.456-.655-2.361.657-3.387,2.6-2.03,5.209-4.046,7.776-6.113a1.747,1.747,0,0,0,.55-1.188c.052-2.243-.01-4.488.045-6.731a1.385,1.385,0,0,0-.623-1.292c-2.511-1.93-5.027-3.855-7.475-5.863a10.928,10.928,0,0,1-1.548-2.022M132.262,173.5a14.659,14.659,0,1,0-14.7,14.621,14.713,14.713,0,0,0,14.7-14.621" transform="translate(-39.727 -68.281)" fill="#2971b9"/>
  <path id="Trazado_1487" data-name="Trazado 1487" d="M155.4,210.379a4.485,4.485,0,0,0,2.583-1.189,5.14,5.14,0,0,0,1.271-1.626,5.744,5.744,0,0,0,.518-1.557c-.034-.059-.065-.12-.1-.179-.166-.279-.347-.546-.527-.815-.477-.5-.956-.975-1.456-1.452l-.044-.029q-.293-.2-.6-.383c-.366-.223-.746-.413-1.123-.613a18.26,18.26,0,0,0-1.909-.538l-.083-.017c-.229-.012-.458-.028-.688-.034q-.55-.013-1.1.015l.3-.089c-.121.036-.245.065-.37.092a2.652,2.652,0,0,0-.631.126c-.259.048-.517.1-.768.169-.28.08-.553.176-.827.268-.539.291-1.076.575-1.59.91.035-.041.068-.081.106-.128a1.391,1.391,0,0,1-.189.181l-.051.032a1.928,1.928,0,0,0-.385.336c-.225.217-.436.464-.648.707.045-.125-.183-.01-.4.335-.059.092-.121.184-.182.275-.042.038-.084.076-.128.111l.12-.1c-.1.148-.2.3-.293.448-.213.347-.4.707-.587,1.065-.166.527-.366,1.042-.5,1.585-.046.2-.071.422-.107.641-.014.544-.015,1.084-.01,1.629q3.905,0,7.81-.006c.86,0,1.72-.111,2.58-.171" transform="translate(-75.008 -104.632)" fill="#2971b9"/>
  <path id="Trazado_1488" data-name="Trazado 1488" d="M62.783,206.871,61.653,206q-1.253-.968-2.5-1.948a29.083,29.083,0,0,1-2.768-2.268,23.97,23.97,0,0,1-2.3-3.1,5.327,5.327,0,0,1-.426-.719c-1.215,0-2.429,0-3.644.006a7.636,7.636,0,0,0-2.505.4,4.834,4.834,0,0,0-2.206,1.64,5.045,5.045,0,0,0-1.038,4.251,5.139,5.139,0,0,0,1.588,2.784,4.836,4.836,0,0,0,2.569,1.29,18.946,18.946,0,0,0,2.781.184q5.756.009,11.512.008c.024-.565.063-1.13.068-1.661" transform="translate(-22.84 -102.606)" fill="#2971b9"/>
  <path id="Trazado_1489" data-name="Trazado 1489" d="M148.04,227.962l.008.013c.165.151.322.314.475.482a3.558,3.558,0,0,0-.483-.494" transform="translate(-76.577 -118.154)" fill="#2971b9"/>
  <path id="Trazado_1490" data-name="Trazado 1490" d="M161.982,234.706c.131,0,.262,0,.391,0s.267-.021.4-.034l.083-.019c-.713.005-.92.036-.877.055" transform="translate(-83.786 -121.621)" fill="#2971b9"/>
  <path id="Trazado_1491" data-name="Trazado 1491" d="M170.578,231.364c.145-.1.29-.2.436-.3l.057-.049c-.729.425-.714.47-.493.347" transform="translate(-88.166 -119.737)" fill="#2971b9"/>
  <path id="Trazado_1492" data-name="Trazado 1492" d="M158.649,234.582l.02,0c.274,0,.552.014.831.035a2.317,2.317,0,0,0-.851-.039" transform="translate(-82.065 -121.579)" fill="#2971b9"/>
  <path id="Trazado_1493" data-name="Trazado 1493" d="M176.281,224.285c.029-.076.058-.152.089-.228.146-.433.111-.688-.159.37l.017-.031c.019-.037.037-.074.054-.112" transform="translate(-91.149 -115.935)" fill="#2971b9"/>
  <path id="Trazado_1494" data-name="Trazado 1494" d="M151.094,205.124l-.084.053c-.115.1-.244.189-.342.278-.032.029-.063.06-.094.091-.211.248-.087.306.519-.421" transform="translate(-77.838 -106.317)" fill="#2971b9"/>
  <path id="Trazado_1495" data-name="Trazado 1495" d="M151.3,231.246c-.9-.878-.457-.316,0,0" transform="translate(-77.995 -119.612)" fill="#2971b9"/>
  <path id="Trazado_1496" data-name="Trazado 1496" d="M158.956,202.058h-.026l-.042,0c-.209.046-.419.087-.631.126-.2.069-.106.1.7-.131" transform="translate(-81.817 -104.727)" fill="#2971b9"/>
  <path id="Trazado_1497" data-name="Trazado 1497" d="M148.7,207.466a6.776,6.776,0,0,1-.586.61l-.008.012a2.225,2.225,0,0,0,.594-.622" transform="translate(-76.61 -107.53)" fill="#2971b9"/>
  <path id="Trazado_1498" data-name="Trazado 1498" d="M58.642,160.68q1.39-2.4,2.781-4.8c.379-.654.753-1.313,1.151-1.951H54.8c-1.638,0-3.277-.028-4.915.018a6.256,6.256,0,0,0-3.3.878,5.285,5.285,0,0,0-2.406,3.744,4.837,4.837,0,0,0,.57,3.048,5.115,5.115,0,0,0,1.7,1.913,5.759,5.759,0,0,0,3.342.951h6.653q1.1-1.9,2.2-3.8" transform="translate(-22.821 -79.779)" fill="#2971b9"/>
  <path id="Trazado_1499" data-name="Trazado 1499" d="M148.04,227.962l.008.013c.165.151.322.314.475.482a3.558,3.558,0,0,0-.483-.494" transform="translate(-76.577 -118.154)" fill="#2971b9"/>
  <path id="Trazado_1500" data-name="Trazado 1500" d="M161.982,234.706c.131,0,.262,0,.391,0s.267-.021.4-.034l.083-.019c-.713.005-.92.036-.877.055" transform="translate(-83.786 -121.621)" fill="#2971b9"/>
  <path id="Trazado_1501" data-name="Trazado 1501" d="M170.578,231.364c.145-.1.29-.2.436-.3l.057-.049c-.729.425-.714.47-.493.347" transform="translate(-88.166 -119.737)" fill="#2971b9"/>
  <path id="Trazado_1502" data-name="Trazado 1502" d="M158.649,234.582l.02,0c.274,0,.552.014.831.035a2.317,2.317,0,0,0-.851-.039" transform="translate(-82.065 -121.579)" fill="#2971b9"/>
  <path id="Trazado_1503" data-name="Trazado 1503" d="M176.281,224.285c.029-.076.058-.152.089-.228.146-.433.111-.688-.159.37l.017-.031c.019-.037.037-.074.054-.112" transform="translate(-91.149 -115.935)" fill="#2971b9"/>
  <path id="Trazado_1504" data-name="Trazado 1504" d="M151.094,205.124l-.084.053c-.115.1-.244.189-.342.278-.032.029-.063.06-.094.091-.211.248-.087.306.519-.421" transform="translate(-77.838 -106.317)" fill="#2971b9"/>
  <path id="Trazado_1505" data-name="Trazado 1505" d="M151.3,231.246c-.9-.878-.457-.316,0,0" transform="translate(-77.995 -119.612)" fill="#2971b9"/>
  <path id="Trazado_1506" data-name="Trazado 1506" d="M158.956,202.058h-.026l-.042,0c-.209.046-.419.087-.631.126-.2.069-.106.1.7-.131" transform="translate(-81.817 -104.727)" fill="#2971b9"/>
  <path id="Trazado_1507" data-name="Trazado 1507" d="M148.7,207.466a6.776,6.776,0,0,1-.586.61l-.008.012a2.225,2.225,0,0,0,.594-.622" transform="translate(-76.61 -107.53)" fill="#2971b9"/>
  <path id="Trazado_1508" data-name="Trazado 1508" d="M75.866,120.538h8A8.019,8.019,0,0,1,87.87,114.9c3.3-1.708,7.365-1.17,10.976-1.172,2.833,0,5.687-.09,8.524-.033a5.137,5.137,0,0,0-1.437-2.246,4.762,4.762,0,0,0-2.305-1.239,14.85,14.85,0,0,0-2.808-.217q-15.3-.021-30.6-.008c-6.79,0-13.579-.007-20.368.022a5.894,5.894,0,0,0-3.238.842,5.335,5.335,0,0,0-2.439,3.724,4.74,4.74,0,0,0,.569,3.08,5.175,5.175,0,0,0,1.978,2.09,6.318,6.318,0,0,0,3.356.793q12.894,0,25.788,0Z" transform="translate(-22.816 -57.002)" fill="#2971b9"/>
  <path id="Trazado_1509" data-name="Trazado 1509" d="M148.04,227.962l.008.013c.165.151.322.314.475.482a3.558,3.558,0,0,0-.483-.494" transform="translate(-76.577 -118.154)" fill="#2971b9"/>
  <path id="Trazado_1510" data-name="Trazado 1510" d="M161.982,234.706c.131,0,.262,0,.391,0s.267-.021.4-.034l.083-.019c-.713.005-.92.036-.877.055" transform="translate(-83.786 -121.621)" fill="#2971b9"/>
  <path id="Trazado_1511" data-name="Trazado 1511" d="M170.578,231.364c.145-.1.29-.2.436-.3l.057-.049c-.729.425-.714.47-.493.347" transform="translate(-88.166 -119.737)" fill="#2971b9"/>
  <path id="Trazado_1512" data-name="Trazado 1512" d="M158.649,234.582l.02,0c.274,0,.552.014.831.035a2.317,2.317,0,0,0-.851-.039" transform="translate(-82.065 -121.579)" fill="#2971b9"/>
  <path id="Trazado_1513" data-name="Trazado 1513" d="M176.281,224.285c.029-.076.058-.152.089-.228.146-.433.111-.688-.159.37l.017-.031c.019-.037.037-.074.054-.112" transform="translate(-91.149 -115.935)" fill="#2971b9"/>
  <path id="Trazado_1514" data-name="Trazado 1514" d="M151.094,205.124l-.084.053c-.115.1-.244.189-.342.278-.032.029-.063.06-.094.091-.211.248-.087.306.519-.421" transform="translate(-77.838 -106.317)" fill="#2971b9"/>
  <path id="Trazado_1515" data-name="Trazado 1515" d="M151.3,231.246c-.9-.878-.457-.316,0,0" transform="translate(-77.995 -119.612)" fill="#2971b9"/>
  <path id="Trazado_1516" data-name="Trazado 1516" d="M158.956,202.058h-.026l-.042,0c-.209.046-.419.087-.631.126-.2.069-.106.1.7-.131" transform="translate(-81.817 -104.727)" fill="#2971b9"/>
  <path id="Trazado_1517" data-name="Trazado 1517" d="M148.7,207.466a6.776,6.776,0,0,1-.586.61l-.008.012a2.225,2.225,0,0,0,.594-.622" transform="translate(-76.61 -107.53)" fill="#2971b9"/>
  <path id="Trazado_1518" data-name="Trazado 1518" d="M119.979,285.563l-.323.131h.549l-.226-.131" transform="translate(-61.895 -148.008)" fill="#2971b9"/>
  <path id="Trazado_1519" data-name="Trazado 1519" d="M38.747,134.555c-1.442-2.482-2.9-4.957-4.34-7.441H32.561c-3.614,0-7.227.016-10.841.012a11,11,0,0,1-6.284-1.748,10.418,10.418,0,0,1-4.633-6.958,12.963,12.963,0,0,1-.171-2.375q-.014-23.6-.007-47.194h0q0-23.7,0-47.4A10.535,10.535,0,0,1,15.943,12a11.64,11.64,0,0,1,6-1.435q8.064,0,16.127,0,10.588-.005,21.176-.015a3.633,3.633,0,0,1,3.043,1.629,6.949,6.949,0,0,1,1.144,3.157,41.287,41.287,0,0,1,.23,6.072c.03,4.908.007,9.815.011,14.723a7.013,7.013,0,0,0,.452,2.932,5.148,5.148,0,0,0,4.44,3.227c.49.048.985.064,1.478.065,4.881,0,9.763-.007,14.645.007,1.413,0,2.829.039,4.238.132a10.24,10.24,0,0,1,4.014.873A3.875,3.875,0,0,1,95.2,45.724a9.555,9.555,0,0,1,.307,2.421q.009,10.078,0,20.157.1.709.209,1.418c.1.689.163,1.439.257,2.181l.675.391c.332.192.69.377,1.053.566l1.123-.454q1.7-.688,3.412-1.37a30.464,30.464,0,0,1,3.878-1.385q0-13.243,0-26.486a12.468,12.468,0,0,0-1.5-5.957,33.2,33.2,0,0,0-4.174-5.795c-2.131-2.506-4.5-4.783-6.823-7.105Q85.883,16.572,78.135,8.86a51.611,51.611,0,0,0-7.7-6.445A14.4,14.4,0,0,0,65.9.344,6.188,6.188,0,0,0,64.769.251c-.232-.012-.464,0-.7,0,0-.027,0-.054-.006-.082L65.183,0H18.653L20.2.179A19.839,19.839,0,0,0,6.018,6.566a19.709,19.709,0,0,0-5.854,14.3c-.029-.517-.054-1.034-.089-1.551-.013-.186-.049-.371-.075-.557V119c.048-.6.1-1.2.144-1.8.01-.126.013-.253.018-.38l.1,0c0,.307.011.615,0,.922a14.12,14.12,0,0,0,.646,4.632,21.226,21.226,0,0,0,6.38,10.007,20.838,20.838,0,0,0,9.1,4.694,17.07,17.07,0,0,0,4.153.551c1.615-.011,3.23.052,4.845.052l15.423,0a24.66,24.66,0,0,1-2.068-3.129" fill="#2971b9"/>
  <path id="Trazado_1520" data-name="Trazado 1520" d="M148.04,227.962l.008.013c.165.151.322.314.475.482a3.558,3.558,0,0,0-.483-.494" transform="translate(-76.577 -118.154)" fill="#2971b9"/>
  <path id="Trazado_1521" data-name="Trazado 1521" d="M161.982,234.706c.131,0,.262,0,.391,0s.267-.021.4-.034l.083-.019c-.713.005-.92.036-.877.055" transform="translate(-83.786 -121.621)" fill="#2971b9"/>
  <path id="Trazado_1522" data-name="Trazado 1522" d="M170.578,231.364c.145-.1.29-.2.436-.3l.057-.049c-.729.425-.714.47-.493.347" transform="translate(-88.166 -119.737)" fill="#2971b9"/>
  <path id="Trazado_1523" data-name="Trazado 1523" d="M158.649,234.582l.02,0c.274,0,.552.014.831.035a2.317,2.317,0,0,0-.851-.039" transform="translate(-82.065 -121.579)" fill="#2971b9"/>
  <path id="Trazado_1524" data-name="Trazado 1524" d="M176.281,224.285c.029-.076.058-.152.089-.228.146-.433.111-.688-.159.37l.017-.031c.019-.037.037-.074.054-.112" transform="translate(-91.149 -115.935)" fill="#2971b9"/>
  <path id="Trazado_1525" data-name="Trazado 1525" d="M151.094,205.124l-.084.053c-.115.1-.244.189-.342.278-.032.029-.063.06-.094.091-.211.248-.087.306.519-.421" transform="translate(-77.838 -106.317)" fill="#2971b9"/>
  <path id="Trazado_1526" data-name="Trazado 1526" d="M151.3,231.246c-.9-.878-.457-.316,0,0" transform="translate(-77.995 -119.612)" fill="#2971b9"/>
  <path id="Trazado_1527" data-name="Trazado 1527" d="M158.956,202.058h-.026l-.042,0c-.209.046-.419.087-.631.126-.2.069-.106.1.7-.131" transform="translate(-81.817 -104.727)" fill="#2971b9"/>
  <path id="Trazado_1528" data-name="Trazado 1528" d="M148.7,207.466a6.776,6.776,0,0,1-.586.61l-.008.012a2.225,2.225,0,0,0,.594-.622" transform="translate(-76.61 -107.53)" fill="#2971b9"/>
</svg>
