<svg xmlns="http://www.w3.org/2000/svg" width="170.133" height="119.231" viewBox="0 0 170.133 119.231">
  <g id="Grupo_1429" data-name="Grupo 1429" transform="translate(-1630 -479.224)">
    <g id="Sustracción_6" data-name="Sustracción 6" transform="translate(1630 479.224)" fill="none" stroke-linejoin="round">
      <path d="M97.938,91.859H14a14,14,0,0,1-14-14V14A14,14,0,0,1,14,0H127.463a14,14,0,0,1,14,14V32.919a37.079,37.079,0,0,0-8.058-2.977,37.488,37.488,0,0,0-8.815-1.047A37.049,37.049,0,0,0,97.936,91.858Z" stroke="none"/>
      <path d="M 83.08116912841797 83.85941314697266 C 82.99564361572266 83.66192626953125 82.91141510009766 83.46358489990234 82.82859039306641 83.26462554931641 C 80.54511260986328 77.77946472167969 79.38729858398438 71.96525573730469 79.38729858398438 65.9835205078125 C 79.38729858398438 59.89693832397461 80.58480072021484 53.98838806152344 82.94651031494141 48.42201995849609 C 85.2252197265625 43.05122756958008 88.48532104492188 38.22983551025391 92.63626861572266 34.09183502197266 C 96.78543090820312 29.9555721282959 101.6187210083008 26.70741271972656 107.0018768310547 24.43759727478027 C 112.57763671875 22.08657073974609 118.4956665039062 20.89449310302734 124.5915069580078 20.89449310302734 C 127.5774917602539 20.89449310302734 130.5538940429688 21.18673324584961 133.4637908935547 21.7644100189209 L 133.4637908935547 14.00038719177246 C 133.4637908935547 12.37428188323975 132.8560638427734 10.90707111358643 131.7063293457031 9.757360458374023 C 130.5565948486328 8.60767650604248 129.0894317626953 7.999992370605469 127.4634017944336 7.999992370605469 L 14.00040340423584 7.999992370605469 C 12.37411403656006 7.999992370605469 10.90685081481934 8.607649803161621 9.757245063781738 9.757228851318359 C 8.607666015625 10.90683460235596 8.000008583068848 12.37409782409668 8.000008583068848 14.00038719177246 L 8.000008583068848 77.85899353027344 C 8.000008583068848 79.48501586914062 8.607692718505859 80.95220184326172 9.757349967956543 82.10191345214844 C 10.9070873260498 83.25167846679688 12.37429809570312 83.85941314697266 14.00040340423584 83.85941314697266 L 83.08116912841797 83.85941314697266 M 97.9381103515625 91.85941314697266 L 14.00040340423584 91.85941314697266 C 10.26058769226074 91.85941314697266 6.7447190284729 90.40306854248047 4.100403308868408 87.75867462158203 C 1.456218838691711 85.11438751220703 8.339329724549316e-06 81.59859466552734 8.339329724549316e-06 77.85899353027344 L 8.339329724549316e-06 14.00038719177246 C 8.339329724549316e-06 10.26046562194824 1.456218838691711 6.744571208953857 4.100403308868408 4.100387096405029 C 6.744587421417236 1.456202745437622 10.26048183441162 -7.767526767565869e-06 14.00040340423584 -7.767526767565869e-06 L 127.4634017944336 -7.767526767565869e-06 C 131.2030029296875 -7.767526767565869e-06 134.7187652587891 1.456202745437622 137.3630676269531 4.100387096405029 C 140.0074615478516 6.744702816009521 141.4637908935547 10.26057147979736 141.4637908935547 14.00038719177246 L 141.4637908935547 32.91867828369141 C 138.9062194824219 31.61920356750488 136.1957397460938 30.61728096008301 133.4062652587891 29.94167709350586 C 130.5373229980469 29.24683380126953 127.5716171264648 28.89449310302734 124.5915069580078 28.89449310302734 C 119.5690383911133 28.89449310302734 114.6967468261719 29.87512397766113 110.1100616455078 31.80909729003906 C 105.6798248291016 33.6771240234375 101.701057434082 36.35136032104492 98.28429412841797 39.75749206542969 C 94.86748504638672 43.16367721557617 92.18490600585938 47.13012313842773 90.31105804443359 51.54664993286133 C 88.37100982666016 56.11920166015625 87.38729858398438 60.9764404296875 87.38729858398438 65.9835205078125 C 87.38729858398438 70.90444183349609 88.33840179443359 75.6842041015625 90.21416473388672 80.18999481201172 C 92.02561187744141 84.54133605957031 94.62374877929688 88.46691131591797 97.93643188476562 91.85772705078125 L 97.9381103515625 91.85941314697266 Z" stroke="none" fill="#2971b9"/>
    </g>
    <g id="Elipse_133" data-name="Elipse 133" transform="translate(1720.94 511.375)" fill="none" stroke="#2971b9" stroke-width="8">
      <ellipse cx="33.069" cy="33.529" rx="33.069" ry="33.529" stroke="none"/>
      <ellipse cx="33.069" cy="33.529" rx="29.069" ry="29.529" fill="none"/>
    </g>
    <rect id="Rectángulo_971" data-name="Rectángulo 971" width="8.627" height="39.255" rx="4.314" transform="translate(1767.868 568.83) rotate(-41)" fill="#2971b9"/>
    <rect id="Rectángulo_973" data-name="Rectángulo 973" width="8.627" height="69.882" rx="4.314" transform="translate(1665.588 592.891) rotate(-90)" fill="#2971b9"/>
    <rect id="Rectángulo_972" data-name="Rectángulo 972" width="8.627" height="22.431" rx="4.314" transform="translate(1696.216 567.224)" fill="#2971b9"/>
    <path id="Trazado_1724" data-name="Trazado 1724" d="M-15728.057,370.183h16.2l11.839-15.46,5.35,29.364,15.883-41.642,9.078,36.1c0,.345,9.264-18.045,9.264-18.045" transform="translate(17365.287 160.816)" fill="none" stroke="#2971b9" stroke-linecap="round" stroke-linejoin="round" stroke-width="6"/>
    <path id="Trazado_1723" data-name="Trazado 1723" d="M-15511.924,388.534s4.681-6.682,14.667-5.96,13.811,7.445,13.811,7.445" transform="translate(17252.818 142.223)" fill="none" stroke="#2971b9" stroke-linecap="round" stroke-width="6"/>
  </g>
</svg>
