<svg xmlns="http://www.w3.org/2000/svg" width="81.872" height="49.239" viewBox="0 0 81.872 49.239">
  <g id="Grupo_5463" data-name="Grupo 5463" transform="translate(-13 -14)">
    <path id="Trazado_4" data-name="Trazado 4" d="M49.631,19.3c-.229.553-.5,1.058-.69,1.427a.249.249,0,0,1-.368.092.254.254,0,0,1-.137-.231l-.092-.6,3.449,21.293L37.029,43.448l.231,1.333L53.4,42.435Z" transform="translate(16.12 3.557)" fill="gray"/>
    <path id="Trazado_5" data-name="Trazado 5" d="M15.713,49.167C13.921,47.328,13,44.751,13,41.394s.921-5.933,2.713-7.773q2.759-2.759,8-2.759t8,2.759c1.793,1.84,2.713,4.416,2.713,7.773s-.921,5.933-2.713,7.773q-2.759,2.759-8,2.759T15.713,49.167Zm10.807-3.634a8.211,8.211,0,0,0,.874-4.184,7.88,7.88,0,0,0-.874-4.185,3.037,3.037,0,0,0-2.805-1.38,3.089,3.089,0,0,0-2.805,1.38,8.231,8.231,0,0,0-.874,4.185,7.783,7.783,0,0,0,.874,4.184,3.089,3.089,0,0,0,2.805,1.38,3.085,3.085,0,0,0,2.805-1.38Z" transform="translate(0 11.313)" fill="#003770"/>
    <path id="Trazado_6" data-name="Trazado 6" d="M53.493,51.458a1.729,1.729,0,0,1-.413-1.333V32.647a1.787,1.787,0,0,1,.413-1.333A1.817,1.817,0,0,1,54.92,30.9H66.279a1.736,1.736,0,0,1,1.335.414,1.974,1.974,0,0,1,.368,1.333v1.748a1.978,1.978,0,0,1-.368,1.335,1.791,1.791,0,0,1-1.335.413H60.484v2.668h4.139a1.735,1.735,0,0,1,1.335.413,2.046,2.046,0,0,1,.368,1.335v1.656a1.973,1.973,0,0,1-.368,1.333,1.8,1.8,0,0,1-1.335.414H60.484v2.667h5.795a1.73,1.73,0,0,1,1.335.414,2.042,2.042,0,0,1,.368,1.333v1.748a1.974,1.974,0,0,1-.368,1.333,1.792,1.792,0,0,1-1.335.414H54.965A2.067,2.067,0,0,1,53.493,51.458Z" transform="translate(26.883 11.321)" fill="#003770"/>
    <path id="Trazado_7" data-name="Trazado 7" d="M42.153,35.842l-.8-4.921h-.211a1.834,1.834,0,0,0-1.38.414,1.729,1.729,0,0,0-.413,1.333v7.358l-5.519-8.279a1.851,1.851,0,0,0-.69-.643,2.612,2.612,0,0,0-1.013-.184h-2.9a2.059,2.059,0,0,0-1.472.414,1.624,1.624,0,0,0-.413,1.287V50.1a1.729,1.729,0,0,0,.413,1.333,1.763,1.763,0,0,0,1.38.414h3.634a2.06,2.06,0,0,0,1.47-.414,1.623,1.623,0,0,0,.414-1.288v-7.4l5.519,8.277a1.842,1.842,0,0,0,.69.645,2.643,2.643,0,0,0,1.013.184h2.9a2.06,2.06,0,0,0,1.47-.414,1.623,1.623,0,0,0,.414-1.288V35.187Z" transform="translate(9.617 11.346)" fill="#003770"/>
    <path id="Trazado_8" data-name="Trazado 8" d="M56.644,32.73c-1.425-1.241-3.679-1.84-6.807-1.84h-.8l.222,1.358A1.257,1.257,0,0,1,48.2,33.7l-7.7,1.119v15.3a1.729,1.729,0,0,0,.413,1.333,2.129,2.129,0,0,0,1.472.414h3.679a1.919,1.919,0,0,0,1.472-.414,1.789,1.789,0,0,0,.414-1.333V45.607h1.885c3.128,0,5.382-.6,6.807-1.84a7.065,7.065,0,0,0,2.115-5.519A6.919,6.919,0,0,0,56.644,32.73Zm-5.886,7.13a2.153,2.153,0,0,1-1.564.506l-2.162.045V36.18h2.162a2.2,2.2,0,0,1,1.564.506,2.082,2.082,0,0,1,.6,1.609A2.05,2.05,0,0,1,50.757,39.859Z" transform="translate(18.444 11.331)" fill="#003770"/>
    <path id="Trazado_9" data-name="Trazado 9" d="M40.181,37.208l.872-.137a2.072,2.072,0,0,0,1.7-2.025m.045,0,.414,2.346a2.124,2.124,0,0,0,2.438,1.7h0l.827-.139a2.078,2.078,0,0,0,1.656-2.438L48,35.691c0-.047.045-.047.045,0a2.135,2.135,0,0,0,2.3,1.287l.919-.184c.047,0,.092-.045.184-.045h0A2.057,2.057,0,0,0,53.1,34.311h0L50.529,20.237h-.047l-1.2.231v.045L51.77,33.852A1.51,1.51,0,0,1,50.758,35.6a1.452,1.452,0,0,1-1.793-.966c0-.047-.047-.092-.047-.139l-1.932-10.44-2.115.643,2.115,11.36a1.509,1.509,0,0,1-1.011,1.748,1.444,1.444,0,0,1-1.795-1.013c0-.045,0-.092-.045-.092l-2.07-11.175-2.023.459,1.472,8.049A1.469,1.469,0,0,1,40.5,35.783a1.452,1.452,0,0,1-1.793-.966c0-.047-.047-.092-.047-.139l-1.425-7.865-2.115.6.919,5.059a1.493,1.493,0,0,1-1.011,1.748,1.444,1.444,0,0,1-1.795-1.013.169.169,0,0,0-.045-.137S31.81,26.355,31.4,22.906c-.6-4.876-.184-8.324-.368-8.647,0-.045-.047-.045-.047-.092-.276-.231-1.011-.231-1.15.047A42.008,42.008,0,0,0,30.154,23c.459,3.449,2.023,10.991,2.023,10.991a2.057,2.057,0,0,0,2.438,1.656h0L34.8,35.6l.735-.139.185-.045a2.07,2.07,0,0,0,1.7-2.023c0-.047.047-.047.047,0l.368,2.023a2.337,2.337,0,0,0,1.1,1.517,2.218,2.218,0,0,0,1.335.184Z" transform="translate(11.222 0)" fill="#df0a14"/>
    <path id="Trazado_10" data-name="Trazado 10" d="M46.22,16.446a4.414,4.414,0,0,0-1.287-2.3c-.047-.047-.092-.047-.184-.047h-.921a.258.258,0,0,0-.276.231c0,.092.045.137.092.229a5.133,5.133,0,0,1,1.472,3.45c0,2.252-1.38,4.139-1.288,4.69.047.231.092.553.139.829h0l.092.6a.3.3,0,0,0,.276.277.251.251,0,0,0,.229-.139c.185-.368.461-.874.69-1.425C46.036,20.952,46.865,18.331,46.22,16.446Z" transform="translate(20.497 0.067)" fill="#df0a14"/>
  </g>
</svg>
