<svg id="Grupo_888" data-name="Grupo 888" xmlns="http://www.w3.org/2000/svg" xmlns:xlink="http://www.w3.org/1999/xlink" width="142.695" height="290.255" viewBox="0 0 142.695 290.255">
  <defs>
    <clipPath id="clip-path">
      <rect id="Rectángulo_782" data-name="Rectángulo 782" width="142.695" height="290.255" fill="none"/>
    </clipPath>
    <clipPath id="clip-path-2">
      <rect id="Rectángulo_783" data-name="Rectángulo 783" width="24.226" height="24.487" fill="none"/>
    </clipPath>
    <clipPath id="clip-path-3">
      <rect id="Rectángulo_784" data-name="Rectángulo 784" width="8.24" height="23.543" fill="none"/>
    </clipPath>
    <clipPath id="clip-path-5">
      <rect id="Rectángulo_786" data-name="Rectángulo 786" width="25.516" height="28.834" fill="none"/>
    </clipPath>
    <clipPath id="clip-path-7">
      <rect id="Rectángulo_788" data-name="Rectángulo 788" width="23.517" height="24.592" fill="none"/>
    </clipPath>
  </defs>
  <g id="Grupo_851" data-name="Grupo 851">
    <g id="Grupo_850" data-name="Grupo 850" clip-path="url(#clip-path)">
      <path id="Trazado_1618" data-name="Trazado 1618" d="M41.646,474.877l-8.358,2.765-18.046,9.723S2.452,487.779,0,496.285c0,0,34.425,2.652,47.35-4.3l-.8-18.967" transform="translate(0 -207.059)" fill="#1b1d22"/>
      <path id="Trazado_1619" data-name="Trazado 1619" d="M159.86,470.762s-3.026,17.294-3.023,19.053c0,0,23.918,4.759,30.256-1.229,0,0-5.566-15.089-9.435-22.09-4.7-8.587-17.8,4.265-17.8,4.265" transform="translate(-68.655 -202.912)" fill="#1b1d22"/>
      <path id="Trazado_1620" data-name="Trazado 1620" d="M156.837,501.414s24.934-24.515,39-1.584c0,0-20.36,7.185-39,1.584" transform="translate(-68.655 -214.51)" fill="#1b1d22"/>
      <path id="Trazado_1621" data-name="Trazado 1621" d="M172.6,502.408s7.9-19.144,22.974-10.938c7.048,3.547,7.168,8.093,7.168,8.093s-15.5,6.579-30.142,2.844" transform="translate(-75.555 -214.243)" fill="#1b3b6c"/>
      <path id="Trazado_1622" data-name="Trazado 1622" d="M6.515,82.134c-2.64-.616-3.334-4.961-4.224-6.9-.861-1.922,4.63-3.037,4.968-2.925-.48-1.439.755-5.3,2.271-2.212.04-2.713-3.123-8.272-3.2-8.794a1.3,1.3,0,0,1,.7-1.423,2.376,2.376,0,0,1,2.5.548c2.346,2.482,3.37,9.723,4.09,11.767.472-.712,1.7-4.659,2.686-5.418.383-.3,1.682-.431,2-.039l.145.53c.1,2.847-1.611,5.369-1.783,8.2-.07,1.272.2,2.525-.318,3.687a13.349,13.349,0,0,1-2.323,3.529c-1.342,1.43-4.9,4.843-4.9,6.817-.222-.1-.027-.066.066-.03.059.021.079.041-.066.03-1.208-.091.66,10.459-.521,10.559-.254.02,1.376-12.148,1.113-12.2-.491-.1-.94-5.2-3.2-5.723" transform="translate(-0.963 -26.142)" fill="#c17971"/>
      <path id="Trazado_1623" data-name="Trazado 1623" d="M29.259,72.192s-1.444-.218-2.015,2.871a2.179,2.179,0,0,0,1.647.886,5.823,5.823,0,0,0,.367-3.758" transform="translate(-11.926 -31.6)" fill="#f8dcd8"/>
      <path id="Trazado_1624" data-name="Trazado 1624" d="M118.129,194.714c8.793,19.669,6.064,25.111,6.779,38.1.787,14.128,4.585,35.414,4.36,48.113-.277,13.84,4.463,65.571,4.463,65.571s-11.2,7.575-22.4.306L97.7,285.75l-7.726-38.622c-.714-3.69-3.962-3.132-4.553.684L71.064,350.179s-18.108,3.567-22.464-.07c0,0-8.637-87.686,12.66-152.693,12.068-36.806,56.869-2.7,56.869-2.7" transform="translate(-20.516 -78.937)" fill="#2770b1"/>
      <path id="Trazado_1625" data-name="Trazado 1625" d="M94.956,105.542l-3.109.789-2.038,72.316,30.913-.95,6.307-71.251Z" transform="translate(-39.314 -46.2)" fill="#de1d2e"/>
      <path id="Trazado_1626" data-name="Trazado 1626" d="M84.57,43.974l-.018.041a3.22,3.22,0,0,0,.8,3.621c-1.461-.136-2.266,1.149-2.2,2.608s1.024,2.67,2.445,2.228a5.55,5.55,0,0,0,7.17,7.567,87.284,87.284,0,0,0-2.465-15.261c-.283-1.113-1.192-2.722-2.532-2.788a3.441,3.441,0,0,0-3.193,1.983" transform="translate(-36.394 -18.38)" fill="#152737"/>
      <path id="Trazado_1627" data-name="Trazado 1627" d="M88.469,52.592a3.262,3.262,0,0,1,1.577-2.434A4.99,4.99,0,0,1,92.6,49.82l.34.068.267.34a5.472,5.472,0,0,1,.193,3.717c-.345,1.276-1.351,4.329-3.132,3.658-1.625-.614-2.015-3.56-1.8-5.011" transform="translate(-38.704 -21.799)" fill="#c17971"/>
      <path id="Trazado_1628" data-name="Trazado 1628" d="M93.144,30.778s.394,10.006-1,15.2c-2.107,7.8-1.267,15.056,8.5,16.984l-.119,7.6L92.6,73.518s4.99,7.343,17.215,7.141c7.5-.12,16.354-7.032,16.354-7.032l-7.275-3.112c-1.523-.557-3.341-7.934-3.339-9.552l.1-.1a9.841,9.841,0,0,0,2.83-7.071l-.073-3.606,3.354,2.856s6.028-6.194-1.795-13.584c-7.63-7.422-10.579-8.723-10.579-8.723Z" transform="translate(-39.922 -13.452)" fill="#c17971"/>
      <path id="Trazado_1629" data-name="Trazado 1629" d="M107.779,95.665v0l.12-7.6-.118,7.6Z" transform="translate(-47.18 -38.55)" fill="#c17971"/>
      <path id="Trazado_1630" data-name="Trazado 1630" d="M107.783,95.013l.118-7.6a13.649,13.649,0,0,0,2.865.286,11.249,11.249,0,0,0,5.109-1.12Z" transform="translate(-47.181 -37.9)" fill="#903a32"/>
      <path id="Trazado_1631" data-name="Trazado 1631" d="M119.72,44.249l-.007,0a.525.525,0,0,1,.068-1,2.4,2.4,0,0,1,.861.034c.458.1,3.214,1,2.994,1.715-.281.906-1.5-.46-3.916-.743" transform="translate(-52.254 -18.918)" fill="#1b3b6c"/>
      <path id="Trazado_1632" data-name="Trazado 1632" d="M101.656,43.627h.009a.529.529,0,0,0,.12-1,2.355,2.355,0,0,0-.852-.111c-.469.018-3.34.444-3.257,1.19.066.589.651.369,1.668.147a8.471,8.471,0,0,1,2.311-.222" transform="translate(-42.757 -18.609)" fill="#1b3b6c"/>
      <path id="Trazado_1633" data-name="Trazado 1633" d="M17.688,94.292s4.229,38.353,9.672,34.59c9.331-6.47,18.11-30.167,40.475-29.045,0,0-7.831,15.268-10.267,88.79,0,0-21.561-8.576-21.049-13.835,1.06-11.039,4.277-21.252,7.843-40.563-3.146,3.3-18.033,13.915-22.484,17.009C7.17,161.334,10.441,94.811,6.946,94.707c-1.514-.046-1.2.8.018,1.641,2.436,1.688,8.483,3.375,10.724-2.056" transform="translate(-2.595 -41.276)" fill="#c17971"/>
      <path id="Trazado_1634" data-name="Trazado 1634" d="M120.744,50.271c-.061.625.233,1.165.66,1.205s.82-.435.884-1.058-.236-1.165-.662-1.208-.818.435-.882,1.06" transform="translate(-52.851 -21.541)" fill="#1b1d22"/>
      <path id="Trazado_1635" data-name="Trazado 1635" d="M99.962,48.556c-.073.625.211,1.167.639,1.21s.825-.435.9-1.063-.213-1.169-.637-1.21-.825.435-.9,1.063" transform="translate(-43.753 -20.789)" fill="#1b1d22"/>
      <path id="Trazado_1636" data-name="Trazado 1636" d="M202.215,188.018a2.948,2.948,0,0,0-.442-.87,52.681,52.681,0,0,0-4.435-5.061c-1.326-1.326-3.168-3.909-5.591-3.868l-.313-.055c.648-3.223-16.71-28.376-21.106-42.974-10.191-35.128-31.767-33.7-31.767-33.7-4.122,9.464-.72,32.377-.6,41.766s-1.831,40.891-1.831,40.891l27.581-1.747c3.325-.211-.444-4.122-1.131-6.937l-4.822-27.744c-.016-.118,13.049,24.786,26.657,33.786-.075.319-.168.634-.211.958-.125,1.006.451,1.927.741,2.926.634,2.237-.147,4.54.718,6.731l.272.385a1.972,1.972,0,0,0,1.725-.435c.641-.787.8-2.948,1.015-3.6,1.193,1.442,3.923,5.7,6.681,7.141a2.424,2.424,0,0,0,2.335-.084.918.918,0,0,0,.2-1.242c-.222-.383-4.569-4.045-5.3-6.151,3.939,5.006,5.942,5.915,7.046,5.251a.64.64,0,0,0,.265-.909,5.552,5.552,0,0,0-1-1.151c-.458-.46-.9-.929-1.346-1.405-.893-.956-1.754-1.949-2.581-2.964.322.018,2.9,3.139,4.252,4.288.725.625,2.565.75,2.37-.707a5.473,5.473,0,0,0-1.58-2.2q-1.139-1.135-2.316-2.28c.154-.066,1.464,1.435,2.853,2.205,1.448.984,1.722-.052,1.67-.245m-41.8-46.929-.059-.376.505.721-.446-.345" transform="translate(-59.589 -44.422)" fill="#c17971"/>
      <path id="Trazado_1637" data-name="Trazado 1637" d="M224.124,261s1.312-.12.95-2.636a2.24,2.24,0,0,0-1.668-.356,4.318,4.318,0,0,0,.719,2.992" transform="translate(-97.782 -112.917)" fill="#f8dcd8"/>
      <path id="Trazado_1638" data-name="Trazado 1638" d="M246.993,262.2a.5.5,0,0,0-.231.569,1.76,1.76,0,0,0,.535.691c.163.161.449.408.723.3a.914.914,0,0,0,.5-.559c.036-.241-.716-1.351-1.523-1" transform="translate(-108.011 -114.745)" fill="#f8dcd8"/>
      <path id="Trazado_1639" data-name="Trazado 1639" d="M249.606,258.348a.6.6,0,0,0-.274.646,1.884,1.884,0,0,0,.569.777c.172.182.482.463.79.336a1.067,1.067,0,0,0,.569-.63c.048-.274-.746-1.527-1.654-1.128" transform="translate(-109.137 -113.056)" fill="#f8dcd8"/>
      <path id="Trazado_1640" data-name="Trazado 1640" d="M251.576,253.917a.4.4,0,0,0-.295.394,1.266,1.266,0,0,0,.331.594c.109.145.309.369.558.327l.514-.349c.073-.177-.365-1.117-1.108-.965" transform="translate(-109.997 -111.144)" fill="#f8dcd8"/>
      <path id="Trazado_1641" data-name="Trazado 1641" d="M242.066,264.325a.656.656,0,0,0-.571.664,2.627,2.627,0,0,0,.582,1.174c.193.29.546.755,1.009.732a1.31,1.31,0,0,0,.968-.537c.145-.309-.6-2.142-1.988-2.033" transform="translate(-105.713 -115.705)" fill="#f8dcd8"/>
      <path id="Trazado_1642" data-name="Trazado 1642" d="M116.735,281.226c-.977-1.876-2.266-8.021-3.422-14.454l2.511.231c.462,7.656.911,14.223.911,14.223" transform="translate(-49.602 -116.778)" fill="#18478c"/>
      <path id="Trazado_1643" data-name="Trazado 1643" d="M142.432,58.079c.31-.24.85-.9.39-2.77l-.179-.383c-.594-.7-1.292-.174-1.3-.888v-.011l.07-.233.138-.082a1.069,1.069,0,0,1,.385-.07,1.541,1.541,0,0,1,1.251.761,3.192,3.192,0,0,1,.458,1.552v.163c-.029,1.09-.627,1.961-1.217,1.961" transform="translate(-61.873 -23.482)" fill="#903a32"/>
      <path id="Trazado_1644" data-name="Trazado 1644" d="M103.459,56.9a6.808,6.808,0,0,1-1.843-.27c-2.113-.589-2.822-1.684-2.831-2.862v-.054A6.443,6.443,0,0,1,100.4,50.1c1.272-1.552,3.622-7.223,4.132-7.268h.012c.051,0,.084.079.086.238a19.578,19.578,0,0,1-2.67,6.559c-1.816,2.72-2.088,4.4.007,5.5a3.458,3.458,0,0,0,1.613.349,10.645,10.645,0,0,0,4.1-1.108,4.654,4.654,0,0,1-4.224,2.536" transform="translate(-43.243 -18.747)" fill="#903a32"/>
      <path id="Trazado_1645" data-name="Trazado 1645" d="M101.978,70.693c1.287.218,5.7.816,8.759-.512a.273.273,0,0,1,.376.338c-.6,1.577-2.529,5.561-6.591,4.809-2.21-.381-2.751-3.284-2.876-4.327Z" transform="translate(-44.495 -30.711)" fill="#1b3b6c"/>
      <path id="Trazado_1646" data-name="Trazado 1646" d="M79.188,101.4S69.9,97.9,50.46,118.211c0,0-4.395,7.42-8,9.573l6.509,29.292,16.4-15.293,18.081,9.095,2.776-39.751S79.068,109,79.188,101.4" transform="translate(-18.587 -44.288)" fill="#b7baba"/>
      <path id="Trazado_1647" data-name="Trazado 1647" d="M128.615,99.77s19.18,1.095,24.732,12.548c0,0,13.437,26.271,16.682,31.833l-14.982,18.582-13.541-23.1-26.142,10.633,2.779-39.753s10.418-3.159,10.473-10.74" transform="translate(-50.5 -43.674)" fill="#b7baba"/>
      <path id="Trazado_1648" data-name="Trazado 1648" d="M91.595,26.038c3.544,1.818,7.25-.771,8.256-2.76,0,0,.691,3.334,5.468,1.656a6.631,6.631,0,0,0,7.851,1.647s-2.359,5.387-.052,7.594l1.691,2.214s.58-5.455,4.621-3.585,1.688,9.516-3.291,7.918l-.369,6.888s4.295,4.011,6.651.118c0,0,6.425-.267,5.963-6.151,0,0,5.353-3.619-.612-9.945,0,0,2.337-3.454-1.881-6.774,0,0,.816-7.608-2.044-8.471,0,0-1.356-4.168-4.37-3.749s-3.438,1.4-3.438,1.4-.954-3.755-3.79-4.172a4.423,4.423,0,0,0-4.088,1.12,7.971,7.971,0,0,0-9.7-.408s-4.517-2.232-6.189,1.265-.444,3.914-.444,3.914-12.261,5.888-1.235,17.4" transform="translate(-37.645 -3.994)" fill="#1b1d22"/>
      <path id="Trazado_1649" data-name="Trazado 1649" d="M103.647,76.379a4.474,4.474,0,0,1,6.044-.114s-2.912,3.384-6.044.114" transform="translate(-45.371 -32.889)" fill="#de1d2e"/>
      <path id="Trazado_1650" data-name="Trazado 1650" d="M92.185,12.7S96.942-3.252,114.877.6C131.464,4.123,128.3,21.852,128.3,21.852s-5.43-3.512-23.4-6.044C87,13.263,92.185,12.7,92.185,12.7" transform="translate(-40.048 0)" fill="#1b3b6c"/>
      <path id="Trazado_1651" data-name="Trazado 1651" d="M85.087,101.583s-2.96,9.945,6.894,25.836l-4.3,67s-24.3,7.506-31.751-6.815c0,0,10.482-70.344,8.667-80.479,0,0,2.117-5.491,20.485-5.539" transform="translate(-24.485 -44.467)" fill="#1b3b6c"/>
      <path id="Trazado_1652" data-name="Trazado 1652" d="M127.318,100.111s-.356,10.55-10.611,26.659L112.422,193.1s37.668,9.061,45.437-5.473c0,0-12.922-72.318-10.873-82.406,0,0-1.306-5.409-19.667-5.115" transform="translate(-49.212 -43.818)" fill="#1b3b6c"/>
      <path id="Trazado_1653" data-name="Trazado 1653" d="M103.457,101.583s-7.178,7.511-5.217,17.321l12.259-7.6s-7.162-2.121-7.042-9.723" transform="translate(-42.856 -44.467)" fill="#fff"/>
      <path id="Trazado_1654" data-name="Trazado 1654" d="M112.916,266.227l-.51-.045.041-.655c.054.014.177.043.358.084.036.206.072.41.111.616m2.939.27-.428-.039c-.007-.1-.014-.2-.018-.3.147.03.3.059.458.089l-.011.251" transform="translate(-49.205 -116.233)" fill="#0f4e8b"/>
      <path id="Trazado_1655" data-name="Trazado 1655" d="M115.737,266.523l-2.511-.231c-.039-.206-.075-.41-.111-.617.476.109,1.376.306,2.6.547,0,.1.011.2.018.3" transform="translate(-49.516 -116.298)" fill="#23356e"/>
      <path id="Trazado_1656" data-name="Trazado 1656" d="M120.133,144.8l2.026-3.329q-.941,1.621-2.026,3.329" transform="translate(-52.588 -61.927)" fill="#6d8091"/>
      <path id="Trazado_1657" data-name="Trazado 1657" d="M115.9,211.691c-.159-.029-.31-.059-.458-.088-1.229-.24-2.128-.437-2.6-.547-.181-.04-.3-.07-.358-.084l4.253-66.342.05-.081q1.088-1.71,2.026-3.33L119,140.9Z" transform="translate(-49.237 -61.68)" fill="#182a55"/>
      <path id="Trazado_1658" data-name="Trazado 1658" d="M120.306,110.509l12.848,5.684s.866-10.219-2.375-16.424c0,0-3.69,9.709-10.473,10.74" transform="translate(-52.663 -43.673)" fill="#fff"/>
    </g>
  </g>
  <g id="Grupo_853" data-name="Grupo 853" transform="translate(38.111 87.31)">
    <g id="Grupo_852" data-name="Grupo 852" clip-path="url(#clip-path-2)">
      <path id="Trazado_1659" data-name="Trazado 1659" d="M87.887,179.637a5.228,5.228,0,0,0,2.219-1.2,3.46,3.46,0,0,1-2.219,1.2m-16.471.133c-.458,0-6.631-.43-1.786-24.107,0,0,5.226-.378,10.89-.378,4.26,0,8.768.213,11.49.965l-.65,11.134c-.741,6.01-2.325,12.222-5.7,12.29l-14.217.094h-.027" transform="translate(-67.783 -155.285)" fill="#182a55"/>
    </g>
  </g>
  <g id="Grupo_855" data-name="Grupo 855" transform="translate(55.949 88.275)">
    <g id="Grupo_854" data-name="Grupo 854" clip-path="url(#clip-path-3)">
      <path id="Trazado_1660" data-name="Trazado 1660" d="M103.992,179.19a3.027,3.027,0,0,0,.712-1.765l.541-9.287A96.218,96.218,0,0,0,105.9,157a3.178,3.178,0,0,1,1.836,2.906,103.6,103.6,0,0,1-.49,10.93c-.471,4.612-1.815,7.064-3.252,8.352m-3.465,1.353a4.086,4.086,0,0,1-1.02-.114l.039,0,1.813-.011a3.607,3.607,0,0,0,.415-.027,5.084,5.084,0,0,1-1.247.154" transform="translate(-99.508 -157.002)" fill="#17244e"/>
    </g>
  </g>
  <g id="Grupo_857" data-name="Grupo 857">
    <g id="Grupo_856" data-name="Grupo 856" clip-path="url(#clip-path)">
      <path id="Trazado_1661" data-name="Trazado 1661" d="M99.576,189.1c3.375-.068,4.959-6.28,5.7-12.29l-.541,9.287a3.027,3.027,0,0,1-.712,1.765,5.223,5.223,0,0,1-2.219,1.2,3.478,3.478,0,0,1-.414.028Z" transform="translate(-43.589 -77.395)" fill="#0b1e3c"/>
      <path id="Trazado_1662" data-name="Trazado 1662" d="M71.82,161.061S86.56,172.116,93.776,157c0,0,.433,9.12-12.37,9.029-5.734-.455-9.586-4.97-9.586-4.97" transform="translate(-31.439 -68.727)" fill="#1b3b6c"/>
    </g>
  </g>
  <g id="Grupo_859" data-name="Grupo 859" transform="translate(32.164 118.349)">
    <g id="Grupo_858" data-name="Grupo 858" clip-path="url(#clip-path-5)">
      <path id="Trazado_1663" data-name="Trazado 1663" d="M81.164,235.418v-.009l1.557-21.5v.025l-1.555,21.474a.022.022,0,0,1,0,.009m-9.113,3.907a27.255,27.255,0,0,1-4.365-.383c-11.2-1.843-10.473-6.627-10.473-6.627l3.1-21.825s8.532,3.864,17.471,3.864a26.586,26.586,0,0,0,4.487-.363l-1.575.288c-.936,19.814-3.375,23.713-4.138,24.454a15.717,15.717,0,0,1-4.505.592" transform="translate(-57.205 -210.49)" fill="#182a55"/>
    </g>
  </g>
  <g id="Grupo_861" data-name="Grupo 861">
    <g id="Grupo_860" data-name="Grupo 860" clip-path="url(#clip-path)">
      <path id="Trazado_1664" data-name="Trazado 1664" d="M97.155,216.655l.451-.082c-.15.029-.3.057-.451.082m-5.947,24.911a.661.661,0,0,0,.233-.17c3.535-1.052,4.537-3.157,4.608-3.316a4.639,4.639,0,0,1-4.841,3.485" transform="translate(-39.926 -94.804)" fill="#17244e"/>
      <path id="Trazado_1665" data-name="Trazado 1665" d="M91.623,241.4c.764-.741,3.2-4.639,4.138-24.454l1.575-.288c.152-.025.3-.052.451-.082l-1.557,21.5v.009c-.07.159-1.072,2.264-4.608,3.316" transform="translate(-40.108 -94.804)" fill="#0b1e3c"/>
    </g>
  </g>
  <g id="Grupo_863" data-name="Grupo 863" transform="translate(75.348 86.92)">
    <g id="Grupo_862" data-name="Grupo 862" clip-path="url(#clip-path-7)">
      <path id="Trazado_1666" data-name="Trazado 1666" d="M154.67,178.626a5.053,5.053,0,0,0,2.171-1.258,3.34,3.34,0,0,1-2.171,1.258m-16.483.56c-.6,0-6.593-.578-3.078-23.885,0,0,7.128-.705,13.781-.705a40.512,40.512,0,0,1,8.637.7l-.043,11.064c-.415,6.012-1.666,12.254-5.068,12.365h0l-14.182.462a.459.459,0,0,1-.05,0" transform="translate(-134.011 -154.594)" fill="#182a55"/>
    </g>
  </g>
  <g id="Grupo_865" data-name="Grupo 865">
    <g id="Grupo_864" data-name="Grupo 864" clip-path="url(#clip-path)">
      <path id="Trazado_1667" data-name="Trazado 1667" d="M167.648,197.518a3.966,3.966,0,0,1-.9-.088l1.852-.061a3.162,3.162,0,0,0,.4-.034,5.035,5.035,0,0,1-1.355.184" transform="translate(-72.995 -86.382)" fill="#17244e"/>
      <path id="Trazado_1668" data-name="Trazado 1668" d="M178.77,165.867c-.442-3.041-.864-6.046-1.251-8.954a3.311,3.311,0,0,1,1.049,2.23c.163,2.01.211,4.505.2,6.724" transform="translate(-77.708 -68.688)" fill="#5b7185"/>
      <path id="Trazado_1669" data-name="Trazado 1669" d="M174.617,177.909a2.936,2.936,0,0,0,.609-1.765l.034-9.247a94.834,94.834,0,0,0,.043-11.064,3.1,3.1,0,0,1,.945.608c.387,2.907.809,5.913,1.251,8.954-.007,1.632-.046,3.114-.1,4.145-.22,4.583-1.424,7.053-2.788,8.37" transform="translate(-76.438 -68.215)" fill="#17244e"/>
      <path id="Trazado_1670" data-name="Trazado 1670" d="M166.751,187.876h0c3.4-.111,4.653-6.352,5.068-12.365l-.034,9.247a2.936,2.936,0,0,1-.609,1.765A5.063,5.063,0,0,1,169,187.781a3.281,3.281,0,0,1-.4.034Z" transform="translate(-72.994 -76.829)" fill="#0b1e3c"/>
      <path id="Trazado_1671" data-name="Trazado 1671" d="M137.167,160.439s15.35,10.588,21.745-4.61c0,0,.929,9.049-11.882,9.292-5.763-.3-9.863-4.682-9.863-4.682" transform="translate(-60.044 -68.213)" fill="#1b3b6c"/>
      <path id="Trazado_1672" data-name="Trazado 1672" d="M162.751,233.822a.039.039,0,0,0,0-.011l-1.691-21.279,1.691,21.281a.022.022,0,0,1,0,.009m-10.84,4.873h-.31c-.553,0-1.129-.022-1.736-.057-11.456-.68-11.46-5.441-11.46-5.441l-.182-21.727a52.982,52.982,0,0,0,14.382,2.18,30.165,30.165,0,0,0,8.018-.99l-1.523.442c2.057,19.536.227,23.626-.424,24.44a17.917,17.917,0,0,1-6.765,1.154" transform="translate(-60.506 -92.569)" fill="#182a55"/>
      <path id="Trazado_1673" data-name="Trazado 1673" d="M176.385,213.487l.44-.127c-.145.043-.292.086-.44.127m-2.155,25.074a.692.692,0,0,0,.209-.193c3.365-1.394,4.034-3.567,4.075-3.719-.009.209-.247,3.463-4.283,3.912" transform="translate(-76.268 -93.397)" fill="#17244e"/>
      <path id="Trazado_1674" data-name="Trazado 1674" d="M174.6,238.37c.651-.814,2.482-4.9.424-24.44l1.523-.442c.147-.04.295-.084.44-.127l1.691,21.278a.04.04,0,0,1,0,.011c-.04.152-.709,2.326-4.075,3.719" transform="translate(-76.43 -93.398)" fill="#0b1e3c"/>
      <path id="Trazado_1675" data-name="Trazado 1675" d="M24.678,507.809s-1.58-10.992-14.466-8.7C.111,500.9,0,507.569,0,507.569s15.531,2.148,24.678.24" transform="translate(0 -218.344)" fill="#1b3b6c"/>
      <path id="Trazado_1676" data-name="Trazado 1676" d="M47.423,501.274S35.357,509.213.358,506.985a2.4,2.4,0,0,0-.277.852,5.912,5.912,0,0,0-.082.816s2.527.345,4.737.56c1.33.129,5.72.433,5.72.433s26.353.739,36.893-5.3" transform="translate(0 -219.43)" fill="#b7baba"/>
      <path id="Trazado_1677" data-name="Trazado 1677" d="M157.127,503.442s15.556,6.565,38.024.458c0,0,.354.1.485.9.129.773,0,.9,0,.9s-5.142,3.088-16.9,3.993a61.679,61.679,0,0,1-22.366-2.434" transform="translate(-68.45 -220.379)" fill="#b7baba"/>
      <path id="Trazado_1678" data-name="Trazado 1678" d="M7.155,78.572a3.182,3.182,0,0,1-.131-1.092,1.512,1.512,0,0,1,.734-1.21,1.741,1.741,0,0,1,.711-.224H8.63a1.208,1.208,0,0,1,.846.453,4.862,4.862,0,0,1,.055.741c-.413-.841-.8-1.167-1.147-1.167-.7,0-1.2,1.385-1.229,2.5M2.26,81.647a1.827,1.827,0,0,1-.059-.4v-.073c0-.034,0-.066.007-.1a1.175,1.175,0,0,1,.712-.954,1.95,1.95,0,0,1,.779-.181,1.3,1.3,0,0,1,.571.127,2.482,2.482,0,0,1-.156-.76,1.412,1.412,0,0,1,.6-1.217,1.666,1.666,0,0,1,.909-.311c.764,0,1.274.728,1.516,1.367.039.1.077.2.118.3a.008.008,0,0,0,0,.007.321.321,0,0,0-.077-.007c-.642,0-4.4.811-4.923,2.2" transform="translate(-0.963 -33.288)" fill="#c17971"/>
      <path id="Trazado_1679" data-name="Trazado 1679" d="M5.526,86.8a.316.316,0,0,0-.165-.059l-.116,0a2.979,2.979,0,0,0-.34.02,1.462,1.462,0,0,1-.473-.224,2.081,2.081,0,0,1-.614-.788,10.566,10.566,0,0,1-.49-1.195q-.428-1.182-.855-2.361c-.061-.172-.124-.344-.168-.521.523-1.392,4.281-2.2,4.923-2.2a.286.286,0,0,1,.077.007.01.01,0,0,1,0-.007c.127.318.265.628.406.938-.143-.508-.286-1.011-.428-1.518-.028-.1-.055-.2-.079-.292.029-1.116.523-2.5,1.228-2.5.342,0,.734.326,1.147,1.167a4.791,4.791,0,0,0-.055-.741,2.853,2.853,0,0,1,.553,1.163c.251,1.063.609,2.076.9,3.121l.245-.213a2.791,2.791,0,0,1,1.6-.633,1.512,1.512,0,0,1,.351.041l.172.141-.163.174a6.588,6.588,0,0,0-1.954,1.532l.1.485a3.16,3.16,0,0,1,.013,1.383,1.408,1.408,0,0,1-.963,1.015,1.032,1.032,0,0,1-.247.029,1.214,1.214,0,0,1-.4-.07,5.994,5.994,0,0,0-.136.716c-.027.2.032,1.083-.181,1.21a.238.238,0,0,1-.123.039c-.272,0-.306-.669-.322-.875s-.014-.424-.007-.637a1.288,1.288,0,0,1-.7.619,1.2,1.2,0,0,1-.385.061,1.445,1.445,0,0,1-.8-.247,2.159,2.159,0,0,1-.6-.645A1.989,1.989,0,0,1,6.5,85.99a1.249,1.249,0,0,1-.941.8l-.036.007" transform="translate(-1.009 -33.309)" fill="#903a32"/>
      <path id="Trazado_1680" data-name="Trazado 1680" d="M7.332,95.1a1.488,1.488,0,0,1-.4-.057,2.977,2.977,0,0,1,.34-.02l.116,0a.316.316,0,0,1,.165.059,1.41,1.41,0,0,1-.217.016" transform="translate(-3.033 -41.597)" fill="#903a32"/>
      <path id="Trazado_1681" data-name="Trazado 1681" d="M11.039,75.513a1.514,1.514,0,0,0-.734,1.21,3.917,3.917,0,0,0,.211,1.383c.281,1,.709,2.049.99,3.049a14.244,14.244,0,0,0,.336,1.464,2.6,2.6,0,0,0,.618,1,1.3,1.3,0,0,0,1.149.333,1.418,1.418,0,0,0,.963-1.017,3.22,3.22,0,0,0-.016-1.38c-.27-1.607-.873-3.08-1.249-4.648-.227-.945-.911-2.119-2.269-1.392" transform="translate(-4.507 -32.956)" fill="#c17971"/>
      <path id="Trazado_1682" data-name="Trazado 1682" d="M5.885,78.69a1.415,1.415,0,0,0-.6,1.22,3.449,3.449,0,0,0,.363,1.278c.39.906.877,1.514,1.269,2.423.2.462.3,1.226.55,1.668a2.452,2.452,0,0,0,.732.873,1.365,1.365,0,0,0,1.183.184,1.349,1.349,0,0,0,.85-1.059c.075-.444-.458-.884-.582-1.3-.449-1.48-.793-2.794-1.342-4.227-.329-.863-1.143-1.892-2.423-1.056" transform="translate(-2.313 -34.311)" fill="#c17971"/>
      <path id="Trazado_1683" data-name="Trazado 1683" d="M2.392,82.76a1.186,1.186,0,0,0-.712.954,2.559,2.559,0,0,0,.22,1.092q.425,1.182.852,2.361a11.073,11.073,0,0,0,.49,1.194,2.089,2.089,0,0,0,.616.789,1.5,1.5,0,0,0,1.128.26,1.253,1.253,0,0,0,.941-.8A2.013,2.013,0,0,0,5.9,87.52c-.279-1.267-.884-2.43-1.267-3.667A1.545,1.545,0,0,0,2.392,82.76" transform="translate(-0.733 -36.149)" fill="#c17971"/>
      <path id="Trazado_1684" data-name="Trazado 1684" d="M13.718,86.989a5.208,5.208,0,0,1-.1-1.029c-.005-1.711,1.908-.823,2.028.693.123,1.5-1.627,1.827-1.926.336" transform="translate(-5.96 -37.22)" fill="#f8dcd8"/>
      <path id="Trazado_1685" data-name="Trazado 1685" d="M9.817,89.263A2,2,0,0,1,9.6,88.256c.281-1.315,1.825-1.015,2.11.472.283,1.466-1.437,1.976-1.9.535" transform="translate(-4.196 -38.269)" fill="#f8dcd8"/>
      <path id="Trazado_1686" data-name="Trazado 1686" d="M5.487,92.236a1.629,1.629,0,0,1-.172-.8c.229-1.049,1.464-.811,1.688.376.223,1.172-1.151,1.58-1.516.428" transform="translate(-2.321 -39.732)" fill="#f8dcd8"/>
      <path id="Trazado_1687" data-name="Trazado 1687" d="M124.584,8.13l-.145.211-.075-.032,0-.1.066,3.474-2.4,0,0,.218,2.625,0" transform="translate(-53.417 -3.559)" fill="#b7baba"/>
      <path id="Trazado_1688" data-name="Trazado 1688" d="M110.658,14.622a1.7,1.7,0,0,1-.256-1.3,1.69,1.69,0,0,1,.609-1.176,2.1,2.1,0,0,1,2.55.363,1.705,1.705,0,0,1,.258,1.3,1.706,1.706,0,0,1-.612,1.176,2.1,2.1,0,0,1-2.55-.365m1.8-.331a1.281,1.281,0,0,0,.231-.644,1.3,1.3,0,0,0-.043-.684.493.493,0,0,0-.412-.281.5.5,0,0,0-.474.154,1.262,1.262,0,0,0-.231.648,1.286,1.286,0,0,0,.041.682.485.485,0,0,0,.412.281.491.491,0,0,0,.476-.156" transform="translate(-48.316 -5.192)" fill="#1b3b6c"/>
      <path id="Trazado_1689" data-name="Trazado 1689" d="M113.34,14.926a1.281,1.281,0,0,0,.231-.644,1.3,1.3,0,0,0-.043-.684.493.493,0,0,0-.412-.281.5.5,0,0,0-.474.154,1.262,1.262,0,0,0-.231.648,1.286,1.286,0,0,0,.041.682.485.485,0,0,0,.412.281A.49.49,0,0,0,113.34,14.926Z" transform="translate(-49.197 -5.826)" fill="none" stroke="#fff" stroke-miterlimit="10" stroke-width="0.056"/>
      <path id="Trazado_1690" data-name="Trazado 1690" d="M110.657,14.622a1.694,1.694,0,0,1-.256-1.3,1.687,1.687,0,0,1,.609-1.176,2.1,2.1,0,0,1,2.549.363,1.7,1.7,0,0,1,.259,1.3,1.71,1.71,0,0,1-.612,1.176,2.1,2.1,0,0,1-2.55-.365Z" transform="translate(-48.316 -5.192)" fill="none" stroke="#fff" stroke-miterlimit="10" stroke-width="0.056"/>
      <path id="Trazado_1691" data-name="Trazado 1691" d="M116.888,15.773l-.037-.218.4-2.788.1-.2.24-.037.46.068.156.048.093.122.689,1.448.168-1.176.1-.2.233-.036.578.082.222.1.034.224-.4,2.785-.093.2-.243.034-.46-.066-.154-.049-.1-.123-.691-1.446-.166,1.178-.1.2-.24.034-.58-.082Z" transform="translate(-51.151 -5.486)" fill="#1b3b6c"/>
      <path id="Trazado_1692" data-name="Trazado 1692" d="M116.888,15.773l-.037-.218.4-2.788.1-.2.24-.037.46.068.156.048.093.122.689,1.448.168-1.176.1-.2.233-.036.578.082.222.1.034.224-.4,2.785-.093.2-.243.034-.46-.066-.154-.049-.1-.123-.691-1.446-.166,1.178-.1.2-.24.034-.58-.082Z" transform="translate(-51.151 -5.486)" fill="none" stroke="#fff" stroke-miterlimit="10" stroke-width="0.056"/>
      <path id="Trazado_1693" data-name="Trazado 1693" d="M123.13,16.665l-.039-.22.4-2.783.1-.2.24-.037,1.19.168a1.682,1.682,0,0,1,1.045.446,1.106,1.106,0,0,1,.215.933,1.092,1.092,0,0,1-.467.83,1.665,1.665,0,0,1-1.122.136l-.3-.043-.1.719-.1.2-.247.037-.589-.084Zm1.566-1.577.265-.046.127-.24-.057-.268-.238-.12-.34-.048-.1.673Z" transform="translate(-53.882 -5.877)" fill="#1b3b6c"/>
      <path id="Trazado_1694" data-name="Trazado 1694" d="M125.682,15.82l.265-.046.127-.24-.057-.268-.238-.12-.34-.048-.1.673Z" transform="translate(-54.869 -6.61)" fill="none" stroke="#fff" stroke-miterlimit="10" stroke-width="0.056"/>
      <path id="Trazado_1695" data-name="Trazado 1695" d="M123.13,16.666l-.039-.22.4-2.783.1-.2.24-.037,1.19.168a1.685,1.685,0,0,1,1.045.446,1.111,1.111,0,0,1,.215.934,1.092,1.092,0,0,1-.467.829,1.665,1.665,0,0,1-1.122.136l-.3-.043-.1.718-.1.2-.247.036-.589-.084Z" transform="translate(-53.882 -5.878)" fill="none" stroke="#fff" stroke-miterlimit="10" stroke-width="0.056"/>
      <path id="Trazado_1696" data-name="Trazado 1696" d="M129.081,17.51l-.037-.222.4-2.779.1-.2.24-.037,1.809.258.2.1.027.222-.04.277-.089.2-.222.037-.924-.132-.059.422.66.1.206.1.025.22-.038.268-.084.2-.224.036-.664-.093-.059.422.918.132.206.1.027.222-.04.274-.089.2-.22.037-1.8-.256Z" transform="translate(-56.489 -6.246)" fill="#1b3b6c"/>
      <path id="Trazado_1697" data-name="Trazado 1697" d="M129.081,17.51l-.037-.222.4-2.779.1-.2.24-.037,1.809.258.2.1.027.222-.04.277-.089.2-.222.037-.924-.132-.059.422.66.1.206.1.025.22-.038.268-.084.2-.224.036-.664-.093-.059.422.918.132.206.1.027.222-.04.274-.089.2-.22.037-1.8-.259Z" transform="translate(-56.489 -6.246)" fill="none" stroke="#fff" stroke-miterlimit="10" stroke-width="0.056"/>
      <path id="Trazado_1698" data-name="Trazado 1698" d="M123.486,6.717l0-.132c0-.091.256-.354.308-.716a.816.816,0,0,0-.154-.582l.039-.068-3.522-.5,0,.007.009.011a12.473,12.473,0,0,0-.134,1.4c-.009.56.055,1.661.055,1.661l.265.222.2-.259-.034-.829.349-.05.052,1.288.265.222.2-.259-.054-1.319.349-.049.077,1.824.261.222.2-.258-.077-1.856.349-.052.07,1.7.263.222.2-.258-.091-2.18.007,0,.195-.009,0,0,.1,2.3-.322.349v0l-.029,0-.147.007-.338-.254-.009,0,.007.136-.324.351-.138.007-.354-.326-.016-.378-.009,0-.315.281L121.1,8.6l-.206-.061.029,1.656,2.627,0" transform="translate(-52.541 -2.064)" fill="#fff"/>
      <path id="Trazado_1699" data-name="Trazado 1699" d="M120.934,8.592l.143-.007.317-.281.007,0,.016.378.354.327L121.909,9l.327-.351-.007-.136.007,0,.337.254.147-.007.028,0,0,0,.322-.349-.1-2.305,0,0-.2.009,0,0,.088,2.18-.2.258-.263-.222-.07-1.7-.349.052.077,1.856-.2.259-.26-.222-.077-1.825-.349.05.055,1.319-.2.258-.265-.222L120.7,6.87l-.349.049.034.83-.2.258-.265-.222s-.064-1.1-.055-1.661a12.451,12.451,0,0,1,.134-1.4l-.009-.012L119.8,4.7a6.566,6.566,0,0,0-.15,1.405c0,.558.07,1.8.07,1.8l.349.322.028,0,.118,0,.03,0,.317-.281.007,0,.014.333.147.263Z" transform="translate(-52.376 -2.056)" fill="#de1d2e"/>
      <line id="Línea_55" data-name="Línea 55" x2="0.075" y2="0.009" transform="translate(71.137 3.153)" fill="#de1d2e"/>
      <path id="Trazado_1700" data-name="Trazado 1700" d="M126.7,6.042l-.159-.4-.025-.016-.072-.009-.075-.009-.04.068a.821.821,0,0,1,.154.582c-.052.363-.313.625-.308.716l0,.131,0,.1.075.029.145-.211a1.6,1.6,0,0,0,.3-.986" transform="translate(-55.232 -2.456)" fill="#de1d2e"/>
      <path id="Trazado_1701" data-name="Trazado 1701" d="M157.96,135.422l-.15.286-.1-.027-.021-.125.6,4.324-2.991.367.036.27,3.275-.4" transform="translate(-67.982 -59.28)" fill="#b7baba"/>
      <path id="Trazado_1702" data-name="Trazado 1702" d="M141.339,145.714a2.524,2.524,0,0,1,.068-3.148,2.639,2.639,0,0,1,3.236.07,2.139,2.139,0,0,1,.514,1.584,2.116,2.116,0,0,1-.585,1.561,2.642,2.642,0,0,1-3.234-.068m2.2-.684a1.635,1.635,0,0,0,.193-.838,1.6,1.6,0,0,0-.157-.848.709.709,0,0,0-1.124-.027,1.608,1.608,0,0,0-.192.843,1.578,1.578,0,0,0,.156.843.706.706,0,0,0,1.124.027" transform="translate(-61.644 -62.18)" fill="#1b3b6c"/>
      <path id="Trazado_1703" data-name="Trazado 1703" d="M144.65,145.814a1.636,1.636,0,0,0,.193-.838,1.615,1.615,0,0,0-.157-.85.711.711,0,0,0-1.124-.025,1.607,1.607,0,0,0-.192.843,1.578,1.578,0,0,0,.156.843.706.706,0,0,0,1.124.027Z" transform="translate(-62.759 -62.964)" fill="none" stroke="#fff" stroke-miterlimit="10" stroke-width="0.071"/>
      <path id="Trazado_1704" data-name="Trazado 1704" d="M141.339,145.714a2.525,2.525,0,0,1,.068-3.148,2.641,2.641,0,0,1,3.236.07,2.138,2.138,0,0,1,.514,1.584,2.116,2.116,0,0,1-.585,1.561,2.641,2.641,0,0,1-3.234-.068Z" transform="translate(-61.644 -62.18)" fill="none" stroke="#fff" stroke-miterlimit="10" stroke-width="0.071"/>
      <path id="Trazado_1705" data-name="Trazado 1705" d="M149.449,146.329l-.077-.27.077-3.535.09-.263.29-.079.587.014.2.038.134.136,1.078,1.7.032-1.489.088-.265.29-.082.732.014.292.09.077.274-.077,3.535-.091.263-.292.079-.585-.014-.2-.038-.134-.138-1.081-1.7-.029,1.5-.091.263-.295.077-.734-.014Z" transform="translate(-65.387 -62.239)" fill="#1b3b6c"/>
      <path id="Trazado_1706" data-name="Trazado 1706" d="M149.449,146.329l-.077-.27.077-3.535.09-.263.29-.079.587.014.2.038.134.136,1.078,1.7.032-1.489.088-.265.29-.082.732.014.292.09.077.274-.077,3.535-.091.263-.292.079-.585-.014-.2-.038-.134-.138-1.081-1.7-.029,1.5-.091.263-.295.077-.734-.014Z" transform="translate(-65.387 -62.239)" fill="none" stroke="#fff" stroke-miterlimit="10" stroke-width="0.071"/>
      <path id="Trazado_1707" data-name="Trazado 1707" d="M157.364,146.5l-.079-.268.075-3.531.093-.267.3-.079,1.507.031a2.09,2.09,0,0,1,1.374.4,1.658,1.658,0,0,1-.05,2.234,2.1,2.1,0,0,1-1.383.337l-.376-.009-.022.911-.088.265-.3.082-.75-.016Zm1.72-2.2.322-.1.123-.315-.111-.326-.315-.114-.431-.007-.018.855Z" transform="translate(-68.851 -62.315)" fill="#1b3b6c"/>
      <path id="Trazado_1708" data-name="Trazado 1708" d="M160.149,145.141l.322-.1.123-.315-.111-.326-.315-.114-.431-.007-.018.855Z" transform="translate(-69.916 -63.156)" fill="none" stroke="#fff" stroke-miterlimit="10" stroke-width="0.071"/>
      <path id="Trazado_1709" data-name="Trazado 1709" d="M157.364,146.5l-.079-.268.074-3.531.093-.267.3-.079,1.507.031a2.091,2.091,0,0,1,1.373.4,1.658,1.658,0,0,1-.05,2.234,2.1,2.1,0,0,1-1.383.338l-.376-.01-.023.911-.088.265-.3.082-.75-.016Z" transform="translate(-68.851 -62.315)" fill="none" stroke="#fff" stroke-miterlimit="10" stroke-width="0.071"/>
      <path id="Trazado_1710" data-name="Trazado 1710" d="M164.917,146.663l-.079-.272.077-3.526.091-.267.292-.082,2.3.049.268.089.068.276-.007.347-.079.27-.274.077L166.4,143.6l-.013.535.843.02.27.088.066.274-.007.335-.079.27-.272.077-.841-.016-.014.535,1.17.025.268.091.068.272-.007.351-.079.268-.272.079-2.291-.05Z" transform="translate(-72.157 -62.386)" fill="#1b3b6c"/>
      <path id="Trazado_1711" data-name="Trazado 1711" d="M164.917,146.663l-.079-.272.077-3.526.091-.267.292-.082,2.3.049.268.089.068.276-.007.347-.079.27-.274.077L166.4,143.6l-.013.535.843.02.27.088.066.274-.007.335-.079.27-.272.077-.841-.016-.014.535,1.17.025.268.091.068.272-.007.351-.079.268-.272.079-2.291-.05Z" transform="translate(-72.157 -62.386)" fill="none" stroke="#fff" stroke-miterlimit="10" stroke-width="0.071"/>
      <path id="Trazado_1712" data-name="Trazado 1712" d="M156.083,134.106l-.022-.163a4.537,4.537,0,0,0,.278-.941,1.036,1.036,0,0,0-.281-.7l.041-.093-4.474-.1v.007l.014.016a15.123,15.123,0,0,0,.04,1.763c.075.7.322,2.065.322,2.065l.36.236.215-.351-.17-1.029.428-.118.26,1.6.363.238.213-.351-.267-1.638.43-.116.365,2.266.363.238.213-.351-.372-2.305.428-.117.34,2.112.363.238.213-.354-.437-2.706,0-.007.247-.039,0,.005.464,2.86a.419.419,0,0,1-.349.483l0,0-.034.009-.181.029a.422.422,0,0,1-.463-.267l-.009,0,.029.17a.425.425,0,0,1-.353.49l-.173.029a.43.43,0,0,1-.489-.354l-.077-.473h-.009a.423.423,0,0,1-.354.4l-.177.03-.267-.046.288,2.062,3.275-.4" transform="translate(-66.373 -57.831)" fill="#fff"/>
      <path id="Trazado_1713" data-name="Trazado 1713" d="M153.174,136.822l.177-.029a.423.423,0,0,0,.354-.4l.009,0,.077.474a.428.428,0,0,0,.487.353l.172-.027a.432.432,0,0,0,.356-.492l-.029-.17h.009a.42.42,0,0,0,.46.265l.182-.03.036-.009,0,0a.426.426,0,0,0,.349-.485l-.467-2.86,0,0-.245.04,0,0,.437,2.706-.213.354-.36-.238-.344-2.11-.426.116.372,2.3-.213.351-.36-.238-.367-2.266-.431.117.268,1.636-.213.351-.363-.238-.261-1.6-.428.116.168,1.029-.213.351-.36-.236s-.249-1.364-.324-2.065a15.477,15.477,0,0,1-.039-1.763l-.013-.013-.238,0a7.986,7.986,0,0,0,.022,1.777c.082.7.358,2.235.358,2.235a.422.422,0,0,0,.485.349l.034-.007.145-.022.036-.007a.422.422,0,0,0,.356-.4l.007,0,.068.412.222.308Z" transform="translate(-66.159 -57.838)" fill="#de1d2e"/>
      <line id="Línea_56" data-name="Línea 56" x2="0.093" y2="0.002" transform="translate(89.726 74.376)" fill="#de1d2e"/>
      <path id="Trazado_1714" data-name="Trazado 1714" d="M160.026,132.771a.894.894,0,0,0-.256-.471l-.034-.014-.09,0-.1,0-.04.093a1.031,1.031,0,0,1,.281.7,4.488,4.488,0,0,1-.279.941l.022.163.019.125.1.027.15-.286a2.029,2.029,0,0,0,.224-1.276" transform="translate(-69.824 -57.905)" fill="#de1d2e"/>
      <path id="Trazado_1715" data-name="Trazado 1715" d="M118.722,27.851s-19.209-7.825-36.091-4.768c0,0-12.981-1.834-6.583-5.944,6.361-4.1,37.8,3.227,42.675,10.713" transform="translate(-32.513 -6.986)" fill="#2770b1"/>
      <path id="Trazado_1716" data-name="Trazado 1716" d="M115.609,156.7l-7.084-31.105.315-.084,6.826,30.137,7.812-30.385.3.12" transform="translate(-47.506 -54.832)" fill="#fff"/>
      <path id="Trazado_1717" data-name="Trazado 1717" d="M120.75,187.173l-7.926.136a1.462,1.462,0,0,1-1.543-1.442l.07-4.109a1.58,1.58,0,0,1,1.587-1.491l7.887-.129a1.473,1.473,0,0,1,1.548,1.442l-.039,4.1a1.57,1.57,0,0,1-1.584,1.493" transform="translate(-48.713 -78.854)" fill="#b7baba"/>
    </g>
  </g>
</svg>
