<?xml version="1.0" encoding="UTF-8"?>
<svg id="Capa_1" xmlns="http://www.w3.org/2000/svg" version="1.1" viewBox="0 0 135 135">
  <!-- Generator: Adobe Illustrator 29.3.0, SVG Export Plug-In . SVG Version: 2.1.0 Build 146)  -->
  <defs>
    <style>
      .st0 {
        fill: #003874;
      }
    </style>
  </defs>
  <path class="st0" d="M29.9,38.5c4.7,0,8.5-3.8,8.5-8.5s-3.8-8.5-8.5-8.5-8.5,3.8-8.5,8.5,3.8,8.5,8.5,8.5ZM60.3,21.4c3.9,3.9,10.2,3.9,14.1,0,3.9-3.9,3.9-10.2,0-14.1-3.9-3.9-10.2-3.9-14.1,0-3.9,3.9-3.9,10.2,0,14.1ZM92.5,29.9c0,6.9,5.6,12.5,12.5,12.5s12.5-5.6,12.5-12.5-5.6-12.5-12.5-12.5-12.5,5.6-12.5,12.5ZM110.5,57.2c-5.6,5.6-5.6,14.7,0,20.3,5.6,5.6,14.7,5.6,20.3,0,5.6-5.6,5.6-14.7,0-20.3-5.6-5.6-14.7-5.6-20.3,0ZM105.1,102.5c-1.4,0-2.5,1.1-2.5,2.5s1.1,2.5,2.5,2.5,2.5-1.1,2.5-2.5-1.1-2.5-2.5-2.5ZM70.4,117.8c-1.6-1.6-4.1-1.6-5.7,0-1.6,1.6-1.6,4.1,0,5.7,1.6,1.6,4.1,1.6,5.7,0,1.6-1.6,1.6-4.1,0-5.7ZM35,105.1c0-2.8-2.2-5-5-5s-5,2.2-5,5,2.2,5,5,5,5-2.2,5-5ZM18.9,72.2c2.5-2.5,2.5-6.7,0-9.2-2.5-2.5-6.7-2.5-9.2,0-2.5,2.5-2.5,6.7,0,9.2,2.5,2.5,6.7,2.5,9.2,0Z">
    <animateTransform accumulate="none" additive="replace" attributeName="transform" calcMode="linear" dur="8s" fill="remove" from="0 67 67" repeatCount="indefinite" restart="always" to="360 67 67" type="rotate"/>
  </path>
</svg>