<svg xmlns="http://www.w3.org/2000/svg" xmlns:xlink="http://www.w3.org/1999/xlink" width="112.042" height="135.41" viewBox="0 0 112.042 135.41">
  <defs>
    <clipPath id="clip-path">
      <rect id="Rectángulo_2262" data-name="Rectángulo 2262" width="112.042" height="135.411" fill="#2971b9"/>
    </clipPath>
  </defs>
  <g id="Grupo_2759" data-name="Grupo 2759" transform="translate(0 -3)">
    <g id="Grupo_2759-2" data-name="Grupo 2759" transform="translate(0 3)" clip-path="url(#clip-path)">
      <path id="Trazado_2314" data-name="Trazado 2314" d="M26.616,84.357H69.759a3.555,3.555,0,0,0,3.553-3.55V46.138a3.557,3.557,0,0,0-3.553-3.553H37.1V38.9A10.709,10.709,0,0,1,48.015,28.437a10.939,10.939,0,0,1,10.445,7.457,2.757,2.757,0,0,0,4,1.559l1.415-.819a2.751,2.751,0,0,0,1.23-3.271A18.077,18.077,0,0,0,30,38.9v3.683H26.616a3.557,3.557,0,0,0-3.553,3.553V80.807a3.555,3.555,0,0,0,3.553,3.55M44.635,58.2a3.552,3.552,0,1,1,7.1,0V68.749a3.552,3.552,0,0,1-7.1,0Z" transform="translate(7.833 7.246)" fill="#2971b9"/>
      <path id="Trazado_2315" data-name="Trazado 2315" d="M108.947,10.973a4.1,4.1,0,0,0-1.269-.792l-2.051-.8a135.9,135.9,0,0,0-99.21,0l-.473.188A9.287,9.287,0,0,0,0,18.269V95.224a8.61,8.61,0,0,0,3.854,7.19l47.594,31.612a8.241,8.241,0,0,0,9.146,0l47.439-31.51a8.961,8.961,0,0,0,4.01-7.475V14.953a4.114,4.114,0,0,0-3.095-3.98M8.208,18.038a.8.8,0,0,1,.51-.748,129.618,129.618,0,0,1,94.605,0l.51.2V95.02a.8.8,0,0,1-.36.667L56.465,126.915a.8.8,0,0,1-.888,0L8.566,95.687a.8.8,0,0,1-.358-.667Z" transform="translate(0 0)" fill="#2971b9"/>
    </g>
  </g>
</svg>
