<svg xmlns="http://www.w3.org/2000/svg" width="52" height="52" viewBox="0 0 52 52">
  <g id="Grupo_2122" data-name="Grupo 2122" transform="translate(-1097 -246)">
    <rect id="Rectángulo_1025" data-name="Rectángulo 1025" width="52" height="52" rx="8" transform="translate(1097 246)" fill="#2971b9"/>
    <path id="docs_24dp_003770_FILL0_wght400_GRAD0_opsz24" d="M167.3-859.924h14.6v-3.65H167.3Zm0,5.475h14.6v-3.65H167.3Zm0,5.475h9.125v-3.65H167.3Zm-3.65,5.475a3.515,3.515,0,0,1-2.578-1.072A3.515,3.515,0,0,1,160-847.149v-29.2a3.515,3.515,0,0,1,1.072-2.578A3.515,3.515,0,0,1,163.65-880h14.6l10.95,10.95v21.9a3.515,3.515,0,0,1-1.072,2.578,3.515,3.515,0,0,1-2.578,1.072Zm12.775-23.726v-9.125H163.65v29.2h21.9v-20.076ZM163.65-876.35v0Z" transform="translate(948 1134)" fill="#fff"/>
  </g>
</svg>
