<?xml version="1.0" encoding="UTF-8"?>
<svg id="Capa_1" data-name="Capa 1" xmlns="http://www.w3.org/2000/svg" viewBox="0 0 1000 211">
  <defs>
    <style>
      .cls-1 {
        fill: #fff;
      }

      .cls-2 {
        fill: #1c3a69;
      }

      .cls-3 {
        fill: #003770;
      }

      .cls-4 {
        fill: gray;
      }

      .cls-5 {
        fill: #de0917;
      }

      .cls-6 {
        fill: #2470b6;
      }

      .cls-7 {
        fill: #2270b6;
      }
    </style>
  </defs>
  <g>
    <path class="cls-3" d="m383.2,28.16v5.91h11.55v7.65h-11.55v6.52h13.09v8.06h-23.16V20.1h23.16v8.06h-13.09Z"/>
    <path class="cls-3" d="m411.34,18.3v38h-10.06V18.3h10.06Z"/>
    <path class="cls-3" d="m444.47,43.92h-19.05c.1,1.57.54,2.75,1.31,3.52.77.77,1.75,1.16,2.95,1.16,1.68,0,2.88-.75,3.59-2.26h10.73c-.45,1.99-1.31,3.76-2.59,5.31-1.28,1.56-2.9,2.78-4.85,3.67-1.95.89-4.11,1.33-6.47,1.33-2.84,0-5.37-.6-7.57-1.8-2.21-1.2-3.94-2.91-5.19-5.14-1.25-2.22-1.87-4.84-1.87-7.86s.62-5.62,1.85-7.83c1.23-2.21,2.95-3.91,5.16-5.11,2.21-1.2,4.75-1.8,7.63-1.8s5.36.58,7.55,1.75c2.19,1.16,3.9,2.83,5.13,5.01,1.23,2.17,1.85,4.73,1.85,7.68,0,.79-.05,1.57-.15,2.36Zm-10.12-4.88c0-1.23-.41-2.2-1.23-2.9s-1.85-1.05-3.08-1.05-2.24.33-3.03,1c-.79.67-1.3,1.65-1.54,2.95h8.88Z"/>
    <path class="cls-3" d="m448.93,34.06c1.23-2.22,2.95-3.94,5.16-5.14,2.21-1.2,4.73-1.8,7.57-1.8,3.66,0,6.74,1,9.24,3,2.5,2,4.11,4.8,4.83,8.4h-10.68c-.62-1.88-1.81-2.82-3.59-2.82-1.27,0-2.27.52-3,1.57-.74,1.04-1.1,2.58-1.1,4.6s.37,3.56,1.1,4.62c.74,1.06,1.74,1.59,3,1.59,1.81,0,3.01-.94,3.59-2.82h10.68c-.72,3.56-2.33,6.35-4.83,8.37-2.5,2.02-5.58,3.03-9.24,3.03-2.84,0-5.37-.6-7.57-1.8-2.21-1.2-3.93-2.91-5.16-5.14-1.23-2.22-1.85-4.84-1.85-7.86s.62-5.58,1.85-7.81Z"/>
    <path class="cls-3" d="m480.1,34.06c1.23-2.22,2.95-3.94,5.16-5.14,2.21-1.2,4.73-1.8,7.57-1.8,3.66,0,6.74,1,9.24,3,2.5,2,4.11,4.8,4.83,8.4h-10.68c-.62-1.88-1.81-2.82-3.59-2.82-1.27,0-2.27.52-3,1.57-.74,1.04-1.1,2.58-1.1,4.6s.37,3.56,1.1,4.62c.74,1.06,1.74,1.59,3,1.59,1.81,0,3.01-.94,3.59-2.82h10.68c-.72,3.56-2.33,6.35-4.83,8.37-2.5,2.02-5.58,3.03-9.24,3.03-2.84,0-5.37-.6-7.57-1.8-2.21-1.2-3.93-2.91-5.16-5.14-1.23-2.22-1.85-4.84-1.85-7.86s.62-5.58,1.85-7.81Z"/>
    <path class="cls-3" d="m511.86,23.36c-1.08-.98-1.62-2.2-1.62-3.67s.54-2.76,1.62-3.75c1.08-.99,2.51-1.49,4.29-1.49s3.16.5,4.24,1.49c1.08.99,1.62,2.24,1.62,3.75s-.54,2.7-1.62,3.67c-1.08.98-2.49,1.46-4.24,1.46s-3.21-.49-4.29-1.46Zm9.27,4.13v28.81h-10.06v-28.81h10.06Z"/>
    <path class="cls-3" d="m532.56,54.86c-2.28-1.2-4.07-2.91-5.37-5.14-1.3-2.22-1.95-4.84-1.95-7.86s.66-5.58,1.98-7.81c1.32-2.22,3.11-3.94,5.39-5.14,2.28-1.2,4.85-1.8,7.73-1.8s5.45.6,7.73,1.8c2.28,1.2,4.07,2.91,5.39,5.14,1.32,2.23,1.98,4.83,1.98,7.81s-.66,5.59-1.98,7.83c-1.32,2.24-3.12,3.96-5.42,5.16-2.29,1.2-4.88,1.8-7.75,1.8s-5.45-.6-7.73-1.8Zm11.25-8.5c.94-1.04,1.41-2.54,1.41-4.49s-.47-3.44-1.41-4.47c-.94-1.03-2.1-1.54-3.47-1.54s-2.52.51-3.44,1.54c-.92,1.03-1.39,2.52-1.39,4.47s.44,3.49,1.33,4.52c.89,1.03,2.04,1.54,3.44,1.54s2.58-.52,3.52-1.57Z"/>
    <path class="cls-3" d="m586.3,30.55c1.95,2.21,2.93,5.2,2.93,8.96v16.79h-10.06v-15.46c0-1.64-.43-2.94-1.28-3.88-.86-.94-2-1.41-3.44-1.41s-2.69.47-3.54,1.41c-.86.94-1.28,2.23-1.28,3.88v15.46h-10.06v-28.81h10.06v4.11c.89-1.3,2.09-2.35,3.59-3.16,1.51-.8,3.24-1.21,5.19-1.21,3.32,0,5.96,1.1,7.91,3.31Z"/>
    <path class="cls-3" d="m622.14,43.92h-19.05c.1,1.57.54,2.75,1.31,3.52.77.77,1.75,1.16,2.95,1.16,1.68,0,2.88-.75,3.59-2.26h10.73c-.45,1.99-1.31,3.76-2.59,5.31-1.28,1.56-2.9,2.78-4.85,3.67-1.95.89-4.11,1.33-6.47,1.33-2.84,0-5.37-.6-7.57-1.8-2.21-1.2-3.94-2.91-5.19-5.14-1.25-2.22-1.87-4.84-1.87-7.86s.62-5.62,1.85-7.83c1.23-2.21,2.95-3.91,5.16-5.11,2.21-1.2,4.75-1.8,7.62-1.8s5.36.58,7.55,1.75c2.19,1.16,3.9,2.83,5.14,5.01,1.23,2.17,1.85,4.73,1.85,7.68,0,.79-.05,1.57-.15,2.36Zm-10.12-4.88c0-1.23-.41-2.2-1.23-2.9s-1.85-1.05-3.08-1.05-2.24.33-3.03,1c-.79.67-1.3,1.65-1.54,2.95h8.88Z"/>
    <path class="cls-3" d="m631.72,55.35c-2.04-.87-3.65-2.07-4.83-3.59-1.18-1.52-1.84-3.24-1.98-5.16h9.76c.14.92.56,1.64,1.28,2.16.72.51,1.61.77,2.67.77.82,0,1.47-.17,1.95-.51.48-.34.72-.79.72-1.33,0-.72-.39-1.25-1.18-1.59-.79-.34-2.09-.72-3.9-1.13-2.05-.41-3.77-.87-5.13-1.39-1.37-.51-2.56-1.35-3.57-2.52-1.01-1.16-1.51-2.74-1.51-4.72,0-1.71.46-3.26,1.39-4.65.92-1.39,2.29-2.49,4.08-3.31,1.8-.82,3.96-1.23,6.5-1.23,3.77,0,6.73.92,8.88,2.77,2.16,1.85,3.41,4.28,3.75,7.29h-9.09c-.17-.92-.57-1.63-1.21-2.13-.63-.5-1.48-.74-2.54-.74-.82,0-1.45.15-1.88.46s-.64.74-.64,1.28c0,.69.39,1.21,1.18,1.57.79.36,2.05.73,3.8,1.1,2.09.45,3.83.94,5.21,1.49,1.39.55,2.6,1.43,3.65,2.65,1.04,1.22,1.57,2.87,1.57,4.96,0,1.68-.49,3.18-1.46,4.52s-2.36,2.39-4.16,3.16c-1.8.77-3.91,1.16-6.34,1.16-2.6,0-4.92-.44-6.96-1.31Z"/>
    <path class="cls-3" d="m707.64,20.1v36.2h-10.06v-19.98l-6.83,19.98h-8.42l-6.88-20.13v20.13h-10.06V20.1h12.17l9.09,23.52,8.88-23.52h12.12Z"/>
    <path class="cls-3" d="m742.87,27.49v28.81h-10.12v-4.11c-.86,1.3-2.04,2.35-3.54,3.16-1.51.81-3.24,1.21-5.19,1.21-3.36,0-6-1.1-7.93-3.31-1.93-2.21-2.9-5.21-2.9-9.01v-16.74h10.01v15.46c0,1.64.44,2.94,1.31,3.88.87.94,2.03,1.41,3.47,1.41s2.64-.47,3.49-1.41c.86-.94,1.28-2.23,1.28-3.88v-15.46h10.12Z"/>
    <path class="cls-3" d="m775.37,30.55c1.95,2.21,2.93,5.2,2.93,8.96v16.79h-10.06v-15.46c0-1.64-.43-2.94-1.28-3.88-.86-.94-2-1.41-3.44-1.41s-2.69.47-3.54,1.41c-.86.94-1.28,2.23-1.28,3.88v15.46h-10.06v-28.81h10.06v4.11c.89-1.3,2.09-2.35,3.59-3.16,1.51-.8,3.24-1.21,5.19-1.21,3.32,0,5.96,1.1,7.91,3.31Z"/>
    <path class="cls-3" d="m784.64,23.36c-1.08-.98-1.62-2.2-1.62-3.67s.54-2.76,1.62-3.75c1.08-.99,2.51-1.49,4.29-1.49s3.16.5,4.24,1.49c1.08.99,1.62,2.24,1.62,3.75s-.54,2.7-1.62,3.67c-1.08.98-2.49,1.46-4.24,1.46s-3.21-.49-4.29-1.46Zm9.27,4.13v28.81h-10.06v-28.81h10.06Z"/>
    <path class="cls-3" d="m799.87,34.06c1.23-2.22,2.95-3.94,5.16-5.14,2.21-1.2,4.73-1.8,7.57-1.8,3.66,0,6.74,1,9.24,3,2.5,2,4.11,4.8,4.83,8.4h-10.68c-.62-1.88-1.81-2.82-3.59-2.82-1.27,0-2.27.52-3,1.57-.74,1.04-1.1,2.58-1.1,4.6s.37,3.56,1.1,4.62c.74,1.06,1.74,1.59,3,1.59,1.81,0,3.01-.94,3.59-2.82h10.68c-.72,3.56-2.33,6.35-4.83,8.37-2.5,2.02-5.58,3.03-9.24,3.03-2.84,0-5.37-.6-7.57-1.8-2.21-1.2-3.93-2.91-5.16-5.14-1.23-2.22-1.85-4.84-1.85-7.86s.62-5.58,1.85-7.81Z"/>
    <path class="cls-3" d="m831.63,23.36c-1.08-.98-1.62-2.2-1.62-3.67s.54-2.76,1.62-3.75c1.08-.99,2.51-1.49,4.29-1.49s3.16.5,4.24,1.49c1.08.99,1.62,2.24,1.62,3.75s-.54,2.7-1.62,3.67c-1.08.98-2.49,1.46-4.24,1.46s-3.21-.49-4.29-1.46Zm9.27,4.13v28.81h-10.06v-28.81h10.06Z"/>
    <path class="cls-3" d="m860.05,28.31c1.44-.79,3.13-1.18,5.08-1.18,2.29,0,4.37.6,6.24,1.8,1.87,1.2,3.34,2.91,4.42,5.14,1.08,2.23,1.62,4.83,1.62,7.81s-.54,5.59-1.62,7.83c-1.08,2.24-2.55,3.96-4.42,5.16-1.87,1.2-3.95,1.8-6.24,1.8-1.95,0-3.64-.39-5.06-1.18-1.42-.79-2.54-1.85-3.36-3.18v17.77h-10.06V27.49h10.06v4.01c.79-1.34,1.9-2.4,3.34-3.18Zm5.62,9.17c-1.01-1.04-2.25-1.57-3.72-1.57s-2.71.53-3.72,1.59c-1.01,1.06-1.51,2.52-1.51,4.36s.5,3.36,1.51,4.42c1.01,1.06,2.25,1.59,3.72,1.59s2.71-.54,3.72-1.62c1.01-1.08,1.51-2.54,1.51-4.39s-.5-3.35-1.51-4.39Z"/>
    <path class="cls-3" d="m881.54,34.06c1.08-2.22,2.55-3.94,4.42-5.14,1.87-1.2,3.95-1.8,6.24-1.8,1.98,0,3.7.39,5.13,1.18,1.44.79,2.55,1.85,3.34,3.18v-4.01h10.06v28.81h-10.06v-4.01c-.79,1.33-1.91,2.4-3.36,3.18-1.46.79-3.16,1.18-5.11,1.18-2.29,0-4.37-.6-6.24-1.8-1.87-1.2-3.34-2.92-4.42-5.16-1.08-2.24-1.62-4.85-1.62-7.83s.54-5.58,1.62-7.81Zm17.61,3.44c-1.01-1.06-2.25-1.59-3.72-1.59s-2.76.52-3.75,1.57c-.99,1.04-1.49,2.51-1.49,4.39s.5,3.31,1.49,4.39c.99,1.08,2.24,1.62,3.75,1.62s2.71-.53,3.72-1.59c1.01-1.06,1.51-2.53,1.51-4.42s-.51-3.3-1.51-4.36Z"/>
    <path class="cls-3" d="m926.55,18.3v38h-10.06V18.3h10.06Z"/>
    <path class="cls-3" d="m959.67,43.92h-19.05c.1,1.57.54,2.75,1.31,3.52.77.77,1.75,1.16,2.95,1.16,1.68,0,2.88-.75,3.59-2.26h10.73c-.45,1.99-1.31,3.76-2.59,5.31-1.28,1.56-2.9,2.78-4.85,3.67-1.95.89-4.11,1.33-6.47,1.33-2.84,0-5.37-.6-7.57-1.8-2.21-1.2-3.94-2.91-5.19-5.14-1.25-2.22-1.87-4.84-1.87-7.86s.62-5.62,1.85-7.83c1.23-2.21,2.95-3.91,5.16-5.11,2.21-1.2,4.75-1.8,7.62-1.8s5.36.58,7.55,1.75c2.19,1.16,3.9,2.83,5.14,5.01,1.23,2.17,1.85,4.73,1.85,7.68,0,.79-.05,1.57-.15,2.36Zm-10.12-4.88c0-1.23-.41-2.2-1.23-2.9s-1.85-1.05-3.08-1.05-2.24.33-3.03,1c-.79.67-1.3,1.65-1.54,2.95h8.88Z"/>
    <path class="cls-3" d="m969.25,55.35c-2.04-.87-3.65-2.07-4.83-3.59-1.18-1.52-1.84-3.24-1.98-5.16h9.76c.14.92.56,1.64,1.28,2.16.72.51,1.61.77,2.67.77.82,0,1.47-.17,1.95-.51.48-.34.72-.79.72-1.33,0-.72-.39-1.25-1.18-1.59-.79-.34-2.09-.72-3.9-1.13-2.05-.41-3.77-.87-5.13-1.39-1.37-.51-2.56-1.35-3.57-2.52-1.01-1.16-1.51-2.74-1.51-4.72,0-1.71.46-3.26,1.39-4.65.92-1.39,2.29-2.49,4.08-3.31,1.8-.82,3.96-1.23,6.5-1.23,3.77,0,6.73.92,8.88,2.77,2.16,1.85,3.41,4.28,3.75,7.29h-9.09c-.17-.92-.57-1.63-1.21-2.13-.63-.5-1.48-.74-2.54-.74-.82,0-1.45.15-1.88.46s-.64.74-.64,1.28c0,.69.39,1.21,1.18,1.57.79.36,2.05.73,3.8,1.1,2.09.45,3.83.94,5.21,1.49,1.39.55,2.6,1.43,3.65,2.65,1.04,1.22,1.57,2.87,1.57,4.96,0,1.68-.49,3.18-1.46,4.52s-2.36,2.39-4.16,3.16c-1.8.77-3.91,1.16-6.34,1.16-2.6,0-4.92-.44-6.96-1.31Z"/>
    <path class="cls-3" d="m374.14,90.22c1.49-2.79,3.6-4.96,6.34-6.52,2.74-1.56,5.89-2.34,9.45-2.34,4.52,0,8.32,1.21,11.4,3.62s5.07,5.69,5.96,9.83h-10.83c-.65-1.37-1.55-2.41-2.7-3.13-1.15-.72-2.47-1.08-3.98-1.08-2.33,0-4.19.83-5.57,2.49-1.39,1.66-2.08,3.88-2.08,6.65s.69,5.04,2.08,6.7c1.39,1.66,3.24,2.49,5.57,2.49,1.51,0,2.83-.36,3.98-1.08s2.05-1.76,2.7-3.13h10.83c-.89,4.14-2.88,7.42-5.96,9.83-3.08,2.41-6.88,3.62-11.4,3.62-3.56,0-6.71-.78-9.45-2.34-2.74-1.56-4.85-3.73-6.34-6.52-1.49-2.79-2.23-5.98-2.23-9.58s.74-6.74,2.23-9.53Z"/>
    <path class="cls-3" d="m417.74,116.48c-2.28-1.2-4.07-2.91-5.37-5.14-1.3-2.22-1.95-4.84-1.95-7.86s.66-5.58,1.98-7.81c1.32-2.22,3.11-3.94,5.39-5.14,2.28-1.2,4.85-1.8,7.73-1.8s5.45.6,7.73,1.8c2.28,1.2,4.07,2.91,5.39,5.14,1.32,2.23,1.98,4.83,1.98,7.81s-.66,5.59-1.98,7.83c-1.32,2.24-3.12,3.96-5.42,5.16-2.29,1.2-4.88,1.8-7.75,1.8s-5.45-.6-7.73-1.8Zm11.25-8.5c.94-1.04,1.41-2.54,1.41-4.49s-.47-3.44-1.41-4.47c-.94-1.03-2.1-1.54-3.47-1.54s-2.52.51-3.44,1.54c-.92,1.03-1.39,2.52-1.39,4.47s.44,3.49,1.33,4.52c.89,1.03,2.04,1.54,3.44,1.54s2.58-.52,3.52-1.57Z"/>
    <path class="cls-3" d="m490.91,92.14c2.07,2.19,3.11,5.19,3.11,8.99v16.79h-10.06v-15.46c0-1.54-.43-2.74-1.28-3.59-.86-.86-2.02-1.28-3.49-1.28s-2.64.43-3.49,1.28c-.86.86-1.28,2.05-1.28,3.59v15.46h-10.06v-15.46c0-1.54-.42-2.74-1.26-3.59-.84-.86-1.99-1.28-3.47-1.28s-2.69.43-3.54,1.28c-.86.86-1.28,2.05-1.28,3.59v15.46h-10.06v-28.81h10.06v3.8c.89-1.23,2.05-2.22,3.47-2.95,1.42-.74,3.06-1.1,4.9-1.1,2.12,0,4.01.46,5.67,1.39,1.66.92,2.97,2.23,3.93,3.9,1.03-1.57,2.38-2.85,4.06-3.83,1.68-.98,3.53-1.46,5.55-1.46,3.63,0,6.48,1.1,8.55,3.29Z"/>
    <path class="cls-3" d="m512.92,89.94c1.44-.79,3.13-1.18,5.08-1.18,2.29,0,4.37.6,6.24,1.8,1.87,1.2,3.34,2.91,4.42,5.14,1.08,2.23,1.62,4.83,1.62,7.81s-.54,5.59-1.62,7.83c-1.08,2.24-2.55,3.96-4.42,5.16-1.87,1.2-3.95,1.8-6.24,1.8-1.95,0-3.64-.39-5.06-1.18-1.42-.79-2.54-1.85-3.36-3.18v17.77h-10.06v-42.57h10.06v4.01c.79-1.34,1.9-2.4,3.34-3.18Zm5.62,9.17c-1.01-1.04-2.25-1.57-3.72-1.57s-2.71.53-3.72,1.59c-1.01,1.06-1.51,2.52-1.51,4.36s.5,3.36,1.51,4.42c1.01,1.06,2.25,1.59,3.72,1.59s2.71-.54,3.72-1.62c1.01-1.08,1.51-2.54,1.51-4.39s-.5-3.35-1.51-4.39Z"/>
    <path class="cls-3" d="m544.5,79.92v38h-10.06v-38h10.06Z"/>
    <path class="cls-3" d="m577.62,105.55h-19.05c.1,1.57.54,2.75,1.31,3.52.77.77,1.75,1.16,2.95,1.16,1.68,0,2.88-.75,3.59-2.26h10.73c-.45,1.99-1.31,3.76-2.59,5.31-1.28,1.56-2.9,2.78-4.85,3.67-1.95.89-4.11,1.33-6.47,1.33-2.84,0-5.37-.6-7.57-1.8-2.21-1.2-3.94-2.91-5.19-5.14-1.25-2.22-1.87-4.84-1.87-7.86s.62-5.62,1.85-7.83c1.23-2.21,2.95-3.91,5.16-5.11,2.21-1.2,4.75-1.8,7.62-1.8s5.36.58,7.55,1.75c2.19,1.16,3.9,2.83,5.14,5.01,1.23,2.17,1.85,4.73,1.85,7.68,0,.79-.05,1.57-.15,2.36Zm-10.12-4.88c0-1.23-.41-2.2-1.23-2.9s-1.85-1.05-3.08-1.05-2.24.33-3.03,1c-.79.67-1.3,1.65-1.54,2.95h8.88Z"/>
    <path class="cls-3" d="m628.07,92.14c2.07,2.19,3.11,5.19,3.11,8.99v16.79h-10.06v-15.46c0-1.54-.43-2.74-1.28-3.59-.86-.86-2.02-1.28-3.49-1.28s-2.64.43-3.49,1.28c-.86.86-1.28,2.05-1.28,3.59v15.46h-10.06v-15.46c0-1.54-.42-2.74-1.26-3.59-.84-.86-1.99-1.28-3.47-1.28s-2.69.43-3.54,1.28c-.86.86-1.28,2.05-1.28,3.59v15.46h-10.06v-28.81h10.06v3.8c.89-1.23,2.04-2.22,3.47-2.95,1.42-.74,3.05-1.1,4.9-1.1,2.12,0,4.01.46,5.67,1.39,1.66.92,2.97,2.23,3.93,3.9,1.03-1.57,2.38-2.85,4.06-3.83,1.68-.98,3.53-1.46,5.55-1.46,3.63,0,6.48,1.1,8.55,3.29Z"/>
    <path class="cls-3" d="m664.04,105.55h-19.05c.1,1.57.54,2.75,1.31,3.52.77.77,1.75,1.16,2.95,1.16,1.68,0,2.88-.75,3.59-2.26h10.73c-.45,1.99-1.31,3.76-2.59,5.31-1.28,1.56-2.9,2.78-4.85,3.67-1.95.89-4.11,1.33-6.47,1.33-2.84,0-5.37-.6-7.57-1.8-2.21-1.2-3.94-2.91-5.19-5.14-1.25-2.22-1.87-4.84-1.87-7.86s.62-5.62,1.85-7.83c1.23-2.21,2.95-3.91,5.16-5.11,2.21-1.2,4.75-1.8,7.62-1.8s5.36.58,7.55,1.75c2.19,1.16,3.9,2.83,5.14,5.01,1.23,2.17,1.85,4.73,1.85,7.68,0,.79-.05,1.57-.15,2.36Zm-10.12-4.88c0-1.23-.41-2.2-1.23-2.9s-1.85-1.05-3.08-1.05-2.24.33-3.03,1c-.79.67-1.3,1.65-1.54,2.95h8.88Z"/>
    <path class="cls-3" d="m695.06,92.17c1.95,2.21,2.93,5.2,2.93,8.96v16.79h-10.06v-15.46c0-1.64-.43-2.94-1.28-3.88-.86-.94-2-1.41-3.44-1.41s-2.69.47-3.54,1.41c-.86.94-1.28,2.23-1.28,3.88v15.46h-10.06v-28.81h10.06v4.11c.89-1.3,2.09-2.35,3.59-3.16,1.51-.8,3.24-1.21,5.19-1.21,3.32,0,5.96,1.1,7.91,3.31Z"/>
    <path class="cls-3" d="m720.53,109.35v8.58h-4.37c-7.36,0-11.04-3.65-11.04-10.94v-9.5h-3.54v-8.37h3.54v-6.98h10.12v6.98h5.24v8.37h-5.24v9.65c0,.79.18,1.35.54,1.69.36.34.97.51,1.82.51h2.93Z"/>
    <path class="cls-3" d="m725.12,95.69c1.08-2.22,2.55-3.94,4.42-5.14,1.87-1.2,3.95-1.8,6.24-1.8,1.98,0,3.7.39,5.13,1.18,1.44.79,2.55,1.85,3.34,3.18v-4.01h10.06v28.81h-10.06v-4.01c-.79,1.33-1.91,2.4-3.36,3.18-1.46.79-3.16,1.18-5.11,1.18-2.29,0-4.37-.6-6.24-1.8-1.87-1.2-3.34-2.92-4.42-5.16-1.08-2.24-1.62-4.85-1.62-7.83s.54-5.58,1.62-7.81Zm17.61,3.44c-1.01-1.06-2.25-1.59-3.72-1.59s-2.76.52-3.75,1.57c-.99,1.04-1.49,2.51-1.49,4.39s.5,3.31,1.49,4.39c.99,1.08,2.24,1.62,3.75,1.62s2.71-.53,3.72-1.59c1.01-1.06,1.51-2.53,1.51-4.42s-.51-3.3-1.51-4.36Z"/>
    <path class="cls-3" d="m774.24,90.29c1.61-.96,3.34-1.44,5.19-1.44v10.73h-2.82c-2.19,0-3.82.43-4.88,1.28-1.06.86-1.59,2.35-1.59,4.47v12.58h-10.06v-28.81h10.06v5.08c1.13-1.64,2.5-2.94,4.11-3.9Z"/>
    <path class="cls-3" d="m783.82,84.98c-1.08-.98-1.62-2.2-1.62-3.67s.54-2.76,1.62-3.75c1.08-.99,2.51-1.49,4.29-1.49s3.16.5,4.24,1.49c1.08.99,1.62,2.24,1.62,3.75s-.54,2.7-1.62,3.67c-1.08.98-2.49,1.46-4.24,1.46s-3.21-.49-4.29-1.46Zm9.27,4.13v28.81h-10.06v-28.81h10.06Z"/>
    <path class="cls-3" d="m798.81,95.69c1.08-2.22,2.55-3.94,4.42-5.14,1.87-1.2,3.95-1.8,6.24-1.8,1.98,0,3.7.39,5.13,1.18,1.44.79,2.55,1.85,3.34,3.18v-4.01h10.06v28.81h-10.06v-4.01c-.79,1.33-1.91,2.4-3.36,3.18-1.46.79-3.16,1.18-5.11,1.18-2.29,0-4.37-.6-6.24-1.8-1.87-1.2-3.34-2.92-4.42-5.16-1.08-2.24-1.62-4.85-1.62-7.83s.54-5.58,1.62-7.81Zm17.61,3.44c-1.01-1.06-2.25-1.59-3.72-1.59s-2.76.52-3.75,1.57c-.99,1.04-1.49,2.51-1.49,4.39s.5,3.31,1.49,4.39c.99,1.08,2.24,1.62,3.75,1.62s2.71-.53,3.72-1.59c1.01-1.06,1.51-2.53,1.51-4.42s-.51-3.3-1.51-4.36Z"/>
    <path class="cls-3" d="m839.07,116.97c-2.04-.87-3.65-2.07-4.83-3.59-1.18-1.52-1.84-3.24-1.98-5.16h9.76c.14.92.56,1.64,1.28,2.16.72.51,1.61.77,2.67.77.82,0,1.47-.17,1.95-.51.48-.34.72-.79.72-1.33,0-.72-.39-1.25-1.18-1.59-.79-.34-2.09-.72-3.9-1.13-2.05-.41-3.77-.87-5.13-1.39-1.37-.51-2.56-1.35-3.57-2.52-1.01-1.16-1.51-2.74-1.51-4.72,0-1.71.46-3.26,1.39-4.65.92-1.39,2.29-2.49,4.08-3.31,1.8-.82,3.96-1.23,6.5-1.23,3.77,0,6.73.92,8.88,2.77,2.16,1.85,3.41,4.28,3.75,7.29h-9.09c-.17-.92-.57-1.63-1.21-2.13-.63-.5-1.48-.74-2.54-.74-.82,0-1.45.15-1.88.46s-.64.74-.64,1.28c0,.69.39,1.21,1.18,1.57.79.36,2.05.73,3.8,1.1,2.09.45,3.83.94,5.21,1.49,1.39.55,2.6,1.43,3.65,2.65,1.04,1.22,1.57,2.87,1.57,4.96,0,1.68-.49,3.18-1.46,4.52s-2.36,2.39-4.16,3.16c-1.8.77-3.91,1.16-6.34,1.16-2.6,0-4.92-.44-6.96-1.31Z"/>
  </g>
  <g>
    <path class="cls-4" d="m210.53,46.77c-.94,2.15-1.89,4.02-2.67,5.42-.51.91-1.89.56-1.89-.49,0,0-.17-1.03-.39-2.3l13.06,80.89-56.02,8.11.82,5.06,61.27-8.83-14.18-87.85Z"/>
    <path class="cls-2" d="m20.58,189.62c-6.9-6.94-10.35-16.78-10.35-29.53s3.45-22.59,10.35-29.53c6.9-6.94,17.02-10.41,30.37-10.41s23.47,3.47,30.37,10.41c6.9,6.94,10.35,16.78,10.35,29.53s-3.45,22.59-10.35,29.53c-6.9,6.94-17.03,10.41-30.37,10.41s-23.47-3.47-30.37-10.41Zm40.95-13.73c2.17-3.49,3.26-8.75,3.26-15.81s-1.09-12.41-3.26-15.86c-2.18-3.45-5.7-5.17-10.57-5.17s-8.4,1.73-10.57,5.17c-2.18,3.45-3.26,8.74-3.26,15.86s1.09,12.32,3.26,15.81c2.17,3.49,5.7,5.23,10.57,5.23s8.4-1.74,10.57-5.23Z"/>
    <path class="cls-2" d="m102.76,198.34c-1.04-1.09-1.56-2.77-1.56-5.04v-66.39c0-2.26.52-3.92,1.56-4.98,1.04-1.05,2.87-1.58,5.5-1.58h10.99c1.62,0,2.87.22,3.76.64.89.43,1.75,1.27,2.6,2.52l20.94,31.5v-27.98c0-2.26.52-3.94,1.56-5.03,1.04-1.09,2.83-1.64,5.38-1.64h13.77c2.62,0,4.45.53,5.5,1.58,1.04,1.05,1.56,2.75,1.56,5.09v66.39c0,2.26-.52,3.92-1.56,4.98-1.04,1.05-2.87,1.58-5.5,1.58h-10.99c-1.62,0-2.87-.21-3.76-.64-.89-.43-1.75-1.27-2.6-2.52l-20.94-31.5v28.1c0,2.26-.52,3.92-1.56,4.98-1.04,1.05-2.87,1.58-5.5,1.58h-13.77c-2.55,0-4.34-.55-5.38-1.64Z"/>
    <path class="cls-2" d="m186.34,198.34c-1.07-1.09-1.6-2.77-1.6-5.04v-66.27c0-2.26.53-3.94,1.6-5.03,1.07-1.09,2.9-1.64,5.51-1.64h28.34c11.86,0,20.49,2.32,25.91,6.97,5.41,4.64,8.12,11.65,8.12,21.02s-2.71,16.35-8.12,20.96c-5.42,4.61-14.01,6.91-25.79,6.91h-7.11v17.09c0,2.26-.53,3.94-1.6,5.04s-2.95,1.64-5.63,1.64h-14.11c-2.61,0-4.45-.55-5.51-1.64Zm31.37-42.03c2.53,0,4.52-.66,5.99-1.99,1.46-1.33,2.19-3.32,2.19-5.97s-.73-4.76-2.19-6.09c-1.46-1.33-3.46-1.99-5.99-1.99h-8.06v16.04h8.06Z"/>
    <path class="cls-2" d="m266.07,198.34c-1.05-1.09-1.58-2.77-1.58-5.04v-66.27c0-2.26.53-3.94,1.58-5.03,1.05-1.09,2.87-1.64,5.44-1.64h43.11c2.5,0,4.19.53,5.09,1.58.9,1.05,1.35,2.75,1.35,5.09v6.56c0,2.34-.45,4.04-1.35,5.09-.9,1.05-2.6,1.58-5.09,1.58h-22.04v10.07h15.79c2.5,0,4.19.53,5.09,1.58.9,1.05,1.35,2.75,1.35,5.09v6.32c0,2.34-.45,4.04-1.35,5.09-.9,1.05-2.6,1.58-5.09,1.58h-15.79v10.07h21.92c2.5,0,4.19.53,5.09,1.58.9,1.05,1.35,2.75,1.35,5.09v6.56c0,2.34-.45,4.04-1.35,5.09-.9,1.05-2.6,1.58-5.09,1.58h-42.99c-2.58,0-4.39-.55-5.44-1.64Z"/>
    <g>
      <path class="cls-1" d="m205.58,49.4c-.17-1-.36-2.16-.52-3.07-.35-2.08,4.8-9.12,4.86-17.77.04-5.74-3.31-11.01-5.53-13.1-.66-.62-.2-1.72.7-1.72l-83.97.02-.02.14c.1.09.19.18.25.29.61,1.15-.92,14.28,1.5,33.08,1.69,13.08,6.86,38.59,6.86,38.59.58,3.15,3.74,5.17,6.89,4.3,2.82-.78,4.39-3.81,3.86-6.69l-3.56-19.25,7.99-2.35,5.52,29.88c.58,3.15,3.74,5.17,6.89,4.3,2.82-.78,4.39-3.81,3.86-6.69l-5.66-30.61,7.99-2.35,7.83,42.37c.58,3.15,3.74,5.17,6.89,4.3,2.82-.78,4.39-3.81,3.86-6.69l-7.97-43.11,7.98-2.35,7.3,39.49c.58,3.15,3.74,5.17,6.89,4.3,2.82-.78,4.39-3.81,3.86-6.69l-9.36-50.64s.02-.1.07-.1l4.56-.84s.1.02.1.07l9.89,53.5c.79,4.3-2.05,8.43-6.34,9.22l-.04-.06c-.21.06-.41.14-.64.19l-3.4.63c-3.76.69-7.39-1.39-8.77-4.8-.04-.1-.18-.07-.16.04l.59,3.17c.8,4.35-2.07,8.52-6.42,9.33l-3.22.6c-4.35.8-8.52-2.07-9.33-6.42l-1.64-8.86c-.02-.11-.16-.09-.16.02-.07,3.68-2.72,6.93-6.48,7.62l-3.31.61c-1.77.33-3.51.04-5.01-.71l6.23,38.57,61.31-8.87-13.06-80.89Z"/>
      <path class="cls-5" d="m156.11,101.3l3.31-.61c3.76-.69,6.4-3.94,6.48-7.62,0-.11.14-.12.16-.02l1.64,8.86c.8,4.35,4.98,7.22,9.33,6.42l3.22-.6c4.35-.8,7.22-4.98,6.42-9.33l-.59-3.17c-.02-.11.12-.14.16-.04,1.38,3.41,5.01,5.5,8.77,4.8l3.4-.63c.22-.04.42-.13.64-.19l.04.06c4.3-.79,7.14-4.92,6.34-9.22l-9.89-53.5s-.06-.08-.1-.07l-4.56.84s-.08.06-.07.1l9.36,50.64c.53,2.88-1.04,5.91-3.86,6.69-3.16.87-6.31-1.15-6.89-4.3l-7.3-39.49-7.98,2.35,7.97,43.11c.53,2.88-1.04,5.91-3.86,6.69-3.16.87-6.31-1.15-6.89-4.3l-7.83-42.37-7.99,2.35,5.66,30.61c.53,2.87-1.04,5.91-3.86,6.69-3.16.87-6.31-1.15-6.89-4.3l-5.52-29.88-7.99,2.35,3.56,19.25c.53,2.87-1.04,5.91-3.86,6.69-3.16.87-6.31-1.15-6.89-4.3,0,0-5.17-25.51-6.86-38.59-2.43-18.8-.9-31.93-1.5-33.08-.06-.11-.14-.2-.25-.29-.98-.86-3.8-.81-4.44.21-.7,1.12-.87,18.89,1.14,33.32,1.8,12.99,7.63,41.79,7.63,41.79.79,4.3,4.92,7.14,9.22,6.34l.67-.12,2.73-.5.67-.12c3.76-.69,6.4-3.94,6.48-7.62,0-.11.14-.12.16-.02l1.43,7.72c.48,2.57,2.14,4.62,4.31,5.71,1.5.75,3.24,1.04,5.01.71Z"/>
      <polygon class="cls-5" points="205.1 13.73 205.1 13.73 206.88 13.73 205.1 13.73"/>
      <path class="cls-5" d="m214.26,22.71s-1.13-5.58-4.98-8.75c-.19-.15-.43-.23-.67-.23h-3.52c-.9,0-1.36,1.1-.7,1.72,2.22,2.09,5.57,7.36,5.53,13.1-.06,8.65-5.21,15.69-4.86,17.77.15.92.35,2.07.52,3.07,0,0,0,0,0,0,.21,1.27.39,2.3.39,2.3,0,1.04,1.38,1.4,1.89.49.78-1.4,1.73-3.27,2.67-5.42,3.03-6.92,6.06-16.82,3.73-24.06Z"/>
    </g>
  </g>
  <path class="cls-6" d="m651.9,199.91h-273.72c-4.78,0-8.66-3.89-8.66-8.66v-39.21c0-4.77,3.89-8.66,8.66-8.66h273.72c4.78,0,8.66,3.89,8.66,8.66v39.21c0,4.78-3.89,8.66-8.66,8.66Zm-273.72-55.03c-3.95,0-7.16,3.21-7.16,7.16v39.21c0,3.95,3.21,7.16,7.16,7.16h273.72c3.95,0,7.16-3.21,7.16-7.16v-39.21c0-3.95-3.21-7.16-7.16-7.16h-273.72Z"/>
  <g>
    <path class="cls-7" d="m391.78,177.43c1.9-1.57,3.4-2.87,4.5-3.88,1.1-1.01,2.02-2.07,2.78-3.18.76-1.11,1.14-2.19,1.14-3.23,0-.8-.19-1.42-.55-1.86-.37-.45-.92-.67-1.66-.67s-1.32.28-1.73.83c-.42.55-.63,1.34-.63,2.35h-4.81c.04-1.65.39-3.03,1.06-4.14.67-1.11,1.55-1.92,2.65-2.45,1.1-.52,2.32-.79,3.66-.79,2.31,0,4.05.59,5.23,1.78,1.17,1.19,1.76,2.73,1.76,4.63,0,2.08-.71,4.01-2.13,5.78-1.42,1.78-3.22,3.51-5.42,5.2h7.87v4.05h-14.63v-3.7c.66-.52.96-.77.9-.73Z"/>
    <path class="cls-7" d="m414.32,169.59c.63-1.26,1.49-2.23,2.58-2.91,1.09-.68,2.3-1.02,3.64-1.02,1.07,0,2.04.22,2.93.67.88.45,1.58,1.05,2.08,1.81v-7.55h4.98v21.56h-4.98v-2.33c-.47.78-1.13,1.4-2,1.86-.86.47-1.87.7-3.02.7-1.34,0-2.55-.34-3.64-1.03-1.09-.69-1.95-1.67-2.58-2.94-.63-1.27-.95-2.74-.95-4.41s.32-3.14.95-4.4Zm10.2,1.49c-.69-.72-1.53-1.08-2.52-1.08s-1.83.35-2.52,1.06c-.69.71-1.03,1.69-1.03,2.93s.34,2.23,1.03,2.96,1.53,1.09,2.52,1.09,1.83-.36,2.52-1.08c.69-.72,1.03-1.7,1.03-2.94s-.34-2.22-1.03-2.94Z"/>
    <path class="cls-7" d="m449.39,175.21h-11.28c.08,1.01.4,1.78.98,2.32s1.28.8,2.11.8c1.24,0,2.11-.52,2.59-1.57h5.3c-.27,1.07-.76,2.03-1.47,2.88-.71.85-1.6,1.53-2.67,2.01-1.07.49-2.26.73-3.58.73-1.59,0-3.01-.34-4.25-1.02-1.24-.68-2.21-1.65-2.91-2.91-.7-1.26-1.05-2.74-1.05-4.43s.34-3.17,1.03-4.43,1.66-2.23,2.9-2.91c1.24-.68,2.67-1.02,4.28-1.02s2.97.33,4.2.99c1.22.66,2.18,1.6,2.87,2.83.69,1.22,1.03,2.65,1.03,4.28,0,.47-.03.95-.09,1.46Zm-5.01-2.77c0-.85-.29-1.53-.87-2.04-.58-.5-1.31-.76-2.19-.76s-1.54.24-2.11.73c-.57.49-.93,1.18-1.06,2.07h6.24Z"/>
    <path class="cls-7" d="m463.26,184.25c0,2-.51,3.44-1.52,4.33-1.01.88-2.42,1.33-4.23,1.33h-1.95v-4.23h1.19c.54,0,.93-.11,1.17-.32.23-.21.35-.56.35-1.05v-18.42h4.98v18.36Zm-4.65-20.82c-.55-.51-.83-1.15-.83-1.91s.28-1.42.83-1.94,1.27-.77,2.14-.77,1.56.26,2.11.77c.55.51.83,1.16.83,1.94s-.28,1.39-.83,1.91c-.55.51-1.26.77-2.11.77s-1.59-.26-2.14-.77Z"/>
    <path class="cls-7" d="m482.9,165.89v16.26h-4.98v-2.21c-.51.72-1.19,1.3-2.05,1.73-.86.44-1.82.66-2.87.66-1.24,0-2.34-.28-3.29-.83-.95-.55-1.69-1.35-2.21-2.4-.52-1.05-.79-2.28-.79-3.7v-9.5h4.95v8.83c0,1.09.28,1.93.84,2.54s1.32.9,2.27.9,1.74-.3,2.3-.9.85-1.45.85-2.54v-8.83h4.98Z"/>
    <path class="cls-7" d="m491.46,160.59v21.56h-4.98v-21.56h4.98Z"/>
    <path class="cls-7" d="m495.44,163.43c-.55-.51-.83-1.15-.83-1.91s.28-1.42.83-1.94c.55-.51,1.27-.77,2.14-.77s1.56.26,2.11.77c.55.51.83,1.16.83,1.94s-.28,1.39-.83,1.91c-.55.51-1.26.77-2.11.77s-1.59-.26-2.14-.77Zm4.62,2.46v16.26h-4.98v-16.26h4.98Z"/>
    <path class="cls-7" d="m506.77,181.36c-1.27-.68-2.27-1.65-3-2.91-.73-1.26-1.09-2.74-1.09-4.43s.37-3.14,1.11-4.41,1.75-2.25,3.03-2.93c1.28-.68,2.72-1.02,4.31-1.02s3.03.34,4.31,1.02c1.28.68,2.29,1.66,3.03,2.93s1.11,2.74,1.11,4.41-.37,3.14-1.12,4.41c-.75,1.27-1.77,2.25-3.06,2.93-1.29.68-2.73,1.02-4.33,1.02s-3.03-.34-4.3-1.02Zm6.73-4.34c.67-.7,1-1.7,1-3s-.33-2.3-.98-3c-.65-.7-1.45-1.05-2.4-1.05s-1.78.35-2.42,1.03c-.64.69-.96,1.69-.96,3.02s.32,2.3.95,3c.63.7,1.42,1.05,2.37,1.05s1.76-.35,2.43-1.05Z"/>
    <path class="cls-7" d="m528.36,169.59c.63-1.26,1.49-2.23,2.58-2.91,1.09-.68,2.3-1.02,3.64-1.02,1.07,0,2.04.22,2.93.67.88.45,1.58,1.05,2.08,1.81v-7.55h4.98v21.56h-4.98v-2.33c-.47.78-1.13,1.4-2,1.86s-1.87.7-3.02.7c-1.34,0-2.55-.34-3.64-1.03-1.09-.69-1.95-1.67-2.58-2.94-.63-1.27-.95-2.74-.95-4.41s.32-3.14.95-4.4Zm10.2,1.49c-.69-.72-1.53-1.08-2.52-1.08s-1.83.35-2.52,1.06c-.69.71-1.03,1.69-1.03,2.93s.34,2.23,1.03,2.96,1.53,1.09,2.52,1.09,1.83-.36,2.52-1.08c.69-.72,1.03-1.7,1.03-2.94s-.34-2.22-1.03-2.94Z"/>
    <path class="cls-7" d="m563.43,175.21h-11.28c.08,1.01.4,1.78.98,2.32s1.28.8,2.11.8c1.24,0,2.11-.52,2.59-1.57h5.3c-.27,1.07-.76,2.03-1.47,2.88-.71.85-1.6,1.53-2.67,2.01s-2.26.73-3.58.73c-1.59,0-3.01-.34-4.25-1.02-1.24-.68-2.21-1.65-2.91-2.91-.7-1.26-1.05-2.74-1.05-4.43s.34-3.17,1.04-4.43c.69-1.26,1.66-2.23,2.9-2.91,1.24-.68,2.67-1.02,4.28-1.02s2.97.33,4.2.99c1.22.66,2.18,1.6,2.87,2.83s1.03,2.65,1.03,4.28c0,.47-.03.95-.09,1.46Zm-5.01-2.77c0-.85-.29-1.53-.88-2.04-.58-.5-1.31-.76-2.18-.76s-1.54.24-2.11.73c-.57.49-.93,1.18-1.06,2.07h6.24Z"/>
    <path class="cls-7" d="m572.55,177.43c1.9-1.57,3.4-2.87,4.5-3.88,1.1-1.01,2.03-2.07,2.78-3.18.76-1.11,1.14-2.19,1.14-3.23,0-.8-.18-1.42-.55-1.86-.37-.45-.92-.67-1.66-.67s-1.32.28-1.73.83c-.42.55-.63,1.34-.63,2.35h-4.81c.04-1.65.39-3.03,1.06-4.14.67-1.11,1.55-1.92,2.65-2.45s2.32-.79,3.66-.79c2.31,0,4.05.59,5.23,1.78,1.18,1.19,1.76,2.73,1.76,4.63,0,2.08-.71,4.01-2.13,5.78s-3.22,3.51-5.42,5.2h7.87v4.05h-14.63v-3.7c.66-.52.96-.77.9-.73Z"/>
    <path class="cls-7" d="m590.4,163.33c1.29-1.92,3.38-2.88,6.25-2.88s4.96.96,6.25,2.88c1.29,1.92,1.94,4.56,1.94,7.9s-.65,6.03-1.94,7.95c-1.29,1.92-3.38,2.88-6.25,2.88s-4.96-.96-6.25-2.88c-1.29-1.92-1.94-4.57-1.94-7.95s.65-5.97,1.94-7.9Zm8.9,3.37c-.43-1.06-1.31-1.59-2.65-1.59s-2.22.53-2.65,1.59c-.43,1.06-.64,2.57-.64,4.53,0,1.32.08,2.41.23,3.28.16.86.47,1.56.95,2.1.48.53,1.18.8,2.11.8s1.64-.27,2.11-.8c.48-.53.79-1.23.95-2.1.16-.86.23-1.96.23-3.28,0-1.96-.21-3.47-.64-4.53Z"/>
    <path class="cls-7" d="m608.19,177.43c1.9-1.57,3.4-2.87,4.5-3.88,1.1-1.01,2.03-2.07,2.78-3.18.76-1.11,1.14-2.19,1.14-3.23,0-.8-.18-1.42-.55-1.86-.37-.45-.92-.67-1.66-.67s-1.32.28-1.73.83c-.42.55-.63,1.34-.63,2.35h-4.81c.04-1.65.39-3.03,1.06-4.14.67-1.11,1.55-1.92,2.65-2.45s2.32-.79,3.66-.79c2.31,0,4.05.59,5.23,1.78,1.18,1.19,1.76,2.73,1.76,4.63,0,2.08-.71,4.01-2.13,5.78s-3.22,3.51-5.42,5.2h7.87v4.05h-14.63v-3.7c.66-.52.96-.77.9-.73Z"/>
    <path class="cls-7" d="m626.31,162.07c1.28-1.13,3.02-1.69,5.22-1.69,1.46,0,2.71.25,3.74.76,1.04.51,1.83,1.19,2.36,2.07s.8,1.86.8,2.94c0,1.28-.32,2.33-.96,3.13-.64.81-1.39,1.35-2.24,1.65v.12c1.11.37,1.98.98,2.62,1.84.64.85.96,1.95.96,3.29,0,1.2-.28,2.27-.83,3.19-.55.92-1.36,1.65-2.42,2.17s-2.32.79-3.77.79c-2.33,0-4.19-.57-5.58-1.72-1.39-1.15-2.12-2.87-2.2-5.19h4.84c.02.85.26,1.53.73,2.03.47.5,1.15.74,2.04.74.76,0,1.34-.22,1.76-.66.42-.44.63-1.02.63-1.73,0-.93-.3-1.61-.89-2.02-.59-.42-1.54-.63-2.84-.63h-.93v-4.05h.93c.99,0,1.79-.17,2.4-.51.61-.34.92-.95.92-1.82,0-.7-.19-1.24-.58-1.63-.39-.39-.92-.58-1.6-.58-.74,0-1.29.22-1.65.67s-.57,1-.63,1.66h-4.87c.08-2.08.76-3.68,2.04-4.81Z"/>
  </g>
</svg>