<svg id="Componente_47_592" data-name="Componente 47 – 592" xmlns="http://www.w3.org/2000/svg" width="18.417" height="25.484" viewBox="0 0 18.417 25.484">
  <path id="Trazado_937" data-name="Trazado 937" d="M18.416-1.991Q9.569-2.01.721-1.991A5.7,5.7,0,0,0,0-1.943v2.1s.067,17.9.07,22.058a2.118,2.118,0,0,0,.052.528.951.951,0,0,0,1,.73,1.861,1.861,0,0,0,.675-.221q3.591-1.9,7.171-3.822a.5.5,0,0,1,.544,0q3.566,1.915,7.141,3.812c.092.049.183.1.279.143a1.029,1.029,0,0,0,1.478-.918c.006-.115,0-.23,0-.345,0-8.126,0-24.112,0-24.112" transform="translate(0 2)" fill="#e4e4e4"/>
  <path id="Trazado_938" data-name="Trazado 938" d="M57.861,56.155,59.75,60.16l4.393.559-3.226,3.034.826,4.351-3.882-2.13L53.979,68.1l.826-4.351-3.226-3.034,4.393-.559Z" transform="translate(-48.417 -52.443)" fill="#fff"/>
</svg>
