<svg xmlns="http://www.w3.org/2000/svg" xmlns:xlink="http://www.w3.org/1999/xlink" width="1923.62" height="1080" viewBox="0 0 1923.62 1080">
  <defs>
    <clipPath id="clip-path">
      <rect id="Rectángulo_375" data-name="Rectángulo 375" width="1923.62" height="1080" transform="translate(-28.62)" fill="none"/>
    </clipPath>
    <clipPath id="clip-path-2">
      <rect id="Rectángulo_1166" data-name="Rectángulo 1166" width="890.592" height="1668.319" fill="none"/>
    </clipPath>
    <clipPath id="clip-path-3">
      <rect id="Rectángulo_1167" data-name="Rectángulo 1167" width="36.543" height="76.246" fill="none"/>
    </clipPath>
    <clipPath id="clip-path-5">
      <rect id="Rectángulo_1169" data-name="Rectángulo 1169" width="62.174" height="275.04" fill="none"/>
    </clipPath>
  </defs>
  <g id="Grupo_1864" data-name="Grupo 1864" transform="translate(28.62)" opacity="0.9">
    <g id="Grupo_279" data-name="Grupo 279" clip-path="url(#clip-path)">
      <g id="Grupo_1644" data-name="Grupo 1644" transform="translate(931.381)">
        <g id="Grupo_1635" data-name="Grupo 1635">
          <g id="Grupo_1634" data-name="Grupo 1634" clip-path="url(#clip-path-2)">
            <path id="Trazado_1739" data-name="Trazado 1739" d="M520.811,621.342c-55.061,0-125.65-5.466-202.026-16.654C151.461,580.179,18.57,537.38,17.778,508.144v-.51a10.907,10.907,0,0,1,.1-1.125c1.952-13.371,32.6-21.353,81.559-23.717a35.612,35.612,0,0,0-3.666,7.126,12.687,12.687,0,0,0-.472,7.83H92.611l.013,9.747H297.175v-9.747h-1.48a12.966,12.966,0,0,0,.358-4.227q18.831,2.357,38.239,5.2c167.336,24.5,300.24,67.307,301.007,96.541v.51a10.983,10.983,0,0,1-.1,1.112c-2.361,16.157-46.578,24.458-114.383,24.458" transform="translate(38.553 1046.978)" fill="#dfdfdf"/>
            <path id="Trazado_1740" data-name="Trazado 1740" d="M371.388,475.266a12.928,12.928,0,0,0-2.047-8.9C354.144,443.4,279.15,336.232,271.6,445.6c-6.73,97.412-6.74,206.8-6.473,246.637a12.881,12.881,0,0,1-7.012,11.61c-32.643,16.822-81.791,40.463-102.57,41.917-16.524,1.138-24.249,10.96-27.877,20.295a12.971,12.971,0,0,0,12.145,17.576l175.214-.13a12.963,12.963,0,0,0,12.912-14.252c-2.158-21.011-6.22-47.089-7.842-57.193a13.018,13.018,0,0,1,1.277-7.956c24.9-49.541,46.135-200.071,50.019-228.832" transform="translate(274.966 861.482)" fill="#d18674"/>
            <path id="Trazado_1741" data-name="Trazado 1741" d="M330.643,558.307l-47.218.038C293,552.7,313.939,538.5,324.781,517.068L321.638,496.6s-24.341,39.069-60.13,61.753l-52.618.038-18.634-37.637L157.1,530.3l5.567,28.124-36.591.025.013,9.734,204.555-.142" transform="translate(273.407 1076.932)" fill="#e01d2e"/>
            <path id="Trazado_1742" data-name="Trazado 1742" d="M286.921,462.7a13.053,13.053,0,0,0-2.031-8.9c-15.2-22.988-90.131-130.194-97.742-20.843-6.809,97.412-6.885,156.265-6.654,196.114a12.911,12.911,0,0,1-7.025,11.584c-32.646,16.793-81.791,40.422-102.6,41.851-16.515,1.138-24.268,10.935-27.884,20.282a12.956,12.956,0,0,0,12.136,17.573h175.2A12.965,12.965,0,0,0,243.242,706.1c-2.132-21.008-6.169-47.076-7.8-57.18a13.2,13.2,0,0,1,1.29-7.982C261.67,591.424,283,491.458,286.921,462.7" transform="translate(91.326 834.102)" fill="#d18674"/>
            <path id="Trazado_1743" data-name="Trazado 1743" d="M198.757,529.741c9.563-5.634,30.536-19.81,41.382-41.227l-3.131-20.475s-24.36,39.056-60.184,61.7h-52.6l-18.6-37.64-33.178,9.528,5.542,28.112H41.4l.013,9.743H245.959v-9.743Z" transform="translate(89.769 1014.984)" fill="#e01d2e"/>
            <path id="Trazado_1744" data-name="Trazado 1744" d="M128.829,141.016,114.5,144.644l-1.4,345.579,136.031-1.508L275.652,145.04l-25.938-8.1Z" transform="translate(245.254 296.968)" fill="#d18674"/>
            <path id="Trazado_1745" data-name="Trazado 1745" d="M111.656,118.826s-19.81,109.313,46.743,135.9l-.368,33.872L133.139,299.98s18.276,33.067,79.772,32.735c37.716-.215,52.145-37.177,52.145-37.177l-13.907-6.287c-7.741-3.013-12.9-14.876-12.925-23.359l-2.208-18.609s23.371-14.164,29.129-46.3c5.878-32.785,8.394-91.921-12.643-112.162-39.95-39.018-94.576-19.734-94.576-19.734Z" transform="translate(236.154 139.497)" fill="#d18674"/>
            <path id="Trazado_1746" data-name="Trazado 1746" d="M124.61,169.2l-.089-39.683A81.545,81.545,0,0,0,156.961,136a79.612,79.612,0,0,0,45.171-13.935l-4.48,4.639a155.248,155.248,0,0,1-65.444,40.14Z" transform="translate(270.035 264.713)" fill="#ac4932"/>
            <path id="Trazado_1747" data-name="Trazado 1747" d="M186.493,99.618c3.641,5.044,2.465,12.094.228,17.906-1.543,4.024-3.561,7.956-6.7,10.894-4.864,4.585-11.736,6.22-18.251,7.665-2.874.65-5.76,1.29-8.634,1.939,8.6-1.927,7.639-27.51,10.307-33.882,3.59-8.584,16.578-13.476,23.055-4.522" transform="translate(332.078 205.691)" fill="#d18674"/>
            <path id="Trazado_1748" data-name="Trazado 1748" d="M107.669,99.618c-3.641,5.044-2.452,12.094-.231,17.906,1.546,4.024,3.565,7.956,6.7,10.894,4.88,4.585,11.74,6.22,18.264,7.665l8.622,1.939c-8.6-1.927-7.636-27.51-10.307-33.882-3.587-8.584-16.578-13.476-23.051-4.522" transform="translate(228.442 205.691)" fill="#d18674"/>
          </g>
        </g>
        <g id="Grupo_1637" data-name="Grupo 1637" transform="translate(391.451 255.949)">
          <g id="Grupo_1636" data-name="Grupo 1636" clip-path="url(#clip-path-3)">
            <path id="Trazado_1749" data-name="Trazado 1749" d="M139.447,157.025h-.434c-6-.063-11.866-2.579-15.4-10.421-1.47-14.842,20.282-27.446,20.282-27.446s4.636-38.381,7.113-38.381c.215,0,.434.32.612,1.011l-1.109,38.685s-26.426,19.541-17.947,27.5c3.371,3.169,8.419,4.125,13.27,4.125a53.621,53.621,0,0,0,14.255-2.183s-10.437,7.012-20.64,7.113" transform="translate(-123.544 -80.779)" fill="#ac4932"/>
          </g>
        </g>
        <g id="Grupo_1639" data-name="Grupo 1639">
          <g id="Grupo_1638" data-name="Grupo 1638" clip-path="url(#clip-path-2)">
            <path id="Trazado_1750" data-name="Trazado 1750" d="M147.491,126.194a72.892,72.892,0,0,1-20.346-3.181l.2-1.391c1.343.051,2.887.076,4.6.076,13.375,0,36.569-2.082,49.506-15.238l.995.754c-3.805,6.692-13.691,18.98-34.956,18.98" transform="translate(275.725 230.868)" fill="#ac4932"/>
            <path id="Trazado_1751" data-name="Trazado 1751" d="M152.893,92.531c0,3.6-2.2,6.527-4.918,6.527-2.693,0-4.9-2.925-4.9-6.527S145.282,86,147.975,86c2.719,0,4.918,2.925,4.918,6.527" transform="translate(310.26 186.507)" fill="#1c3a6c"/>
            <path id="Trazado_1752" data-name="Trazado 1752" d="M130.139,92.531c0,3.6-2.208,6.527-4.918,6.527s-4.9-2.925-4.9-6.527,2.2-6.527,4.9-6.527,4.918,2.925,4.918,6.527" transform="translate(260.916 186.507)" fill="#1c3a6c"/>
            <path id="Trazado_1753" data-name="Trazado 1753" d="M148.477,88.7c-2.452-.307-5.057-.957-6.654-2.861-1.584-1.876-1.445-5.326.817-6.321l2.823-.295c8.428.535,16.895,2.158,24.354,6.093,5.837,3.077,8.112,8.951-.358,6.448-7.075-2.082-13.717-2.12-20.982-3.064" transform="translate(305.265 171.796)" fill="#1c3a6c"/>
            <path id="Trazado_1754" data-name="Trazado 1754" d="M143.276,88.7c2.452-.307,5.057-.957,6.654-2.861,1.6-1.876,1.442-5.326-.818-6.321l-2.823-.295c-8.416.535-16.9,2.158-24.354,6.093-5.84,3.077-8.112,8.951.368,6.448,7.075-2.082,13.717-2.12,20.973-3.064" transform="translate(253.131 171.796)" fill="#1c3a6c"/>
            <path id="Trazado_1755" data-name="Trazado 1755" d="M123.182,203.284a15.112,15.112,0,0,1,6.936,2.465c2.247,1.467,3.587,4.1,5.824,5.209.317-4.75-1.15-9.975-1.778-14.712-.536-4.151-1.863-10.1.13-14.075,0,0,8.34-18.672,10.063-29.962,0,0,40.678-13.232,41.993-47.168,0,0,29.284,37.564,79.785,38.853l14.547,57.868v15.2s0-12.12,8.495-15.2c4.48.539,8.058,1.3,11.277,5.263,9.975-13.768,14.328-28.365,7.766-44.446a34.623,34.623,0,0,1,8.581,14.1c-.358-13-1.521-26.35-5.07-38.79-3.207-11.264-3.194-23.27-6.679-34.4-2.579-8.289-7.893-15.418-13.118-22.364C284.1,70.7,275.921,59.984,264.606,53.507c-15.659-8.939-34.791-8.416-52.776-7.459-24.484,1.29-51.341,3.961-68.432,21.534-9.078,9.312-14.16,21.7-19.027,33.742-5.646,14-13.08,28.264-17.256,42.747-1.812,6.245-2.2,13.017-3.089,19.452-.691,4.9-.1,17.434-3,21.29q6.155-6.915,12.3-13.831c-1.559,6.565-3.14,13.333-2.158,20a43.008,43.008,0,0,0,5.5,14.88l.219.231.561-.485c.8-1.917,3.245-2.478,5.3-2.351Z" transform="translate(219.073 98.769)" fill="#1c3a6c"/>
            <path id="Trazado_1756" data-name="Trazado 1756" d="M132.877,169.675,137.934,0s11.572,47.614,10.1,64.589l2.633-12.4s4.712,27.408-2.633,40.447l7.294-4.572s-8.466,33.286-11.226,39.148l11.226-9.785-17.4,64.905" transform="translate(288.156)" fill="#e11f27"/>
            <path id="Trazado_1757" data-name="Trazado 1757" d="M147.617,169.844,149.746.109S136.156,47.2,136.923,64.2l-2.1-12.494s-5.878,27.177.89,40.523l-7.075-4.876s7.066,33.6,9.553,39.579l-10.8-10.241,14.623,65.583" transform="translate(276.239 0.236)" fill="#eb6a3c"/>
            <path id="Trazado_1758" data-name="Trazado 1758" d="M139.236,130.146,195.152,21.8s-7.281,34.446-13.489,44.969l5.555-7.215s-5.466,19.208-14.252,25.39l6.144-.7s-15.824,18.916-19.427,21.879l10.307-2.849L138.6,139.917" transform="translate(300.558 47.28)" fill="#e11f27"/>
            <path id="Trazado_1759" data-name="Trazado 1759" d="M144.452,131.151,198.489,21.863s-23.4,26.3-28.2,37.535l2.529-8.748s-12.247,15.8-11.993,26.54l-3.077-5.364s-5.849,23.961-6.093,28.609l-3.818-9.987L136.98,137.459" transform="translate(297.053 47.412)" fill="#eb6a3c"/>
            <path id="Trazado_1760" data-name="Trazado 1760" d="M155.675,133.507,113.336,19.175s3.039,35.07,7.931,46.271l-4.636-7.83S119.708,77.35,127.69,84.54l-6-1.442s13.384,20.7,16.616,24.075l-9.9-4.087,26.73,40.178" transform="translate(245.779 41.583)" fill="#e11f27"/>
            <path id="Trazado_1761" data-name="Trazado 1761" d="M153.751,134.291,113.38,19.243S133.431,48.2,136.815,59.934l-1.429-8.992s10.2,17.152,8.66,27.792l3.714-4.943s2.887,24.5,2.57,29.132l4.994-9.461,5.082,48.007" transform="translate(245.875 41.73)" fill="#eb6a3c"/>
            <path id="Trazado_1762" data-name="Trazado 1762" d="M106.254,99.109s77.523-30.232,193.325,14.024L295.01,75.059S197.535,33.256,111.4,66.2" transform="translate(230.421 116.121)" fill="#eb6a3c"/>
            <path id="Trazado_1763" data-name="Trazado 1763" d="M295.233,76.726S210.07,40.595,108.622,67.505l-1.8,11.534s78.457-29.645,189.01,11.442" transform="translate(231.653 124.787)" fill="#e11f27"/>
            <path id="Trazado_1764" data-name="Trazado 1764" d="M360.044,183.987c11.892-5.4,14.126-23.489,17.088-33.641,2.861-10.013-11.407-17.665-12.313-17.652,1.778-5.887-11.48,3.131-12.988,3.973,1.34-7.357-5.466-15.225-13.473-7.662.767-4.639.383-9.835,1.109-14.614,2.262-14.636-4.56-20.254-14.366-29.9l-2.646-2.221a13.3,13.3,0,0,0-6.435-1.366,4.639,4.639,0,0,0-3.169.713l-1.16,2.136a16.851,16.851,0,0,0-.947,3.638c-.371,3.346,1.264,6.616,3.308,9.3s4.56,5.006,6.41,7.83c5.773,8.812-.063,22.373-1.876,31.724-2.684-2.975-9.043-14.176-14.164-16.911-1.98-1.071.447,2.823-.792,5.006L296.8,134.05c1.442,13.742,3.384,13.026,6.052,26.461,1.176,6.03,4.623,12.339,10.013,19.081,4.164,5.187-76.414,135.638-71.214,139.814,7.151,5.621-1.5,34.728-.244,44.205-34.471,124.893,52.773-7.383,54.525-7.88,5.516-1.559,51.151-144.092,52.323-144.58,2.212-.932,1.635-22.567,11.79-27.164" transform="translate(506.046 175.439)" fill="#d18674"/>
            <path id="Trazado_1765" data-name="Trazado 1765" d="M251.848,91.265c-.143-1.854,3.1-4.484,4.93-4.778,7.75-.843,14.455,13.758,15.222,16.616.754,2.874.729,5.916,1.622,8.752,1.622,5.184,6.182,9.309,6.717,14.724a13.7,13.7,0,0,1-2.947,9.284,32.908,32.908,0,0,1-7.345,6.679l-3,1.087-3.346,8.378c-8.492-21.02-10.317-41.2-11.851-60.742" transform="translate(546.145 187.479)" fill="#d18674"/>
            <path id="Trazado_1766" data-name="Trazado 1766" d="M259.338,92.592l-1.214-2.158-1.508-2.17-2.414-.909-2.17,1.968-.279,3.013c.165,3.067,1.3,9.579,4.674,9.439,4.446-.19,4.572-6.182,2.912-9.183" transform="translate(545.947 189.435)" fill="#f4d8d5"/>
            <path id="Trazado_1767" data-name="Trazado 1767" d="M334.594,163.625l4.379,13.882a2.344,2.344,0,0,1-3.28,2.811l-13.029-6.473-.754-.577-67.6-78.432.266-3.333,8.622-7.38,3.333.241,67.6,78.445Z" transform="translate(551.498 182.426)" fill="#203566"/>
            <path id="Trazado_1768" data-name="Trazado 1768" d="M257.841,75.552,247.1,84.76l-.282,3.577,30.716,35.888,3.6.282,10.741-9.208.269-3.577L261.428,75.835Z" transform="translate(535.247 163.842)" fill="#e11f27"/>
            <path id="Trazado_1769" data-name="Trazado 1769" d="M279.271,105.212l-1.993,1.686a6.287,6.287,0,0,1-8.862-.678L253.178,88.431a6.312,6.312,0,0,1,.678-8.891l1.993-1.686a6.3,6.3,0,0,1,8.875.678l15.238,17.8a6.315,6.315,0,0,1-.691,8.875M255.925,81.954a3.117,3.117,0,0,0-.333,4.395l15.238,17.8a3.109,3.109,0,0,0,4.392.333l1.98-1.686a3.14,3.14,0,0,0,.345-4.4L262.3,80.6a3.111,3.111,0,0,0-4.379-.345Z" transform="translate(545.747 165.55)" fill="#e11f27"/>
            <path id="Trazado_1770" data-name="Trazado 1770" d="M264.865,117.462a23.334,23.334,0,0,0-1.724,6.169c-.206,2.158,1.147,7.712,2.478,9.17l2.247,1.4a7.494,7.494,0,0,0,7.126-1.315,19.925,19.925,0,0,0,4.319-5.71,88.557,88.557,0,0,0,7.126-13.894c2.389-6.439,5.3-23.872-4.892-20.767-8.992,2.747-13.321,16.119-16.68,24.943" transform="translate(570.6 199.84)" fill="#d18674"/>
            <path id="Trazado_1771" data-name="Trazado 1771" d="M265.157,119.474a23.846,23.846,0,0,0-1.711,6.157,7.922,7.922,0,0,0,1.568,5.989l2.237,1.407a7.49,7.49,0,0,0,7.126-1.318,20.059,20.059,0,0,0,4.331-5.694,88.258,88.258,0,0,0,7.113-13.91c2.4-6.423,5.314-23.856-4.892-20.754-8.98,2.734-12.4,19.287-15.773,28.124" transform="translate(571.201 197.306)" fill="#d18674"/>
            <path id="Trazado_1772" data-name="Trazado 1772" d="M269.236,124.933a22.94,22.94,0,0,0-1.34,6.245,7.948,7.948,0,0,0,1.914,5.887l2.338,1.264a7.505,7.505,0,0,0,7.025-1.736,19.907,19.907,0,0,0,3.983-5.951,88.7,88.7,0,0,0,6.274-14.319c2-6.553,3.869-24.138-6.131-20.422-8.815,3.283-11.226,20-14.062,29.031" transform="translate(580.941 206.866)" fill="#d18674"/>
            <path id="Trazado_1773" data-name="Trazado 1773" d="M269.236,123.671a22.941,22.941,0,0,0-1.34,6.245,7.93,7.93,0,0,0,1.914,5.887l2.338,1.277a7.472,7.472,0,0,0,7.025-1.736,20.133,20.133,0,0,0,3.983-5.963,87.482,87.482,0,0,0,6.274-14.306c2-6.549,3.869-24.138-6.131-20.422-8.815,3.27-11.226,20-14.062,29.018" transform="translate(580.941 204.157)" fill="#d18674"/>
            <path id="Trazado_1774" data-name="Trazado 1774" d="M273.613,125.6a22.376,22.376,0,0,0-.615,5.773,7.23,7.23,0,0,0,2.326,5.133l2.221.919a6.8,6.8,0,0,0,6.182-2.259,18.225,18.225,0,0,0,3.013-5.76,78.2,78.2,0,0,0,4.281-13.549c1.176-6.119,1.147-22.212-7.535-17.871-7.639,3.821-8.2,19.173-9.873,27.614" transform="translate(591.966 210.89)" fill="#d18674"/>
            <path id="Trazado_1775" data-name="Trazado 1775" d="M273.8,124.2a22.543,22.543,0,0,0-.615,5.786,7.239,7.239,0,0,0,2.326,5.12l2.234.932a6.859,6.859,0,0,0,6.182-2.259,18.979,18.979,0,0,0,3.017-5.76,80.507,80.507,0,0,0,4.278-13.562c1.163-6.119,1.134-22.2-7.548-17.871-7.639,3.834-8.2,19.186-9.873,27.614" transform="translate(592.378 207.878)" fill="#d18674"/>
            <path id="Trazado_1776" data-name="Trazado 1776" d="M269.23,99.439l2.158.013,1.521.282,1.046,1.328c2.5,5.44-.637,15.352-8.02,10.881a5.077,5.077,0,0,1-1.955-6.207c.7-2.158,2.684-6.321,5.25-6.3" transform="translate(571.727 215.642)" fill="#f4d8d5"/>
            <path id="Trazado_1777" data-name="Trazado 1777" d="M273.581,103.107l2.171.013,1.521.269,1.046,1.34c2.5,5.44-.637,15.352-8.007,10.868-2.221-1.353-2.747-3.844-1.98-6.207.716-2.158,2.7-6.309,5.25-6.283" transform="translate(581.181 223.597)" fill="#f4d8d5"/>
            <path id="Trazado_1778" data-name="Trazado 1778" d="M277.758,104.022l1.8.013,1.264.269.868,1.3c2.069,5.326-.523,15.032-6.667,10.637-1.838-1.315-2.259-3.767-1.619-6.065.586-2.12,2.234-6.182,4.354-6.157" transform="translate(592.293 225.581)" fill="#f4d8d5"/>
            <path id="Trazado_1779" data-name="Trazado 1779" d="M287.809,325.057,254.4,192.179C196.414,285.221,83.318,406.094,84.11,426.056l-2.183.025c-16.423-2.9-31.749,12.671-42.2,20.219-10.228,7.51-27.5,21.264-35.634,29.617a19.343,19.343,0,0,0-3.958,5.428c-.561,1.252.165,8.584,11.087,3.463,10.266-3.729,20.8-12.491,21.787-11.892q-9.235,6.535-18.226,12.988c-4.278,3.093-11.7,8.6-13.115,13.257-2.912,9.671,9.731,10.83,15.339,7.37C27.481,500.2,48.362,481.753,50.573,482q-10.081,9.04-20.77,17.345c-3.511,2.757-7.072,5.466-10.675,8.1-2.912,2.12-5.954,4-8.036,6.743a4.409,4.409,0,0,0,.8,6.464c6.784,5.722,21.382,1.7,53.59-28.048C58.21,506.11,24.7,526.278,22.769,528.639c-2.044,2.541-2.544,6.055-.016,8.672,3.4,3.552,10.716,4.816,15.789,3.105,20.307-6.838,43.5-32.785,53.169-41.293.713,4.623-.526,19.5,2.988,25.545,1.353,2.361,8.378,6.039,11.252,4.813a4.966,4.966,0,0,0,2.272-2.31c8.276-13.961,5.453-30.45,12.174-44.959,3.051-6.5,7.969-12.12,8.222-19.094a64.858,64.858,0,0,0-.4-6.743c56.3-25.542,116.686-84.025,159.586-131.319" transform="translate(0 416.757)" fill="#9e4e44"/>
            <path id="Trazado_1780" data-name="Trazado 1780" d="M790.3,188.735c-5.7-15.57-12.094-31.382-15.8-47.484a13.415,13.415,0,0,0-22.925-6.017c-27.475,30.346-65.33,51.331-105.79,57.729C575.6,204.048,522.2,161.516,458.057,144.888L407.392,275.275,350.16,148.516s-34.984,5.646-52.735,12.8c0,0-70.387,16.743-91.344,70.359C187.19,266.349,133.73,368.127,115.606,403.2c-34.5,66.756-37.332,69.592-102.124,107.678,24.6,30.219,54.867,51.265,91.125,65.507,31.765,12.491,64.833,21.315,97,32.693-17.459,61.331-33.885,229.27-34.037,584.351,0,0,25.992,54.126,115.917,42.709,89.915-11.394,165.5,40.548,305.414,53.818l57.855,8.048q.285-6.82.548-13.628,5.884-154.968,2.608-310.189c-1.483-74.959-4.522-188.4-10.526-263.126-2.9-36.271-6.309-72.583-11.214-108.638-5.234-38.546-18.213-92.276-18.213-92.276,15.263-14.956,63.72-29.005,82.212-39.747,43.565-25.314,85.983-57.741,106.379-103.809,24.674-55.647,12.681-120.7-8.251-177.859" transform="translate(29.237 283.848)" fill="#bbb"/>
          </g>
        </g>
        <g id="Grupo_1641" data-name="Grupo 1641" transform="translate(220.258 617.888)">
          <g id="Grupo_1640" data-name="Grupo 1640" clip-path="url(#clip-path-5)">
            <path id="Trazado_1781" data-name="Trazado 1781" d="M80.1,470.036l-.025-.013c-7.421-7.139-10.409-21.3-10.564-38.9V428.3c.459-55.659,27.383-142.647,33.362-154.871,12.44-25.491,21.47-52.031,28.8-78.416.906,6.258-48.749,253.595-51.572,275.027" transform="translate(-69.513 -194.993)" fill="#939394"/>
          </g>
        </g>
        <g id="Grupo_1643" data-name="Grupo 1643">
          <g id="Grupo_1642" data-name="Grupo 1642" clip-path="url(#clip-path-2)">
            <path id="Trazado_1782" data-name="Trazado 1782" d="M201.73,273.25c12.3-12.044,46.119-23.5,68.483-33.118Z" transform="translate(437.47 520.748)" fill="#c8c7c8"/>
            <path id="Trazado_1783" data-name="Trazado 1783" d="M246.275,383.859s-56.949-177-65.086-194.732c0,0,72.364,113.375,147.3,154.973l-13.729,6.641c-22.364,9.617-56.185,21.074-68.483,33.118" transform="translate(392.925 410.139)" fill="#939394"/>
            <path id="Trazado_1784" data-name="Trazado 1784" d="M188.813,304.767l4.762,10.46,4.1-10.742L261,138.3l-4.42-1.572-63.4,166.034L118.413,138.53l-4.775,1.046" transform="translate(246.434 296.505)" fill="#e01d2e"/>
            <path id="Trazado_1785" data-name="Trazado 1785" d="M281.906,138.562,206.857,335.376,115.821,142.827l.089-.025-2.107-4.458-4.9,1.112L207.33,357.242,288.7,141.23" transform="translate(236.154 300.01)" fill="#e01d2e"/>
            <path id="Trazado_1786" data-name="Trazado 1786" d="M63.782,450.856c31.15,27.627,44.344,46,145.163,41.2,81.664-2.541,142.317,10.881,194.171,24.294,51.765,13.409,94.753,26.806,141.091,24.316l.6-14.24c-46.566,2.643-89.7-10.83-141.677-24.293-51.854-13.422-112.52-26.844-194.184-24.3C108.126,482.621,94.932,464.24,62.8,435.951l-.779,49.81,1.2.906Z" transform="translate(134.496 945.399)" fill="#e01d2e"/>
            <path id="Trazado_1787" data-name="Trazado 1787" d="M542.938,553.82s-55.571-13.093-125.879-31.239c-59.62-15.377-128.372-37.934-206.177-38.609-80.653-1.879-118.892,3.422-148.626-30.653l-.139,8.993c29.744,34.24,67.985,28.926,148.765,30.818,77.8.662,146.557,23.232,206.177,38.609,70.308,18.134,125.533,32.938,125.533,32.938l2.031-62.149h-.4Z" transform="translate(134.706 983.063)" fill="#e01d2e"/>
            <path id="Trazado_1788" data-name="Trazado 1788" d="M62.408,440.179c31.138,27.627,45.476,47.51,146.3,42.709,81.661-2.541,142.314,10.881,194.155,24.3,51.993,13.476,95.14,26.936,141.706,24.293l-1.689,50.831s-55.558-13.1-125.875-31.239c-59.623-15.377-128.36-37.931-206.167-38.6-80.793-1.892-119.646,3.59-148.7-30.447Z" transform="translate(134.747 954.567)" fill="#eb6a3c"/>
            <path id="Trazado_1789" data-name="Trazado 1789" d="M267.952,137.207,204.615,303.444l-4.11,10.741-4.753-10.459-75.187-165.2-10.127,2.262L201.6,342.871l76.975-201.9" transform="translate(239.494 297.546)" fill="#eb6a3c"/>
            <path id="Trazado_1790" data-name="Trazado 1790" d="M111.451,479.335c-.206,0-.409,0-.615-.013v-.013c.206.013.421.013.615.025m77.716,14.227s-28.457-7.69-54.192-11.762c17.665,2.6,35.52,6.793,54.18,11.762h.013" transform="translate(240.358 1039.427)" fill="#c8c7c8"/>
            <path id="Trazado_1791" data-name="Trazado 1791" d="M147.161,582.229q-11.744-.461-24.126-.472-6.017,0-12.2.114V387.88s13.207,104.4,36.325,194.349m-33.375,13.831h0m37.206.577Q137.427,596,123.022,596c-2.836,0-5.71.013-8.609.063,2.9-.051,5.773-.063,8.622-.063,9.617,0,18.913.219,27.956.627v.013m38.162,95.2c-18.66-4.968-36.515-9.157-54.18-11.762a182.793,182.793,0,0,0-23.524-2.465c-.193-.013-.409-.013-.615-.025V635.128a463.509,463.509,0,0,1,53.451,4.395c7.6,21.445,15.925,39.734,24.867,52.313" transform="translate(240.358 841.152)" fill="#939394"/>
            <path id="Trazado_1792" data-name="Trazado 1792" d="M150.992,463.934c-9.043-.409-18.34-.627-27.956-.627-2.849,0-5.722.016-8.622.067h-.627c-.97.013-1.965.038-2.95.051V449.181q6.188-.114,12.2-.114,12.391,0,24.126.472c1.252,4.842,2.529,9.658,3.831,14.395" transform="translate(240.358 973.842)" fill="#b21f25"/>
            <path id="Trazado_1793" data-name="Trazado 1793" d="M164.287,476.573a463.509,463.509,0,0,0-53.451-4.395v-9.157A459.209,459.209,0,0,1,161,466.982q1.611,4.886,3.283,9.591" transform="translate(240.358 1004.102)" fill="#b21f25"/>
            <path id="Trazado_1794" data-name="Trazado 1794" d="M161,487.5a459.272,459.272,0,0,0-50.168-3.961V453.678c.982-.016,1.98-.041,2.95-.054h.627c2.9-.051,5.773-.063,8.606-.063q14.43,0,27.972.64c3.165,11.546,6.511,22.732,10.013,33.3" transform="translate(240.358 983.588)" fill="#ba552f"/>
          </g>
        </g>
      </g>
    </g>
  </g>
</svg>
