<svg xmlns="http://www.w3.org/2000/svg" xmlns:xlink="http://www.w3.org/1999/xlink" width="21.154" height="20.241" viewBox="0 0 21.154 20.241"><defs><clipPath id="a"><rect width="21.154" height="20.241" fill="#123770"/></clipPath></defs><g clip-path="url(#a)"><path d="M6.75,95.729c.152-.087.289-.182.439-.25a1.562,1.562,0,0,1,1.394,0,.866.866,0,0,1,.509.595c.009.041.025.059.073.057a2.43,2.43,0,0,1,1.777.684c.159.143.316.288.478.427a.837.837,0,0,1,.236.924.825.825,0,0,1-.788.536.785.785,0,0,1-.5-.179c-.2-.166-.391-.34-.586-.511-.043-.037-.087-.074-.129-.112a.636.636,0,0,0-.451-.116,2.525,2.525,0,0,1-.688-.081,1.286,1.286,0,0,1-.787-.62.19.19,0,0,0-.017-.021c-.1.064-.19.129-.287.191a1.987,1.987,0,0,1-.585.283,1.219,1.219,0,0,1-.992-.166A1.669,1.669,0,0,1,5.085,96.3a1.991,1.991,0,0,1,.054-.917l.035-.145a3.755,3.755,0,0,0-.843.426,3.947,3.947,0,0,1-1.087.558,2.44,2.44,0,0,1-1.894-.13A2.252,2.252,0,0,1,.271,94.848a4.161,4.161,0,0,1-.233-1.075,7.628,7.628,0,0,1-.013-1.4,9.748,9.748,0,0,1,.191-1.3c.12-.557.233-1.116.37-1.668a9.254,9.254,0,0,1,.761-2.058,5.417,5.417,0,0,1,1.69-1.984,3.273,3.273,0,0,1,1.243-.567,2.479,2.479,0,0,1,2.31.692,3.9,3.9,0,0,1,1,1.7,6.125,6.125,0,0,1,.255,1.329.831.831,0,0,1-1.533.486,1.177,1.177,0,0,1-.141-.5A3.764,3.764,0,0,0,5.555,86.8a1.243,1.243,0,0,0-.317-.316.718.718,0,0,0-.627-.079,2.226,2.226,0,0,0-.795.45,3.64,3.64,0,0,0-.967,1.286,10.175,10.175,0,0,0-.668,1.833,19.261,19.261,0,0,0-.432,1.947,6.67,6.67,0,0,0-.1,1.508,2.81,2.81,0,0,0,.192.895.585.585,0,0,0,.741.351,2.813,2.813,0,0,0,.86-.4c.331-.212.652-.44.984-.65a3.288,3.288,0,0,1,1.217-.492,2.183,2.183,0,0,1,.666-.024.826.826,0,0,1,.719.729A2.932,2.932,0,0,1,6.914,95.1c-.058.207-.109.416-.164.629" transform="translate(0 -79.232)" fill="#123770"/><path d="M195.513,118.871l3.176,1.188-.169.461-1.563,4.232c-.319.864-.634,1.73-.961,2.591a5.662,5.662,0,0,1-.522.97,10.179,10.179,0,0,1-1.075,1.458,3.244,3.244,0,0,1-.854.724.123.123,0,0,0-.045.063c-.075.195-.144.392-.222.585a.4.4,0,0,1-.725.024.382.382,0,0,1-.009-.317c.068-.175.138-.35.2-.527a.119.119,0,0,0,0-.082,2.535,2.535,0,0,1-.19-.791,9.539,9.539,0,0,1,.044-2.029,6.4,6.4,0,0,1,.218-1.226c.105-.335.237-.662.358-.992q.582-1.584,1.166-3.168l1.144-3.111c.006-.016.014-.032.024-.054" transform="translate(-180.013 -111.152)" fill="#123770"/><path d="M246.23,6.45c.107-.293.211-.58.316-.867q.666-1.818,1.333-3.636c.1-.273.181-.554.307-.815A1.868,1.868,0,0,1,249.769.006a1.282,1.282,0,0,1,1.206.585,2.216,2.216,0,0,1,.412,1.512,1.255,1.255,0,0,1-.076.317q-.918,2.527-1.84,5.052l-.061.167L246.23,6.45" transform="translate(-230.242 0)" fill="#123770"/><path d="M213.658,14.2a.791.791,0,0,1-.778-1.061c.284-.768.573-1.534.861-2.3l1.065-2.843c.043-.115.084-.23.128-.345a.77.77,0,0,1,.889-.472.758.758,0,0,1,.6.822,1.9,1.9,0,0,1-.12.416q-.939,2.548-1.882,5.094a1.139,1.139,0,0,1-.25.462.779.779,0,0,1-.507.226" transform="translate(-199.01 -6.693)" fill="#123770"/></g></svg>