<svg id="Grupo_13772" data-name="Grupo 13772" xmlns="http://www.w3.org/2000/svg" xmlns:xlink="http://www.w3.org/1999/xlink" width="130.684" height="134.854" viewBox="0 0 130.684 134.854">
  <defs>
    <clipPath id="clip-path">
      <rect id="Rectángulo_5520" data-name="Rectángulo 5520" width="130.684" height="134.854" fill="none"/>
    </clipPath>
  </defs>
  <g id="Grupo_13771" data-name="Grupo 13771" clip-path="url(#clip-path)">
    <path id="Trazado_5721" data-name="Trazado 5721" d="M23.4,10.522l14.27-9.249v9.535a116.56,116.56,0,0,0-14.27-.287m86.12,90.431-13.6,11.384V100.952Z" fill="#2971b9" fill-rule="evenodd"/>
    <path id="Trazado_5722" data-name="Trazado 5722" d="M22.435,17.2c27.256-1.254,46.975,5.489,59.13,22.25q9.018,12.482,9.984,25.334v47.64H22.435Zm21.237-3.172V.133q40.887-1.9,57.212,23.25,8.056,12.473,8.074,25.318V97.3H97.423V64.78Q96.089,51.168,86.1,37.94,71.305,17.791,43.672,14.025" fill="#2971b9" fill-rule="evenodd"/>
    <rect id="Rectángulo_5519" data-name="Rectángulo 5519" width="117.853" height="2.837" transform="translate(6.455 126.98)" fill="#2971b9"/>
    <path id="Trazado_5723" data-name="Trazado 5723" d="M42.354,128.4a6.455,6.455,0,1,1-6.455-6.455,6.455,6.455,0,0,1,6.455,6.455" fill="#2971b9"/>
    <path id="Trazado_5724" data-name="Trazado 5724" d="M12.91,128.4a6.455,6.455,0,1,1-6.455-6.455A6.455,6.455,0,0,1,12.91,128.4" fill="#2971b9"/>
    <path id="Trazado_5725" data-name="Trazado 5725" d="M130.684,128.4a6.455,6.455,0,1,1-6.455-6.455,6.455,6.455,0,0,1,6.455,6.455" fill="#2971b9"/>
    <path id="Trazado_5726" data-name="Trazado 5726" d="M71.8,128.4a6.455,6.455,0,1,1-6.455-6.455A6.455,6.455,0,0,1,71.8,128.4" fill="#2971b9"/>
    <path id="Trazado_5727" data-name="Trazado 5727" d="M101.24,128.4a6.455,6.455,0,1,1-6.455-6.455,6.455,6.455,0,0,1,6.455,6.455" fill="#2971b9"/>
  </g>
</svg>
