<?xml version="1.0" encoding="UTF-8"?><svg id="Capa_1" xmlns="http://www.w3.org/2000/svg" viewBox="0 0 140 150.51"><defs><style>.cls-1{fill:#2a71b9;}</style></defs><path class="cls-1" d="M73.81,67.89c5.48-4.97,13.55-4.11,17.81,1.87,4.16-4.51,10.98-5.25,15.8-1.4.96.77,1.67,1.74,2.55,2.59,6.03-6.49,16.56-4.45,19.57,3.94,2.88,11.91,7.72,23.92,9.74,35.98,2.81,16.77-2.53,27.14-18.25,33.9-12.41,5.34-27.79,8.62-40.34,2.22-12.94-7.19-25.92-14.29-38.84-21.49-3.28-1.83-6.05-3.01-7.53-6.86-3.3-8.59,2.62-17.71,12-17.73,5.22-.01,9.17,4.29,13.69,6.07.15.06.22.19.42.08l-12.68-44.39c-3.27-14.82,17.51-21.32,22.68-6.62,1.33,3.8,2.09,8.01,3.38,11.85ZM70.66,119.89l-21.5-11.79c-6.7-2.59-12.29,6.5-6.23,10.84,13.14,6.84,25.92,14.88,39.08,21.62,11.55,5.92,23.58,3.66,35.31-1.02,13.53-5.4,18.7-13.18,15.92-27.73-2.18-11.44-6.82-22.95-9.53-34.33-2.26-6.06-11.55-3.11-10.45,2.99.71,3.91,2.54,8.31,3.51,12.27.36,1.47.73,3.02-.56,4.18-1.83,1.65-4.31.78-5.2-1.38-.06-.16,0-.36-.05-.5-2.11-5.87-3.15-12.61-5.33-18.32-.57-1.48-1.86-2.54-3.36-2.97-4.36-1.23-7.93,1.89-7.09,6.37.93,4.93,3.33,10.13,4.29,15.05.72,3.69-4.6,5.38-6.11,1.59-.1-.24-.25-.85-.36-1.19-2.12-6.48-3.41-13.89-5.75-20.17-2.16-5.8-11.4-3.38-10.44,2.89,1.1,5.47,3.7,11.21,4.72,16.61.73,3.88-4.36,5.52-6.01,1.98l-10.82-37.9c-1.35-3.98-6.1-5.17-9.1-2.08-1.17,1.21-1.91,3.59-1.44,5.23l16.49,57.75Z"/><path class="cls-1" d="M48.28,81.1c-1.9-.81-3.8-2.14-5.35-3.53-15.16-13.59-7.77-38.62,12.23-42.05,14.5-2.49,28.27,8.92,28.25,23.72-.17.1-.21.01-.34-.03-.51-.18-.96-.49-1.58-.66-1.36-.38-2.97-.48-4.33-.02-.51-9.95-9.38-17.84-19.31-17.02-13.54,1.12-21.17,15.95-13.98,27.55.25.4,1.52,1.96,1.57,2.15l2.83,9.9Z"/><rect class="cls-1" x="53.23" y="-.03" width="5.03" height="24.45" rx="2.51" ry="2.51" transform="translate(-.78 4.36) rotate(-4.45)"/><rect class="cls-1" x="104.12" y="43.52" width="5.03" height="24.45" rx="2.51" ry="2.51" transform="translate(153.95 -54.89) rotate(85.55)"/><rect class="cls-1" x="9.68" y="50.86" width="5.03" height="24.45" rx="2.51" ry="2.51" transform="translate(74.15 46.04) rotate(85.55)"/><rect class="cls-1" x="20.92" y="16.4" width="5.03" height="24.45" rx="2.51" ry="2.51" transform="translate(-13.55 27.82) rotate(-49.45)"/><rect class="cls-1" x="87.7" y="11.2" width="5.03" height="24.45" rx="2.51" ry="2.51" transform="translate(36.9 -53.02) rotate(40.55)"/><rect class="cls-1" x="26.11" y="83.18" width="5.03" height="24.45" rx="2.51" ry="2.51" transform="translate(68.9 4.31) rotate(40.55)"/></svg>