<svg id="Grupo_13770" data-name="Grupo 13770" xmlns="http://www.w3.org/2000/svg" xmlns:xlink="http://www.w3.org/1999/xlink" width="123.901" height="137.5" viewBox="0 0 123.901 137.5">
  <defs>
    <clipPath id="clip-path">
      <rect id="Rectángulo_5518" data-name="Rectángulo 5518" width="123.901" height="137.5" fill="none"/>
    </clipPath>
  </defs>
  <rect id="Rectángulo_5516" data-name="Rectángulo 5516" width="33.811" height="5.735" transform="translate(19.16 35.704)" fill="#0072bf"/>
  <rect id="Rectángulo_5517" data-name="Rectángulo 5517" width="33.811" height="5.735" transform="translate(19.16 21.072)" fill="#0072bf"/>
  <g id="Grupo_13767" data-name="Grupo 13767">
    <g id="Grupo_13766" data-name="Grupo 13766" clip-path="url(#clip-path)">
      <path id="Trazado_5712" data-name="Trazado 5712" d="M93.544,116.925v9.84a1.721,1.721,0,0,1-1.719,1.719H10.735a1.721,1.721,0,0,1-1.719-1.719V10.738a1.722,1.722,0,0,1,1.719-1.72H60.86V30.967A10.748,10.748,0,0,0,71.6,41.7H93.544V81.754L102.56,72.8V35.386l-.223-.224L93.544,26.37,76.191,9.016,67.4.224,67.175,0H10.735A10.748,10.748,0,0,0,0,10.738V126.765A10.748,10.748,0,0,0,10.735,137.5h81.09a10.748,10.748,0,0,0,10.735-10.735V107.989q-4.51,4.48-9.016,8.936M69.876,15.384l17.3,17.3H71.6a1.721,1.721,0,0,1-1.719-1.719Z" fill="#0072bf"/>
      <path id="Trazado_5713" data-name="Trazado 5713" d="M110.585,91.523Q96.763,105.345,82.8,119.1a2.669,2.669,0,0,1-3.56-.07L56.2,95.851a2.617,2.617,0,0,1,0-3.141c1.466-1.955,4.258-3.91,5.864-5.864a2.641,2.641,0,0,1,3.42,0l15.707,15.637,32.88-32.671a2.656,2.656,0,0,1,3.491,0c1.955,1.536,3.7,3.98,5.654,5.585a2.577,2.577,0,0,1,0,3.491c-4.188,4.188-8.377,8.307-12.5,12.5Z" fill="#2971b9"/>
      <path id="Trazado_5714" data-name="Trazado 5714" d="M22.594,70.139a6.087,6.087,0,0,1-2.639-2,5.469,5.469,0,0,1-1.042-3.194h4.926a2.382,2.382,0,0,0,.731,1.611,2.35,2.35,0,0,0,1.623.554,2.538,2.538,0,0,0,1.624-.473,1.584,1.584,0,0,0,.6-1.313,1.553,1.553,0,0,0-.473-1.163,3.813,3.813,0,0,0-1.164-.758,18.664,18.664,0,0,0-1.962-.677,21.314,21.314,0,0,1-3-1.137,5.553,5.553,0,0,1-2-1.677,4.68,4.68,0,0,1-.838-2.9,4.978,4.978,0,0,1,1.921-4.154,7.891,7.891,0,0,1,5.006-1.5,7.983,7.983,0,0,1,5.061,1.5,5.376,5.376,0,0,1,2.057,4.181H28.006a1.962,1.962,0,0,0-.676-1.448,2.384,2.384,0,0,0-1.6-.528,1.988,1.988,0,0,0-1.353.447,1.718,1.718,0,0,0,.352,2.72,14.11,14.11,0,0,0,2.706,1.109,25,25,0,0,1,2.99,1.191,5.7,5.7,0,0,1,1.99,1.651,4.426,4.426,0,0,1,.839,2.787,5.472,5.472,0,0,1-.826,2.95,5.781,5.781,0,0,1-2.4,2.111,8.187,8.187,0,0,1-3.708.785,9.769,9.769,0,0,1-3.734-.677" fill="#0072bf"/>
      <path id="Trazado_5715" data-name="Trazado 5715" d="M49.765,51.628v3.708H44.731v15.29H40.1V55.336H35.07V51.628Z" fill="#0072bf"/>
      <path id="Trazado_5716" data-name="Trazado 5716" d="M63.917,67.27H56.828l-1.137,3.356H50.847l6.873-19h5.36l6.873,19h-4.9ZM62.728,63.7l-2.355-6.955L58.046,63.7Z" fill="#0072bf"/>
      <path id="Trazado_5717" data-name="Trazado 5717" d="M76.665,55.336v3.843h6.2v3.572h-6.2v4.168h7.009v3.708H72.037v-19H83.674v3.708Z" fill="#0072bf"/>
      <path id="Trazado_5718" data-name="Trazado 5718" d="M51.681,99.812l-.232-.3a8.486,8.486,0,0,1-1.742-4.734H19.16v5.735H52.375Z" fill="#0072bf"/>
      <path id="Trazado_5719" data-name="Trazado 5719" d="M62.1,110.292H19.16v5.735H67.8Z" fill="#0072bf"/>
      <path id="Trazado_5720" data-name="Trazado 5720" d="M62.275,79.261H18.914V85H55.426a22.262,22.262,0,0,0,2.005-1.958l.333-.406.4-.342a8.616,8.616,0,0,1,4.112-1.941Z" fill="#0072bf"/>
    </g>
  </g>
</svg>
