<?xml version="1.0" encoding="UTF-8"?>
<svg id="Capa_1" xmlns="http://www.w3.org/2000/svg" version="1.1" viewBox="0 0 135 156.7">
  <!-- Generator: Adobe Illustrator 29.1.0, SVG Export Plug-In . SVG Version: 2.1.0 Build 142)  -->
  <defs>
    <style>
      .st0 {
        fill: #2971b9;
      }
    </style>
  </defs>
  <g id="Qn20WF">
    <g>
      <path class="st0" d="M69.7,11.9c.1.2.5.1.8.1,9.3,0,18.6,1.3,27.7,2.8.7,6.3,3,13.4,8.2,17.5s3.8,2.4,5.8,3.1,3.5,1,3.5,1.2c-1.1.8-7.6,7.4-8.2,7.4s-2.6-.7-3.3-1c-4-1.5-6.8-3.7-8.8-7.4-1.6-3-2.3-6.4-3-9.7-4.8-.6-9.6-1.4-14.4-1.8-8.6-.7-17.2-.6-25.9.1s-8.8,1-13.1,1.7c-1.2,6.2-3,12.3-8.8,15.6s-8.1,3.2-12.2,3.4c-.1,1.5,0,3-.1,4.5-.6,17.3-.6,39.8,7.8,55.3,8.3,15.2,24.6,23.1,39.5,30.4h.3c15-7.2,31.7-14.8,40.3-29.8s5.1-12.1,6-18.6l10.8-10.8c.1.2,0,.6,0,.9-.7,11.1-2.7,23.1-8.1,32.9-10.2,18.8-30.9,28.2-49.3,37h-.3c-12-5.9-24.7-12.1-34.9-20.9C6.6,105.4,6.9,71.1,7.9,42.3c0-1.5,0-3,.1-4.5,5.4-.6,11.2-1.9,15.8-4.9s8.4-11.3,9.5-18.2c9.4-1.5,18.9-2.7,28.4-2.8h.3c0-.1,7.6-.1,7.6-.1Z"/>
      <path class="st0" d="M113.9,75c-13.2,13.2-26.5,26.4-39.8,39.5-1.5,1.3-3.7,1.2-5.1-.1l-33-33.2c-1-1.3-1-3.1,0-4.5,2.1-2.8,6.1-5.6,8.4-8.4,1.4-1.2,3.5-1.2,4.9,0l22.5,22.4,47.1-46.8c1.5-1.3,3.4-1.2,5,0,2.8,2.2,5.3,5.7,8.1,8,1.3,1.4,1.3,3.5,0,5-6,6-12,11.9-17.9,17.9Z"/>
    </g>
  </g>
</svg>