<svg xmlns="http://www.w3.org/2000/svg" xmlns:xlink="http://www.w3.org/1999/xlink" width="450.97" height="185.999" viewBox="0 0 450.97 185.999">
  <defs>
    <clipPath id="clip-path">
      <rect id="Rectángulo_4118" data-name="Rectángulo 4118" width="32.828" height="20.802" fill="none"/>
    </clipPath>
  </defs>
  <g id="Grupo_7029" data-name="Grupo 7029" transform="translate(-859.883 -434)">
    <path id="Trazado_4449" data-name="Trazado 4449" d="M302.363,70.96c10.792-.621,37.1.256,44.843,8.653,2.3,2.494,2.05,8.31,1.76,11.6-.416,4.73-6.16,7.27-10.1,8.709-15.484,5.657-45.425,5.8-60.5-1.081-2.325-1.061-6.782-3.687-7.325-6.353a57.6,57.6,0,0,1-.056-9.813,7.766,7.766,0,0,1,1.55-2.895c5.226-5.967,22.119-8.377,29.827-8.82" transform="translate(774.442 411.661)" fill="#bababa"/>
    <path id="Trazado_4450" data-name="Trazado 4450" d="M558.728,157.739a14.027,14.027,0,0,1-3.441-5.62c-1.033-24.828-.138-49.868-.455-74.774a12.257,12.257,0,0,1,10.133-11.41l34.448.041,26.509,26.492.084,58.057c-.795,5.943-5.626,9.868-11.479,10.406-15.2,1.4-32.459-1.028-47.876,0-2.782-.4-5.8-1.253-7.923-3.192m40.583-85.68a10.913,10.913,0,0,0-1.865-.359c-9.892-.778-20.8.617-30.8.016-2.7.3-5.506,2.437-5.66,5.282l.094,73.435a5.842,5.842,0,0,0,5.224,4.351c16.636-.214,33.385.427,49.957-.327,1.251-.215,3.917-3.311,3.917-4.29V93.082a3.431,3.431,0,0,0-.513-.513H607.35c-4.123,0-8.038-4.78-8.038-8.717Z" transform="translate(684.847 413.197)" fill="#0b305d"/>
    <path id="Trazado_4451" data-name="Trazado 4451" d="M349.026,115.833v18.288c0,1.9-3.034,4.422-4.552,5.365-14.157,8.8-54.752,8.808-68.886,0-1.261-.786-4.551-3.507-4.551-5.023v-18.63c2.181,1.036,4.247,2.345,6.5,3.242,16.8,6.678,46.48,6.654,63.452.525a69.64,69.64,0,0,0,8.032-3.767" transform="translate(774.368 397.453)" fill="#bababa"/>
    <path id="Trazado_4452" data-name="Trazado 4452" d="M349.026,156.223v18.288c0,1.9-3.034,4.422-4.552,5.365-14.157,8.8-54.752,8.808-68.886,0-1.261-.786-4.551-3.507-4.551-5.023v-18.63c2.181,1.036,4.247,2.345,6.5,3.242,16.8,6.678,46.48,6.654,63.452.525a69.643,69.643,0,0,0,8.032-3.767" transform="translate(774.368 384.71)" fill="#bababa"/>
    <path id="Trazado_4453" data-name="Trazado 4453" d="M275.561,14.337l-.342.342c-.162.071-.525-.071-.684,0V7.5a95.524,95.524,0,0,1,119.65,39.892c2.14,3.677,7.484,13.873,7.913,17.743a3.457,3.457,0,0,1-5.808,3.056c-1.172-1.091-2.9-6.906-3.8-8.854-20.569-44.772-71.19-64.423-116.933-45" transform="translate(773.265 434)" fill="#0b305d"/>
    <path id="Trazado_4454" data-name="Trazado 4454" d="M315.822,227.794l.342-.342c.177-.064.511.064.684,0v7.178c-46.07,15.871-97.28-5.8-117.727-49.677-1.086-2.33-3.769-8.066-4.021-10.351a3.457,3.457,0,0,1,5.807-3.056c1.246,1.166,2.769,6.607,3.687,8.621,19.3,42.39,66.709,63.245,111.227,47.626" transform="translate(798.336 380.181)" fill="#0b305d"/>
    <path id="Trazado_4455" data-name="Trazado 4455" d="M372.98,221.117v-7.179a92.387,92.387,0,0,0,21.315-11.686c23.073-16.786,36.189-43.768,36.414-72.313,1.811-3.518,6.2-2.63,6.594,1.428.363,3.762-.515,10.438-1.09,14.328-5.114,34.565-30.391,64.107-63.234,75.421" transform="translate(742.204 393.694)" fill="#0b305d"/>
    <path id="Trazado_4456" data-name="Trazado 4456" d="M247.529,10.958v7.179c-28.046,12.493-48.272,41.093-51.3,71.619-.241,2.429.068,8.751-.836,10.445a3.206,3.206,0,0,1-4.812,1c-2.057-1.446-1.617-4.108-1.555-6.341,1.016-36.8,25.024-69.873,58.507-83.9" transform="translate(800.271 430.543)" fill="#0b305d"/>
    <path id="Trazado_4457" data-name="Trazado 4457" d="M613.541,129.188H583.822a2.968,2.968,0,0,1,0-5.935h29.718a2.968,2.968,0,0,1,0,5.935" transform="translate(676.617 395.112)" fill="#0b305d"/>
    <path id="Trazado_4458" data-name="Trazado 4458" d="M613.541,147.846H583.822a2.968,2.968,0,0,1,0-5.935h29.718a2.968,2.968,0,0,1,0,5.935" transform="translate(676.617 389.226)" fill="#0b305d"/>
    <path id="Trazado_4459" data-name="Trazado 4459" d="M597.149,165.627H583.822a2.968,2.968,0,0,1,0-5.935h13.326a2.968,2.968,0,0,1,0,5.935" transform="translate(676.617 383.615)" fill="#0b305d"/>
    <path id="Trazado_4460" data-name="Trazado 4460" d="M3.206,154.558A11.378,11.378,0,0,1,.417,150C-.42,129.88.305,109.586.049,89.4A9.934,9.934,0,0,1,8.26,80.152l27.92.033,21.485,21.472.068,47.055c-.644,4.817-4.559,8-9.3,8.434-12.32,1.131-26.308-.834-38.8,0a12,12,0,0,1-6.421-2.587M36.1,85.115a8.9,8.9,0,0,0-1.511-.291c-8.017-.63-16.858.5-24.965.013-2.19.246-4.463,1.975-4.587,4.281l.077,59.518a4.734,4.734,0,0,0,4.234,3.526c13.484-.173,27.058.347,40.49-.264,1.013-.174,3.175-2.684,3.175-3.477V102.154a2.777,2.777,0,0,0-.416-.415h-9.98c-3.342,0-6.515-3.874-6.515-7.065Z" transform="translate(859.883 408.711)" fill="#babab9"/>
    <path id="Trazado_4461" data-name="Trazado 4461" d="M48.046,131.418H23.129a1.99,1.99,0,0,1-1.99-1.99v-.83a1.99,1.99,0,0,1,1.99-1.99H48.046a1.989,1.989,0,0,1,1.99,1.99v.83a1.99,1.99,0,0,1-1.99,1.99" transform="translate(853.214 394.054)" fill="#babab9"/>
    <path id="Trazado_4462" data-name="Trazado 4462" d="M48.046,146.54H23.129a1.99,1.99,0,0,1-1.99-1.99v-.83a1.99,1.99,0,0,1,1.99-1.99H48.046a1.989,1.989,0,0,1,1.99,1.99v.83a1.99,1.99,0,0,1-1.99,1.99" transform="translate(853.214 389.283)" fill="#babab9"/>
    <path id="Trazado_4463" data-name="Trazado 4463" d="M34.761,160.951H23.13a1.99,1.99,0,0,1-1.99-1.99v-.83a1.989,1.989,0,0,1,1.99-1.99H34.761a1.989,1.989,0,0,1,1.99,1.99v.83a1.99,1.99,0,0,1-1.99,1.99" transform="translate(853.214 384.736)" fill="#babab9"/>
    <rect id="Rectángulo_4117" data-name="Rectángulo 4117" width="450.969" height="185.999" transform="translate(859.883 434)" fill="none"/>
    <g id="Grupo_7025" data-name="Grupo 7025" transform="translate(1095.481 558.16) rotate(90)">
      <g id="Grupo_7024" data-name="Grupo 7024" transform="translate(0 0)" clip-path="url(#clip-path)">
        <path id="Trazado_4464" data-name="Trazado 4464" d="M22.767,13.189h-1.49q-8.721,0-17.45-.008a7.84,7.84,0,0,1-1.741-.137A2.607,2.607,0,0,1,0,10.424,2.6,2.6,0,0,1,2.018,7.75,8.344,8.344,0,0,1,3.99,7.564c5.776-.015,11.552-.008,17.332-.015.489,0,.978-.046,1.809-.087-1.077-1.119-1.957-1.976-2.765-2.894a2.764,2.764,0,0,1-.3-3.269A2.631,2.631,0,0,1,23,.093,3.646,3.646,0,0,1,24.492.95q3.686,3.6,7.3,7.274a2.762,2.762,0,0,1-.011,4.327q-3.567,3.635-7.2,7.206c-1.324,1.3-2.909,1.38-4.062.269a2.794,2.794,0,0,1,.144-4.153c.766-.762,1.665-1.388,2.507-2.078l-.4-.607" transform="translate(0 -0.002)" fill="#005fab"/>
      </g>
    </g>
  </g>
</svg>
