<svg xmlns="http://www.w3.org/2000/svg" width="135.006" height="156.703" viewBox="0 0 135.006 156.703">
  <g id="Grupo_1339" data-name="Grupo 1339" transform="translate(-789.003 -737.299)">
    <path id="Sustracción_4" data-name="Sustracción 4" d="M18006.006,2346h-123a6.012,6.012,0,0,1-6.008-6v-31a6.013,6.013,0,0,1,6.008-6h25v-7a6.006,6.006,0,0,1,5.994-6h62a6.01,6.01,0,0,1,6,6v7h24a6.01,6.01,0,0,1,6,6v31A6.01,6.01,0,0,1,18006.006,2346Zm-105.5-28a6.5,6.5,0,1,0,6.5,6.5A6.508,6.508,0,0,0,17900.5,2318Zm64.5,4a3,3,0,1,0,0,6h23a3,3,0,1,0,0-6Zm-39,0a3,3,0,1,0,0,6h23a3,3,0,0,0,0-6Z" transform="translate(-17088 -1473.003)" fill="#2971b9"/>
    <path id="Sustracción_1" data-name="Sustracción 1" d="M17976,2311h-96a3,3,0,0,1-3-3v-15a3,3,0,0,1,3-3h96a3,3,0,0,1,3,3v15A3,3,0,0,1,17976,2311Zm-86.178-15.747a3,3,0,0,0-3,3v4.5a3,3,0,0,0,3,3h77.113a3,3,0,0,0,3-3v-4.5a3,3,0,0,0-3-3Z" transform="translate(-2142.611 -17028.092) rotate(73)" fill="#2971b9"/>
    <path id="Sustracción_2" data-name="Sustracción 2" d="M17983,2315h-100a6.006,6.006,0,0,1-6-6v-19h112v19A6.007,6.007,0,0,1,17983,2315Zm-91-18a3,3,0,0,0-3,3v6a3,3,0,0,0,3,3h82a3,3,0,0,0,3-3v-6a3,3,0,0,0-3-3Z" transform="translate(-17076 -1421)" fill="#2971b9"/>
  </g>
</svg>
