<svg id="Componente_83_1" data-name="Componente 83 – 1" xmlns="http://www.w3.org/2000/svg" xmlns:xlink="http://www.w3.org/1999/xlink" width="114.571" height="151.064" viewBox="0 0 114.571 151.064">
  <defs>
    <clipPath id="clip-path">
      <rect id="Rectángulo_1401" data-name="Rectángulo 1401" width="114.571" height="151.064" fill="#2971b9"/>
    </clipPath>
  </defs>
  <g id="Grupo_1846" data-name="Grupo 1846" clip-path="url(#clip-path)">
    <path id="Trazado_2159" data-name="Trazado 2159" d="M0,343.017V292.989H99.039c.035.455.09.836.09,1.216q.006,24.112,0,48.224c0,.2-.024.392-.037.588Z" transform="translate(0 -191.953)" fill="#2971b9"/>
    <path id="Trazado_2160" data-name="Trazado 2160" d="M119.991,178.6H66.717c-.034-.443-.093-.863-.094-1.284-.006-5.162-.032-10.325.032-15.486a2.838,2.838,0,0,1,.807-1.863c5.107-4.65,10.278-9.229,15.4-13.859a1.49,1.49,0,0,1,1.9-.3,14.471,14.471,0,0,0,12.731-.066c1.888-.917,3.843-1.7,5.715-2.644a14.721,14.721,0,0,1,7.827-1.446c2.962.211,5.907.668,8.949,1.028Z" transform="translate(-43.792 -92.777)" fill="#2971b9"/>
    <path id="Trazado_2161" data-name="Trazado 2161" d="M56.452,64.572c2.884-1.085,5.747-2.169,8.615-3.241,2.971-1.111,5.952-2.2,8.917-3.324a2.157,2.157,0,0,0,1.663-2.317,3.475,3.475,0,0,0-1.331-2.065,2.642,2.642,0,0,0-2.073-.035q-9.769,3.548-19.493,7.226c-1.758.663-2.346,1.884-1.586,3.634.85,1.959,1.961,3.805,2.958,5.7l.68.332a4.766,4.766,0,0,0-1.2.568c-5.724,5.062-11.417,10.161-17.145,15.219a7.114,7.114,0,0,1-8.243,1.116c.724-1,1.434-1.987,2.154-2.969,9.6-13.09,19.224-26.157,28.77-39.284,2.872-3.95,6.512-6.2,11.433-6.4,7.028-.273,14.049-.813,21.078-.948,5.053-.1,9.235-1.733,12.54-5.591a11.033,11.033,0,0,1,.846-.786c.192.493.372.876.492,1.277,2.168,7.236,4.32,14.477,6.5,21.708a2.006,2.006,0,0,1-.414,2.112c-2.975,3.609-6.3,6.7-10.868,8.163-3.745,1.2-7.526.952-11.308.344-4.841-.779-9.518-.507-13.977,1.772-1.738.888-3.549,1.632-5.326,2.442a10.5,10.5,0,0,1-13.682-4.659" transform="translate(-18.544 -20.58)" fill="#2971b9"/>
    <path id="Trazado_2162" data-name="Trazado 2162" d="M9.687,231.158H19.949v6.131c-1.1,0-2.127-.032-3.147.007a2.465,2.465,0,0,0-2.66,2.37c-.022,1.368,1,2.316,2.6,2.4.439.024.879.01,1.319.01q33.493,0,66.986,0a15.551,15.551,0,0,0,1.61-.042,2.358,2.358,0,0,0-.048-4.71c-1.1-.091-2.219-.018-3.4-.018v-6.2c3.263,0,6.472-.013,9.68.027.235,0,.575.347.683.609,2.139,5.206,4.252,10.424,6.421,15.765H3.066l6.621-16.356" transform="translate(-2.016 -151.414)" fill="#2971b9"/>
    <path id="Trazado_2163" data-name="Trazado 2163" d="M286.512,36.528l-14.041,4.261L261.544,4.254,275.6,0l10.908,36.528" transform="translate(-171.941)" fill="#2971b9"/>
  </g>
</svg>
