<svg xmlns="http://www.w3.org/2000/svg" width="184.688" height="158.29" viewBox="0 0 184.688 158.29">
  <g id="Grupo_13733" data-name="Grupo 13733" transform="translate(-1224.684 -1097.081)">
    <path id="Trazado_2627" data-name="Trazado 2627" d="M91.647,204.072c-16.524,8.592-34.878,7.955-49.824-6.952-3.332-3.324-6.013-7.319-8.859-11.105-.9-1.2-1.724-1.78-3.2-1.263a27.092,27.092,0,0,1-3.886,1.12,2.38,2.38,0,0,1-1.858-.42,1.921,1.921,0,0,1-.006-1.736c3.709-7.054,7.476-14.076,11.234-21.1a1.543,1.543,0,0,1,2.4-.7c6.991,3.825,14,7.619,20.97,11.476.47.26,1.048,1.038.956,1.43a2.387,2.387,0,0,1-1.323,1.365c-1.241.514-2.579.789-3.86,1.212-1.976.652-2.344,1.466-1.568,3.329,6.631,15.924,19.852,24.249,37.08,23.353.492-.026.987-.007,1.745-.011" transform="translate(1200.873 1045.73)" fill="#2971b9"/>
    <path id="Trazado_2628" data-name="Trazado 2628" d="M142.518,4.614c7.387-1.791,14.336-2.452,21.373-1.051C177.107,6.194,186,14.443,192.375,25.809a72.324,72.324,0,0,1,3.864,8.592c.605,1.514,1.458,2.143,3.059,1.905a17.89,17.89,0,0,1,3.454-.268,3.145,3.145,0,0,1,2.1.783c.247.294-.165,1.44-.586,1.952-4.906,5.951-9.89,11.836-14.8,17.782-1.031,1.248-1.923,1.213-3.068.23q-7.316-6.276-14.672-12.506c-1.027-.875-2.114-1.691-3.054-2.651-.433-.443-.91-1.27-.764-1.734s1-.92,1.6-1.034c1.32-.246,2.684-.255,4.026-.4,2.007-.21,2.567-.992,2.163-2.96C172.1,18,160.99,7.5,143.408,5a7.115,7.115,0,0,1-.89-.386" transform="translate(1204.441 1094.273)" fill="#2971b9"/>
    <g id="ico_mesas_previstas" transform="translate(1253.023 1095.4)">
      <g id="Grupo_13731" data-name="Grupo 13731" transform="translate(28.152 23.531)">
        <path id="Trazado_5229" data-name="Trazado 5229" d="M31.47,37.17l14.27-9.249v9.535a116.607,116.607,0,0,0-14.27-.287M117.59,127.6l-13.6,11.384V127.6h13.6Z" transform="translate(-30.507 -26.647)" fill="#2971b9" fill-rule="evenodd"/>
        <path id="Trazado_5230" data-name="Trazado 5230" d="M28.152,40.729c27.256-1.254,46.975,5.489,59.13,22.25Q96.3,75.46,97.266,88.313v47.64H28.152Zm21.237-3.172V23.665q40.887-1.9,57.212,23.25,8.057,12.473,8.074,25.318v48.6H103.14V88.312Q101.806,74.7,91.812,61.472q-14.79-20.15-42.423-23.915" transform="translate(-28.152 -23.531)" fill="#2971b9" fill-rule="evenodd"/>
      </g>
    </g>
  </g>
</svg>
