<svg id="Grupo_2993" data-name="Grupo 2993" xmlns="http://www.w3.org/2000/svg" xmlns:xlink="http://www.w3.org/1999/xlink" width="121.32" height="133.518" viewBox="0 0 121.32 133.518">
  <defs>
    <clipPath id="clip-path">
      <rect id="Rectángulo_2425" data-name="Rectángulo 2425" width="121.32" height="133.518" fill="#2a71b9"/>
    </clipPath>
  </defs>
  <g id="Grupo_2916" data-name="Grupo 2916" clip-path="url(#clip-path)">
    <path id="Trazado_2384" data-name="Trazado 2384" d="M82.2,255.725H65.912v5.569H84.588a40.311,40.311,0,0,1-2.39-5.569" transform="translate(-47.307 -183.542)" fill="#2a71b9"/>
    <path id="Trazado_2385" data-name="Trazado 2385" d="M142.679,126.3v-5.223a2.8,2.8,0,0,0,.143-.518A34.069,34.069,0,0,1,148.8,104.13a34.416,34.416,0,0,1,35.116-13.983c10.944,2.446,19.177,8.585,23.98,18.873,4.85,10.389,4.543,20.729-.71,30.914-.565,1.1-1.251,2.129-1.991,3.378a4.444,4.444,0,0,1,.69.478q7.788,7.767,15.56,15.55c.335.335.66.684.962,1.049A6.166,6.166,0,0,1,222.42,168a7.834,7.834,0,0,1-3.762,2.454h-2.374c-2-.539-3.347-1.98-4.742-3.379q-7.235-7.257-14.5-14.483a3.152,3.152,0,0,1-.419-.668c-1.581.909-2.9,1.741-4.275,2.445a33.835,33.835,0,0,1-20.88,3.195,33.32,33.32,0,0,1-12.816-4.882c-8.341-5.228-13.241-12.833-15.327-22.348-.291-1.327-.434-2.688-.645-4.033m56.063-2.6c.249-11.722-9.869-21.906-21.8-21.8a21.893,21.893,0,0,0-21.785,21.777c-.107,11.95,10.108,21.848,21.8,21.857,11.764.009,22.048-10.022,21.783-21.833" transform="translate(-102.405 -64.129)" fill="#2a71b9"/>
    <path id="Trazado_2386" data-name="Trazado 2386" d="M80.02,209.2H65.912v5.569H80.4a40.863,40.863,0,0,1-.383-5.569" transform="translate(-47.307 -150.148)" fill="#2a71b9"/>
    <path id="Trazado_2387" data-name="Trazado 2387" d="M82.2,162.672H65.912v5.569H80.728a40.254,40.254,0,0,1,1.469-5.569" transform="translate(-47.307 -116.755)" fill="#2a71b9"/>
    <path id="Trazado_2388" data-name="Trazado 2388" d="M89.688,116.146H65.912v5.569H85.7a40.653,40.653,0,0,1,3.988-5.569" transform="translate(-47.307 -83.362)" fill="#2a71b9"/>
    <path id="Trazado_2389" data-name="Trazado 2389" d="M111.038,69.619H65.912v5.569H98.231a40.3,40.3,0,0,1,12.806-5.569" transform="translate(-47.307 -49.968)" fill="#2a71b9"/>
    <path id="Trazado_2390" data-name="Trazado 2390" d="M94.529,95.8q-.735-.7-1.474-1.4a40.6,40.6,0,0,1-32.188,3.248,10.39,10.39,0,0,0-1.769,5.8v21.313H10.424a1.673,1.673,0,0,1-1.669-1.67h0V10.424a1.671,1.671,0,0,1,1.669-1.669H89.168a1.671,1.671,0,0,1,1.669,1.669V22.54a40.579,40.579,0,0,1,8.755,5.731V10.424A10.436,10.436,0,0,0,89.168,0H10.424A10.436,10.436,0,0,0,0,10.424V123.092a10.437,10.437,0,0,0,10.424,10.425H65.23l.218-.218,8.537-8.537,16.851-16.851,8.038-8.037c-1.447-1.388-2.941-2.725-4.346-4.07M67.854,118.581V103.448a1.671,1.671,0,0,1,1.669-1.669H84.655Z" fill="#2a71b9"/>
    <path id="Trazado_2391" data-name="Trazado 2391" d="M92.44,326.041l2.54-4.282-4.34-2.439.056-4.978-4.978.056-2.441-4.342L79,312.6l-4.282-2.54-2.44,4.34-4.978-.056.056,4.978-4.34,2.439,2.54,4.282-2.54,4.283,4.34,2.439-.056,4.978,4.978-.056,2.439,4.34,4.282-2.54,4.282,2.54,2.442-4.341,4.978.056-.056-4.978,4.34-2.439ZM84.9,329.753H73.3a1.133,1.133,0,1,1,0-2.265H84.9a1.133,1.133,0,1,1,0,2.265m0-4.964H73.3a1.133,1.133,0,1,1,0-2.265H84.9a1.133,1.133,0,1,1,0,2.265" transform="translate(-45.225 -222.537)" fill="#2a71b9"/>
  </g>
</svg>
