<?xml version="1.0" encoding="UTF-8"?>
<svg id="Capa_1" data-name="Capa 1" xmlns="http://www.w3.org/2000/svg" version="1.1" viewBox="0 0 24 24">
  <defs>
    <style>
      .cls-1 {
        fill: #003874;
        stroke-width: 0px;
      }
    </style>
  </defs>
  <path class="cls-1" d="M15.5,12l-4.5-4.5-1.4,1.4,3.1,3.1-3.1,3.1,1.4,1.4,4.5-4.5ZM22,12c0,1.4-.3,2.7-.8,3.9-.5,1.2-1.2,2.3-2.1,3.2s-2,1.6-3.2,2.1-2.5.8-3.9.8-2.7-.3-3.9-.8-2.3-1.2-3.2-2.1-1.6-2-2.1-3.2-.8-2.5-.8-3.9.3-2.7.8-3.9,1.2-2.3,2.1-3.2,2-1.6,3.2-2.1,2.5-.8,3.9-.8,2.7.3,3.9.8c1.2.5,2.3,1.2,3.2,2.1s1.6,2,2.1,3.2.8,2.5.8,3.9ZM20,12c0-2.2-.8-4.1-2.3-5.7s-3.4-2.3-5.7-2.3-4.1.8-5.7,2.3-2.3,3.4-2.3,5.7.8,4.1,2.3,5.7,3.4,2.3,5.7,2.3,4.1-.8,5.7-2.3,2.3-3.4,2.3-5.7Z"/>
</svg>