<svg xmlns="http://www.w3.org/2000/svg" width="21.418" height="21.418" viewBox="0 0 21.418 21.418">
  <path id="check_circle_24dp_003770_FILL0_wght400_GRAD0_opsz24" d="M89.21-864.365l7.55-7.55-1.5-1.5-6.051,6.051-3.052-3.052-1.5,1.5Zm1.5,5.783a10.428,10.428,0,0,1-4.177-.843,10.815,10.815,0,0,1-3.4-2.289,10.815,10.815,0,0,1-2.289-3.4A10.428,10.428,0,0,1,80-869.291a10.428,10.428,0,0,1,.843-4.177,10.813,10.813,0,0,1,2.289-3.4,10.813,10.813,0,0,1,3.4-2.289A10.427,10.427,0,0,1,90.709-880a10.427,10.427,0,0,1,4.177.843,10.813,10.813,0,0,1,3.4,2.289,10.814,10.814,0,0,1,2.289,3.4,10.428,10.428,0,0,1,.843,4.177,10.428,10.428,0,0,1-.843,4.177,10.816,10.816,0,0,1-2.289,3.4,10.815,10.815,0,0,1-3.4,2.289A10.428,10.428,0,0,1,90.709-858.582Zm0-2.142a8.269,8.269,0,0,0,6.077-2.49,8.268,8.268,0,0,0,2.49-6.077,8.268,8.268,0,0,0-2.49-6.077,8.268,8.268,0,0,0-6.077-2.49,8.268,8.268,0,0,0-6.077,2.49,8.268,8.268,0,0,0-2.49,6.077,8.268,8.268,0,0,0,2.49,6.077A8.269,8.269,0,0,0,90.709-860.724ZM90.709-869.291Z" transform="translate(-80 880)" fill="#23b500"/>
</svg>
