<svg xmlns="http://www.w3.org/2000/svg" width="22.492" height="20.35" viewBox="0 0 22.492 20.35">
  <path id="folder_data_24dp_003770_FILL0_wght400_GRAD0_opsz24" d="M93.924-779.65a2.063,2.063,0,0,1-1.513-.629,2.063,2.063,0,0,1-.629-1.513,2.063,2.063,0,0,1,.295-1.1,2.308,2.308,0,0,1,.777-.776v-5.918a2.351,2.351,0,0,1-.777-.763,2,2,0,0,1-.295-1.084,2.063,2.063,0,0,1,.629-1.513,2.063,2.063,0,0,1,1.513-.629,2.063,2.063,0,0,1,1.513.629,2.063,2.063,0,0,1,.629,1.513,2,2,0,0,1-.295,1.084,2.351,2.351,0,0,1-.777.763v3.079l4.284-1.419v-1.66a2.351,2.351,0,0,1-.777-.763,2,2,0,0,1-.295-1.084,2.063,2.063,0,0,1,.629-1.513,2.063,2.063,0,0,1,1.513-.629,2.063,2.063,0,0,1,1.513.629,2.063,2.063,0,0,1,.629,1.513,2,2,0,0,1-.295,1.084,2.351,2.351,0,0,1-.777.763v3.186l-6.426,2.142v.589a2.308,2.308,0,0,1,.777.776,2.063,2.063,0,0,1,.295,1.1,2.063,2.063,0,0,1-.629,1.513A2.063,2.063,0,0,1,93.924-779.65Zm-11.782-3.213v0Zm0,0a2.063,2.063,0,0,1-1.513-.629A2.063,2.063,0,0,1,80-785.005v-12.853a2.062,2.062,0,0,1,.629-1.513A2.063,2.063,0,0,1,82.142-800h6.426l2.142,2.142h8.568a2.063,2.063,0,0,1,1.513.629,2.063,2.063,0,0,1,.629,1.513H89.827l-2.142-2.142H82.142v12.853h7.5v2.142Z" transform="translate(-80 800)" fill="#003770"/>
</svg>
