<svg xmlns="http://www.w3.org/2000/svg" xmlns:xlink="http://www.w3.org/1999/xlink" width="37.275" height="36" viewBox="0 0 37.275 36"><defs><clipPath id="a"><rect width="18.549" height="19.013" fill="#003874"/></clipPath></defs><g fill="none" stroke="#003874" stroke-width="1"><rect width="37.275" height="36" stroke="none"/><rect x="0.5" y="0.5" width="36.275" height="35" fill="none"/></g><g transform="translate(9.363 8.494)"><g transform="translate(0 0)" clip-path="url(#a)"><path d="M8.222,5.084,12.083.194a.4.4,0,0,1,.556-.065.4.4,0,0,1,.143.23l1,4.761a.4.4,0,0,1-.377.478l-4.864.127a.4.4,0,0,1-.407-.387.4.4,0,0,1,.086-.255" transform="translate(4.755 0.026)" fill="#003874"/><path d="M10.479,17.37A7.922,7.922,0,1,1,11.9,1.955,7.836,7.836,0,0,1,15,3.84L15.977,2.6a9.489,9.489,0,1,0-5.3,16.341.793.793,0,0,0-.195-1.572" transform="translate(0 0)" fill="#003874" fill-rule="evenodd"/></g></g></svg>