<svg xmlns="http://www.w3.org/2000/svg" xmlns:xlink="http://www.w3.org/1999/xlink" width="37.275" height="36" viewBox="0 0 37.275 36"><defs><clipPath id="a"><rect width="19" height="19" transform="translate(-0.329 -0.213)" fill="#003874"/></clipPath></defs><g fill="none" stroke="#003874" stroke-width="1"><rect width="37.275" height="36" stroke="none"/><rect x="0.5" y="0.5" width="36.275" height="35" fill="none"/></g><g transform="translate(9.467 8.713)"><g transform="translate(0 0)" clip-path="url(#a)"><path d="M7.724,14.26A6.536,6.536,0,1,0,1.188,7.724,6.535,6.535,0,0,0,7.724,14.26m7.724-6.536A7.724,7.724,0,1,1,7.724,0a7.724,7.724,0,0,1,7.724,7.724" transform="translate(-0.266 -0.024)" fill="#003874" fill-rule="evenodd"/><path d="M10.344,12.005a1.39,1.39,0,0,0,.116.137l4.575,4.575a1.189,1.189,0,1,0,1.681-1.68l-4.575-4.575a1.18,1.18,0,0,0-.137-.119,7.766,7.766,0,0,1-1.661,1.664Z" transform="translate(1.682 1.924)" fill="#003874"/><path d="M3,6.594A.594.594,0,0,1,3.594,6h7.13a.594.594,0,0,1,0,1.188H3.594A.594.594,0,0,1,3,6.594" transform="translate(0.299 1.106)" fill="#003874" fill-rule="evenodd"/></g></g></svg>