<svg xmlns="http://www.w3.org/2000/svg" width="127.899" height="120.197" viewBox="0 0 127.899 120.197">
  <g id="Grupo_7650" data-name="Grupo 7650" transform="translate(10735.441 20016)">
    <path id="Trazado_2223" data-name="Trazado 2223" d="M62.5,118.21a2.5,2.5,0,0,1-2.5-2.5V84.66a2.5,2.5,0,0,1,5,0v31.052a2.5,2.5,0,0,1-2.5,2.5" transform="translate(-10733.991 -20014.014)" fill="#2971b9" fill-rule="evenodd"/>
    <path id="Trazado_2224" data-name="Trazado 2224" d="M53.678,118.767a8.181,8.181,0,0,1-8.172-8.172V61.623a2.5,2.5,0,0,1,5,0V110.6a3.177,3.177,0,0,0,3.174,3.172H72.02a3.177,3.177,0,0,0,3.173-3.172V61.623a2.5,2.5,0,0,1,5,0V110.6a8.177,8.177,0,0,1-8.17,8.172Z" transform="translate(-10734.342 -20014.57)" fill="#2971b9" fill-rule="evenodd"/>
    <path id="Trazado_2225" data-name="Trazado 2225" d="M77.921,88.41a2.5,2.5,0,0,1,0-5H85.1V47.069A11.691,11.691,0,0,0,73.418,35.391H52.741A11.691,11.691,0,0,0,41.062,47.069V83.411h7.165a2.439,2.439,0,0,1,2.485,2.5,2.548,2.548,0,0,1-.618,1.688,2.425,2.425,0,0,1-1.859.808H38.561a2.5,2.5,0,0,1-2.5-2.5V47.069A16.7,16.7,0,0,1,52.739,30.392H73.415A16.7,16.7,0,0,1,90.093,47.069V85.91a2.5,2.5,0,0,1-2.5,2.5v0Z" transform="translate(-10734.569 -20015.266)" fill="#2971b9" fill-rule="evenodd"/>
    <path id="Trazado_2226" data-name="Trazado 2226" d="M62.8,30.1A15.052,15.052,0,1,1,77.848,15.052,15.069,15.069,0,0,1,62.8,30.1M62.8,5A10.054,10.054,0,1,0,72.849,15.052,10.066,10.066,0,0,0,62.8,5" transform="translate(-10734.287 -20016)" fill="#2971b9" fill-rule="evenodd"/>
    <path id="Trazado_2227" data-name="Trazado 2227" d="M22.017,118.075a2.5,2.5,0,0,1-2.5-2.5V90.265a2.5,2.5,0,0,1,5,0v25.311a2.5,2.5,0,0,1-2.5,2.5" transform="translate(-10734.97 -20013.879)" fill="#2971b9" fill-rule="evenodd"/>
    <path id="Trazado_2228" data-name="Trazado 2228" d="M14.827,118.529A7.13,7.13,0,0,1,7.7,111.407V71.484a2.435,2.435,0,0,1,2.5-2.478,2.435,2.435,0,0,1,2.5,2.478v39.921a2.125,2.125,0,0,0,2.124,2.122H29.779a2.125,2.125,0,0,0,2.123-2.122V71.484a2.5,2.5,0,0,1,5,0v39.921a7.13,7.13,0,0,1-7.121,7.123Z" transform="translate(-10735.255 -20014.332)" fill="#2971b9" fill-rule="evenodd"/>
    <path id="Trazado_2229" data-name="Trazado 2229" d="M22.258,46.256A12.731,12.731,0,1,1,34.991,33.523,12.747,12.747,0,0,1,22.258,46.256m0-20.467a7.733,7.733,0,1,0,7.734,7.735,7.743,7.743,0,0,0-7.734-7.735" transform="translate(-10735.211 -20015.498)" fill="#2971b9" fill-rule="evenodd"/>
    <path id="Trazado_2230" data-name="Trazado 2230" d="M34.583,93.783a2.5,2.5,0,0,1,0-5h5.365c-.005-.152-.011-.3-.016-.455-.073-1.935-.135-3.606.819-4.6a2.3,2.3,0,0,1,1.717-.685,2.5,2.5,0,0,1,2.5,2.5v5.74a2.5,2.5,0,0,1-2.5,2.5Zm-32.084,0a2.5,2.5,0,0,1-2.5-2.5V59.622A14.073,14.073,0,0,1,14.057,45.565H30.911c4.248,0,9.82,2.774,10.839,5.4a2.539,2.539,0,0,1-2.238,3.415,3.878,3.878,0,0,1-2.44-1.311,8.377,8.377,0,0,0-6.161-2.5H14.057A9.068,9.068,0,0,0,5,59.621V88.783h5.38a2.434,2.434,0,0,1,1.865.811,2.56,2.56,0,0,1,.619,1.692,2.432,2.432,0,0,1-2.475,2.5Z" transform="translate(-10735.441 -20014.898)" fill="#2971b9" fill-rule="evenodd"/>
    <path id="Trazado_2231" data-name="Trazado 2231" d="M102.985,118.075a2.5,2.5,0,0,1-2.5-2.5V90.265a2.5,2.5,0,0,1,5,0v25.311a2.5,2.5,0,0,1-2.5,2.5" transform="translate(-10733.013 -20013.879)" fill="#2971b9" fill-rule="evenodd"/>
    <path id="Trazado_2232" data-name="Trazado 2232" d="M95.794,118.529a7.129,7.129,0,0,1-7.122-7.122V71.484a2.5,2.5,0,0,1,5,0v39.921a2.124,2.124,0,0,0,2.122,2.122h14.954a2.125,2.125,0,0,0,2.123-2.122V71.484a2.5,2.5,0,0,1,5,0v39.921a7.126,7.126,0,0,1-7.12,7.123Z" transform="translate(-10733.299 -20014.332)" fill="#2971b9" fill-rule="evenodd"/>
    <path id="Trazado_2233" data-name="Trazado 2233" d="M115.556,93.783a2.5,2.5,0,0,1,0-5h5.386V59.622a9.069,9.069,0,0,0-9.058-9.059H95.03a8.37,8.37,0,0,0-6.159,2.5,3.876,3.876,0,0,1-2.439,1.311h0a2.541,2.541,0,0,1-2.239-3.415c1.019-2.624,6.591-5.4,10.838-5.4h16.855a14.072,14.072,0,0,1,14.057,14.056V91.283a2.506,2.506,0,0,1-2.5,2.5Zm-32.083,0a2.5,2.5,0,0,1-2.5-2.5V85.545a2.5,2.5,0,0,1,5-.006v3.246h5.38a2.5,2.5,0,0,1,.006,5Z" transform="translate(-10733.483 -20014.898)" fill="#2971b9" fill-rule="evenodd"/>
    <path id="Trazado_2234" data-name="Trazado 2234" d="M103.226,46.255A12.731,12.731,0,1,1,115.96,33.523a12.747,12.747,0,0,1-12.733,12.731m0-20.466a7.733,7.733,0,1,0,7.734,7.735,7.743,7.743,0,0,0-7.734-7.735" transform="translate(-10733.254 -20015.498)" fill="#2971b9" fill-rule="evenodd"/>
  </g>
</svg>
