<?xml version="1.0" encoding="UTF-8"?>
<svg id="Capa_1" data-name="Capa 1" xmlns="http://www.w3.org/2000/svg" viewBox="0 0 214.74 214.74">
  <defs>
    <style>
      .cls-1 {
        fill: #79B946;
      }

      .cls-1, .cls-2 {
        stroke-width: 0px;
      }

      .cls-2 {
        fill: #fff;
      }
    </style>
  </defs>
  <path class="cls-1" d="M107.42,214.74C48.22,214.8-.01,166.58,0,107.36.01,48.12,48.25-.08,107.45,0c59.18.08,107.18,48.06,107.3,107.26.12,59.18-48.06,107.44-107.32,107.49ZM88.83,129.15c-.74-1.16-1.13-2.07-1.78-2.73-9.17-9.22-18.36-18.41-27.57-27.59-.91-.9-1.84-1.8-2.87-2.56-5.14-3.76-12.34-2.76-16.29,2.23-4.14,5.23-3.54,11.54,1.71,16.8,12.44,12.48,24.91,24.93,37.37,37.38,6.37,6.37,13.01,6.32,19.44-.1,24.5-24.49,48.99-48.99,73.48-73.49.84-.84,1.69-1.71,2.38-2.68,2.71-3.79,3.23-7.89,1.2-12.1-2.01-4.15-5.36-6.52-10.07-6.83-4.16-.28-7.36,1.5-10.22,4.37-21.44,21.5-42.93,42.95-64.39,64.43-.66.66-1.22,1.44-2.41,2.86Z"/>
  <path class="cls-2" d="M88.83,129.15c1.2-1.43,1.75-2.2,2.41-2.86,21.46-21.48,42.94-42.94,64.39-64.43,2.86-2.87,6.06-4.65,10.22-4.37,4.7.32,8.06,2.68,10.07,6.83,2.03,4.21,1.51,8.31-1.2,12.1-.69.97-1.54,1.83-2.38,2.68-24.49,24.5-48.98,49-73.48,73.49-6.43,6.43-13.07,6.47-19.44.1-12.47-12.45-24.93-24.9-37.37-37.38-5.25-5.26-5.85-11.57-1.71-16.8,3.95-4.99,11.15-6,16.29-2.23,1.03.75,1.96,1.65,2.87,2.56,9.2,9.18,18.4,18.37,27.57,27.59.65.65,1.04,1.57,1.78,2.73Z"/>
</svg>