<?xml version="1.0" encoding="UTF-8"?>
<svg id="Capa_1" data-name="Capa 1" xmlns="http://www.w3.org/2000/svg" viewBox="0 0 201.02 177.75">
  <defs>
    <style>
      .cls-1 {
        fill: #FAB727;
      }

      .cls-1, .cls-2 {
        stroke-width: 0px;
      }

      .cls-2 {
        fill: #fff;
      }
    </style>
  </defs>
  <path class="cls-1" d="M100.39,177.72c-28.49,0-56.98-.04-85.47.03-6.21.01-10.97-2.18-13.68-7.96-2.09-4.47-1.4-8.76,1.02-12.93,6.99-12.05,13.93-24.12,20.9-36.18C44.82,83.16,66.48,45.63,88.15,8.1c3.96-6.86,10.12-9.57,16.74-7.34,3.56,1.2,5.96,3.68,7.81,6.89,7.9,13.74,15.85,27.45,23.77,41.17,20.74,35.92,41.47,71.83,62.2,107.75,3.86,6.69,2.93,13.5-2.41,18.06-2.88,2.46-6.28,3.1-9.95,3.1-19.73-.03-39.47-.01-59.2-.01-8.9,0-17.81,0-26.71,0ZM107.08,119.95V53.45h-13.09v66.49h13.09ZM109.46,142.42c.03-5.02-3.8-8.96-8.74-9-5.04-.04-9,3.75-9.06,8.67-.06,5.13,3.79,9.11,8.85,9.13,4.99.02,8.93-3.85,8.96-8.8Z"/>
  <path class="cls-2" d="M107.08,119.95h-13.09V53.45h13.09v66.49Z"/>
  <path class="cls-2" d="M109.46,142.42c-.03,4.95-3.96,8.82-8.96,8.8-5.05-.02-8.91-3.99-8.85-9.13.06-4.92,4.02-8.72,9.06-8.67,4.94.04,8.77,3.99,8.74,9Z"/>
</svg>