<?xml version="1.0" encoding="utf-8"?>
<!-- Generator: Adobe Illustrator 28.3.0, SVG Export Plug-In . SVG Version: 6.00 Build 0)  -->
<svg version="1.1" id="Capa_1" xmlns="http://www.w3.org/2000/svg" xmlns:xlink="http://www.w3.org/1999/xlink" x="0px" y="0px"
	 viewBox="0 0 214.7 214.7" style="enable-background:new 0 0 214.7 214.7;" xml:space="preserve">
<style type="text/css">
	.st0{fill:#003770;}
</style>
<path class="st0" d="M107.5,0C48.2-0.1,0,48.1,0,107.4c0,59.2,48.2,107.4,107.4,107.4l0,0c59.3,0,107.4-48.3,107.3-107.5
	C214.6,48.1,166.6,0.1,107.5,0z M120.9,159c0,2.2-1.2,3.3-3.4,3.4c-3.4,0-6.8,0-10.1,0c-3.3,0-6.7,0-10,0c-2.3,0-3.6-1.3-3.7-3.6
	c-0.1-6.7-0.1-13.4,0-20.1c0-2.2,1.4-3.5,3.6-3.5c6.7,0,13.4,0,20.1,0c2.2,0,3.5,1.4,3.5,3.6C120.9,145.5,121,152.3,120.9,159z
	 M133.1,113.6c-2.2,1.4-4.5,2.5-6.7,3.8c-3,1.7-5,4.2-5.5,7.7c-0.3,2.2-1.3,2.9-3.5,2.9c-3.3,0-6.6,0-9.8,0c-3.2,0-6.3,0-9.5,0
	c-3.1,0-4-0.7-4.3-3.7c-0.7-8.7,2.3-15.7,10-20.3c2.7-1.6,5.5-3.1,8.3-4.6c2.2-1.2,4.2-2.6,6.1-4.2c3.7-3.3,5.3-9.6-1.6-12.9
	c-6.4-3.1-12.7-3.7-18.5,1.2c-2.3,1.9-4.2,4.2-4.7,7.4c-0.3,1.8-1.4,2.7-3.2,2.7c-6.7,0-13.4,0-20.1,0c-2.6,0-3.5-1-3.7-3.6
	c-1.5-17.9,10.9-29.1,22.1-33.6c13.9-5.6,27.9-5.3,41.3,1.5c9,4.5,15.5,11.5,18.1,21.5C151.4,93.7,143.9,106.8,133.1,113.6z"/>
</svg>
