<?xml version="1.0" encoding="utf-8"?>
<!-- Generator: Adobe Illustrator 28.1.0, SVG Export Plug-In . SVG Version: 6.00 Build 0)  -->
<svg version="1.1" id="Capa_1" xmlns="http://www.w3.org/2000/svg" xmlns:xlink="http://www.w3.org/1999/xlink" x="0px" y="0px"
	 viewBox="0 0 24 24" style="enable-background:new 0 0 24 24;" xml:space="preserve">
<style type="text/css">
	.st0{fill:#FFFFFF;}
</style>
<path id="Trazado_2597" class="st0" d="M6.8,2.6H3.7v3.1H1.6V0.6h5.2L6.8,2.6z M22.4,5.8V0.6h-5.2v2.1h3.1v3.1L22.4,5.8z M6.8,21.4
	H3.7v-3.1H1.6v5.2h5.2L6.8,21.4z M20.3,18.2v3.1h-3.1v2.1h5.2v-5.2L20.3,18.2z M19.3,18.2c0,1.1-0.9,2.1-2.1,2.1H6.8
	c-1.1,0-2.1-0.9-2.1-2.1V5.8c0-1.1,0.9-2.1,2.1-2.1h10.4c1.1,0,2.1,0.9,2.1,2.1V18.2z M15.1,7.8H8.9v2.1h6.2V7.8z M15.1,11H8.9V13
	h6.2V11z M15.1,14.1H8.9v2.1h6.2V14.1z"/>
</svg>
