<svg xmlns="http://www.w3.org/2000/svg" xmlns:xlink="http://www.w3.org/1999/xlink" width="150.415" height="142.131" viewBox="0 0 150.415 142.131">
  <defs>
    <clipPath id="clip-path">
      <rect id="Rectángulo_5442" data-name="Rectángulo 5442" width="150.415" height="142.131" fill="none"/>
    </clipPath>
  </defs>
  <g id="Grupo_13697" data-name="Grupo 13697" transform="translate(0 0)">
    <g id="Grupo_6196" data-name="Grupo 6196" transform="translate(0 0)" clip-path="url(#clip-path)">
      <path id="Trazado_4677" data-name="Trazado 4677" d="M75.5,142.1H33.378a44.021,44.021,0,0,1-16.367-2.781C4.133,134.21-2.336,122.241.769,108.719A46.6,46.6,0,0,1,5.039,96.943Q26.78,57.446,48.777,18.2A37.165,37.165,0,0,1,63.656,2.934C73.168-2.11,83.973-.558,92.512,6.883a47.415,47.415,0,0,1,10.151,13.01q20.972,37.743,41.995,75.56a40.471,40.471,0,0,1,5.693,18.246,25.341,25.341,0,0,1-17.274,25.815,38.927,38.927,0,0,1-14.095,2.588c-14.494.062-28.988,0-43.48,0ZM74.2,125.864h0c13.133.064,26.331.064,39.472.064a27.667,27.667,0,0,0,11.841-2.329,13.3,13.3,0,0,0,8.282-12.876,25.352,25.352,0,0,0-3.171-11.451c-2.136-4.078-4.4-8.083-6.664-12.1Q108.041,58.448,92.124,29.786A32.3,32.3,0,0,0,83.973,19.5a13.125,13.125,0,0,0-17.4,0,32.752,32.752,0,0,0-8.023,10.095C46,52.237,33.378,74.816,20.9,97.461a38.664,38.664,0,0,0-3.364,7.894c-2.848,9.7,1.292,17.016,11.128,19.476a37.828,37.828,0,0,0,8.927,1.035c12.221.062,24.384,0,36.611,0Z" transform="translate(-0.001 0.001)" fill="#fab724"/>
      <path id="Trazado_4678" data-name="Trazado 4678" d="M57.9,23.017c-4.872-2.8-8.027-2.447-11-2.354l-.034,0-.034,0c-2.969-.093-6.123-.443-11,2.354a7.723,7.723,0,0,0-4.03,7.7s5.22,32.038,5.828,35.711.77,4.967,1.994,7.72a7.474,7.474,0,0,0,7.018,4.5,1.609,1.609,0,0,0,.219-.136,1.608,1.608,0,0,0,.219.136,7.474,7.474,0,0,0,7.018-4.5c1.224-2.753,1.389-4.049,1.994-7.72s5.83-35.711,5.83-35.711a7.726,7.726,0,0,0-4.032-7.7" transform="translate(28.334 18.378)" fill="#fab724"/>
      <path id="Trazado_4679" data-name="Trazado 4679" d="M51.57,61.529a8.035,8.035,0,1,1-8.034-8.036,8.034,8.034,0,0,1,8.034,8.036" transform="translate(31.672 47.725)" fill="#fab724"/>
    </g>
  </g>
</svg>
