<?xml version="1.0" encoding="UTF-8"?>
<svg xmlns="http://www.w3.org/2000/svg" xmlns:xlink="http://www.w3.org/1999/xlink" version="1.1" viewBox="0 0 35 35">
  <defs>
    <style>
      .cls-1 {
        fill: none;
      }

      .cls-2 {
        clip-path: url(#clippath-1);
      }

      .cls-3 {
        fill: #fff;
      }

      .cls-4 {
        fill: url(#Degradado_sin_nombre);
      }

      .cls-5 {
        clip-path: url(#clippath);
      }
    </style>
    <clipPath id="clippath">
      <path class="cls-1" d="M17.5,0h-5.3s-3.1,3.4-3.1,3.4l-.6-.2c-1.2-.4-2.6-.1-3.5.8l-2.1,2.1c-.1.1-.2.3,0,.5l.8,1.7-1.1,2.9.7,2.6,3.2,12c.4,1.4,1.2,2.6,2.4,3.4,0,0,3.8,2.7,7.6,5.2.3.2.7.4,1,.4h0c.4,0,.7-.1,1-.4,4.3-2.8,7.6-5.2,7.6-5.2,1.2-.8,2-2,2.4-3.4l3.1-12,.7-2.6-1.1-2.9.8-1.7c0-.2,0-.5-.1-.6l-2-2.1c-.9-.9-2.2-1.2-3.4-.8l-.6.2L22.8,0h-5.3s0,0,0,0Z"/>
    </clipPath>
    <linearGradient id="Degradado_sin_nombre" data-name="Degradado sin nombre" x1="-909.8" y1="542.6" x2="-909.8" y2="542.6" gradientTransform="translate(27155.3 19008) scale(29.8 -35)" gradientUnits="userSpaceOnUse">
      <stop offset="0" stop-color="#e33e21"/>
      <stop offset=".3" stop-color="#e33b21"/>
      <stop offset=".4" stop-color="#e13521"/>
      <stop offset=".4" stop-color="#e13521"/>
      <stop offset=".5" stop-color="#e02a20"/>
      <stop offset=".5" stop-color="#df2820"/>
      <stop offset=".6" stop-color="#df241b"/>
      <stop offset=".7" stop-color="#d72419"/>
      <stop offset="1" stop-color="#d42419"/>
    </linearGradient>
    <clipPath id="clippath-1">
      <rect class="cls-1" x="2.6" width="29.8" height="35"/>
    </clipPath>
  </defs>
  <!-- Generator: Adobe Illustrator 28.6.0, SVG Export Plug-In . SVG Version: 1.2.0 Build 709)  -->
  <g>
    <g id="Grupo_6900">
      <g id="Grupo_6901">
        <g class="cls-5">
          <g id="Grupo_6900-2">
            <rect id="Rectángulo_4001" class="cls-4" x="2.6" width="29.8" height="35"/>
          </g>
        </g>
      </g>
      <g id="Grupo_6903">
        <g class="cls-2">
          <g id="Grupo_6902">
            <path id="Trazado_4426" class="cls-3" d="M18.4,21.7c-.2,0-.4-.2-.6-.2h-.4c-.2,0-.4.1-.6.2l-.9.4c-.3.1-.8.3-1.1.5l-1.7.9c-.2,0-.3.2-.2.4,0,0,0,.2.2.2l1.5,1.1c.3.2.7.5.9.7l.4.4c.2.2.6.6.9.8l.4.4c.3.2.6.2.9,0l.4-.4.9-.8.4-.4c.2-.2.7-.5.9-.7l1.5-1.1c.2,0,.2-.3.2-.4,0,0-.1-.1-.2-.2l-1.7-.9c-.3-.1-.8-.4-1.1-.5l-.9-.4Z"/>
            <path id="Trazado_4427" class="cls-3" d="M29.1,12v-.2c0-.2,0-.4,0-.6-.1-.4-.3-.7-.6-1.1l-1-1.4c-.2-.3-.5-.7-.7-.9l-1.3-1.6c-.1-.2-.3-.3-.4-.5h0s-.3,0-.6.1l-2,.4-.9.2c-.3,0-.6,0-.9-.1l-1.6-.5c-.3-.1-.8-.2-1.1-.3-.3,0-.7,0-1,0-.3,0-.8.2-1.1.3l-1.6.5c-.3,0-.6.1-.9.1l-.9-.2-2-.4c-.3,0-.6-.1-.6-.1h0c-.1.1-.3.3-.4.5l-1.3,1.6c-.2.2-.5.7-.7.9l-1,1.4c-.2.2-.3.5-.5.8,0,.3-.1.6-.1.9v.2c0,.1.1.2.1.3.2.2.6.7.8.9l3.4,3.7c.2.3.3.6.2,1l-.6,1.3c-.1.4-.1.7,0,1.1v.3c.3.5.6.9,1,1.3l.5.4c.3.2.7.3,1,.1l1.9-.9c.4-.2.7-.4,1-.7l1.5-1.4c.3-.2.3-.6,0-.9h0s0,0,0,0l-3.5-2.3c-.3-.2-.4-.6-.2-.9l1.3-2.5c.2-.3.2-.7,0-1-.2-.3-.4-.6-.8-.7l-4.2-1.6c-.3-.1-.3-.2,0-.3l2.5-.2c.4,0,.8,0,1.2,0l2.2.6c.3,0,.5.4.5.7l-.8,4.6c0,.3,0,.5,0,.8,0,.1.3.2.6.3l1.3.3c.4,0,.8,0,1.2,0l1.2-.3c.3,0,.6-.2.6-.3,0-.3,0-.5,0-.8l-.9-4.6c0-.3.1-.6.5-.7l2.2-.6c.4,0,.8-.1,1.2,0l2.5.2c.3,0,.3.2,0,.3l-4.2,1.6c-.3.1-.6.4-.8.7-.1.3,0,.7,0,1l1.4,2.5c.1.3,0,.7-.2.9l-3.5,2.3c-.2.2-.2.6,0,.9h0s1.5,1.4,1.5,1.4c.3.3.6.5,1,.6l1.9.9c.3.1.7,0,1-.1l.5-.4c.4-.3.7-.8.9-1.3v-.3c.2-.4.2-.7,0-1.1l-.6-1.3c-.1-.3,0-.7.2-1l3.4-3.7c.2-.2.6-.6.8-.9,0,0,0-.2.1-.3"/>
          </g>
        </g>
      </g>
    </g>
  </g>
</svg>