<svg id="Grupo_13720" data-name="Grupo 13720" xmlns="http://www.w3.org/2000/svg" xmlns:xlink="http://www.w3.org/1999/xlink" width="140.28" height="135.624" viewBox="0 0 140.28 135.624">
  <defs>
    <clipPath id="clip-path">
      <rect id="Rectángulo_5494" data-name="Rectángulo 5494" width="140.28" height="135.624" fill="#2a71b9"/>
    </clipPath>
  </defs>
  <g id="Grupo_13720-2" data-name="Grupo 13720" clip-path="url(#clip-path)">
    <path id="Trazado_5218" data-name="Trazado 5218" d="M0,270.382H140.28V188.2H0Zm133.03-23.544a2.129,2.129,0,0,1-2.13,2.13,9.955,9.955,0,0,0-9.944,9.944,2.13,2.13,0,0,1-2.13,2.13H22.06a2.13,2.13,0,0,1-2.13-2.13,9.955,9.955,0,0,0-9.944-9.944,2.13,2.13,0,0,1-2.13-2.13V212.417a2.13,2.13,0,0,1,2.13-2.13,9.955,9.955,0,0,0,9.944-9.944,2.13,2.13,0,0,1,2.13-2.13h96.767a2.13,2.13,0,0,1,2.13,2.13,9.955,9.955,0,0,0,9.944,9.944,2.13,2.13,0,0,1,2.13,2.13Z" transform="translate(0 -134.758)" fill="#2a71b9"/>
    <path id="Trazado_5219" data-name="Trazado 5219" d="M185.476,49.8,152.485,15.209a9.749,9.749,0,1,0-16.223-.111L103.343,49.8h5.871L139.32,18.063a9.748,9.748,0,0,0,10.065.068L179.59,49.8Z" transform="translate(-73.998)" fill="#2a71b9"/>
    <path id="Trazado_5220" data-name="Trazado 5220" d="M266.467,309.775a5.266,5.266,0,0,0,.78-3.039,5.073,5.073,0,0,0-.768-2.985,2.669,2.669,0,0,0-2.328-1.078h-3.024v8.232h3.024a2.629,2.629,0,0,0,2.316-1.131" transform="translate(-186.979 -216.727)" fill="#2a71b9"/>
    <path id="Trazado_5221" data-name="Trazado 5221" d="M318.429,319.561h5.448l-2.712-11.412Z" transform="translate(-228.01 -220.649)" fill="#2a71b9"/>
    <path id="Trazado_5222" data-name="Trazado 5222" d="M213.054,309.775a5.268,5.268,0,0,0,.78-3.039,5.07,5.07,0,0,0-.768-2.985,2.669,2.669,0,0,0-2.328-1.078h-3.024v8.232h3.024a2.63,2.63,0,0,0,2.316-1.131" transform="translate(-148.732 -216.727)" fill="#2a71b9"/>
    <path id="Trazado_5223" data-name="Trazado 5223" d="M378.789,309.775a5.266,5.266,0,0,0,.78-3.039,5.072,5.072,0,0,0-.768-2.985,2.669,2.669,0,0,0-2.328-1.078h-3.024v8.232h3.024a2.629,2.629,0,0,0,2.316-1.131" transform="translate(-267.406 -216.727)" fill="#2a71b9"/>
    <path id="Trazado_5224" data-name="Trazado 5224" d="M147.41,238.47H54.583a14.238,14.238,0,0,1-11.914,11.914v30.48a14.237,14.237,0,0,1,11.914,11.914H147.41a14.237,14.237,0,0,1,11.914-11.914v-30.48A14.238,14.238,0,0,1,147.41,238.47M58.3,270.41a7.288,7.288,0,0,0,2.028,3.162,4.4,4.4,0,0,0,2.952,1.113,4.054,4.054,0,0,0,2.664-.954,6.2,6.2,0,0,0,1.8-2.9h3.288a11.01,11.01,0,0,1-3.012,5.441,6.808,6.808,0,0,1-4.74,1.908,6.583,6.583,0,0,1-4.3-1.607,10.869,10.869,0,0,1-3.084-4.469,18.909,18.909,0,0,1,0-12.932A10.817,10.817,0,0,1,59,254.7,6.6,6.6,0,0,1,63.28,253.1a6.777,6.777,0,0,1,4.74,1.926,11.129,11.129,0,0,1,3.012,5.459H67.744a6.2,6.2,0,0,0-1.8-2.9,4.054,4.054,0,0,0-2.664-.954,4.449,4.449,0,0,0-2.952,1.1A7.159,7.159,0,0,0,58.3,260.87a15.905,15.905,0,0,0,0,9.539m25.139-13.744h-6.48v7.208h5.76v3.286h-5.76v7.526h6.48v3.286H74.224V253.38h9.215Zm12.023,21.3-3.84-9.822H89.534v9.822H86.8V253.415h5.76a5.3,5.3,0,0,1,3.252.989,5.957,5.957,0,0,1,1.992,2.65,10.622,10.622,0,0,1-.288,8.073,5.039,5.039,0,0,1-2.916,2.667l4.128,10.176Zm15.167,0-3.84-9.822H104.7v9.822h-2.736V253.415h5.76a5.3,5.3,0,0,1,3.252.989,5.961,5.961,0,0,1,1.992,2.65,10.624,10.624,0,0,1-.288,8.073,5.04,5.04,0,0,1-2.916,2.667l4.128,10.176Zm17.759,0-1.2-5.017H120.2L119,277.97h-2.856l5.976-24.591h3.168l5.976,24.591Zm14.135,0-3.84-9.822H136.6v9.822H133.86V253.415h5.76a5.305,5.305,0,0,1,3.252.989,5.96,5.96,0,0,1,1.992,2.65,10.625,10.625,0,0,1-.288,8.073,5.041,5.041,0,0,1-2.916,2.667l4.128,10.176Z" transform="translate(-30.553 -170.755)" fill="#2a71b9"/>
  </g>
</svg>
