<svg xmlns="http://www.w3.org/2000/svg" width="162.299" height="162.525" viewBox="0 0 162.299 162.525">
  <g id="Grupo_7030" data-name="Grupo 7030" transform="translate(-999.251 -265.277)">
    <path id="Trazado_4466" data-name="Trazado 4466" d="M268.149,231.7q-21.907,21.559-43.57,43.357c-1.431,1.437-2.7,3.047-4.195,4.447-.471.441-3.027,2.843-3.235,2.9a1.137,1.137,0,0,1-1.1-.176c-7.449-6.959-14.8-13.963-21.581-21.6-.928-1.525.415-2.77,1.362-3.868a72.221,72.221,0,0,1,6.933-6.7c.6-.513,1.639-1.469,2.4-1.493,1.489-.045,10.368,9.513,11.251,9.911.695.313,1.82-.774,2.385-1.252,2.959-2.5,33.167-33.761,35-35.454.691-.638,2.662-2.461,3.527-2.184.942.3,3.811,3.335,4.657,4.225,1.706,1.792,4.353,4.573,5.786,6.485a5.19,5.19,0,0,1,.606.907Z" transform="translate(849.269 95.666)" fill="#003770"/>
    <path id="Trazado_4467" data-name="Trazado 4467" d="M141.287,26.627c18.071,19.426,23.683,42.817,19.886,69.025-2.665,18.392-12.028,33.478-25.2,46.162-11.322,10.9-32.116,19.878-47.84,20.572-17.087.754-30.169-1.447-45.328-9.24-11.683-6.005-19.382-13.454-27.525-23.611C-1.231,108.932-4.059,75.406,5.334,51.2c9.5-24.483,33.829-45.748,60.125-49.875,30.161-4.734,55.191,3.119,75.828,25.3M73.646,17.235c-29.122,1.773-55.5,29.474-56.786,58.439C15.6,103.97,27.6,126.239,52.55,139.542c14.228,7.586,35.574,8.409,50.618,2.876,8.471-3.116,21.657-11.8,27.342-18.794C157.1,90.907,147.33,40.459,108.551,22.654c-11.91-5.468-21.842-6.215-34.9-5.419" transform="translate(999.251 265.277)" fill="#bbb"/>
  </g>
</svg>
