<svg id="Grupo_13665" data-name="Grupo 13665" xmlns="http://www.w3.org/2000/svg" xmlns:xlink="http://www.w3.org/1999/xlink" width="136.669" height="130.818" viewBox="0 0 136.669 130.818">
  <defs>
    <clipPath id="clip-path">
      <rect id="Rectángulo_4469" data-name="Rectángulo 4469" width="136.669" height="130.818" fill="none"/>
    </clipPath>
  </defs>
  <rect id="Rectángulo_4468" data-name="Rectángulo 4468" width="57.633" height="5.145" transform="translate(17.188 16.452)" fill="#0072bf"/>
  <g id="Grupo_13666" data-name="Grupo 13666">
    <g id="Grupo_13665-2" data-name="Grupo 13665" clip-path="url(#clip-path)">
      <path id="Trazado_5182" data-name="Trazado 5182" d="M126.305,49.664c-4.015,3.237-8.124,6.353-12.023,9.732-10.2,8.846-20.294,17.816-30.85,27.1L63.827,63.913l8.909-7.993L84.492,69.177l36.3-29.94L126.3,48.58Z" transform="translate(-6.566 -4.036)" fill="#2a71b9"/>
      <path id="Trazado_5183" data-name="Trazado 5183" d="M83.921,102.611v11.111a1.545,1.545,0,0,1-1.542,1.543H37.41V95.574a9.642,9.642,0,0,0-9.631-9.629H8.089V9.631A1.544,1.544,0,0,1,9.631,8.089H82.379a1.544,1.544,0,0,1,1.542,1.542V26.542a39,39,0,0,1,8.089,2.778V9.631A9.642,9.642,0,0,0,82.379,0H9.631A9.642,9.642,0,0,0,0,9.631V91.61l.2.2L8.089,99.7l15.568,15.569,7.888,7.888.2.2H82.379a9.643,9.643,0,0,0,9.631-9.633V99.842a41.1,41.1,0,0,1-8.089,2.769m-54.6,6.943L13.8,94.032H27.78a1.544,1.544,0,0,1,1.542,1.542Z" fill="#0072bf"/>
      <path id="Trazado_5184" data-name="Trazado 5184" d="M56.385,35.05a38.881,38.881,0,0,1,6.135-3.187H19.159v5.145H53.62c.89-.686,1.808-1.344,2.764-1.958" transform="translate(-1.971 -3.278)" fill="#0072bf"/>
      <path id="Trazado_5185" data-name="Trazado 5185" d="M46.609,45.387H19.159v5.145h24.1a38.491,38.491,0,0,1,3.345-5.145" transform="translate(-1.971 -4.669)" fill="#0072bf"/>
      <path id="Trazado_5186" data-name="Trazado 5186" d="M39.421,62.267c.248-1.139.551-2.257.893-3.357H19.159v5.146H39.077c.1-.6.214-1.193.344-1.789" transform="translate(-1.971 -6.06)" fill="#0072bf"/>
      <path id="Trazado_5187" data-name="Trazado 5187" d="M38.533,72.436H19.159v5.145H38.934a38.44,38.44,0,0,1-.4-5.145" transform="translate(-1.971 -7.451)" fill="#0072bf"/>
      <path id="Trazado_5188" data-name="Trazado 5188" d="M40.634,85.96H19.159v5.145H42.842a38.588,38.588,0,0,1-2.209-5.145" transform="translate(-1.971 -8.843)" fill="#0072bf"/>
      <path id="Trazado_5189" data-name="Trazado 5189" d="M50.13,99.485H46.158v5.145H55.1a37.268,37.268,0,0,1-4.966-5.145" transform="translate(-4.748 -10.234)" fill="#0072bf"/>
      <path id="Trazado_5190" data-name="Trazado 5190" d="M68.586,113.363c-.368-.11-.73-.234-1.094-.354H46.158v5.145h33.41v-2.986a40.552,40.552,0,0,1-10.982-1.805" transform="translate(-4.748 -11.625)" fill="#0072bf"/>
      <path id="Trazado_5191" data-name="Trazado 5191" d="M139.22,118.2c-6.58-7.124-13.054-14.345-19.7-21.41-1.023-1.086-3.157-2.536-4.007-2.146-4.815,2.216-5.752-2.088-8.118-4.034,6.761-9.749,8.708-19.491,7.427-28.133q-3.835,3.331-7.641,6.669A27.168,27.168,0,0,1,87.268,93.611q-.571.166-1.147.306a26.932,26.932,0,0,1-32.529-19.81,27.463,27.463,0,0,1,18.955-32.94,27.921,27.921,0,0,1,26.935,7.525l6.159-5.079a36.333,36.333,0,0,0-2.823-2.731A35.277,35.277,0,0,0,50.356,86.888a33.709,33.709,0,0,0,19.136,14.767c11.235,3.44,21.731,1.429,31.474-4.962l4.932,5.523.009,0c-4.218,3.5-3.275,6.354.1,9.57,4.754,4.541,9.093,9.52,13.634,14.289,10.487,11.012,7.952,10.374,19.228.545,3.189-2.782,3.106-5.44.353-8.427" transform="translate(-4.603 -3.347)" fill="#2a71b9"/>
    </g>
  </g>
</svg>
