<?xml version="1.0" encoding="UTF-8"?>
<svg id="Capa_1" xmlns="http://www.w3.org/2000/svg" width="20" height="20" version="1.1" viewBox="0 0 20 20">
  <!-- Generator: Adobe Illustrator 30.0.0, SVG Export Plug-In . SVG Version: 2.1.1 Build 123)  -->
  <defs>
    <style>
      .st0 {
        fill: #e92228;
      }
    </style>
  </defs>
  <g id="Grupo_2122">
    <path class="st0" d="M10,19.5c-1.3,0-2.5-.2-3.7-.7s-2.2-1.2-3-2-1.5-1.9-2-3-.7-2.4-.7-3.7.2-2.5.7-3.7,1.2-2.2,2-3,1.9-1.5,3-2,2.4-.7,3.7-.7,2.5.2,3.7.7,2.2,1.2,3,2,1.5,1.9,2,3,.7,2.4.7,3.7-.2,2.5-.7,3.7-1.2,2.2-2,3-1.9,1.5-3,2-2.4.7-3.7.7ZM10,17.6c.9,0,1.7-.1,2.5-.4s1.5-.7,2.2-1.2L4,5.3c-.5.7-.9,1.4-1.2,2.2s-.4,1.6-.4,2.5c0,2.1.7,3.9,2.2,5.4s3.3,2.2,5.4,2.2ZM16,14.7c.5-.7.9-1.4,1.2-2.2s.4-1.6.4-2.5c0-2.1-.7-3.9-2.2-5.4s-3.3-2.2-5.4-2.2-1.7.1-2.5.4-1.5.7-2.2,1.2l10.6,10.6Z"/>
  </g>
</svg>