<svg id="Grupo_13765" data-name="Grupo 13765" xmlns="http://www.w3.org/2000/svg" xmlns:xlink="http://www.w3.org/1999/xlink" width="144.237" height="130.869" viewBox="0 0 144.237 130.869">
  <defs>
    <clipPath id="clip-path">
      <rect id="Rectángulo_5515" data-name="Rectángulo 5515" width="144.237" height="130.869" fill="none"/>
    </clipPath>
  </defs>
  <rect id="Rectángulo_5510" data-name="Rectángulo 5510" width="54.524" height="4.868" transform="translate(15.786 95.88)" fill="#0072bf"/>
  <rect id="Rectángulo_5511" data-name="Rectángulo 5511" width="54.524" height="4.868" transform="translate(15.786 38.487)" fill="#0072bf"/>
  <rect id="Rectángulo_5512" data-name="Rectángulo 5512" width="31.608" height="4.867" transform="translate(15.786 27.007)" fill="#0072bf"/>
  <rect id="Rectángulo_5513" data-name="Rectángulo 5513" width="54.524" height="4.867" transform="translate(15.786 49.965)" fill="#0072bf"/>
  <rect id="Rectángulo_5514" data-name="Rectángulo 5514" width="31.608" height="4.868" transform="translate(15.786 15.529)" fill="#0072bf"/>
  <g id="Grupo_13764" data-name="Grupo 13764">
    <g id="Grupo_13763" data-name="Grupo 13763" clip-path="url(#clip-path)">
      <path id="Trazado_5705" data-name="Trazado 5705" d="M119.583,130.869h-68.5V120.682h6.628v-4.246h4.35v-1.277A4.185,4.185,0,0,1,63.3,112.18l.011-.012a4.2,4.2,0,0,1,2.968-1.223h38.115a4.213,4.213,0,0,1,4.212,4.214v1.277h4.351v4.246h6.629Zm-55.93-5.941h43.36v-2.55h-4.351v-5.491H68v5.491H63.653Z" fill="#0072bf"/>
      <path id="Trazado_5706" data-name="Trazado 5706" d="M142.946,105.121l-38.5-36.227,0,0a4.084,4.084,0,0,0-1-.671l4.984-4.985A7.626,7.626,0,0,0,116.985,50.9L101.612,35.528A7.61,7.61,0,0,0,88.938,43.12L69.693,62.366a7.617,7.617,0,0,0-7.6,12.678L77.468,90.421A7.626,7.626,0,0,0,89.8,81.862l4.27-4.271a4.137,4.137,0,0,0,.676,1l36.23,38.487a4.136,4.136,0,0,0,2.936,1.3h.064a4.15,4.15,0,0,0,2.909-1.2l6.159-6.16a4.117,4.117,0,0,0-.1-5.894m-68.4-39.207L92.48,47.981l5.629,5.628,5.77,5.77L85.946,77.312ZM95.02,39.728a1.69,1.69,0,0,1,2.391,0L112.784,55.1a1.69,1.69,0,0,1-2.36,2.42L95.054,42.155c-.038-.045-.071-.092-.106-.138l-.062-.083a1.685,1.685,0,0,1,.134-2.206M84.061,86.218a1.693,1.693,0,0,1-2.392,0L66.295,70.843a1.686,1.686,0,0,1,0-2.39,1.654,1.654,0,0,1,1.174-.481,1.7,1.7,0,0,1,1.031.348l.089.067a.977.977,0,0,0,.1.067L84.068,83.838a1.693,1.693,0,0,1-.007,2.38m49.954,25.424L100.287,75.813l1.376-1.376L137.5,108.155Z" fill="#0072bf"/>
      <path id="Trazado_5707" data-name="Trazado 5707" d="M86.57,105.428V97.637a13.161,13.161,0,0,1-7.652-.072v7.863Z" fill="#0072bf"/>
      <path id="Trazado_5708" data-name="Trazado 5708" d="M52.195,116.277v-5.358h5.317a9.729,9.729,0,0,1,1.532-2.26H8.635A1.46,1.46,0,0,1,7.176,107.2V8.724a1.461,1.461,0,0,1,1.459-1.46H51.178V25.893A9.12,9.12,0,0,0,60.289,35H78.918V45.338l4.18-4.18a13.11,13.11,0,0,1,3.472-9.146V29.643l-.189-.19-7.463-7.462L64.19,7.262,56.927,0H6.014A9.132,9.132,0,0,0,0,5.839V110.083a9.117,9.117,0,0,0,7.959,6.194H52.195ZM58.83,12.667,73.515,27.352H60.289a1.461,1.461,0,0,1-1.459-1.459Z" fill="#0072bf"/>
      <path id="Trazado_5709" data-name="Trazado 5709" d="M57.222,61.444H15.785v4.867h39a13,13,0,0,1,2.44-4.867" fill="#0072bf"/>
      <path id="Trazado_5710" data-name="Trazado 5710" d="M54.766,72.922H15.785v4.867h41.39a12.989,12.989,0,0,1-2.409-4.867" fill="#0072bf"/>
      <path id="Trazado_5711" data-name="Trazado 5711" d="M63.648,84.4H15.786v4.867H68.515Z" fill="#0072bf"/>
    </g>
  </g>
</svg>
