<?xml version="1.0" encoding="UTF-8"?>
<svg id="Capa_1" xmlns="http://www.w3.org/2000/svg" version="1.1" viewBox="0 0 135 156.7">
  <!-- Generator: Adobe Illustrator 29.1.0, SVG Export Plug-In . SVG Version: 2.1.0 Build 142)  -->
  <defs>
    <style>
      .st0 {
        fill: #2b71b7;
      }
    </style>
  </defs>
  <path id="Trazado_4415" class="st0" d="M13.2,154.4c-2-.3-3.8-1-5.6-1.9-4.5-2.5-7.2-7.3-7.1-12.4,0-5-.1-10.1,0-15.1.3-5.4,1.8-10.7,4.4-15.5,4-7.8,10.6-14.1,18.6-17.8,4-1.9,8.3-3.1,12.7-3.5.6,0,1.2,0,1.7-.2s.8,0,.9.7c1.3,5.4,2.7,10.8,4,16.2,1.2,4.7,2.3,9.3,3.5,14,1.6,6.2,3.1,12.5,4.7,18.7.6,2.3,1.2,4.7,1.9,7.1.3-1.3.7-2.7,1-4,1.4-5.8,2.7-11.5,4.1-17.3,1.4-5.8,2.7-11.6,4.1-17.3.3-1,0-2.2-.5-3.1-2.9-5-5.7-10-8.6-15.1h28.5c-.3.5-.5,1-.8,1.5-2.8,4.9-5.5,9.7-8.3,14.6-.2.4-.3.8-.2,1.2,1.7,7.5,3.5,15,5.3,22.5,1.3,5.5,2.6,11,3.9,16.5,0,.2.1.3.2.6l14.2-56.7c3.2,0,6.5.6,9.6,1.6,10.1,3,18.6,9.8,23.7,19,2.4,4.2,4,8.9,4.5,13.7.3,2.6.4,5.2.4,7.8,0,3.7.1,7.4-.1,11.1-.2,5.1-3.2,9.6-7.8,11.7-1.5.6-3.1,1.2-4.8,1.5H13.2Z"/>
  <path id="Trazado_4416" class="st0" d="M69.7,2c2,.3,4.1.5,6,1,13.5,2.9,24.3,13,28,26.3,3.6,11.3,1.6,23.7-5.6,33.1-4.8,6.9-11.9,12-20,14.2-12.2,3.8-25.6,1.1-35.3-7.3-6.3-5.1-10.7-12-12.5-19.9-2.4-9.1-1.3-18.9,3.2-27.2,4.7-9.1,12.9-15.9,22.8-18.7,2.5-.6,5-1.1,7.6-1.5h.6c0-.1,5.1-.1,5.1-.1h0Z"/>
</svg>