<?xml version="1.0" encoding="UTF-8"?>
<svg id="Capa_1" xmlns="http://www.w3.org/2000/svg" version="1.1" viewBox="0 0 135 156.7">
  <!-- Generator: Adobe Illustrator 29.1.0, SVG Export Plug-In . SVG Version: 2.1.0 Build 142)  -->
  <defs>
    <style>
      .st0 {
        fill: #2b71b7;
      }
    </style>
  </defs>
  <g id="ZZ8sxn.tif">
    <g>
      <path class="st0" d="M125.1,133.4c-28.1,6.2-56.2,12.4-84.4,18.6-.1,0-.3-.1-.4-.1-5.9.2-10.7-4-12-9.8-7.3-33.3-14.7-66.7-22-100-.3-1.2-.5-2.5-.4-3.7.3-5.6,3.9-9.8,9.6-11.1,3.7-.9,7.4-1.7,11.2-2.4,1-.2,1.5-.6,1.8-1.6.9-3.2,2.9-5.7,6-6.9,2.6-1,5.4-1.5,8.1-2.1.7-.2,1.1-.5,1.4-1.2,1.3-4.3,4.2-7,8.6-8,4.4-1,8.1.3,11.2,3.7.6.6,1,.7,1.8.5,2-.5,4-1,6-1.3,4.3-.8,7.9.4,10.7,3.7.6.7,1.1.8,1.9.6,3.8-.9,7.5-1.7,11.3-2.5,2.7-.6,5.5-.5,8,.8,3.7,1.8,5.8,4.9,6.7,8.9,7.3,33.2,14.6,66.5,22,99.7.1.6.3,1.2.3,1.8.3,2.2,0,4.4-1,6.4-1.3,2.9-3.6,4.7-6.4,6.1ZM85.8,21.5c.2.8.3,1.4.4,2,1.5,6.8-1.9,12.5-8.7,14-11.3,2.6-22.6,5.1-34,7.5-6.8,1.4-12.3-2.3-13.8-9.1-.1-.6-.3-1.3-.4-2-3.9.9-7.6,1.7-11.3,2.5-2.5.5-3,1.4-2.5,3.9,7.3,33.1,14.6,66.3,21.9,99.4.6,2.5,1.4,3,3.9,2.5,26.4-5.8,52.7-11.6,79.1-17.4,2.5-.5,3-1.4,2.5-3.9-2.8-12.8-5.6-25.5-8.4-38.3-4.5-20.5-9-40.9-13.5-61.4-.4-2-1.3-2.7-3.1-2.4-3.9.8-7.9,1.7-12,2.6ZM58.5,32.1c5.6-1.2,11.2-2.5,16.8-3.7,1.8-.4,2.2-1,1.8-2.8-.5-2.1-.9-4.2-1.4-6.3-.4-2-1.1-2.4-3.1-1.9-3.1.7-6.3,1.4-9.4,2.1-2.9.6-4.9-.5-5.9-3.3-.5-1.4-1.5-2.1-2.7-1.8-1.2.2-1.8,1.3-1.7,2.7.3,3-1.1,4.9-4,5.6-3.1.7-6.3,1.4-9.4,2.1-1.9.4-2.4,1.1-2,3,.4,2,.9,4,1.3,6,.5,2.2,1,2.6,3.3,2.1,5.5-1.2,10.9-2.4,16.4-3.6Z"/>
      <path class="st0" d="M62.5,103.1c-3-13.9,5.8-27.4,19.7-30.3,13.5-2.9,27.1,5.9,30.1,19.4,3.1,13.8-5.8,27.5-19.8,30.4-13.5,2.9-27.1-6-30-19.5ZM103.4,99c-.7.2-1.2.3-1.7.4-4,.9-8.1,1.7-12.1,2.7-2.1.5-3.9.2-5.7-1-2.9-2-6-3.9-9-5.8-1-.6-1.8-1.3-2.8-2.1-1.9,6,.2,12.7,5,16.8,4.9,4.2,11.9,5,17.7,1.9,5.1-2.7,7.9-7,8.6-12.9ZM77.1,85.5c3.5,2.3,6.9,4.5,10.4,6.6.5.3,1.2.4,1.8.2,3.6-.7,7.3-1.6,10.9-2.4.3,0,.7-.2,1-.3-3.9-8.4-17.4-10.8-24.1-4.2Z"/>
      <path class="st0" d="M45.4,52.4c5.4-1.2,10.8-2.4,16.2-3.6,3.1-.7,5.6.9,6.2,3.7.4,2.2-.8,4.4-2.9,5.1-.5.2-1,.3-1.4.4-10.7,2.4-21.5,4.7-32.2,7.1-2.7.6-4.6,0-5.7-1.8-1.9-2.9-.3-6.4,3.3-7.3,4.8-1.1,9.7-2.1,14.5-3.2.7-.2,1.4-.3,2.1-.5Z"/>
      <path class="st0" d="M46.4,90.2c-3.3.7-6.5,1.4-9.8,2.2-2.7.6-5.2-.9-5.8-3.4-.6-2.6,1-5.1,3.8-5.7,6.6-1.5,13.2-2.9,19.8-4.4,2.7-.6,5.2,1,5.8,3.5.6,2.5-1.1,5-3.8,5.6-3.3.8-6.7,1.5-10.1,2.2Z"/>
      <path class="st0" d="M41.7,67.5c3.4-.8,6.9-1.6,10.3-2.3,1.9-.4,3.4.4,4.5,1.9,1.1,1.5,1.1,3.2.3,4.8-.7,1.4-1.9,2.1-3.3,2.5-6.6,1.5-13.2,3-19.9,4.4-2.8.6-5.2-1-5.8-3.5-.6-2.6.9-4.9,3.8-5.6,3.3-.8,6.7-1.5,10.1-2.2,0,0,0,0,0,0Z"/>
    </g>
  </g>
</svg>