<?xml version="1.0" encoding="UTF-8"?>
<svg id="Capa_1" xmlns="http://www.w3.org/2000/svg" version="1.1" viewBox="0 0 135 156.7">
  <!-- Generator: Adobe Illustrator 29.1.0, SVG Export Plug-In . SVG Version: 2.1.0 Build 142)  -->
  <defs>
    <style>
      .st0 {
        fill: #2971b9;
      }
    </style>
  </defs>
  <g id="LQjZry.tif">
    <g>
      <path class="st0" d="M30.5,155.9c-5.7-.4-13.4-7.4-13.4-13.2v-42.8l9.4-.6v42.8c0,1.2,2.9,4.1,4.3,4.2l80.7.2c3.1-.2,5.4-2.6,5.6-5.6l-.3-89c-8.3-1-23.6,3.8-28.7-5s-1.5-3.1-1.5-3.4v-22.1h-39.9v-9.4c.3,0,1.8.3,1.5-.5-1.3-1.8-3.1-1.3-3.4.9v40.1c.5,1.9,3,2,3.3.3.5-5.5-.4-11.6,0-17s9.2-6.7,10.2-.5.5,16.5-.3,19.8c-3,12.6-21.1,11.8-23.3-.8.9-14.1-1.3-29.9,0-43.8s14.6-14.1,21-6.1,2.2,4.7,2.9,7.5h31.4c0,.1,36.2,36.2,36.2,36.2v94.1c-1.2,7.2-6.2,12.3-13.4,13.7H30.5Z"/>
      <path class="st0" d="M29.9,55c1.3,11.7,15.5,18.1,25.5,12.2s8.2-9.1,8.6-15.8.6-16.8-1.5-20.4-2-1.9-2.4-3.2c1.2,0,2.3,0,3.5,0,2.5-.2,7.2-1.2,9.4,0s2.1,3.9,2.3,6.2c.5,5.4.5,11,.9,16.4.8,10.7,2,21.6,2.4,32.3s.7,7.5-3.8,8.1c-20.5.7-41,3.6-61.4,4.3-4.6.2-5.5-1.4-5.9-5.6-1.7-15.1-2.1-31.9-3-47.2s-.9-5.7-.4-7.7,2-2.8,3.9-3.1l21.3-1.5.7.4v24.7Z"/>
      <path class="st0" d="M29.9,12.2v9.6c0,.1-1.7,1.3-2.1,1.8s-.5,1.3-.8,1.4c-2.5.1-5,.4-7.5.6s-2,.3-2-.5c0-5.9,6.7-12.4,12.5-12.9Z"/>
    </g>
  </g>
</svg>