<?xml version="1.0" encoding="UTF-8"?>
<svg id="Capa_1" xmlns="http://www.w3.org/2000/svg" version="1.1" viewBox="0 0 135 156.7">
  <!-- Generator: Adobe Illustrator 29.1.0, SVG Export Plug-In . SVG Version: 2.1.0 Build 142)  -->
  <defs>
    <style>
      .st0 {
        fill: #2971b9;
      }

      .st1 {
        fill: #2b71b7;
      }
    </style>
  </defs>
  <g id="VcUDHP">
    <g>
      <path class="st0" d="M96.1,62.5l1.3,10.2,9.5,3.4c1.7-.5,6.9-5.8,8.1-5.4s9.2,8.8,9.5,9.4.2.7,0,1.3c-.8,1.7-4.4,4.9-5.1,6.4s3.6,7.6,3.3,10.2l10.2,1.3v14.5s-10.2,1.4-10.2,1.4l-3.4,9.4c.5,1.7,5.8,6.9,5.4,8.1s-8.2,7.5-9.4,9.5c-.5.3-.8.2-1.3,0-1.3-.6-6.7-5.7-7.5-5.7-2.7,1.9-5.9,3-9.1,3.8l-1.4,9.8-14.5.5-1.3-10.2c-3.3-.6-6.4-2-9.1-3.8l-8.1,5.8c-1.8-2.6-8.8-7-9.9-9.4s-.2-.7,0-1.3c.8-1.8,5.6-5.9,5.3-7.8s-3.5-6.1-3.4-8.8l-10-1.8c.3-4.6.6-9.6-.2-14.1l10.2-1.3,3.4-9.5c-.5-1.7-5.8-6.9-5.4-8.1s8.8-9.2,9.4-9.5.7-.2,1.3,0c1.9.8,6,5.6,7.8,5.3s5.9-3.8,8.8-3.4l1.3-10.2h14.5ZM87.4,83.5c-4.7.8-5.1,5.2-5,9.1.2,5.6,1.3,11.2,1.6,16.8,1.8,5,9,4.5,9.9-.7s1.8-16.1,1.4-19.6-3.9-6.4-7.8-5.7ZM87.9,118.6c-1.2.2-2.7,1.1-3.4,2.1-3.8,5.2,2.4,11.6,7.6,8,4.9-3.4,1.7-11.1-4.2-10.2Z"/>
      <path class="st0" d="M53.9,27.7l-2.7,5.4,1.9,2.7h3.4c0,0,3-5.2,3-5.2,3.8,5,.5,11.9-5.6,12.5-3.8,7.1-7.7,14.2-11.2,21.5,3,5.3-.9,12-7.1,11.6l2.6-5.2c0-.2-1.7-2.8-1.8-2.9-.4-.4-.9,0-1.4,0-.8,0-1.6,0-2.3,0l-2.8,5.2c-3.6-5.1-.6-12.2,5.8-12.5l11.1-21.5c-3.1-5.5.9-12,7.2-11.7Z"/>
      <g>
        <path class="st1" d="M73.2,147.3c-.1-.6-.2-1.2-.3-1.8-.4-.1-.7-.3-1.1-.4-1.1.7-2.1,1.4-3.2,2.1h0c0,0,4.7,0,4.7,0Z"/>
        <path class="st1" d="M47.9,140.9c-.7-.7-1.3-1.5-1.7-2.4h-16.8c-4.9,0-8.8-3.9-8.8-8.8V24.2c0-4.9,3.9-8.8,8.8-8.8h48.4v17.6c0,7.3,5.9,13.2,13.2,13.2h17.6v21.1l1.2-.8c2.6-1.7,5.2-2,7.6-1.1v-19.2L77.7,6.6H29.3c-9.7,0-17.6,7.9-17.6,17.6v105.6c0,9.7,7.9,17.6,17.6,17.6h25l-6.4-6.4Z"/>
        <path class="st1" d="M104,145.2l-.5.2-.5.2v.7c-.2.2-.2.5-.3.7,1-.2,1.9-.4,2.8-.8-.5-.3-1-.7-1.5-1Z"/>
      </g>
    </g>
  </g>
</svg>