<?xml version="1.0" encoding="UTF-8"?>
<svg id="Capa_1" xmlns="http://www.w3.org/2000/svg" version="1.1" viewBox="0 0 135 156.7">
  <!-- Generator: Adobe Illustrator 29.1.0, SVG Export Plug-In . SVG Version: 2.1.0 Build 142)  -->
  <defs>
    <style>
      .st0 {
        fill: #2b71b7;
      }

      .st1 {
        fill: #2871b7;
      }
    </style>
  </defs>
  <g id="file-earmark-arrow-up">
    <path id="Trazado_2216" class="st0" d="M113.2,112l-25.7-62.4-41.7-17.3-36.1,14.9c-7.2,3-10.7,11.3-7.7,18.5h0l32.5,78.8c3,7.2,11.3,10.7,18.5,7.7l52.5-21.7c7.2-3,10.7-11.3,7.7-18.5ZM53.8,52c2.2,5.4,8.5,8,13.9,5.8h0l13.1-5.4,25.7,62.4c1.5,3.6-.2,7.8-3.9,9.3l-52.5,21.7c-3.6,1.5-7.8-.2-9.3-3.9L8.5,63c-1.5-3.6.2-7.8,3.9-9.3h0l36.1-14.9,5.4,13.1Z"/>
  </g>
  <path class="st0" d="M72.7,60.8c2.6-1.1,5.1-.1,6,2.3.7,1.9,0,4-1.8,5-.4.2-35.8,14.9-44.9,18.6-2.3.9-4,.7-5.3-.7-2.1-2.2-1.3-5.6,1.8-6.9,4.1-1.7,39.6-16.4,44.2-18.3Z"/>
  <path class="st0" d="M44.8,119.1c-2.3,1-4.7,0-5.7-2.1-.9-2.2.1-4.6,2.5-5.6,5.6-2.3,39-16.1,44.6-18.4,2.3-.9,4.8,0,5.7,2.2.9,2.2-.2,4.6-2.5,5.5-2.8,1.2-41.8,17.3-44.6,18.4Z"/>
  <path class="st0" d="M79.6,75.6c1.6-.6,3.1-.2,4.3,1,1.2,1.2,1.5,2.6,1,4.2-.4,1.3-1.3,2.2-2.5,2.7-5.6,2.3-39,16.1-44.6,18.4-2.3,1-4.8,0-5.7-2.2-.9-2.2,0-4.5,2.5-5.5,2.8-1.2,5.7-2.4,8.5-3.5,0,0,33.6-13.9,36.6-15Z"/>
  <path class="st0" d="M31.7,78.6"/>
  <g id="QCbSHe.tif">
    <path class="st1" d="M133.5,32.6v4c-.9,11.6-9,21.8-20.1,25.1-2.5.8-6.3,1.4-9,1.2-5.3-.6-6-9.3.8-9.9,6.5-.6,11.1-2.3,15-7.8,9.6-13.5-2.3-31.8-18.6-28.8-4.2.8-10.4,4.4-12.2,8.4-1.1,2.4,1.5,1.6,2.9,1.8,4.7.6,4.7,7.9-.1,8.6h-16.3c-1.8-.4-3.1-1.9-3.4-3.8V15.4c.9-5.2,8.7-4.4,8.7.7v2.2c1.1,0,1.8-1.5,2.4-2.3,9.6-10.7,25.1-13.1,37.3-5,7,4.7,12,13.1,12.6,21.5Z"/>
  </g>
</svg>