<?xml version="1.0" encoding="UTF-8"?>
<svg id="Capa_1" xmlns="http://www.w3.org/2000/svg" version="1.1" viewBox="0 0 135 156.7">
  <!-- Generator: Adobe Illustrator 29.1.0, SVG Export Plug-In . SVG Version: 2.1.0 Build 142)  -->
  <defs>
    <style>
      .st0 {
        fill: #2b71b7;
      }
    </style>
  </defs>
  <g id="file-earmark-arrow-up">
    <path class="st0" d="M95.2,142.7H31c-5.1,0-9.3-4.2-9.3-9.3V21.6c0-5.1,4.2-9.3,9.3-9.3h51.2v18.6c0,7.7,6.3,14,14,14h18.6v70.2c.7.5,8.4,6.5,9.3,7.4V44.9L82.2,3H31c-10.3,0-18.6,8.3-18.6,18.6v111.7c0,10.3,8.3,18.6,18.6,18.6h73.4c-3-3.2-6-6.3-9.1-9.3Z"/>
  </g>
  <path class="st0" d="M90.7,125.9c-2-2-3.5-3.5-5.3-5.3-9.5,7-20.1,9.7-31.7,6.8-8.5-2.1-15.3-6.8-20.3-13.9-10.4-14.8-8.6-34.8,4.1-46.8,12.8-12.2,32.8-13.4,46.5-2.8,13.1,10.1,20.1,29.6,7.4,50.2,2.5,1.8,3.7,6.2,8.5,3.6.8-.4,3.1.9,4.2,2,7.1,6.8,14.1,13.8,21.2,20.6,3,2.9,3.2,5.6.1,8.6-10.9,10.6-8.3,11.1-19.5.5-4.9-4.6-9.6-9.4-14.6-13.7-3.6-3.1-4.7-5.9-.6-9.7ZM71.3,118.2c14.4-4.7,22.2-20.3,17.5-34.8-4.6-14.2-21-22.4-35.4-17.6-13.9,4.7-21.9,20.5-17.4,34.5,4.9,15.1,20.2,22.9,35.3,17.9Z"/>
</svg>