<?xml version="1.0" encoding="UTF-8"?>
<svg id="Capa_1" xmlns="http://www.w3.org/2000/svg" version="1.1" viewBox="0 0 135 156.7">
  <!-- Generator: Adobe Illustrator 29.1.0, SVG Export Plug-In . SVG Version: 2.1.0 Build 142)  -->
  <defs>
    <style>
      .st0 {
        fill: #2b71b7;
      }
    </style>
  </defs>
  <g id="file-earmark-arrow-up">
    <path id="Trazado_2216" class="st0" d="M126.5,136.5V44.6L83,1.1H29.8c-10.7,0-19.3,8.7-19.3,19.3h0v116.1c0,10.7,8.7,19.3,19.3,19.3h77.4c10.7,0,19.3-8.7,19.3-19.3ZM83,30.1c0,8,6.5,14.5,14.5,14.5h19.3v91.9c0,5.3-4.3,9.7-9.7,9.7H29.8c-5.3,0-9.7-4.3-9.7-9.7V20.5c0-5.3,4.3-9.7,9.7-9.7h53.2v19.3Z"/>
  </g>
  <g id="mEyMYK.tif">
    <path class="st0" d="M71,130.8h-8.8c0,0-.1-.1-.2-.1-1.3-.2-1.7-1.1-1.9-2.2-.4-2.3-.9-4.7-1.4-7,0-.3-.4-.6-.7-.8-1.4-.6-2.8-1.2-4.3-1.7-.3-.1-.7,0-1,.1-2,1.3-3.9,2.6-5.9,3.9-1.3.9-2.2.8-3.3-.3-1.8-1.8-3.6-3.6-5.4-5.4-1.1-1.1-1.2-2-.3-3.3,1.3-2,2.6-3.9,3.9-5.9.2-.3.3-.7.1-1-.5-1.4-1.1-2.9-1.7-4.3-.1-.3-.5-.6-.8-.7-2.4-.5-4.8-1-7.2-1.4-.9-.2-1.6-.6-1.9-1.5,0-.2-.1-.4-.2-.6,0-2.8,0-5.7,0-8.5,0,0,.1-.1.1-.2.2-1.3,1.1-1.7,2.2-1.9,2.3-.4,4.7-.9,7-1.4.3,0,.6-.4.8-.7.6-1.3,1.1-2.7,1.7-4,.2-.5.3-.9,0-1.4-1.3-1.9-2.6-3.9-3.9-5.8-.8-1.2-.7-2.1.3-3.2,1.8-1.8,3.6-3.6,5.4-5.4,1.1-1.1,2-1.2,3.3-.3,2,1.3,3.9,2.6,5.8,3.9.3.2.6.3,1,.1,1.4-.6,2.8-1.2,4.2-1.7.4-.2.6-.4.7-.8.4-2.3.9-4.7,1.4-7,.3-1.6,1-2.2,2.7-2.3,2.6,0,5.1,0,7.7,0,1.4,0,2.1.6,2.4,1.9.5,2.4,1,4.8,1.4,7.2.1.6.4.8.9,1,1.4.5,2.7,1.1,4,1.6.3.1.7,0,.9,0,2-1.3,4-2.6,6-4,1.3-.9,2.2-.8,3.3.3,1.8,1.8,3.6,3.6,5.4,5.4,1.2,1.2,1.3,2,.3,3.4-1.3,2-2.6,3.9-3.9,5.9-.2.2-.2.7-.1.9.5,1.4,1.1,2.7,1.7,4.1.2.5.5.7,1,.8,2.4.5,4.8.9,7.2,1.4,1.4.3,2,1,2,2.4,0,2.6,0,5.3,0,7.9,0,1.4-.6,2.1-2,2.4-2.4.5-4.8,1-7.2,1.4-.5,0-.8.3-.9.8-.5,1.4-1.1,2.7-1.6,4.1-.1.3,0,.7,0,.9,1.3,2,2.6,3.9,3.9,5.9,1,1.5.9,2.3-.3,3.5-1.8,1.8-3.5,3.5-5.3,5.3-1.2,1.2-2,1.3-3.4.4-2-1.3-3.9-2.6-5.9-3.9-.2-.1-.6-.2-.9,0-1.4.5-2.8,1.2-4.2,1.7-.4.2-.6.4-.7.8-.4,2.2-.9,4.4-1.3,6.7-.2,1.2-.7,2.2-2,2.6ZM55.7,94.4c0,5.8,4.8,10.8,10.5,10.8,6.1,0,11-4.8,11-10.8,0-5.9-4.9-10.8-11-10.8-5.6,0-10.5,4.9-10.5,10.7Z"/>
  </g>
</svg>