<?xml version="1.0" encoding="UTF-8"?>
<svg id="Capa_1" xmlns="http://www.w3.org/2000/svg" version="1.1" viewBox="0 0 135 156.7">
  <!-- Generator: Adobe Illustrator 29.1.0, SVG Export Plug-In . SVG Version: 2.1.0 Build 142)  -->
  <defs>
    <style>
      .st0 {
        fill: #2871b7;
      }
    </style>
  </defs>
  <g id="xuXRmg.tif">
    <g>
      <path class="st0" d="M105.2,103.9v-12.4h7.7c1,0,1.6-1.2,1.7-2,.3-1.8.2-6.8,0-8.6s-.8-2.2-2.3-2H22.1c-.9,0-1.4,1-1.5,1.8-.3,1.8-.2,6.4,0,8.3s.5,2.5,1.8,2.5h7.7v12.4H9.7c-3.9,0-8.9-5.2-9.2-9.1.5-11-.9-23.2,0-34.1.5-5.7,5.3-9.8,10.9-10.1h112.9c5.2.3,10,4.3,10.6,9.6,1.2,10.6-.9,23.3,0,34.1-.1,4.1-5.2,9.5-9.3,9.5h-20.3ZM118.9,58.5c-6.1.5-5.6,10.3,1.2,9.3s4.6-9.8-1.2-9.3Z"/>
      <path class="st0" d="M102,47.7H33.2v-27.3h14.4c.1,0,1.2-.8,1.2-.9V4.8h52.3c0,0,.9.9.9.9v42Z"/>
      <path class="st0" d="M39.4,82.1v61.5c0,.6,1.3,1.4,2,1.2h52.4c.7.2,2-.6,2-1.2v-61.5h6.2v67.9c0,0-.6.7-.8.8H34c-.2-.1-.8-.7-.8-.8v-67.9h6.2Z"/>
      <polygon class="st0" points="45.9 5.9 45.9 17.2 34.3 17.2 45.9 5.9"/>
      <path class="st0" d="M30,38.3v9.4h-6.2v-8.5c0,0,.9-.9.9-.9h5.2Z"/>
      <path class="st0" d="M111.4,47.7h-6.2v-9.4h5.2c0,0,.9.9.9.9v8.5Z"/>
      <rect class="st0" x="23.8" y="82.1" width="6.2" height="6.2"/>
      <rect class="st0" x="105.2" y="82.1" width="6.2" height="6.2"/>
      <path class="st0" d="M118.9,61.8c1.3-.2,2.5,1.1,1.7,2.3-1.8,2.7-4.6-1.7-1.7-2.3Z"/>
    </g>
  </g>
  <g id="QCbSHe.tif">
    <path class="st0" d="M55.9,130l-2-2c-5.3-6.2-6.4-15.4-2.5-22.6.9-1.6,2.4-3.9,3.9-5.1,3-2.4,7.6,1.6,4.5,5.4-2.9,3.5-4.4,6.7-3.6,11.4,2,11.5,17,14.7,23.7,5.1,1.7-2.5,3-7.4,1.9-10.3-.7-1.8-1.6,0-2.3.5-2.7,2.1-6.3-1.6-4.2-4.3l8.1-8.1c1.1-.7,2.5-.6,3.6.1l8,8c2.1,3-2.1,6.5-4.7,4l-1.1-1.1c-.5.6-.1,1.6,0,2.3.6,10.2-6,19.1-16.1,21.1-5.9,1.2-12.5-.5-17-4.5Z"/>
  </g>
</svg>