<svg xmlns="http://www.w3.org/2000/svg" xmlns:xlink="http://www.w3.org/1999/xlink" width="170" height="141.325" viewBox="0 0 170 141.325">
  <defs>
    <clipPath id="clip-path">
      <rect id="Rectángulo_4164" data-name="Rectángulo 4164" width="170" height="141.325" fill="none"/>
    </clipPath>
  </defs>
  <g id="Grupo_7063" data-name="Grupo 7063" transform="translate(0.35 -0.127)">
    <g id="Grupo_7062" data-name="Grupo 7062" transform="translate(-0.35 0.127)" clip-path="url(#clip-path)">
      <path id="Trazado_4485" data-name="Trazado 4485" d="M256.929,271H204.241A6.248,6.248,0,0,0,198,277.241v58.246a6.249,6.249,0,0,0,6.241,6.241h58.246a6.248,6.248,0,0,0,6.241-6.241V282.549Zm-25.645,4.16V291.8h12.481V275.16h4.16v20.8H214.642v-20.8Zm-20.8,37.444h45.765v24.963H210.481Zm54.086,22.882a2.086,2.086,0,0,1-2.08,2.08h-2.08V308.444H206.321v29.123h-2.08a2.084,2.084,0,0,1-2.08-2.08V277.241a2.084,2.084,0,0,1,2.08-2.08h6.241v24.963h41.6V275.16h3.145l9.336,9.136Z" transform="translate(-145.966 -200.402)" fill="#2971b9"/>
      <path id="Trazado_4486" data-name="Trazado 4486" d="M113.453,265.975c-13.211-4.172-22.53-14.161-22.551-29.864a75.02,75.02,0,0,1,1.181-10.5c.158-1.1.029-1.843-1.019-2.348a20.161,20.161,0,0,1-2.633-1.455,1.771,1.771,0,0,1-.756-1.2,1.43,1.43,0,0,1,.91-.916c5.661-1.759,11.336-3.471,17.008-5.189a1.148,1.148,0,0,1,1.631.894c1.665,5.689,3.356,11.372,4.994,17.066.11.384.005,1.1-.249,1.255a1.776,1.776,0,0,1-1.414.022c-.923-.382-1.772-.942-2.668-1.393-1.382-.7-2-.462-2.576.926-4.888,11.864-2.313,23.2,7.22,31.788.272.245.523.515.924.912" transform="translate(-64.436 -158.569)" fill="#2971b9"/>
      <path id="Trazado_4487" data-name="Trazado 4487" d="M489.977,291.877c4.827,2.943,8.831,6.251,11.795,10.689,5.568,8.335,5.906,17.352,3.281,26.684a53.842,53.842,0,0,1-2.487,6.552,1.879,1.879,0,0,0,.607,2.611,13.317,13.317,0,0,1,1.958,1.676,2.339,2.339,0,0,1,.693,1.517c-.025.285-.844.671-1.335.719-5.711.55-11.428,1.024-17.138,1.569-1.2.114-1.649-.373-1.735-1.493q-.547-7.149-1.139-14.3c-.08-1-.223-2-.212-3,.005-.461.189-1.147.51-1.314a1.732,1.732,0,0,1,1.385.3c.824.565,1.546,1.278,2.328,1.907,1.166.945,1.872.829,2.695-.419,7.313-11.1,6.992-22.464-.941-33.027a5.3,5.3,0,0,1-.265-.671" transform="translate(-357.519 -215.831)" fill="#2971b9"/>
      <path id="Trazado_4488" data-name="Trazado 4488" d="M152.044,54.609a31.118,31.118,0,0,0,.895-7.371,30.56,30.56,0,0,0-42.627-28.052,47.232,47.232,0,0,0-85.146,25.1,38.87,38.87,0,0,0,13.721,75.247h8.874v-9.149l-.28.887a43.542,43.542,0,0,1-6.631-2.7h-.534a30.409,30.409,0,0,1-19.535-7.089A26.94,26.94,0,0,1,11.113,83.6,27.946,27.946,0,0,1,31.473,53.71,6.33,6.33,0,0,0,36.017,47.5v-.255A36.971,36.971,0,0,1,42.509,26.2,33.982,33.982,0,0,1,59.842,13.031a39.352,39.352,0,0,1,12.452-2.069,36.249,36.249,0,0,1,30.984,17.4,6.374,6.374,0,0,0,5.485,3.065,7.167,7.167,0,0,0,3.662-1.029,19.494,19.494,0,0,1,9.979-2.736,21.126,21.126,0,0,1,4.706.542,19.221,19.221,0,0,1,13.983,13.039,20.071,20.071,0,0,1-.608,13.526c-1.3,3.138.376,6.75,3.82,8.223a23.666,23.666,0,0,1,14.224,24.558,22.631,22.631,0,0,1-5.926,12.84,41.494,41.494,0,0,1-1.658,14.217l-.026.088c-.114.371-.235.741-.357,1.11a34.717,34.717,0,0,0,1.482-61.2" transform="translate(0.358 -0.13)" fill="#2971b9"/>
    </g>
  </g>
</svg>
