<svg xmlns="http://www.w3.org/2000/svg" xmlns:xlink="http://www.w3.org/1999/xlink" width="141.632" height="128.85" viewBox="0 0 141.632 128.85">
  <defs>
    <clipPath id="clip-path">
      <rect id="Rectángulo_2261" data-name="Rectángulo 2261" width="141.632" height="128.849" fill="#2971b9"/>
    </clipPath>
  </defs>
  <g id="Grupo_2758" data-name="Grupo 2758" clip-path="url(#clip-path)">
    <path id="Trazado_2308" data-name="Trazado 2308" d="M94.227,15.686l-20.339,39.3c.169.047.34.1.51.151a21.734,21.734,0,0,1,3.526,1.476,18.374,18.374,0,0,1,3.612,2.462l20.4-39.418a4.335,4.335,0,1,0-7.705-3.974" transform="translate(37.635 6.794)" fill="#2971b9"/>
    <path id="Trazado_2309" data-name="Trazado 2309" d="M32.866,88.883A67.12,67.12,0,0,0,50.109,99.916a89.508,89.508,0,0,0,21.741,6.759.287.287,0,0,0,.033.008,2.946,2.946,0,0,0,.4.027c.035,0,.063,0,.1,0,11.93-.388,21.225-4.364,27.639-11.811,8.425-9.8,11.471-24.524,10.878-37.188a15.482,15.482,0,0,0-3.991-9.966c-.186-.2-.386-.388-.59-.571a14.1,14.1,0,0,0-2.942-2.047,17.647,17.647,0,0,0-2.868-1.2,9.789,9.789,0,0,0-1.233-.3,9.267,9.267,0,0,0-1.7-.152c-4.179,0-8.188,2.629-11.252,5.314a96.712,96.712,0,0,1-9.954,8.166c-3.912,2.595-8.214,3.9-12.692,5.176a108.925,108.925,0,0,1-17.708,3.372,144.631,144.631,0,0,1-16.055.942c-2.128,0-4.259-.054-6.373-.169-.13-.009-.251-.014-.376-.023-.066,0-.137-.006-.208-.006a2.952,2.952,0,0,0-2.786,3.9,44.883,44.883,0,0,0,12.7,18.745M28.731,72.3h.012c.294,0,.607,0,.922,0a153.329,153.329,0,0,0,17.163-.964c14.345-1.633,26.039-5.124,34.9-10.4a1.55,1.55,0,0,1,.814-.226,1.6,1.6,0,0,1,.779.2c5.15,2.829,13.142,7.02,18.843,9.055a1.619,1.619,0,0,1,1.064,1.7c-.687,5.951-2.623,13.524-7.693,19.409-5.2,6.024-12.872,9.293-22.826,9.719h-.092a2.133,2.133,0,0,1-.386-.033c-1-.175-3.475-.654-6.8-1.567.946-.418,1.926-.918,2.916-1.479.888-.5,1.775-1.041,2.666-1.615a90.535,90.535,0,0,0,7.437-5.416.521.521,0,0,0-.524-.891,71.341,71.341,0,0,1-15.415,3.986c-1.618.261-3.176.478-4.617.658-1.686.217-3.213.377-4.48.5-.334-.146-.67-.3-1-.447A70.248,70.248,0,0,1,44.4,90.2a30.811,30.811,0,0,0,3.363-.515c1.044-.213,2.1-.468,3.139-.752a82.135,82.135,0,0,0,7.972-2.656.35.35,0,0,0-.166-.673c-3.622.347-8.652.382-12.95.32-1.408-.023-2.735-.053-3.909-.088-1.547-.044-2.818-.091-3.66-.127q-.736-.618-1.443-1.253-.91-.822-1.757-1.675c.871-.088,1.784-.228,2.7-.4.863-.166,1.724-.361,2.6-.578a79.831,79.831,0,0,0,8.963-2.919.349.349,0,0,0-.16-.673c-3.405.324-8.042.376-12.152.329-1.013-.014-2-.03-2.924-.051-1.023-.023-1.976-.048-2.815-.077a37.478,37.478,0,0,1-3.164-4.937.791.791,0,0,1,.7-1.164" transform="translate(10.194 22.139)" fill="#2971b9"/>
    <path id="Trazado_2310" data-name="Trazado 2310" d="M98.124,74.763a6.96,6.96,0,1,1-6.957-6.96,6.959,6.959,0,0,1,6.957,6.96" transform="translate(42.889 34.536)" fill="#2971b9"/>
    <path id="Trazado_2311" data-name="Trazado 2311" d="M83.575,84.163a3.517,3.517,0,1,1-3.52-3.518,3.52,3.52,0,0,1,3.52,3.518" transform="translate(38.987 41.077)" fill="#2971b9"/>
    <path id="Trazado_2312" data-name="Trazado 2312" d="M21.8,95.233a12.154,12.154,0,0,1-.584-4.954c-9.808-2.94-15.58-7.342-15.58-10.7a3.746,3.746,0,0,1,.509-1.786,7.489,7.489,0,0,1,1.318-1.767c4.321,2.845,10.306,5.159,17.338,6.7a12.06,12.06,0,0,1,8.345-3.4c.27,0,.54.009.8.026l.4.024c1.783.1,3.761.148,5.758.148a135.663,135.663,0,0,0,15.047-.886A99.29,99.29,0,0,0,71.39,75.551c4.086-1.162,7.429-2.2,10.164-4.013a68.187,68.187,0,0,0,7.283-5.917l.782-.691V49.557a10.67,10.67,0,0,0-3.12-7.162,10.708,10.708,0,0,0,3.12-7.162v-15.7C89.618,8.742,69.56,0,44.82,0,20.059,0,0,8.742,0,19.534v15.7a10.7,10.7,0,0,0,3.123,7.162A10.66,10.66,0,0,0,0,49.557v15.7a10.666,10.666,0,0,0,3.123,7.162A10.666,10.666,0,0,0,0,79.579v15.7c0,9.05,14.162,16.677,33.373,18.885A52.733,52.733,0,0,1,21.8,95.233M6.149,17.749C8.95,12.372,23.689,5.64,44.82,5.64c20.585,0,35.133,6.409,38.443,11.713a4.168,4.168,0,0,1,.717,2.181c0,3.947-7.989,9.36-21.169,12.125A88.58,88.58,0,0,1,44.82,33.428a88.614,88.614,0,0,1-18.011-1.769C13.629,28.894,5.64,23.481,5.64,19.534a3.732,3.732,0,0,1,.509-1.786m0,30.023a7.387,7.387,0,0,1,1.318-1.764c8.025,5.283,21.748,8.756,37.354,8.756s29.345-3.473,37.352-8.756a8.2,8.2,0,0,1,1.091,1.366,4.182,4.182,0,0,1,.717,2.184,4.661,4.661,0,0,1-1.111,2.762c-.149.19-.32.379-.486.566a10.989,10.989,0,0,1-1.131,1.109,20.467,20.467,0,0,1-3.459,2.388,8.787,8.787,0,0,1-.919.506c-.038.021-.075.038-.113.056-.358.211-.714.377-1.109.566-.377.187-.773.376-1.183.546a54.078,54.078,0,0,1-8.122,2.78c-.38.112-.771.208-1.167.3-.773.187-1.564.374-2.386.543h-.02c-1.411.3-2.857.566-4.379.774-.6.11-1.224.184-1.844.26-.62.094-1.259.149-1.917.228-.45.056-.9.094-1.372.133-.548.054-1.093.094-1.657.128-.62.059-1.259.1-1.9.113-.791.056-1.6.074-2.406.1-.829.014-1.657.035-2.483.035-.845,0-1.656-.021-2.481-.035-.811-.024-1.618-.042-2.406-.1-.641-.017-1.262-.054-1.861-.092-.583-.056-1.147-.1-1.692-.149-.492-.039-.978-.1-1.452-.133-.635-.078-1.256-.151-1.858-.228-.583-.075-1.131-.149-1.692-.243-1.58-.225-3.085-.492-4.531-.791H26.83c-.829-.169-1.62-.356-2.388-.543-.4-.094-.791-.19-1.168-.3a55.155,55.155,0,0,1-7.37-2.465c-.542-.222-1.069-.468-1.559-.693-.338-.149-.66-.3-.958-.468-.225-.115-.432-.226-.64-.34a14.853,14.853,0,0,1-1.446-.811,13.415,13.415,0,0,1-1.3-.826,14.377,14.377,0,0,1-2.916-2.518,8.314,8.314,0,0,1-.6-.773,4.325,4.325,0,0,1-.845-2.388,3.746,3.746,0,0,1,.509-1.786" transform="translate(0 0)" fill="#2971b9"/>
    <path id="Trazado_2313" data-name="Trazado 2313" d="M96.212,83.625a3.52,3.52,0,1,1-3.52-3.517,3.521,3.521,0,0,1,3.52,3.517" transform="translate(45.42 40.804)" fill="#2971b9"/>
  </g>
</svg>
