<svg id="Grupo_2980" data-name="Grupo 2980" xmlns="http://www.w3.org/2000/svg" xmlns:xlink="http://www.w3.org/1999/xlink" width="139.717" height="131.303" viewBox="0 0 139.717 131.303">
  <defs>
    <clipPath id="clip-path">
      <rect id="Rectángulo_1576" data-name="Rectángulo 1576" width="139.716" height="131.303" fill="#0372bf"/>
    </clipPath>
  </defs>
  <g id="Grupo_2143" data-name="Grupo 2143" clip-path="url(#clip-path)">
    <path id="Trazado_2223" data-name="Trazado 2223" d="M62.73,121.54A2.734,2.734,0,0,1,60,118.81V84.889a2.73,2.73,0,0,1,5.46,0V118.81a2.734,2.734,0,0,1-2.73,2.73" transform="translate(7.128 9.763)" fill="#0372bf" fill-rule="evenodd"/>
    <path id="Trazado_2224" data-name="Trazado 2224" d="M54.433,124.276a8.937,8.937,0,0,1-8.927-8.927v-53.5a2.73,2.73,0,0,1,5.46,0v53.5a3.47,3.47,0,0,0,3.467,3.465H74.47a3.47,3.47,0,0,0,3.466-3.465v-53.5a2.73,2.73,0,0,1,5.46,0v53.5a8.933,8.933,0,0,1-8.925,8.927Z" transform="translate(5.406 7.026)" fill="#0372bf" fill-rule="evenodd"/>
    <path id="Trazado_2225" data-name="Trazado 2225" d="M81.789,93.771a2.73,2.73,0,0,1,0-5.46h7.837v-39.7A12.771,12.771,0,0,0,76.869,35.853H54.282A12.771,12.771,0,0,0,41.524,48.609v39.7h7.827a2.665,2.665,0,0,1,2.714,2.733,2.784,2.784,0,0,1-.675,1.844,2.649,2.649,0,0,1-2.031.883H38.792a2.734,2.734,0,0,1-2.73-2.73V48.609A18.238,18.238,0,0,1,54.28,30.392H76.867A18.238,18.238,0,0,1,95.086,48.609V91.04a2.727,2.727,0,0,1-2.73,2.729v0Z" transform="translate(4.284 3.611)" fill="#0372bf" fill-rule="evenodd"/>
    <path id="Trazado_2226" data-name="Trazado 2226" d="M64.186,32.886A16.443,16.443,0,1,1,80.63,16.443,16.462,16.462,0,0,1,64.186,32.886m0-27.426A10.983,10.983,0,1,0,75.169,16.443,11,11,0,0,0,64.186,5.46" transform="translate(5.672)" fill="#0372bf" fill-rule="evenodd"/>
    <path id="Trazado_2227" data-name="Trazado 2227" d="M22.248,120.874a2.734,2.734,0,0,1-2.73-2.73V90.494a2.73,2.73,0,0,1,5.46,0v27.65a2.734,2.734,0,0,1-2.73,2.73" transform="translate(2.319 10.429)" fill="#0372bf" fill-rule="evenodd"/>
    <path id="Trazado_2228" data-name="Trazado 2228" d="M15.485,123.1a7.789,7.789,0,0,1-7.78-7.78V71.714a2.66,2.66,0,0,1,2.73-2.708,2.66,2.66,0,0,1,2.73,2.708v43.61a2.321,2.321,0,0,0,2.32,2.318H31.819a2.321,2.321,0,0,0,2.319-2.318V71.714a2.73,2.73,0,0,1,5.46,0v43.61a7.789,7.789,0,0,1-7.779,7.781Z" transform="translate(0.915 8.198)" fill="#0372bf" fill-rule="evenodd"/>
    <path id="Trazado_2229" data-name="Trazado 2229" d="M23.435,48.609A13.908,13.908,0,1,1,37.344,34.7,13.925,13.925,0,0,1,23.435,48.609m0-22.358A8.448,8.448,0,1,0,31.883,34.7a8.458,8.458,0,0,0-8.448-8.449" transform="translate(1.132 2.47)" fill="#0372bf" fill-rule="evenodd"/>
    <path id="Trazado_2230" data-name="Trazado 2230" d="M37.779,98.238a2.73,2.73,0,0,1,0-5.46h5.86c-.006-.166-.012-.332-.018-.5-.079-2.113-.148-3.939.9-5.022a2.516,2.516,0,0,1,1.875-.748,2.732,2.732,0,0,1,2.73,2.729v6.271a2.732,2.732,0,0,1-2.73,2.728Zm-35.049,0A2.733,2.733,0,0,1,0,95.51V60.921A15.373,15.373,0,0,1,15.356,45.565H33.768c4.641,0,10.727,3.031,11.84,5.9a2.774,2.774,0,0,1-2.445,3.73A4.236,4.236,0,0,1,40.5,53.759a9.151,9.151,0,0,0-6.731-2.735H15.356a9.906,9.906,0,0,0-9.9,9.895V92.776h5.877a2.658,2.658,0,0,1,2.037.886,2.8,2.8,0,0,1,.676,1.848,2.657,2.657,0,0,1-2.7,2.729Z" transform="translate(0 5.413)" fill="#0372bf" fill-rule="evenodd"/>
    <path id="Trazado_2231" data-name="Trazado 2231" d="M103.216,120.874a2.733,2.733,0,0,1-2.729-2.73V90.494a2.729,2.729,0,0,1,5.459,0v27.65a2.731,2.731,0,0,1-2.73,2.73" transform="translate(11.938 10.429)" fill="#0372bf" fill-rule="evenodd"/>
    <path id="Trazado_2232" data-name="Trazado 2232" d="M96.452,123.1a7.788,7.788,0,0,1-7.78-7.78V71.714a2.731,2.731,0,0,1,5.461,0v43.61a2.32,2.32,0,0,0,2.318,2.318h16.336a2.321,2.321,0,0,0,2.319-2.318V71.714a2.73,2.73,0,0,1,5.46,0v43.61a7.785,7.785,0,0,1-7.778,7.781Z" transform="translate(10.535 8.198)" fill="#0372bf" fill-rule="evenodd"/>
    <path id="Trazado_2233" data-name="Trazado 2233" d="M118.752,98.238a2.73,2.73,0,0,1,0-5.46h5.884V60.921a9.907,9.907,0,0,0-9.895-9.9H96.328A9.143,9.143,0,0,0,89.6,53.76a4.234,4.234,0,0,1-2.664,1.432h0a2.775,2.775,0,0,1-2.446-3.73c1.113-2.866,7.2-5.9,11.839-5.9h18.412A15.372,15.372,0,0,1,130.1,60.919V95.507a2.737,2.737,0,0,1-2.732,2.731Zm-35.048,0a2.733,2.733,0,0,1-2.73-2.729V89.24a2.73,2.73,0,0,1,5.46-.007v3.545h5.877a2.73,2.73,0,0,1,.007,5.46Z" transform="translate(9.62 5.413)" fill="#0372bf" fill-rule="evenodd"/>
    <path id="Trazado_2234" data-name="Trazado 2234" d="M104.4,48.608A13.907,13.907,0,1,1,118.313,34.7,13.925,13.925,0,0,1,104.4,48.608m0-22.357a8.448,8.448,0,1,0,8.448,8.449,8.459,8.459,0,0,0-8.448-8.449" transform="translate(10.751 2.47)" fill="#0372bf" fill-rule="evenodd"/>
  </g>
</svg>
