<svg xmlns="http://www.w3.org/2000/svg" xmlns:xlink="http://www.w3.org/1999/xlink" width="15.109" height="19.829" viewBox="0 0 15.109 19.829">
  <defs>
    <clipPath id="clip-path">
      <rect id="Rectángulo_5493" data-name="Rectángulo 5493" width="15.109" height="19.829" fill="#fff" stroke="#9e9e9e" stroke-linecap="round" stroke-width="1"/>
    </clipPath>
  </defs>
  <g id="Grupo_13717" data-name="Grupo 13717" clip-path="url(#clip-path)">
    <path id="Trazado_5215" data-name="Trazado 5215" d="M17.549,5.019H7.707a.376.376,0,0,1-.345-.227L5.3,0H19.96L17.894,4.792a.376.376,0,0,1-.345.227" transform="translate(-5.074 0.001)" fill="#fff" stroke="#9e9e9e" stroke-linecap="round" stroke-width="1"/>
    <path id="Trazado_5216" data-name="Trazado 5216" d="M16.118,432.57l-1.555,1.572H28.449l-1.555-1.572a.32.32,0,0,0-.227-.095H16.346a.32.32,0,0,0-.227.095" transform="translate(-13.951 -414.312)" fill="#fff" stroke="#9e9e9e" stroke-linecap="round" stroke-width="1"/>
    <g id="Trazado_5217" data-name="Trazado 5217" transform="translate(0 -37.333)" fill="#fff" stroke-linecap="round">
      <path d="M 0.499997615814209 55.36865234375 L 0.499997615814209 41.39266967773438 L 1.080297589302063 42.73863983154297 C 1.342827558517456 43.34767150878906 1.941027641296387 43.7411994934082 2.604257583618164 43.7411994934082 L 12.50457763671875 43.7411994934082 C 13.16780757904053 43.7411994934082 13.76600742340088 43.34767150878906 14.0285472869873 42.73862075805664 L 14.60883808135986 41.39266204833984 L 14.60883808135986 55.36865234375 L 13.82614803314209 54.58785247802734 C 13.5481071472168 54.31045913696289 13.17865753173828 54.15768051147461 12.78586769104004 54.15768051147461 L 2.322967529296875 54.15768051147461 C 1.930177569389343 54.15768051147461 1.560727596282959 54.31045913696289 1.282667636871338 54.58787155151367 L 0.499997615814209 55.36865234375 Z" stroke="none"/>
      <path d="M 14.10883712768555 43.52779769897461 C 13.70648860931396 43.9743537902832 13.12758159637451 44.2411994934082 12.50457763671875 44.2411994934082 L 2.604257583618164 44.2411994934082 C 1.981261253356934 44.2411994934082 1.402346611022949 43.97434234619141 0.9999971389770508 43.52780151367188 L 0.9999971389770508 54.16690444946289 C 1.363286972045898 53.83779525756836 1.829367637634277 53.65768051147461 2.322967529296875 53.65768051147461 L 12.78586769104004 53.65768051147461 C 13.27946758270264 53.65768051147461 13.74558162689209 53.83782196044922 14.10883712768555 54.16690063476562 L 14.10883712768555 43.52779769897461 M 15.10883808135986 38.97000122070312 L 15.10883808135986 56.57369995117188 L 13.47301769256592 54.94182968139648 C 13.29062747955322 54.75986099243164 13.04351806640625 54.65768051147461 12.78586769104004 54.65768051147461 L 2.322967529296875 54.65768051147461 C 2.065317153930664 54.65768051147461 1.818207740783691 54.75986099243164 1.635817527770996 54.94182968139648 L -2.86102294921875e-06 56.57369995117188 L -2.86102294921875e-06 38.97005081176758 L 1.539427757263184 42.54069137573242 C 1.722707748413086 42.9658317565918 2.141327857971191 43.2411994934082 2.604257583618164 43.2411994934082 L 12.50457763671875 43.2411994934082 C 12.96750736236572 43.2411994934082 13.38612747192383 42.9658317565918 13.56939792633057 42.54069137573242 L 15.10883808135986 38.97000122070312 Z" stroke="none" fill="#9e9e9e"/>
    </g>
  </g>
</svg>
