<svg id="Grupo_1558" data-name="Grupo 1558" xmlns="http://www.w3.org/2000/svg" xmlns:xlink="http://www.w3.org/1999/xlink" width="12.891" height="15.352" viewBox="0 0 12.891 15.352">
  <defs>
    <clipPath id="clip-path">
      <rect id="Rectángulo_1160" data-name="Rectángulo 1160" width="12.891" height="15.352" fill="#003874"/>
    </clipPath>
  </defs>
  <g id="Grupo_1551" data-name="Grupo 1551" clip-path="url(#clip-path)">
    <path id="Trazado_1737" data-name="Trazado 1737" d="M48.75,4.475a4.565,4.565,0,0,0,.407-2.836A2.184,2.184,0,0,0,48.521.529L48.508.518a.346.346,0,0,0-.231-.081h-.386a.359.359,0,0,0-.263.621,1.988,1.988,0,0,1,.556,1.318A3.672,3.672,0,0,1,47.8,3.831a1.158,1.158,0,0,0-.167.609c.017.1.038.23.056.341h0l1.448,8.968-6.382.925.173,1.06,7.467-1.077Z" transform="translate(-37.503 -0.383)" fill="#003874"/>
    <path id="Trazado_1738" data-name="Trazado 1738" d="M5.872,10.388a1.156,1.156,0,0,0,1.325.931l.393-.072a1.16,1.16,0,0,0,.929-.994,1.145,1.145,0,0,0,.737.115l.409-.074a.752.752,0,0,0,.084-.024,1.148,1.148,0,0,0,.9-1.309V8.881l-.018-.018L9.526,2.847l-.049-.2h-.2l-.564.1-.2.049v.227l1.072,5.8a.411.411,0,0,1-.27.476.381.381,0,0,1-.474-.257A.357.357,0,0,1,8.826,9L7.947,4.22l-1.385.408.951,5.133a.41.41,0,0,1-.266.475.381.381,0,0,1-.47-.261c0-.01-.005-.02-.007-.027l-.942-5.1-1.384.4.686,3.714a.408.408,0,0,1-.269.475.383.383,0,0,1-.476-.259c0-.013-.007-.026-.009-.039L3.708,5.467l-1.383.405.439,2.415a.405.405,0,0,1-.26.474A.382.382,0,0,1,2.036,8.5c0-.011-.006-.022-.008-.037s-.6-2.914-.779-4.379A21.127,21.127,0,0,1,1.094.893C1.1.437,1.1.326,1.049.229L1.038.211A.46.46,0,0,0,.979.14L.968.129A.694.694,0,0,0,.443.007a.477.477,0,0,0-.352.2,15.286,15.286,0,0,0,.1,3.961c.2,1.475.869,4.745.875,4.774A1.149,1.149,0,0,0,2.4,9.859l.467-.086a1.139,1.139,0,0,0,.605-.323l.025.138a1.168,1.168,0,0,0,.617.823,1.152,1.152,0,0,0,.726.1l.377-.07a1.143,1.143,0,0,0,.608-.322Z" transform="translate(0 0)" fill="#003874"/>
  </g>
</svg>
