<svg id="Grupo_6" data-name="Grupo 6" xmlns="http://www.w3.org/2000/svg" width="23.881" height="23.845" viewBox="0 0 23.881 23.845">
  <path id="Trazado_91" data-name="Trazado 91" d="M1476.875,1247.415q-5.019,0-10.039,0a1.625,1.625,0,0,1-1.83-1.789q-.013-10.123,0-20.247a1.705,1.705,0,0,1,1.812-1.8q10.1-.011,20.191,0a1.775,1.775,0,0,1,1.863,1.841q.013,10.1,0,20.191a1.709,1.709,0,0,1-1.849,1.807Q1481.952,1247.418,1476.875,1247.415Zm1.013-3.484c0-1.985-.012-3.92.009-5.854a5.9,5.9,0,0,1,.193-1.384,1.8,1.8,0,0,1,1.786-1.286,1.625,1.625,0,0,1,1.865,1.188,6.414,6.414,0,0,1,.261,1.658c.03,1.71,0,3.421,0,5.132,0,.18.019.36.029.531h3.221v-.65c0-2.106.01-4.211-.007-6.317a8.167,8.167,0,0,0-.16-1.559,3.952,3.952,0,0,0-5.866-2.413,15.746,15.746,0,0,0-1.465,1.222c-.03-.49-.056-.93-.088-1.454-.857,0-1.7.029-2.536-.011-.51-.024-.629.158-.626.644.02,3.365.01,6.73.011,10.1,0,.146.014.292.023.458Zm-5.743-11.187c-.943,0-1.859.019-2.773-.008-.441-.013-.575.12-.572.574.019,3.384.01,6.767.012,10.151,0,.16.022.319.032.448h3.3Zm.239-3.613a1.812,1.812,0,0,0-1.852-1.945,1.84,1.84,0,0,0-1.988,1.943,1.92,1.92,0,1,0,3.84,0Z" transform="translate(-1465.001 -1223.571)" fill="#fff"/>
</svg>
