<svg xmlns="http://www.w3.org/2000/svg" xmlns:xlink="http://www.w3.org/1999/xlink" width="33.476" height="38" viewBox="0 0 33.476 38">
  <defs>
    <clipPath id="clip-path">
      <rect id="Rectángulo_1461" data-name="Rectángulo 1461" width="33.476" height="38" fill="#fff"/>
    </clipPath>
  </defs>
  <g id="Grupo_1954" data-name="Grupo 1954" transform="translate(-1061.5 -164)">
    <g id="Grupo_1946" data-name="Grupo 1946" transform="translate(1061.5 164)">
      <g id="Grupo_1945" data-name="Grupo 1945" clip-path="url(#clip-path)">
        <path id="Trazado_2176" data-name="Trazado 2176" d="M24.429,18.1a9.412,9.412,0,0,1,1.558.13l.313,1.3a3.619,3.619,0,0,0,4.366,2.669l.177-.047,1.088-.324a10.05,10.05,0,0,1,1.545,2.841l-.809.78a3.618,3.618,0,0,0-.306,4.882l.255.284.86.829a10.08,10.08,0,0,1-1.544,2.839l-1.089-.322a3.62,3.62,0,0,0-4.5,2.445l-.047.177-.313,1.3a9.391,9.391,0,0,1-3.118,0l-.311-1.3a3.619,3.619,0,0,0-4.366-2.669l-.177.047-1.089.322a10.08,10.08,0,0,1-1.544-2.839l.809-.78a3.616,3.616,0,0,0,.306-4.882l-.255-.284-.86-.829a10.08,10.08,0,0,1,1.544-2.839l1.089.322a3.62,3.62,0,0,0,4.5-2.445l.047-.177.311-1.3a9.451,9.451,0,0,1,1.56-.13M17.643,0a4.071,4.071,0,0,1,4.071,4.071V16.6A11.739,11.739,0,0,0,19,17.61V4.071a1.358,1.358,0,0,0-1.357-1.357H4.071A1.358,1.358,0,0,0,2.714,4.071V32.119a1.358,1.358,0,0,0,1.357,1.357l9.922,0a11.791,11.791,0,0,0,1.949,2.714l-11.87,0A4.071,4.071,0,0,1,0,32.119V4.071A4.071,4.071,0,0,1,4.071,0ZM8.593,28.055l4.073-.009a11.782,11.782,0,0,0,.315,2.716L8.6,30.769a1.357,1.357,0,0,1,0-2.714m15.835-2.722a2.716,2.716,0,1,0,2.624,2.714,2.67,2.67,0,0,0-2.624-2.714" fill="#fff"/>
      </g>
    </g>
    <path id="Trazado_2177" data-name="Trazado 2177" d="M3.255,0V4.882H0l5.7,5.7,5.7-5.7H8.136V0Z" transform="translate(1078.238 179.562) rotate(180)" fill="#fff"/>
  </g>
</svg>
