<svg id="Grupo_7104" data-name="Grupo 7104" xmlns="http://www.w3.org/2000/svg" width="96.625" height="117.396" viewBox="0 0 96.625 117.396">
  <path id="Trazado_133" data-name="Trazado 133" d="M2113.671,1323.111h10.611c5.868,22.822,14.445,29.759,38,29.26,10.328-.217,18.429,2.358,25.365,10.37,6.734,7.781,14.609,14.575,22.649,22.453-3.378,2.373-6.189,4.35-10.318,7.249-5.617-6.445-12.347-14.162-19.079-21.877l-2.268,1.225v68.458h-11.479v-34.409h-12.415v34.135h-10.828c-.146-2.581-.419-5.256-.426-7.932-.035-20.174-.289-40.354.142-60.519.134-6.366-1.586-9.779-7.546-12.688C2121.728,1351.825,2114.921,1339.458,2113.671,1323.111Z" transform="translate(-2113.671 -1322.852)" fill="#2971b9"/>
  <path id="Trazado_134" data-name="Trazado 134" d="M2152.913,1322.913a11.626,11.626,0,0,1,11.19,11.776,11.461,11.461,0,0,1-11.7,11.207,11.173,11.173,0,0,1-11.1-11.711A11.394,11.394,0,0,1,2152.913,1322.913Z" transform="translate(-2105.377 -1322.911)" fill="#2971b9"/>
</svg>
