<?xml version="1.0" encoding="utf-8"?>
<!-- Generator: Adobe Illustrator 28.1.0, SVG Export Plug-In . SVG Version: 6.00 Build 0)  -->
<svg version="1.1" id="Capa_1" xmlns="http://www.w3.org/2000/svg" xmlns:xlink="http://www.w3.org/1999/xlink" x="0px" y="0px"
	 viewBox="0 0 24 24" style="enable-background:new 0 0 24 24;" xml:space="preserve">
<style type="text/css">
	.st0{fill:#FFFFFF;}
</style>
<g id="Grupo_5456" transform="translate(12.168 9.91)">
	<g id="Grupo_5455">
		<g id="Grupo_5452" transform="translate(10.67 13.561)">
			<path id="Trazado_2599" class="st0" d="M-10.3-3.1v2.3H-8l5.5-5.5l-2.3-2.3L-10.3-3.1z"/>
		</g>
		<g id="Grupo_5453">
			<path id="Trazado_2600" class="st0" d="M6.8-2.2L0.4-8.6h-8.5c-1.2,0-2.1,1-2.1,2.1l0,17.1c0,1.2,0.9,2.1,2.1,2.1h6.4V9.6
				l8.5-8.5L6.8-2.2z M-0.7-1.1V-7l5.9,5.9H-0.7z"/>
		</g>
		<g id="Grupo_5454" transform="translate(16.943 11.734)">
			<path id="Trazado_2601" class="st0" d="M-7.3-7.5L-8-8.3c-0.4-0.4-1.1-0.4-1.5,0l-0.8,0.8L-8-5.2L-7.3-6
				C-6.9-6.4-6.9-7.1-7.3-7.5C-7.3-7.5-7.3-7.5-7.3-7.5z"/>
		</g>
	</g>
</g>
</svg>
