<?xml version="1.0" encoding="utf-8"?>
<!-- Generator: Adobe Illustrator 28.1.0, SVG Export Plug-In . SVG Version: 6.00 Build 0)  -->
<svg version="1.1" id="Capa_1" xmlns="http://www.w3.org/2000/svg" xmlns:xlink="http://www.w3.org/1999/xlink" x="0px" y="0px"
	 viewBox="0 0 48 48" style="enable-background:new 0 0 48 48;" xml:space="preserve">
<style type="text/css">
	.st0{fill:#FFFFFF;}
</style>
<path id="Trazado_2610" class="st0" d="M31.7,16.6L20.6,27.6l-6-6L12.2,24l8.4,8.4L34.1,19L31.7,16.6z M24,7.2
	C14.7,7.2,7.2,14.7,7.2,24S14.7,40.8,24,40.8c9.3,0,16.8-7.5,16.8-16.8l0,0C40.8,14.7,33.3,7.2,24,7.2L24,7.2z M24,37.4
	c-7.4,0-13.4-6-13.4-13.4s6-13.4,13.4-13.4c7.4,0,13.4,6,13.4,13.4c0,0,0,0,0,0C37.4,31.4,31.4,37.4,24,37.4
	C24,37.4,24,37.4,24,37.4L24,37.4z"/>
</svg>
