<?xml version="1.0" encoding="utf-8"?>
<!-- Generator: Adobe Illustrator 28.1.0, SVG Export Plug-In . SVG Version: 6.00 Build 0)  -->
<svg version="1.1" id="Capa_1" xmlns="http://www.w3.org/2000/svg" xmlns:xlink="http://www.w3.org/1999/xlink" x="0px" y="0px"
	 viewBox="0 0 24 24" style="enable-background:new 0 0 24 24;" xml:space="preserve">
<style type="text/css">
	.st0{enable-background:new    ;}
	.st1{fill:#FFFFFF;}
	.st2{fill:none;stroke:#FFFFFF;}
</style>
<g class="st0">
	<path class="st1" d="M6.1,7.8v5.6c0,0.9-0.2,1.5-0.7,2c-0.5,0.5-1.2,0.7-2,0.7c-0.9,0-1.6-0.2-2.1-0.7c-0.5-0.5-0.8-1.2-0.8-2.1h2
		c0,0.3,0.1,0.6,0.2,0.8c0.1,0.2,0.3,0.3,0.6,0.3c0.2,0,0.4-0.1,0.6-0.2C4,14,4.1,13.8,4.1,13.5V7.8H6.1z"/>
	<path class="st1" d="M11.9,9.4v1.7h2.7v1.6h-2.7v1.8H15v1.6H9.9V7.8H15v1.6H11.9z"/>
	<path class="st1" d="M20.5,9.4v1.7h2.7v1.6h-2.7v1.8h3.1v1.6h-5.1V7.8h5.1v1.6H20.5z"/>
</g>
<g class="st0">
	<path class="st2" d="M6.1,7.8v5.6c0,0.9-0.2,1.5-0.7,2c-0.5,0.5-1.2,0.7-2,0.7c-0.9,0-1.6-0.2-2.1-0.7c-0.5-0.5-0.8-1.2-0.8-2.1h2
		c0,0.3,0.1,0.6,0.2,0.8c0.1,0.2,0.3,0.3,0.6,0.3c0.2,0,0.4-0.1,0.6-0.2C4,14,4.1,13.8,4.1,13.5V7.8H6.1z"/>
	<path class="st2" d="M11.9,9.4v1.7h2.7v1.6h-2.7v1.8H15v1.6H9.9V7.8H15v1.6H11.9z"/>
	<path class="st2" d="M20.5,9.4v1.7h2.7v1.6h-2.7v1.8h3.1v1.6h-5.1V7.8h5.1v1.6H20.5z"/>
</g>
</svg>
