<?xml version="1.0" encoding="UTF-8"?>
<svg id="Capa_1" data-name="Capa 1" xmlns="http://www.w3.org/2000/svg" viewBox="0 0 214.74 214.74">
  <defs>
    <style>
      .cls-1 {
        fill: #E6233C;
      }

      .cls-1, .cls-2 {
        stroke-width: 0px;
      }

      .cls-2 {
        fill: #fff;
      }
    </style>
  </defs>
  <path class="cls-1" d="M107.42,214.74C48.22,214.8-.01,166.58,0,107.36.01,48.12,48.25-.08,107.45,0c59.18.08,107.18,48.06,107.3,107.26.12,59.18-48.06,107.44-107.32,107.49Z"/>
  <g>
    <path class="cls-2" d="M163.95,56.53c-2.01-4.15-5.36-6.52-10.07-6.83-4.16-.28-7.36,1.5-10.22,4.37-18.28,18.33-36.59,36.63-54.89,54.94v.03c-11.47,11.47-22.94,22.94-34.4,34.41-.84.84-1.69,1.71-2.38,2.68-2.71,3.79-3.23,7.89-1.2,12.1,2.01,4.15,5.36,6.52,10.07,6.83,4.16.28,7.36-1.5,10.22-4.37,18.28-18.33,36.59-36.63,54.89-54.94v-.03c11.47-11.47,22.94-22.94,34.4-34.41.84-.84,1.69-1.71,2.38-2.68,2.71-3.79,3.23-7.89,1.2-12.1Z"/>
    <path class="cls-2" d="M158.22,163.95c4.15-2.01,6.52-5.36,6.83-10.07.28-4.16-1.5-7.36-4.37-10.22-18.33-18.28-36.63-36.59-54.94-54.89h-.03c-11.47-11.47-22.94-22.94-34.41-34.4-.84-.84-1.71-1.69-2.68-2.38-3.79-2.71-7.89-3.23-12.1-1.2-4.15,2.01-6.52,5.36-6.83,10.07-.28,4.16,1.5,7.36,4.37,10.22,18.33,18.28,36.63,36.59,54.94,54.89h.03c11.47,11.47,22.94,22.94,34.41,34.4.84.84,1.71,1.69,2.68,2.38,3.79,2.71,7.89,3.23,12.1,1.2Z"/>
  </g>
</svg>