<svg id="Grupo_13805" data-name="Grupo 13805" xmlns="http://www.w3.org/2000/svg" xmlns:xlink="http://www.w3.org/1999/xlink" width="19.405" height="19.407" viewBox="0 0 19.405 19.407">
  <defs>
    <clipPath id="clip-path">
      <rect id="Rectángulo_1213" data-name="Rectángulo 1213" width="19.405" height="19.407" fill="#ff7f27"/>
    </clipPath>
  </defs>
  <g id="Grupo_1724" data-name="Grupo 1724" clip-path="url(#clip-path)">
    <path id="Trazado_2149" data-name="Trazado 2149" d="M0,9.663C0,7.279,0,4.894.006,2.51.014.775.775.006,2.484,0Q9.688,0,16.893,0c1.714,0,2.5.782,2.507,2.492q.013,7.153,0,14.306c0,1.754-.812,2.59-2.545,2.595q-7.153.02-14.306,0c-1.765-.005-2.536-.8-2.543-2.58C0,14.432,0,12.048,0,9.663m2.214,6.408H17.181L12.394,9.7,8.619,14.52l-2.711-3.2-3.69,4.751" transform="translate(0 0)" fill="#ff7f27"/>
  </g>
</svg>
