<svg xmlns="http://www.w3.org/2000/svg" width="21.418" height="21.418" viewBox="0 0 21.418 21.418">
  <path id="x_circle_24dp_003770_FILL0_wght400_GRAD0_opsz24" d="M85.783-863.669h2.008l2.865-4.391,2.891,4.391h2.088l-3.882-5.836,3.561-5.408H93.306l-2.624,4.069-2.624-4.069H86l3.614,5.435Zm4.926,5.087a10.428,10.428,0,0,1-4.177-.843,10.815,10.815,0,0,1-3.4-2.289,10.815,10.815,0,0,1-2.289-3.4A10.428,10.428,0,0,1,80-869.291a10.428,10.428,0,0,1,.843-4.177,10.813,10.813,0,0,1,2.289-3.4,10.813,10.813,0,0,1,3.4-2.289A10.427,10.427,0,0,1,90.709-880a10.427,10.427,0,0,1,4.177.843,10.813,10.813,0,0,1,3.4,2.289,10.814,10.814,0,0,1,2.289,3.4,10.428,10.428,0,0,1,.843,4.177,10.428,10.428,0,0,1-.843,4.177,10.816,10.816,0,0,1-2.289,3.4,10.815,10.815,0,0,1-3.4,2.289A10.428,10.428,0,0,1,90.709-858.582Zm0-2.142a8.259,8.259,0,0,0,6.064-2.5,8.259,8.259,0,0,0,2.5-6.064,8.259,8.259,0,0,0-2.5-6.064,8.259,8.259,0,0,0-6.064-2.5,8.259,8.259,0,0,0-6.064,2.5,8.259,8.259,0,0,0-2.5,6.064,8.259,8.259,0,0,0,2.5,6.064A8.259,8.259,0,0,0,90.709-860.724ZM90.709-869.291Z" transform="translate(-80 880)" fill="#ed1c25"/>
</svg>
