<svg xmlns="http://www.w3.org/2000/svg" xmlns:xlink="http://www.w3.org/1999/xlink" width="18.5" height="21" viewBox="0 0 18.5 21">
  <defs>
    <clipPath id="clip-path">
      <rect id="Rectángulo_1461" data-name="Rectángulo 1461" width="18.5" height="21" fill="#003770"/>
    </clipPath>
  </defs>
  <g id="Grupo_1947" data-name="Grupo 1947" transform="translate(-1061.5 -164)">
    <g id="Grupo_1946" data-name="Grupo 1946" transform="translate(1061.5 164)">
      <g id="Grupo_1945" data-name="Grupo 1945" clip-path="url(#clip-path)">
        <path id="Trazado_2176" data-name="Trazado 2176" d="M13.5,10a5.2,5.2,0,0,1,.861.072l.173.716a2,2,0,0,0,2.413,1.475l.1-.026.6-.179a5.554,5.554,0,0,1,.854,1.57l-.447.431a2,2,0,0,0-.169,2.7l.141.157.475.458a5.571,5.571,0,0,1-.853,1.569l-.6-.178a2,2,0,0,0-2.485,1.351l-.026.1-.173.716a5.19,5.19,0,0,1-1.723,0l-.172-.716a2,2,0,0,0-2.413-1.475l-.1.026-.6.178A5.571,5.571,0,0,1,8.5,17.372l.447-.431a2,2,0,0,0,.169-2.7l-.141-.157L8.5,13.628a5.571,5.571,0,0,1,.853-1.569l.6.178a2,2,0,0,0,2.485-1.351l.026-.1.172-.716A5.223,5.223,0,0,1,13.5,10M9.75,0A2.25,2.25,0,0,1,12,2.25V9.174a6.488,6.488,0,0,0-1.5.558V2.25a.75.75,0,0,0-.75-.75H2.25a.75.75,0,0,0-.75.75v15.5a.75.75,0,0,0,.75.75H7.733A6.516,6.516,0,0,0,8.81,20H2.25A2.25,2.25,0,0,1,0,17.75V2.25A2.25,2.25,0,0,1,2.25,0Zm-5,15.5L7,15.5A6.511,6.511,0,0,0,7.174,17L4.751,17a.75.75,0,0,1,0-1.5M13.5,14a1.5,1.5,0,1,0,1.45,1.5A1.476,1.476,0,0,0,13.5,14" fill="#003770"/>
      </g>
    </g>
    <path id="Trazado_2177" data-name="Trazado 2177" d="M1.8,0V2.7H0L3.148,5.846,6.3,2.7H4.5V0Z" transform="translate(1070.75 172.6) rotate(180)" fill="#003770"/>
  </g>
</svg>
