<svg id="Grupo_1556" data-name="Grupo 1556" xmlns="http://www.w3.org/2000/svg" xmlns:xlink="http://www.w3.org/1999/xlink" width="18.873" height="12.145" viewBox="0 0 18.873 12.145">
  <defs>
    <clipPath id="clip-path">
      <rect id="Rectángulo_1158" data-name="Rectángulo 1158" width="18.873" height="12.145" fill="#003874"/>
    </clipPath>
  </defs>
  <g id="Grupo_1547" data-name="Grupo 1547" clip-path="url(#clip-path)">
    <path id="Trazado_1731" data-name="Trazado 1731" d="M8.586,12.145A9.879,9.879,0,0,1,.126,6.533a.932.932,0,0,1,.019-.966A10.245,10.245,0,0,1,10.094.034,9.963,9.963,0,0,1,18.128,4.7c.994,1.56.985,1.15.022,2.717-1.836,2.988-5.111,4.722-9.565,4.727m.807-1.962c.343-.046.692-.068,1.03-.143A4.038,4.038,0,0,0,13.251,4.2,4.425,4.425,0,0,0,8.257,2.123,4.172,4.172,0,0,0,5.08,5.766a4.213,4.213,0,0,0,4.312,4.417" transform="translate(0 0)" fill="#003874"/>
    <path id="Trazado_1732" data-name="Trazado 1732" d="M74.485,38.581a2.472,2.472,0,0,1,2.544,2.437,2.576,2.576,0,1,1-2.544-2.437" transform="translate(-65.067 -34.922)" fill="#003874"/>
  </g>
</svg>
