<svg xmlns="http://www.w3.org/2000/svg" width="36" height="35" viewBox="0 0 36 35"><g transform="translate(15751 -2589)"><g transform="translate(-15750.668 2588.547)"><rect width="36" height="35" transform="translate(-0.332 0.453)" fill="#2a71b9"/></g><path d="M2.055,11.647V4.368H0L3.882,0,7.765,4.368H5.709v7.279Z" transform="translate(-15746.727 2597.943) rotate(-45)" fill="#fff"/><path d="M2.022,11.078V4.154H0L3.82,0,7.64,4.154H5.618v6.924Z" transform="translate(-15724.49 2592.726) rotate(45)" fill="#fff"/><path d="M2.055,11.647V4.368H0L3.882,0,7.765,4.368H5.709v7.279Z" transform="translate(-15719.273 2614.415) rotate(135)" fill="#fff"/><path d="M2.022,11.078V4.154H0L3.82,0,7.64,4.154H5.618v6.924Z" transform="translate(-15741.51 2620.547) rotate(-135)" fill="#fff"/></g></svg>